<svg width="360" height="360" viewBox="0 0 360 360" fill="none" xmlns="http://www.w3.org/2000/svg">
<g clip-path="url(#clip0_1482_947)">
<path d="M292.498 115.233C288.133 115.465 284.801 117.424 282.089 119.203H282.063V115.233C282.063 112.371 284.387 110.025 287.281 110.025C290.173 110.051 292.498 112.371 292.498 115.233Z" fill="white"/>
<path d="M282.088 119.634H282.063C281.948 119.634 281.839 119.588 281.758 119.508C281.677 119.427 281.632 119.317 281.632 119.203V115.233C281.632 112.123 284.165 109.594 287.28 109.594C290.397 109.622 292.929 112.151 292.929 115.233C292.929 115.343 292.887 115.449 292.811 115.529C292.735 115.609 292.631 115.657 292.521 115.663C288.254 115.89 285.021 117.795 282.325 119.563C282.255 119.609 282.173 119.634 282.088 119.634ZM287.277 110.456C284.641 110.456 282.494 112.599 282.494 115.233V118.427C285.063 116.784 288.113 115.14 292.05 114.831C291.843 112.406 289.781 110.478 287.277 110.456Z" fill="#232323"/>
<path d="M151.887 138.66L171.202 158.546L184.04 216.349L140.775 243.832L112.75 135.626L151.887 138.66Z" fill="white"/>
<path d="M192.15 275.389L181.379 276.266C181.379 276.266 168.981 248.628 166.32 238.934C167.07 214.648 157.822 177.341 157.822 177.341C157.822 177.341 151.469 178.822 151.908 169.437C151.908 169.437 153.874 162.277 153.681 157.681C155.127 157.681 167.018 157.798 170.35 169.658C170.892 173.577 174.405 170.251 172.132 172.701L183.445 207.377L192.15 275.389Z" fill="#1C5AF6"/>
<path d="M152.866 178.695C152.754 178.694 152.647 178.649 152.568 178.571C152.488 178.492 152.442 178.386 152.44 178.274C152.437 178.162 152.478 178.054 152.554 177.972C152.63 177.89 152.735 177.84 152.847 177.834C159.828 177.513 169.137 175.514 172.397 170.939C172.464 170.846 172.564 170.783 172.677 170.764C172.79 170.745 172.905 170.772 172.999 170.838C173.092 170.904 173.155 171.005 173.174 171.117C173.193 171.23 173.166 171.346 173.1 171.439C171.445 173.76 168.346 175.603 163.887 176.916C160.632 177.874 156.623 178.522 152.886 178.694C152.879 178.695 152.873 178.695 152.866 178.695ZM301.073 116.909C297.819 115.542 294.978 115.104 292.472 115.233C288.107 115.491 284.775 117.424 282.063 119.203H282.037C279.919 120.621 278.498 122.838 278.111 125.365C278.034 125.851 278.008 126.343 278.034 126.834L277.956 126.912C274.96 130.289 275.606 132.739 276.819 134.208C277.104 134.569 277.439 134.879 277.801 135.136C277.775 135.162 277.775 135.188 277.749 135.214C275.657 138.436 276.38 141.324 278.369 143.052C278.731 143.361 279.118 143.619 279.532 143.851C279.506 143.902 279.48 143.928 279.454 143.98C277.414 147.306 276.329 151.998 282.037 151.972C282.631 151.972 283.251 151.921 283.845 151.843C287.914 151.334 290.69 150.683 290.69 156.948L284.62 180.512C281.985 189.484 278.576 199.385 274.727 207.093C279.738 219.056 297.147 215.06 326.645 208.511C334.522 176.258 323.545 126.396 301.073 116.909Z" fill="white"/>
<path d="M289.789 215.207C281.415 215.207 276.619 212.725 274.329 207.259C274.305 207.202 274.294 207.141 274.296 207.079C274.298 207.017 274.314 206.956 274.341 206.901C278.515 198.541 282.008 187.875 284.204 180.397L290.259 156.893C290.252 154.657 289.876 153.242 289.108 152.567C288.149 151.725 286.512 151.935 284.44 152.201C284.262 152.224 284.081 152.248 283.898 152.271C283.205 152.361 282.558 152.403 281.988 152.403C279.903 152.403 278.5 151.791 277.82 150.584C276.611 148.438 278.208 145.253 278.939 144C278.641 143.814 278.356 143.607 278.089 143.379C276.23 141.764 275.058 138.796 277.226 135.237C276.951 135.01 276.701 134.754 276.48 134.475C274.065 131.551 276.121 128.346 277.595 126.67C277.583 126.213 277.613 125.753 277.685 125.298C278.087 122.679 279.585 120.326 281.797 118.846C281.829 118.825 281.863 118.808 281.9 118.795C284.851 116.865 288.174 115.056 292.446 114.803C295.242 114.661 298.197 115.235 301.24 116.512C301.241 116.512 301.241 116.512 301.241 116.513C306.713 118.823 311.686 123.516 316.023 130.461C319.969 136.783 323.301 144.945 325.658 154.066C330.399 172.416 330.924 192.808 327.063 208.614C327.044 208.692 327.004 208.763 326.946 208.819C326.889 208.875 326.817 208.915 326.738 208.932L325.867 209.125C311.316 212.357 299.822 214.909 291.261 215.183C290.759 215.199 290.268 215.207 289.789 215.207V215.207ZM275.202 207.107C277.498 212.377 282.456 214.606 291.233 214.322C299.713 214.05 311.172 211.505 325.679 208.284L326.288 208.149C330.049 192.511 329.504 172.399 324.822 154.28C319.869 135.108 311.151 121.631 300.905 117.305C297.942 116.061 295.19 115.523 292.494 115.663C290.07 115.806 287.155 116.378 282.299 119.563C282.269 119.582 282.238 119.598 282.204 119.61C280.233 120.959 278.898 123.075 278.537 125.43C278.464 125.887 278.439 126.35 278.463 126.812C278.467 126.872 278.457 126.932 278.435 126.989C278.414 127.045 278.38 127.096 278.338 127.139L278.269 127.207C275.415 130.43 276.086 132.643 277.151 133.934C277.404 134.255 277.705 134.538 278.051 134.785C278.097 134.818 278.137 134.86 278.167 134.909C278.197 134.957 278.217 135.011 278.226 135.068C278.235 135.124 278.233 135.181 278.219 135.237C278.206 135.292 278.182 135.345 278.148 135.391C278.133 135.419 278.115 135.445 278.096 135.47C276.342 138.189 276.549 140.9 278.652 142.726C278.963 142.992 279.32 143.238 279.742 143.475C279.839 143.529 279.911 143.618 279.943 143.724C279.976 143.83 279.966 143.944 279.917 144.043C279.897 144.081 279.875 144.119 279.851 144.154C279.847 144.16 279.843 144.165 279.839 144.172C279.834 144.183 279.828 144.194 279.821 144.204C278.66 146.096 277.722 148.655 278.571 150.161C279.087 151.077 280.237 151.541 281.989 151.541C282.529 151.542 283.131 151.501 283.789 151.416C283.973 151.392 284.153 151.369 284.329 151.347C286.527 151.064 288.426 150.82 289.677 151.92C290.662 152.785 291.12 154.383 291.12 156.947C291.12 156.983 291.116 157.02 291.107 157.054L285.037 180.619L285.033 180.633C282.843 188.092 279.365 198.716 275.202 207.107Z" fill="#232323"/>
<path d="M328.401 198.585C299.575 201.524 282.476 187.37 282.476 187.37C282.476 187.37 282.476 187.396 282.45 187.448C282.45 187.473 282.424 187.499 282.424 187.525C276.227 204.686 265.606 224.873 252.953 238.031C252.927 238.083 252.875 238.109 252.849 238.16C250.817 240.444 248.077 242.641 247.813 242.904C247.554 241.77 247.322 240.713 247.296 240.584C232.16 174.505 185.073 141.17 165.597 149.961C165.21 150.142 164.797 150.348 164.409 150.58H164.401C162.528 149.144 160.731 147.684 159.037 146.249C159.037 146.249 162.059 152.024 166.14 161.976C172.261 176.903 180.759 201.19 184.944 229.369C187.139 244.013 188.147 259.74 187.062 275.725C190.441 278.016 196.269 277.736 202.639 276.323C203.465 278.022 204.265 279.619 205.091 281.113C204.936 300.784 216.404 324.142 239.315 324.607C282.657 323.085 310.656 309.189 324.966 223.156C325.017 222.743 325.095 222.305 325.172 221.866C325.973 216.994 328.143 201.035 328.143 201.035V201.009C328.143 201.009 328.323 199.513 328.401 198.585Z" fill="white"/>
<path d="M239.315 325.037H239.306C225.863 324.765 217.688 316.875 213.197 310.305C207.708 302.275 204.6 291.681 204.659 281.222C203.989 280.006 203.303 278.668 202.4 276.816C195.105 278.393 189.865 278.146 186.82 276.08C186.757 276.038 186.707 275.98 186.674 275.913C186.641 275.845 186.626 275.77 186.632 275.695C187.629 261.004 186.917 245.439 184.517 229.432C180.38 201.566 172.023 177.457 165.741 162.138C161.716 152.323 158.685 146.505 158.655 146.448C158.608 146.359 158.594 146.257 158.615 146.16C158.636 146.062 158.689 145.974 158.768 145.912C158.846 145.85 158.943 145.816 159.043 145.818C159.143 145.819 159.239 145.855 159.315 145.92C161.046 147.386 162.769 148.779 164.439 150.065C164.723 149.906 165.04 149.746 165.415 149.571C171.249 146.937 179.48 147.978 188.596 152.499C200.264 158.285 212.227 169.116 222.284 182.996C227.89 190.734 232.845 199.323 237.012 208.522C241.552 218.545 245.153 229.3 247.716 240.488C247.737 240.593 247.886 241.27 248.074 242.107C248.992 241.322 250.964 239.625 252.502 237.903C252.535 237.854 252.569 237.818 252.592 237.796C252.606 237.774 252.623 237.753 252.642 237.733C258.579 231.559 264.33 223.597 269.734 214.067C274.495 205.672 278.738 196.456 282.007 187.411C282.014 187.381 282.024 187.352 282.037 187.324C282.042 187.307 282.048 187.29 282.056 187.274C282.072 187.202 282.107 187.136 282.156 187.081C282.205 187.027 282.268 186.986 282.338 186.962C282.407 186.939 282.482 186.934 282.554 186.947C282.626 186.96 282.694 186.992 282.751 187.039C282.793 187.074 287.088 190.586 294.825 193.695C301.961 196.562 313.571 199.664 328.357 198.157C328.42 198.15 328.484 198.158 328.543 198.178C328.603 198.199 328.658 198.233 328.703 198.278C328.794 198.368 328.841 198.493 328.83 198.621C328.758 199.479 328.598 200.831 328.573 201.034C328.573 201.053 328.572 201.073 328.569 201.092C328.548 201.251 326.39 217.113 325.597 221.935C325.521 222.365 325.444 222.803 325.393 223.208L325.391 223.225C318.549 264.359 308.363 290.622 293.334 305.875C286.563 312.747 278.636 317.571 269.102 320.621C261.028 323.204 251.568 324.606 239.33 325.036C239.325 325.037 239.32 325.037 239.315 325.037ZM202.64 275.892C202.721 275.892 202.8 275.914 202.868 275.957C202.937 276 202.992 276.061 203.027 276.134C204.023 278.183 204.753 279.61 205.468 280.904C205.504 280.969 205.522 281.042 205.522 281.116C205.441 291.44 208.498 301.902 213.909 309.819C218.284 316.22 226.242 323.906 239.312 324.175C251.463 323.748 260.845 322.358 268.839 319.801C278.237 316.795 286.049 312.042 292.72 305.271C307.618 290.151 317.728 264.039 324.539 223.093C324.593 222.669 324.672 222.223 324.748 221.791C325.522 217.082 327.607 201.774 327.712 201.005C327.712 200.989 327.713 200.973 327.715 200.957C327.79 200.327 327.86 199.696 327.924 199.065C313.194 200.468 301.617 197.357 294.468 194.479C288.02 191.884 284.008 189.078 282.682 188.078C279.416 197.047 275.203 206.171 270.485 214.491C265.054 224.067 259.27 232.076 253.294 238.298C253.269 238.333 253.241 238.366 253.21 238.396C253.199 238.413 253.186 238.43 253.172 238.446C251.543 240.276 249.446 242.067 248.551 242.832C248.341 243.011 248.161 243.166 248.117 243.209C248.063 243.263 247.995 243.302 247.92 243.321C247.846 243.34 247.767 243.339 247.693 243.318C247.619 243.296 247.552 243.255 247.499 243.199C247.447 243.144 247.41 243.074 247.393 242.999C247.129 241.839 246.9 240.797 246.874 240.668C244.326 229.547 240.743 218.848 236.228 208.877C232.084 199.73 227.158 191.192 221.586 183.501C211.61 169.731 199.759 158.995 188.214 153.27C179.333 148.866 171.364 147.83 165.775 150.353C165.318 150.567 164.953 150.757 164.631 150.949C164.483 151.038 164.277 151.026 164.14 150.921C162.858 149.938 161.594 148.932 160.348 147.905C161.551 150.365 163.82 155.182 166.539 161.812C172.839 177.175 181.22 201.355 185.371 229.306C187.766 245.282 188.485 260.823 187.509 275.502C190.431 277.333 195.487 277.468 202.546 275.902C202.577 275.895 202.608 275.892 202.64 275.892ZM253.235 238.353C253.235 238.353 253.235 238.354 253.234 238.354C253.235 238.354 253.235 238.353 253.235 238.353ZM252.568 237.837C252.568 237.838 252.568 237.838 252.567 237.839C252.568 237.838 252.568 237.838 252.568 237.837Z" fill="#232323"/>
<path d="M210.179 277.134C210.065 277.134 209.956 277.089 209.875 277.009C209.794 276.929 209.749 276.82 209.748 276.706C209.645 254.941 206.922 234.561 201.654 216.132C194.706 190.7 180.64 166.291 164.027 150.833C163.944 150.755 163.894 150.647 163.89 150.533C163.886 150.419 163.928 150.308 164.006 150.225C164.084 150.141 164.191 150.092 164.306 150.088C164.42 150.084 164.531 150.125 164.615 150.203C181.34 165.765 195.497 190.325 202.484 215.9C207.773 234.4 210.507 254.859 210.61 276.702C210.611 276.816 210.566 276.926 210.485 277.007C210.405 277.088 210.296 277.134 210.181 277.134H210.179Z" fill="#232323"/>
<path d="M197.833 322.982C197.678 323.059 197.497 323.137 197.316 323.214C188.431 325.792 179.83 328.138 171.538 330.227C171.047 330.356 170.531 330.484 170.04 330.588C121.093 342.731 82.6847 345.773 55.7705 338.064C45.413 334.635 36.0109 329.531 28.2619 322.286C27.2805 321.461 26.3246 320.584 25.3949 319.682C14.0298 306.507 8.88995 287.352 10.3105 261.544C13.6426 202.839 47.0658 165.791 67.4715 148.466C89.2457 129.826 103.994 136.89 107.74 141.118V141.092C107.946 140.654 108.179 140.216 108.36 139.829C110.607 135.343 111.821 132.945 111.821 132.945C111.821 132.945 161.207 180.796 181.793 276.705L178.306 279.824C179.753 287.971 183.653 305.683 191.686 316.718C193.545 319.218 195.56 321.358 197.832 322.982H197.833Z" fill="white"/>
<path d="M90.3325 342.713C77.1143 342.713 65.4917 341.297 55.6512 338.479C55.6456 338.477 55.64 338.475 55.6344 338.473C44.6565 334.839 35.3507 329.502 27.975 322.608C27.0451 321.826 26.1026 320.97 25.0942 319.991C25.085 319.982 25.0761 319.973 25.0677 319.963C19.338 313.322 15.157 305.078 12.6404 295.46C10.1024 285.761 9.17355 274.342 9.87956 261.521C11.3512 235.593 18.8334 211.283 32.1187 189.265C43.7238 170.032 57.5972 156.284 67.1918 148.138C72.2829 143.779 77.3514 140.524 82.2551 138.463C86.4331 136.706 90.5069 135.806 94.3637 135.786L94.4923 135.786C100.761 135.786 105.35 138.15 107.615 140.365C107.635 140.325 107.654 140.286 107.674 140.248C107.778 140.039 107.88 139.836 107.969 139.647C110.196 135.201 111.424 132.775 111.436 132.751C111.466 132.691 111.51 132.638 111.565 132.598C111.619 132.558 111.682 132.532 111.749 132.52C111.884 132.498 112.022 132.541 112.12 132.636C112.244 132.756 124.676 144.91 139.452 168.631C148.127 182.557 155.906 197.691 162.572 213.614C170.904 233.515 177.513 254.711 182.214 276.613C182.23 276.688 182.226 276.765 182.202 276.837C182.179 276.909 182.136 276.974 182.08 277.024L178.772 279.984C180.114 287.465 184.019 305.455 192.033 316.463C194.003 319.112 195.983 321.13 198.083 322.631C198.144 322.674 198.192 322.733 198.223 322.8C198.254 322.867 198.268 322.941 198.262 323.015C198.256 323.089 198.231 323.161 198.19 323.222C198.148 323.284 198.091 323.334 198.025 323.367C197.859 323.45 197.669 323.531 197.485 323.609C197.469 323.616 197.453 323.622 197.436 323.627C188.422 326.243 179.744 328.603 171.643 330.644C171.043 330.801 170.563 330.917 170.136 331.007C145.39 337.146 123.363 340.912 104.672 342.2C99.7054 342.542 94.9225 342.713 90.3325 342.713ZM55.8971 337.653C69.0568 341.421 85.447 342.662 104.613 341.341C123.257 340.057 145.235 336.298 169.936 330.17C169.941 330.169 169.946 330.168 169.951 330.167C170.366 330.08 170.835 329.966 171.428 329.811C179.452 327.79 188.039 325.455 196.958 322.87C195.015 321.373 193.171 319.437 191.339 316.974C187.812 312.129 184.709 305.517 182.115 297.318C179.967 290.53 178.627 284.099 177.881 279.899C177.868 279.827 177.874 279.753 177.898 279.683C177.922 279.614 177.963 279.552 178.018 279.503L181.319 276.55C176.634 254.795 170.063 233.741 161.786 213.969C155.14 198.092 147.386 183.002 138.739 169.116C125.53 147.905 114.213 135.985 111.936 133.671C111.462 134.611 110.369 136.779 108.745 140.022C108.658 140.208 108.553 140.417 108.445 140.633C108.348 140.824 108.253 141.017 108.161 141.21C108.145 141.28 108.113 141.345 108.066 141.399C108.019 141.454 107.959 141.495 107.892 141.521C107.811 141.552 107.721 141.557 107.636 141.536C107.551 141.515 107.475 141.469 107.417 141.404C105.467 139.203 100.919 136.646 94.4936 136.646C94.4516 136.646 94.4103 136.646 94.3683 136.647C90.6257 136.666 86.6626 137.544 82.5897 139.256C77.7688 141.283 72.7764 144.491 67.7517 148.793C58.2048 156.899 44.4025 170.576 32.8573 189.71C19.645 211.606 12.2038 235.783 10.7405 261.569C10.0396 274.3 10.9596 285.63 13.4746 295.242C15.9559 304.724 20.0717 312.847 25.7085 319.387C26.7004 320.348 27.6266 321.189 28.5392 321.957C28.5449 321.962 28.5507 321.966 28.556 321.972C35.8392 328.781 45.0377 334.057 55.8971 337.653Z" fill="#232323"/>
<path d="M246.134 266.727V323.292C246.134 326.669 243.396 329.376 240.012 329.376C236.655 329.376 233.917 326.643 233.917 323.292V266.727H246.134Z" fill="white"/>
<path d="M246.16 316.815V323.183C246.16 326.561 243.422 329.268 240.038 329.268C236.68 329.268 233.942 326.535 233.942 323.183V316.815H246.16Z" fill="#1C5AF6"/>
<path d="M240.012 329.806C236.413 329.806 233.485 326.884 233.485 323.291V266.726C233.485 266.612 233.531 266.502 233.612 266.422C233.693 266.341 233.802 266.296 233.916 266.296H246.134C246.248 266.296 246.358 266.341 246.439 266.422C246.519 266.502 246.565 266.612 246.565 266.726V323.291C246.565 326.883 243.626 329.806 240.012 329.806ZM234.348 267.157V323.291C234.348 326.409 236.889 328.945 240.012 328.945C243.15 328.945 245.703 326.409 245.703 323.291V267.157H234.348ZM179.21 316.588C178.073 316.588 177.143 317.516 177.143 318.651C177.143 319.785 178.073 320.713 179.21 320.713C180.346 320.713 181.276 319.785 181.276 318.651C181.25 317.516 180.346 316.588 179.21 316.588ZM283.453 199.826C282.317 199.826 281.387 200.754 281.387 201.889C281.387 203.023 282.316 203.952 283.453 203.952C284.59 203.952 285.52 203.023 285.52 201.889C285.519 200.755 284.59 199.826 283.453 199.826Z" fill="#232323"/>
<path d="M266.539 269.356C266.694 272.372 254.193 279.05 253.96 279.153C254.012 279.514 254.089 279.926 254.167 280.391C254.554 282.531 254.967 285.573 252.462 288.048C252.285 288.225 252.095 288.388 251.894 288.538C251.998 288.796 252.178 289.156 252.333 289.543C253.005 291.116 253.676 293.668 250.861 296.736C250.962 297.372 250.99 297.69 251.042 298.154C251.274 300.861 250.603 304.29 246.754 306.559C244.016 308.183 240.09 309.395 236.681 310.246C225.497 314.268 207.777 320.481 198.143 322.93C175.387 312.798 177.66 274.693 177.66 274.693C177.66 274.693 225.264 275.441 251.739 269.82C263.414 267.371 266.41 267.087 266.539 269.356Z" fill="white"/>
<path d="M198.143 323.361C198.083 323.361 198.023 323.348 197.967 323.324C192.694 320.976 188.322 316.944 184.972 311.339C182.305 306.877 180.277 301.414 178.946 295.101C176.684 284.375 177.224 274.763 177.229 274.667C177.236 274.558 177.284 274.455 177.364 274.379C177.444 274.304 177.55 274.262 177.66 274.262H177.666C178.142 274.27 225.525 274.945 251.649 269.399C261.407 267.352 264.891 266.851 266.287 267.92C266.711 268.243 266.934 268.705 266.969 269.331V269.334C266.997 269.862 267.079 271.471 260.631 275.706C257.974 277.452 255.312 278.921 254.433 279.391C254.457 279.539 254.484 279.695 254.513 279.856C254.538 280.005 254.565 280.159 254.592 280.319C254.925 282.162 255.549 285.603 252.765 288.353C252.655 288.463 252.54 288.569 252.421 288.669C252.434 288.699 252.448 288.731 252.463 288.762C252.548 288.949 252.644 289.16 252.733 289.383C253.463 291.092 254.105 293.728 251.317 296.872C251.381 297.29 251.411 297.566 251.445 297.88L251.47 298.106C251.7 300.792 251.106 304.493 246.972 306.929C244.677 308.291 241.256 309.546 236.806 310.658C224.299 315.155 207.467 321.004 198.249 323.347C198.214 323.357 198.178 323.361 198.143 323.361ZM178.072 275.129C177.998 277.065 177.815 285.575 179.793 294.942C181.106 301.158 183.099 306.529 185.717 310.907C188.944 316.303 193.137 320.194 198.182 322.476C207.403 320.116 224.109 314.309 236.534 309.841C236.548 309.836 236.562 309.832 236.576 309.828C240.955 308.735 244.306 307.511 246.534 306.189C250.282 303.979 250.821 300.62 250.612 298.191L250.588 297.973C250.55 297.623 250.517 297.321 250.435 296.804C250.425 296.74 250.429 296.674 250.448 296.612C250.467 296.55 250.499 296.493 250.543 296.445C253.154 293.6 252.589 291.24 251.937 289.712C251.851 289.499 251.759 289.297 251.678 289.118C251.609 288.966 251.544 288.822 251.494 288.697C251.459 288.609 251.453 288.512 251.479 288.421C251.505 288.33 251.559 288.25 251.635 288.193C251.82 288.056 251.995 287.905 252.158 287.743C254.429 285.498 254.167 282.81 253.743 280.467C253.717 280.312 253.69 280.158 253.664 280.003C253.615 279.722 253.569 279.457 253.534 279.213C253.52 279.12 253.538 279.026 253.583 278.944C253.629 278.862 253.7 278.797 253.786 278.759C253.981 278.665 257.134 276.978 260.216 274.949C265.608 271.399 266.134 269.871 266.109 269.378C266.088 269.008 265.981 268.769 265.764 268.603C264.643 267.745 260.377 268.448 251.828 270.241C226.926 275.527 182.845 275.182 178.072 275.129Z" fill="#232323"/>
<path d="M182.619 95.9742C180.139 87.6469 172.933 84.4758 169.549 74.7818C168.284 71.1982 167.164 67.5653 166.217 63.9019C165.554 61.3342 165.162 59.8071 164.726 57.8145C164.183 57.869 160.948 58.4363 161.051 58.3848C151.772 59.8783 147.883 62.3839 146.328 62.948C145.14 63.5924 144.029 64.3658 142.97 65.2169C142.865 65.3451 142.762 65.4752 142.662 65.607C138.898 68.8725 135.6 75.6017 134.085 80.9439C132.509 86.8992 131.838 89.658 126.801 86.0741C123.908 84.0375 121.79 82.2844 119.543 81.0211C117.813 80.0414 115.901 79.3711 113.938 79.1134C113.551 79.0617 113.189 79.0105 112.776 78.9845C112.517 78.9586 112.259 78.9586 112.027 78.9586C106.396 79.0103 101.979 84.4247 102.134 89.8386C102.444 99.7128 114.894 104.766 122.126 104.225C122.1 104.25 122.1 104.25 122.1 104.276C121.842 105.204 121.842 105.54 121.687 106.107C118.226 120.751 111.846 133.023 111.846 133.023C118.303 142.871 132.897 156.665 153.948 157.722C159.372 153.777 159.812 149.626 159.734 146.919C158.753 141.608 157.254 132.095 156.144 124.102C155.343 118.533 154.801 114.125 154.775 113.919C154.775 113.919 170.376 114.434 179.158 106.726C182.541 103.76 183.678 99.558 182.619 95.9744V95.9742Z" fill="white"/>
<path d="M153.948 158.151C153.941 158.151 153.934 158.151 153.927 158.151C144.395 157.672 135.397 154.602 127.182 149.024C118.778 143.319 113.741 136.697 111.485 133.258C111.444 133.194 111.419 133.12 111.416 133.044C111.412 132.967 111.428 132.891 111.464 132.824C111.527 132.701 117.859 120.427 121.268 106.007L121.271 105.992C121.334 105.764 121.369 105.574 121.411 105.355C121.447 105.161 121.487 104.952 121.55 104.685C117.114 104.819 110.637 102.998 106.284 99.0876C103.396 96.4932 101.812 93.2992 101.703 89.8511C101.62 86.9472 102.834 83.904 104.949 81.7093C106.903 79.681 109.416 78.5511 112.023 78.5272C112.268 78.5266 112.534 78.5272 112.811 78.5545C113.197 78.5789 113.533 78.6238 113.888 78.6715L113.995 78.6858C115.953 78.9428 117.945 79.6206 119.756 80.6458C121.284 81.5052 122.736 82.575 124.418 83.8135C125.245 84.4232 126.1 85.0532 127.05 85.7218C128.838 86.9946 130.05 87.4495 130.865 87.1557C132.116 86.7036 132.748 84.3131 133.623 81.0039L133.669 80.8331C134.47 78.0083 135.706 74.9777 137.151 72.2922C138.775 69.2744 140.57 66.8614 142.346 65.3103C142.441 65.186 142.539 65.0635 142.638 64.9428C142.657 64.9201 142.678 64.8993 142.701 64.8811C143.875 63.938 144.994 63.1816 146.123 62.5693C146.142 62.5592 146.162 62.5503 146.181 62.543C146.464 62.4404 146.847 62.2609 147.331 62.0341C149.465 61.0346 153.438 59.174 160.983 57.9594C161.012 57.9548 161.042 57.9529 161.07 57.954C161.258 57.9311 161.979 57.8124 162.567 57.7155C163.467 57.5672 164.397 57.414 164.684 57.3853C164.789 57.3751 164.894 57.4038 164.98 57.4658C165.065 57.5279 165.125 57.6191 165.148 57.7222C165.578 59.6935 165.974 61.2363 166.635 63.7941C167.557 67.3602 168.674 71.0087 169.956 74.6385C171.644 79.4752 174.292 82.6557 176.852 85.7316C179.388 88.7786 181.783 91.6562 183.032 95.8511L183.033 95.8521C184.198 99.7967 182.822 104.087 179.442 107.049C174.83 111.098 168.36 112.866 163.744 113.637C159.793 114.297 156.481 114.355 155.264 114.355C155.672 117.587 156.108 120.816 156.571 124.041C157.671 131.957 159.179 141.545 160.158 146.841C160.162 146.862 160.165 146.885 160.165 146.907C160.247 149.777 159.719 154.058 154.202 158.07C154.128 158.123 154.039 158.151 153.948 158.151ZM112.344 132.994C114.627 136.433 119.553 142.803 127.667 148.312C135.705 153.77 144.503 156.787 153.817 157.283C158.869 153.553 159.375 149.618 159.304 146.964C158.323 141.65 156.816 132.069 155.717 124.161C155.005 119.212 154.493 115.147 154.353 114.02L154.347 113.971C154.34 113.909 154.345 113.847 154.364 113.787C154.383 113.728 154.414 113.674 154.456 113.628C154.499 113.582 154.55 113.546 154.608 113.522C154.665 113.498 154.727 113.486 154.789 113.487C154.943 113.492 170.323 113.906 178.873 106.401C181.998 103.663 183.275 99.7149 182.206 96.0962C181.007 92.0705 178.667 89.2586 176.189 86.2816C173.58 83.1466 170.882 79.9054 169.142 74.923C167.853 71.2712 166.728 67.5988 165.8 64.0089C165.18 61.611 164.793 60.1012 164.391 58.2937C163.968 58.3571 163.309 58.4656 162.707 58.565C162.291 58.6334 161.894 58.6988 161.601 58.7453C161.407 58.7758 161.249 58.8008 161.119 58.8073L161.12 58.8091C153.695 60.0046 149.793 61.8319 147.697 62.8134C147.209 63.042 146.82 63.2241 146.507 63.3405C145.444 63.9193 144.386 64.634 143.276 65.5236C143.183 65.637 143.093 65.7518 143.004 65.8681C142.986 65.8912 142.966 65.9124 142.944 65.9315C139.158 69.2162 135.913 76.0765 134.5 81.0602L134.457 81.2237C133.48 84.9188 132.834 87.3601 131.158 87.9651C130.038 88.3693 128.618 87.8942 126.551 86.424C125.596 85.7515 124.737 85.1183 123.906 84.5063C122.248 83.2846 120.815 82.2294 119.332 81.3954C117.616 80.4236 115.731 79.7819 113.882 79.5394L113.773 79.5247C113.431 79.4788 113.108 79.4357 112.749 79.4132C112.743 79.4127 112.738 79.4125 112.733 79.4119C112.496 79.3881 112.257 79.3881 112.026 79.3881C109.657 79.4097 107.362 80.4463 105.57 82.3063C103.611 84.3379 102.488 87.1489 102.565 89.8252C102.665 93.0316 104.151 96.0131 106.86 98.4467C111.237 102.378 117.837 104.112 122.094 103.794C122.171 103.788 122.248 103.803 122.318 103.838C122.387 103.872 122.446 103.925 122.488 103.99C122.53 104.055 122.554 104.13 122.557 104.207C122.56 104.284 122.542 104.361 122.505 104.429C122.371 104.917 122.311 105.234 122.258 105.514C122.215 105.74 122.175 105.953 122.105 106.212C118.926 119.657 113.225 131.247 112.344 132.994Z" fill="#232323"/>
<path d="M152.192 36.1346C151.624 36.4437 151.081 36.779 150.565 37.1658C150.306 36.6504 149.962 36.2152 149.652 35.7254C149.641 35.7349 149.664 35.7159 149.652 35.7254C142.533 25.2474 126.878 30.8134 126.388 40.8528C112.517 33.8658 100.171 50.2371 107.248 60.3692C109.806 64.0561 114.377 71.8936 113.938 79.0609C118.975 79.7571 121.739 82.4382 126.801 86.0477C131.838 89.6572 132.509 86.8984 134.085 80.9429C135.52 75.7739 138.877 68.7101 142.97 65.345C143.05 65.2656 143.693 64.4598 144.985 63.6948C145.398 63.437 145.863 63.2307 146.328 63.0761C151.602 60.1209 159.137 58.4193 164.77 57.9198C176.678 51.732 171.305 37.6035 162.523 34.8709C159.062 33.8915 155.317 34.3297 152.192 36.1343" fill="#232323"/>
<path d="M143.151 65.1649C143.1 65.2166 143.048 65.2938 142.997 65.3455C144.03 64.4949 145.166 63.7213 146.354 63.0767C145.308 63.425 144.069 64.1623 143.151 65.1649Z" fill="#232323"/>
<path d="M140.879 68.9546C140.332 70.7282 140.403 72.5569 140.724 73.5179C140.905 73.9304 141.266 74.2398 141.705 74.343C143.436 74.6088 144.62 72.8643 145.889 71.5842C147.972 69.4259 148.535 69.0742 152.011 66.1443C152.936 65.2872 152.726 63.8414 151.701 63.2569C150.055 62.3087 147.948 62.3598 146.329 62.9476C145.141 63.5921 144.03 64.3655 142.971 65.2166C142.015 66.3764 141.292 67.6142 140.879 68.9548V68.9546ZM154.801 72.8734C154.439 72.4093 153.767 72.358 153.302 72.7188C150.9 74.6526 148.24 75.993 146.354 76.8698C145.837 77.5143 145.347 78.133 144.856 78.7775C147.813 80.2322 159.573 78.7954 154.801 72.8734ZM146.354 76.8442C145.657 77.1534 145.063 77.4112 144.624 77.5919C144.18 77.7933 144.23 78.3441 144.494 78.52C144.598 78.5973 144.727 78.6746 144.856 78.7519C145.347 78.1331 145.838 77.4887 146.354 76.8442ZM164.756 57.9425C164.769 57.9354 164.783 57.9273 164.797 57.9202C164.782 57.9217 164.766 57.9235 164.752 57.9254C164.75 57.9151 164.747 57.905 164.745 57.8945C164.721 57.907 164.696 57.9218 164.672 57.9346C163.521 58.0609 162.323 58.2112 161.051 58.4104C160.922 58.436 160.819 58.4877 160.716 58.5393C159.493 59.125 158.404 60.1839 157.874 61.5041C157.648 62.0801 157.789 62.7041 158.199 63.1646L158.184 63.1798C158.391 63.3604 158.571 63.4895 158.804 63.5667C158.959 63.6184 159.14 63.6697 159.295 63.6697L159.605 63.6954C160.199 63.721 160.664 63.6954 161.103 63.6954C161.542 63.6696 161.929 63.6954 162.291 63.6954C163.014 63.721 163.634 63.721 164.331 63.7471C164.899 63.7727 165.519 63.8243 166.165 63.9016C165.653 61.9321 165.192 59.9373 164.756 57.9425ZM156.144 124.102C142.764 122.323 140.775 111.133 142.247 109.793C144.934 111.572 148.524 112.68 151.443 113.325C152.734 113.609 153.896 113.815 154.775 113.944C154.801 114.124 155.369 118.533 156.144 124.102Z" fill="#232323"/>
<path d="M156.143 124.532C156.125 124.532 156.106 124.531 156.087 124.529C145.509 123.123 142.522 116.104 141.858 113.987C141.213 111.929 141.253 110.116 141.957 109.475C142.028 109.41 142.118 109.371 142.214 109.364C142.31 109.357 142.405 109.381 142.485 109.434C145.242 111.26 148.928 112.329 151.535 112.905C152.673 113.155 153.846 113.372 154.837 113.518C154.929 113.532 155.014 113.575 155.08 113.64C155.146 113.706 155.188 113.791 155.201 113.883C155.206 113.916 155.229 114.088 155.267 114.38C155.432 115.641 155.935 119.479 156.571 124.043C156.58 124.109 156.574 124.176 156.553 124.239C156.532 124.302 156.496 124.359 156.449 124.406C156.368 124.487 156.258 124.532 156.143 124.532ZM142.384 110.393C142.21 110.924 142.167 112.09 142.681 113.729C143.294 115.686 146.022 122.088 155.638 123.593C155.04 119.278 154.571 115.701 154.412 114.491L154.39 114.321C153.452 114.175 152.387 113.973 151.35 113.746C148.786 113.179 145.201 112.145 142.384 110.393ZM166.475 69.599C164.848 70.1661 163.583 70.2951 160.457 70.5786C160.005 70.6178 159.643 70.926 159.519 71.3212C159.484 71.3873 159.461 71.4588 159.45 71.5326C159.424 71.7906 159.45 72.0483 159.502 72.2805C159.786 73.3891 160.69 74.2657 162.317 74.3432C162.576 74.3432 162.808 74.3432 163.066 74.3174C165.779 74.0596 167.019 71.7393 167.199 70.1668C167.234 69.7462 166.848 69.4752 166.475 69.599Z" fill="#232323"/>
<path d="M292.524 156.484V167.106C292.524 170.406 290.12 171.946 289.993 172.107V185.488C289.993 186.352 289.113 187.078 288.107 186.648L285.343 185.256C284.904 185.024 284.646 184.586 284.646 184.122V172.133C284.518 171.972 282.115 170.434 282.115 167.131L282.14 152.049C282.734 152.049 283.354 151.998 283.948 151.92C286.442 151.671 292.524 149.04 292.524 156.484Z" fill="white"/>
<path d="M288.703 187.206C288.45 187.206 288.19 187.153 287.937 187.044C287.929 187.041 287.921 187.037 287.913 187.033L285.149 185.641C284.57 185.335 284.214 184.754 284.214 184.122V172.331C282.535 170.942 281.683 169.193 281.683 167.132L281.709 152.049C281.709 151.935 281.755 151.826 281.835 151.745C281.916 151.664 282.026 151.619 282.14 151.619C282.664 151.619 283.254 151.577 283.892 151.494C284.276 151.455 284.758 151.357 285.268 151.253C287.104 150.878 289.619 150.365 291.293 151.731C292.411 152.643 292.955 154.198 292.955 156.484V167.106C292.955 169.166 292.103 170.915 290.423 172.305V185.488C290.424 185.773 290.353 186.054 290.217 186.305C290.081 186.555 289.886 186.768 289.647 186.925C289.367 187.11 289.038 187.208 288.703 187.206ZM288.288 186.257C288.607 186.39 288.921 186.372 289.172 186.206C289.412 186.048 289.561 185.773 289.561 185.488V172.108C289.561 172.011 289.594 171.916 289.654 171.841C289.698 171.786 289.748 171.745 289.847 171.663C291.337 170.441 292.093 168.908 292.093 167.106V156.484C292.093 154.5 291.64 153.126 290.748 152.398C289.391 151.291 287.201 151.738 285.441 152.097C284.908 152.206 284.405 152.308 283.991 152.349C283.493 152.414 283.015 152.456 282.57 152.472L282.545 167.133C282.545 168.935 283.301 170.468 284.791 171.689C284.89 171.771 284.94 171.812 284.984 171.867C285.044 171.943 285.077 172.037 285.077 172.134V184.122C285.077 184.434 285.256 184.724 285.545 184.876L288.288 186.257ZM77.2863 275.516C77.2038 275.517 77.123 275.493 77.0535 275.448C76.984 275.404 76.9288 275.34 76.8944 275.266C76.8708 275.214 76.8575 275.159 76.8553 275.102C76.8531 275.046 76.8621 274.989 76.8818 274.936C76.9014 274.883 76.9313 274.835 76.9698 274.793C77.0082 274.752 77.0545 274.718 77.1059 274.694C87.1065 270.096 97.9077 268.38 110.127 269.449C152.595 273.83 177.853 274.268 178.073 274.268C178.188 274.269 178.297 274.315 178.378 274.395C178.458 274.476 178.504 274.586 178.504 274.7C178.503 274.814 178.458 274.923 178.377 275.004C178.297 275.084 178.187 275.13 178.073 275.13C177.86 275.13 152.576 274.694 110.046 270.306C97.9867 269.252 87.3272 270.943 77.4662 275.477C77.4078 275.504 77.3465 275.516 77.2863 275.516Z" fill="#232323"/>
<path d="M171.512 330.425C171.406 330.425 171.303 330.386 171.224 330.315C160.979 321.09 156.758 307.326 155.022 297.404C153.412 288.355 153.023 280.549 153.832 273.54C153.845 273.427 153.903 273.323 153.992 273.252C154.082 273.181 154.196 273.149 154.309 273.162C154.366 273.168 154.42 273.186 154.469 273.213C154.519 273.241 154.562 273.278 154.598 273.322C154.633 273.366 154.659 273.417 154.674 273.471C154.69 273.526 154.694 273.583 154.688 273.639C153.889 280.563 154.276 288.288 155.871 297.254C157.584 307.044 161.739 320.615 171.801 329.675C171.866 329.733 171.912 329.81 171.932 329.894C171.952 329.979 171.946 330.068 171.915 330.149C171.884 330.231 171.828 330.301 171.756 330.35C171.685 330.399 171.599 330.425 171.512 330.425ZM164.418 82.3283C164.336 82.3282 164.255 82.3046 164.186 82.2602C164.117 82.2159 164.061 82.1526 164.027 82.0779C163.992 82.0033 163.98 81.9203 163.991 81.8388C164.003 81.7573 164.037 81.6808 164.09 81.6182C165.207 80.3096 165.677 79.3829 165.568 78.7008C165.446 77.9314 164.557 77.3377 163.109 76.4517C159.338 74.1442 159.441 71.7745 159.447 71.6746C159.455 71.5607 159.507 71.4544 159.593 71.3789C159.678 71.3035 159.79 71.2649 159.904 71.2718C160.018 71.2789 160.124 71.3303 160.199 71.415C160.275 71.4996 160.314 71.6106 160.308 71.7238C160.307 71.7644 160.291 73.7176 163.559 75.7175C164.99 76.593 166.226 77.3489 166.419 78.5657C166.573 79.5283 166.057 80.6422 164.746 82.1771C164.706 82.2246 164.656 82.2627 164.599 82.2888C164.542 82.3149 164.481 82.3284 164.418 82.3283ZM167.502 90.2502C167.198 90.8176 166.751 91.2956 166.252 91.6842C165.749 92.0705 165.19 92.3712 164.603 92.5882C163.43 93.0214 162.147 93.1694 160.868 92.9169C160.245 92.7825 159.644 92.5615 159.082 92.2605C158.527 91.9522 158.007 91.5737 157.567 91.115C156.68 90.2114 156.075 89.0092 155.979 87.7535C155.969 87.64 156.003 87.5271 156.073 87.4369C156.142 87.3468 156.243 87.2858 156.356 87.266C156.468 87.2461 156.584 87.2688 156.68 87.3295C156.776 87.3903 156.847 87.4848 156.877 87.5946L156.88 87.6051C157.161 88.6052 157.735 89.4871 158.488 90.1631C158.869 90.4968 159.285 90.7902 159.739 91.0117C160.187 91.2418 160.674 91.4104 161.163 91.5138C161.641 91.6189 162.152 91.6411 162.662 91.611C163.173 91.5828 163.683 91.4849 164.179 91.3426C165.166 91.0483 166.093 90.5292 166.737 89.7508L166.744 89.742C166.817 89.6547 166.919 89.5974 167.032 89.5812C167.144 89.565 167.259 89.591 167.353 89.6543C167.447 89.7175 167.515 89.8135 167.542 89.9236C167.57 90.0337 167.555 90.15 167.502 90.2502ZM122.077 104.66C121.967 104.66 121.861 104.619 121.781 104.544C121.701 104.469 121.653 104.366 121.646 104.257C121.639 104.148 121.674 104.04 121.744 103.955C121.814 103.871 121.913 103.816 122.022 103.802C122.766 103.705 123.5 103.548 124.219 103.333C125.004 103.098 125.769 102.799 126.506 102.44C126.608 102.392 126.726 102.386 126.832 102.424C126.939 102.461 127.026 102.54 127.076 102.641C127.126 102.743 127.133 102.86 127.097 102.967C127.061 103.074 126.985 103.163 126.884 103.214C126.105 103.594 125.296 103.91 124.466 104.158C123.702 104.387 122.922 104.554 122.132 104.657C122.114 104.659 122.095 104.66 122.077 104.66ZM122.772 95.1413C122.696 95.1413 122.62 95.1209 122.554 95.082C122.488 95.0431 122.433 94.9873 122.396 94.9202C121.037 92.4879 119.323 90.714 117.303 89.6484C113.754 87.7768 110.413 88.7407 110.381 88.751C110.272 88.7868 110.154 88.7781 110.052 88.7268C109.95 88.6756 109.872 88.5859 109.836 88.4776C109.818 88.424 109.811 88.3674 109.815 88.3111C109.819 88.2548 109.834 88.1998 109.859 88.1493C109.885 88.0988 109.92 88.0538 109.962 88.0168C110.005 87.9798 110.055 87.9516 110.108 87.9338C110.144 87.9219 113.771 86.8114 117.705 88.8867C119.875 90.0314 121.707 91.9202 123.148 94.5005C123.185 94.566 123.204 94.6399 123.203 94.715C123.202 94.79 123.182 94.8635 123.144 94.9283C123.106 94.993 123.052 95.0467 122.986 95.0841C122.921 95.1215 122.848 95.1412 122.772 95.1413Z" fill="#232323"/>
<mask id="mask0_1482_947" style="mask-type:luminance" maskUnits="userSpaceOnUse" x="105" y="30" width="67" height="58">
<path d="M152.192 36.1345C151.624 36.4438 151.081 36.779 150.565 37.1659C150.306 36.6504 149.962 36.2152 149.652 35.7254C149.641 35.7348 149.664 35.7159 149.652 35.7254C142.533 25.2474 126.878 30.8135 126.388 40.8527C112.517 33.8659 100.171 50.2374 107.248 60.3695C109.805 64.0563 114.377 71.8938 113.938 79.0611C118.975 79.7573 121.739 82.4384 126.801 86.0479C131.838 89.6574 132.51 86.8987 134.085 80.9432C135.52 75.774 138.877 68.7102 142.97 65.3452C143.05 65.2658 143.692 64.4599 144.985 63.6951C145.398 63.4372 145.863 63.2309 146.328 63.0763C151.602 60.121 159.137 58.4195 164.77 57.9199C176.678 51.7322 171.305 37.6038 162.523 34.871C159.062 33.8916 155.317 34.3298 152.192 36.1345Z" fill="white"/>
</mask>
<g mask="url(#mask0_1482_947)">
<path d="M146.192 46.1329H146.185C146.071 46.1309 145.962 46.0836 145.882 46.0015C145.803 45.9194 145.759 45.8092 145.761 45.6951C145.805 43.0897 147.458 38.1503 150.868 35.8233C150.962 35.7635 151.076 35.7427 151.186 35.7652C151.295 35.7878 151.392 35.8519 151.455 35.9441C151.518 36.0364 151.543 36.1494 151.524 36.2595C151.505 36.3696 151.444 36.468 151.354 36.5341C148.333 38.5961 146.665 43.1878 146.623 45.7094C146.621 45.8223 146.575 45.93 146.495 46.0093C146.414 46.0885 146.305 46.133 146.192 46.1329Z" fill="white"/>
</g>
<path d="M98.3042 270.176C98.2355 270.176 98.1677 270.159 98.1067 270.127C98.0456 270.096 97.993 270.05 97.9531 269.994C97.9133 269.938 97.8874 269.874 97.8777 269.806C97.8679 269.738 97.8745 269.668 97.897 269.604C107.253 242.723 113.222 216.522 115.162 193.831C115.75 186.916 116.246 176.533 115.267 166.331C114.183 155.026 111.553 146.632 107.451 141.383C107.381 141.293 107.349 141.179 107.363 141.065C107.377 140.952 107.435 140.849 107.525 140.779C107.615 140.708 107.73 140.677 107.843 140.691C107.957 140.705 108.06 140.763 108.13 140.853C112.335 146.233 115.025 154.778 116.125 166.249C117.11 176.514 116.612 186.954 116.021 193.904C114.075 216.665 108.09 242.939 98.7114 269.887C98.6819 269.971 98.6269 270.044 98.5539 270.096C98.481 270.148 98.3937 270.176 98.3042 270.176ZM146.551 181.97C146.473 181.97 146.397 181.948 146.33 181.908C146.263 181.868 146.208 181.81 146.171 181.741C146.135 181.672 146.118 181.594 146.122 181.516C146.126 181.438 146.151 181.363 146.195 181.298C148.074 178.517 149.615 175.354 150.774 171.897C152.784 165.903 153.188 160.428 153.249 157.698C153.252 157.585 153.298 157.478 153.379 157.399C153.459 157.321 153.567 157.276 153.68 157.276H153.69C153.804 157.279 153.913 157.327 153.992 157.409C154.071 157.492 154.114 157.602 154.111 157.716C154.048 160.496 153.638 166.068 151.592 172.17C150.408 175.701 148.832 178.934 146.909 181.78C146.87 181.839 146.816 181.886 146.754 181.92C146.692 181.953 146.622 181.97 146.551 181.97ZM230.441 284.187C230.408 284.187 230.387 284.186 230.377 284.184C230.275 284.158 230.186 284.096 230.127 284.009C230.068 283.922 230.042 283.817 230.055 283.712C230.068 283.608 230.119 283.512 230.198 283.443C230.277 283.373 230.379 283.335 230.484 283.336H230.491C230.886 283.317 236.421 282.815 242.504 281.693C247.12 280.842 250.923 279.852 253.806 278.751C253.912 278.713 254.029 278.718 254.132 278.765C254.235 278.812 254.315 278.897 254.355 279.002C254.395 279.107 254.393 279.224 254.348 279.328C254.303 279.431 254.219 279.513 254.114 279.555C251.182 280.675 247.328 281.68 242.661 282.54C236.837 283.614 231.13 284.187 230.441 284.187ZM231.429 293.136C230.745 293.136 230.261 293.122 230.025 293.113L229.991 293.111C229.755 293.105 229.566 292.911 229.569 292.675C229.572 292.44 229.763 292.25 229.998 292.25C230.004 292.25 230.023 292.251 230.057 292.252C230.997 292.287 235.976 292.408 241.713 291.34C245.574 290.622 248.98 289.521 251.836 288.069C251.938 288.017 252.056 288.008 252.165 288.043C252.273 288.078 252.364 288.156 252.416 288.257C252.467 288.359 252.477 288.477 252.441 288.586C252.406 288.695 252.329 288.785 252.227 288.837C249.297 290.326 245.813 291.454 241.87 292.187C237.48 293.004 233.522 293.136 231.429 293.136ZM230.4 303.086H230.352C230.114 303.084 229.92 302.891 229.92 302.654C229.921 302.417 230.111 302.224 230.349 302.224C230.364 302.225 230.384 302.224 230.402 302.224C231.16 302.224 236.22 302.149 242.251 300.249C245.339 299.276 248.159 297.981 250.633 296.4C250.833 296.272 251.1 296.331 251.228 296.531C251.356 296.732 251.298 296.998 251.097 297.126C248.56 298.748 245.67 300.074 242.51 301.07C236.359 303.009 231.177 303.086 230.4 303.086ZM233.568 255.416C233.48 255.416 233.394 255.39 233.322 255.34C233.25 255.29 233.195 255.219 233.164 255.137C233.133 255.054 233.128 254.965 233.15 254.88C233.171 254.795 233.219 254.718 233.285 254.661C233.387 254.571 233.489 254.482 233.59 254.392C234.275 253.786 235.879 252.369 242.175 247.051L242.956 246.408C244.478 245.155 246.052 243.859 247.594 242.518C247.637 242.48 247.686 242.452 247.74 242.434C247.794 242.416 247.85 242.409 247.907 242.413C247.963 242.417 248.019 242.432 248.069 242.457C248.12 242.482 248.165 242.517 248.202 242.56C248.277 242.646 248.315 242.758 248.307 242.872C248.299 242.986 248.246 243.092 248.16 243.167C246.61 244.516 245.031 245.816 243.504 247.072L242.727 247.712C236.443 253.02 234.844 254.434 234.162 255.037C234.038 255.146 233.941 255.232 233.851 255.31C233.773 255.379 233.672 255.416 233.568 255.416ZM320.466 224.643C309.145 224.643 298.536 222.617 288.871 218.603C283.096 216.204 277.711 213.133 272.866 209.474C272.776 209.404 272.716 209.302 272.701 209.19C272.686 209.077 272.716 208.963 272.784 208.872C272.853 208.782 272.955 208.722 273.067 208.706C273.18 208.69 273.294 208.719 273.386 208.787C278.172 212.402 283.494 215.437 289.202 217.808C299.979 222.284 311.95 224.26 324.785 223.684C324.842 223.681 324.899 223.69 324.952 223.709C325.005 223.728 325.054 223.758 325.096 223.796C325.138 223.834 325.172 223.88 325.196 223.932C325.22 223.983 325.233 224.038 325.235 224.095C325.241 224.209 325.2 224.321 325.123 224.405C325.046 224.489 324.938 224.539 324.824 224.545C323.373 224.61 321.919 224.643 320.466 224.643ZM278.008 127.343C277.931 127.343 277.855 127.322 277.789 127.283C277.722 127.244 277.667 127.188 277.63 127.12C277.575 127.02 277.562 126.902 277.593 126.792C277.625 126.683 277.699 126.59 277.8 126.535C279.921 125.367 283.747 123.908 288.119 123.316C292.822 122.679 297.098 123.2 300.485 124.822C300.536 124.847 300.581 124.881 300.619 124.923C300.657 124.965 300.686 125.014 300.705 125.068C300.724 125.121 300.732 125.178 300.729 125.234C300.726 125.291 300.712 125.346 300.687 125.397C300.663 125.448 300.628 125.494 300.586 125.531C300.544 125.569 300.495 125.598 300.441 125.617C300.388 125.636 300.331 125.644 300.275 125.641C300.218 125.638 300.163 125.623 300.112 125.599C296.878 124.05 292.771 123.555 288.235 124.169C283.98 124.746 280.269 126.159 278.216 127.29C278.152 127.324 278.081 127.343 278.008 127.343ZM277.995 135.357C277.897 135.357 277.802 135.323 277.726 135.263C277.65 135.202 277.596 135.117 277.575 135.022C277.553 134.926 277.564 134.827 277.607 134.739C277.649 134.651 277.72 134.58 277.808 134.538C279.662 133.653 281.605 132.969 283.603 132.496C289.468 131.039 295.741 131.588 301.261 134.043C301.365 134.089 301.447 134.175 301.488 134.282C301.529 134.389 301.526 134.507 301.48 134.612C301.457 134.663 301.424 134.71 301.383 134.749C301.342 134.788 301.293 134.818 301.24 134.839C301.188 134.859 301.131 134.869 301.075 134.867C301.018 134.866 300.962 134.853 300.91 134.83C295.565 132.453 289.491 131.922 283.806 133.333C281.866 133.792 279.98 134.456 278.18 135.315C278.122 135.342 278.059 135.357 277.995 135.357V135.357ZM299.11 145.699C299.021 145.699 298.935 145.672 298.862 145.621C295.933 143.56 292.515 142.516 288.704 142.516C288.665 142.516 288.626 142.516 288.587 142.516C284.441 142.54 280.971 143.807 279.672 144.351C279.62 144.373 279.564 144.384 279.507 144.384C279.451 144.385 279.394 144.374 279.342 144.352C279.29 144.331 279.242 144.299 279.202 144.259C279.162 144.22 279.13 144.172 279.108 144.12C279.086 144.068 279.075 144.012 279.074 143.955C279.074 143.899 279.085 143.843 279.107 143.79C279.128 143.738 279.16 143.691 279.199 143.65C279.239 143.61 279.287 143.578 279.339 143.557C280.685 142.993 284.282 141.679 288.582 141.655C288.623 141.655 288.664 141.655 288.704 141.655C292.697 141.655 296.28 142.752 299.358 144.916C299.404 144.949 299.444 144.99 299.474 145.038C299.504 145.086 299.525 145.139 299.535 145.195C299.544 145.25 299.543 145.307 299.531 145.363C299.518 145.418 299.495 145.47 299.462 145.516C299.423 145.573 299.37 145.619 299.309 145.651C299.247 145.683 299.179 145.699 299.11 145.699L299.11 145.699Z" fill="#232323"/>
<path d="M232.987 263.89H246.832C247.813 263.89 248.614 264.689 248.614 265.669C248.614 266.649 247.813 267.448 246.832 267.448H232.987C232.005 267.448 231.205 266.649 231.205 265.669C231.205 264.689 232.005 263.89 232.987 263.89Z" fill="white"/>
<path d="M246.831 267.879H232.987C231.766 267.879 230.773 266.888 230.773 265.669C230.773 264.451 231.766 263.459 232.987 263.459H246.831C248.051 263.459 249.045 264.451 249.045 265.669C249.045 266.888 248.051 267.879 246.831 267.879ZM232.987 264.321C232.241 264.321 231.635 264.926 231.635 265.669C231.635 266.413 232.242 267.017 232.987 267.017H246.831C247.576 267.017 248.182 266.413 248.182 265.669C248.182 264.926 247.576 264.321 246.831 264.321H232.987ZM289.992 172.564H284.646C284.531 172.564 284.422 172.519 284.341 172.438C284.26 172.357 284.214 172.247 284.214 172.133C284.214 172.019 284.26 171.91 284.341 171.829C284.422 171.748 284.531 171.703 284.646 171.703H289.992C290.107 171.703 290.216 171.748 290.297 171.829C290.378 171.91 290.423 172.019 290.423 172.133C290.423 172.247 290.378 172.357 290.297 172.438C290.216 172.519 290.107 172.564 289.992 172.564ZM286.465 163.643H282.115C282 163.643 281.891 163.598 281.81 163.517C281.729 163.437 281.684 163.327 281.684 163.213C281.684 163.099 281.729 162.989 281.81 162.908C281.891 162.828 282 162.782 282.115 162.782H286.465C286.579 162.782 286.689 162.828 286.769 162.908C286.85 162.989 286.896 163.099 286.896 163.213C286.896 163.327 286.85 163.437 286.769 163.517C286.689 163.598 286.579 163.643 286.465 163.643ZM286.465 160.342H282.115C282 160.342 281.891 160.297 281.81 160.216C281.729 160.135 281.684 160.026 281.684 159.911C281.684 159.797 281.729 159.688 281.81 159.607C281.891 159.526 282 159.481 282.115 159.481H286.465C286.579 159.481 286.689 159.526 286.769 159.607C286.85 159.688 286.896 159.797 286.896 159.911C286.896 160.026 286.85 160.135 286.769 160.216C286.689 160.297 286.579 160.342 286.465 160.342ZM286.465 157.04H282.115C282 157.04 281.891 156.995 281.81 156.914C281.729 156.834 281.684 156.724 281.684 156.61C281.684 156.496 281.729 156.386 281.81 156.305C281.891 156.225 282 156.179 282.115 156.179H286.465C286.579 156.179 286.689 156.225 286.769 156.305C286.85 156.386 286.896 156.496 286.896 156.61C286.896 156.724 286.85 156.834 286.769 156.914C286.689 156.995 286.579 157.04 286.465 157.04Z" fill="#232323"/>
</g>
<g clip-path="url(#clip1_1482_947)">
<path d="M277.653 252.145H301.805C302.793 252.145 303.594 252.945 303.594 253.932V253.932C303.594 254.919 302.793 255.719 301.805 255.719H277.653C276.665 255.719 275.864 254.919 275.864 253.932V253.932C275.864 252.945 276.665 252.145 277.653 252.145Z" fill="white"/>
<path d="M301.805 256.152H277.653C276.428 256.152 275.431 255.156 275.431 253.932C275.431 252.708 276.428 251.712 277.653 251.712H301.805C303.03 251.712 304.027 252.708 304.027 253.932C304.027 255.156 303.03 256.152 301.805 256.152ZM277.653 252.577C276.905 252.577 276.297 253.185 276.297 253.932C276.297 254.679 276.905 255.286 277.653 255.286H301.805C302.553 255.286 303.161 254.679 303.161 253.932C303.161 253.185 302.553 252.577 301.805 252.577H277.653Z" fill="#232323"/>
<path d="M313.489 316.627C313.489 320.572 310.227 324 306.03 324H273.428C268.539 324 264.92 319.35 266.244 314.649C266.306 314.422 267.683 309.686 268.161 308.037C268.172 308.04 270.973 298.395 273.862 288.426C276.863 278.084 280.195 266.765 280.195 266.765V255.738H299.266V266.765L305.604 288.426L313.187 314.554C313.196 314.585 313.206 314.617 313.213 314.649C313.395 315.292 313.488 315.958 313.489 316.627Z" fill="white"/>
<path d="M313.489 316.627C313.489 320.572 310.227 324 306.03 324H273.428C268.539 324 264.92 319.35 266.244 314.649C266.306 314.422 267.683 309.686 268.161 308.038C268.172 308.041 270.973 298.395 273.862 288.426H305.604L313.187 314.554C313.196 314.585 313.206 314.617 313.213 314.649C313.395 315.292 313.488 315.958 313.489 316.627Z" fill="#D9C6F4"/>
<path d="M284.145 308.186H268.246C268.131 308.186 268.021 308.141 267.94 308.059C267.858 307.978 267.813 307.868 267.813 307.753C267.813 307.639 267.858 307.529 267.94 307.447C268.021 307.366 268.131 307.321 268.246 307.321H284.145C284.26 307.321 284.37 307.366 284.452 307.447C284.533 307.529 284.579 307.639 284.579 307.753C284.579 307.868 284.533 307.978 284.452 308.059C284.37 308.141 284.26 308.186 284.145 308.186ZM284.145 302.925H269.781C269.666 302.925 269.556 302.88 269.475 302.798C269.394 302.717 269.348 302.607 269.348 302.492C269.348 302.378 269.394 302.268 269.475 302.186C269.556 302.105 269.666 302.06 269.781 302.06H284.145C284.26 302.06 284.37 302.105 284.452 302.186C284.533 302.268 284.579 302.378 284.579 302.492C284.579 302.607 284.533 302.717 284.452 302.798C284.37 302.88 284.26 302.925 284.145 302.925ZM284.145 297.664H271.308C271.193 297.664 271.083 297.618 271.002 297.537C270.92 297.456 270.875 297.346 270.875 297.231C270.875 297.117 270.92 297.006 271.002 296.925C271.083 296.844 271.193 296.799 271.308 296.799H284.145C284.26 296.799 284.37 296.844 284.452 296.925C284.533 297.006 284.579 297.117 284.579 297.231C284.579 297.346 284.533 297.456 284.452 297.537C284.37 297.618 284.26 297.664 284.145 297.664ZM284.145 292.403H272.833C272.718 292.403 272.608 292.358 272.527 292.276C272.446 292.195 272.4 292.085 272.4 291.97C272.4 291.856 272.446 291.746 272.527 291.664C272.608 291.583 272.718 291.538 272.833 291.538H284.145C284.26 291.538 284.37 291.583 284.452 291.664C284.533 291.746 284.579 291.856 284.579 291.97C284.579 292.085 284.533 292.195 284.452 292.276C284.37 292.358 284.26 292.403 284.145 292.403Z" fill="white"/>
<path d="M306.03 324.433H273.428C270.931 324.433 268.633 323.29 267.122 321.299C265.639 319.342 265.167 316.876 265.827 314.532C265.87 314.374 266.536 312.081 267.123 310.058L267.745 307.917C267.747 307.907 267.751 307.898 267.754 307.888C267.87 307.522 270.201 299.501 273.445 288.306C276.301 278.466 279.495 267.608 279.762 266.703V255.738C279.762 255.624 279.807 255.514 279.888 255.432C279.97 255.351 280.08 255.306 280.195 255.306H299.266C299.381 255.306 299.491 255.351 299.572 255.432C299.654 255.514 299.699 255.624 299.699 255.738V266.703L306.02 288.304L313.611 314.463C313.619 314.489 313.626 314.515 313.632 314.541C313.824 315.22 313.921 315.921 313.922 316.627C313.922 320.931 310.381 324.433 306.03 324.433ZM268.573 308.157L268.577 308.158L267.956 310.299C267.398 312.219 266.704 314.609 266.662 314.763C266.075 316.847 266.495 319.038 267.813 320.776C269.158 322.55 271.205 323.567 273.428 323.567H306.03C309.904 323.567 313.055 320.454 313.055 316.627C313.055 316.002 312.968 315.376 312.796 314.767C312.794 314.759 312.792 314.752 312.79 314.745C312.787 314.731 312.783 314.717 312.779 314.703L312.769 314.669L305.188 288.547L298.85 266.887C298.839 266.848 298.833 266.807 298.833 266.766V256.171H280.628V266.765C280.628 266.807 280.623 266.848 280.611 266.888C280.578 267.001 277.245 278.323 274.278 288.546C272.834 293.531 271.411 298.435 270.348 302.092C269.922 303.561 269.494 305.029 269.066 306.498C268.947 306.907 268.827 307.317 268.706 307.727C268.664 307.869 268.632 307.978 268.61 308.051C268.599 308.09 268.586 308.125 268.573 308.157Z" fill="#232323"/>
</g>
<g clip-path="url(#clip2_1482_947)">
<path d="M277.511 252.145H301.66C302.648 252.145 303.448 252.945 303.448 253.932V253.932C303.448 254.919 302.647 255.719 301.66 255.719H277.511C276.523 255.719 275.722 254.919 275.722 253.932V253.932C275.722 252.945 276.523 252.145 277.511 252.145Z" fill="white"/>
<path d="M301.66 256.152H277.511C276.285 256.152 275.289 255.156 275.289 253.932C275.289 252.708 276.285 251.712 277.511 251.712H301.66C302.885 251.712 303.882 252.708 303.882 253.932C303.882 255.156 302.885 256.152 301.66 256.152ZM277.511 252.577C276.763 252.577 276.155 253.185 276.155 253.932C276.155 254.679 276.763 255.286 277.511 255.286H301.66C302.407 255.286 303.015 254.679 303.015 253.932C303.015 253.185 302.407 252.577 301.66 252.577H277.511Z" fill="#232323"/>
<path d="M313.342 316.626C313.342 320.571 310.081 323.999 305.884 323.999H273.287C268.398 323.999 264.779 319.35 266.104 314.648C266.166 314.422 267.542 309.686 268.02 308.037C268.031 308.04 270.832 298.395 273.72 288.425C276.721 278.084 280.053 266.765 280.053 266.765V255.738H299.121V266.765L305.458 288.425L313.04 314.553C313.049 314.585 313.059 314.616 313.066 314.648C313.249 315.292 313.342 315.957 313.342 316.626Z" fill="white"/>
<path d="M313.342 316.626C313.342 320.571 310.081 323.999 305.884 323.999H273.287C268.398 323.999 264.779 319.349 266.104 314.648C266.166 314.422 267.542 309.686 268.02 308.037C268.031 308.04 270.832 298.395 273.72 288.425H305.458L313.04 314.553C313.049 314.585 313.059 314.616 313.066 314.648C313.249 315.292 313.342 315.957 313.342 316.626Z" fill="#EFAF49"/>
<path d="M284.002 308.186H268.105C267.99 308.186 267.88 308.14 267.799 308.059C267.717 307.978 267.672 307.868 267.672 307.753C267.672 307.638 267.717 307.528 267.799 307.447C267.88 307.366 267.99 307.32 268.105 307.32H284.002C284.117 307.32 284.227 307.366 284.309 307.447C284.39 307.528 284.435 307.638 284.435 307.753C284.435 307.868 284.39 307.978 284.309 308.059C284.227 308.14 284.117 308.186 284.002 308.186ZM284.002 302.925H269.64C269.525 302.925 269.415 302.879 269.334 302.798C269.252 302.717 269.207 302.607 269.207 302.492C269.207 302.377 269.252 302.267 269.334 302.186C269.415 302.105 269.525 302.059 269.64 302.059H284.002C284.117 302.059 284.227 302.105 284.309 302.186C284.39 302.267 284.435 302.377 284.435 302.492C284.435 302.607 284.39 302.717 284.309 302.798C284.227 302.879 284.117 302.925 284.002 302.925ZM284.002 297.664H271.166C271.052 297.664 270.941 297.618 270.86 297.537C270.779 297.456 270.733 297.346 270.733 297.231C270.733 297.116 270.779 297.006 270.86 296.925C270.941 296.844 271.052 296.798 271.166 296.798H284.002C284.117 296.798 284.227 296.844 284.309 296.925C284.39 297.006 284.435 297.116 284.435 297.231C284.435 297.346 284.39 297.456 284.309 297.537C284.227 297.618 284.117 297.664 284.002 297.664ZM284.002 292.403H272.692C272.577 292.403 272.466 292.357 272.385 292.276C272.304 292.195 272.258 292.085 272.258 291.97C272.258 291.855 272.304 291.745 272.385 291.664C272.466 291.583 272.577 291.537 272.692 291.537H284.002C284.117 291.537 284.227 291.583 284.309 291.664C284.39 291.745 284.435 291.855 284.435 291.97C284.435 292.085 284.39 292.195 284.309 292.276C284.227 292.357 284.117 292.403 284.002 292.403Z" fill="white"/>
<path d="M305.884 324.432H273.287C270.79 324.432 268.492 323.29 266.982 321.298C265.498 319.342 265.026 316.875 265.686 314.531C265.73 314.373 266.395 312.08 266.982 310.057L267.604 307.917C267.606 307.907 267.61 307.897 267.613 307.888C267.729 307.521 270.06 299.5 273.304 288.305C276.159 278.466 279.353 267.608 279.619 266.703V255.738C279.619 255.624 279.665 255.514 279.746 255.432C279.827 255.351 279.938 255.306 280.052 255.306H299.121C299.236 255.306 299.346 255.351 299.427 255.432C299.509 255.514 299.554 255.624 299.554 255.738V266.703L305.874 288.304L313.465 314.463C313.472 314.489 313.479 314.514 313.486 314.54C313.677 315.219 313.775 315.921 313.775 316.626C313.775 320.93 310.235 324.432 305.884 324.432ZM268.432 308.156L268.436 308.157L267.815 310.298C267.257 312.218 266.564 314.608 266.521 314.763C265.934 316.847 266.354 319.037 267.672 320.775C269.017 322.549 271.064 323.566 273.287 323.566H305.884C309.758 323.566 312.909 320.453 312.909 316.626C312.909 316.002 312.821 315.376 312.649 314.766C312.647 314.759 312.645 314.751 312.644 314.744C312.64 314.73 312.636 314.717 312.632 314.703L312.622 314.668L305.042 288.546L298.706 266.887C298.694 266.848 298.688 266.807 298.688 266.766V256.171H280.486V266.765C280.486 266.806 280.48 266.848 280.468 266.887C280.435 267.001 277.102 278.323 274.136 288.546C272.692 293.531 271.27 298.434 270.207 302.091C269.781 303.56 269.353 305.029 268.925 306.497C268.806 306.907 268.686 307.317 268.565 307.726C268.523 307.868 268.491 307.978 268.469 308.051C268.458 308.089 268.445 308.124 268.432 308.156Z" fill="#232323"/>
</g>
<g clip-path="url(#clip3_1482_947)">
<path d="M147.094 73.7625L135.825 76.698L119.843 80.8591C118.117 79.8528 116.211 79.196 114.232 78.9261C113.844 78.8723 113.454 78.8315 113.063 78.8036C112.815 78.7863 112.566 78.7785 112.317 78.7801L137.989 72.0953L140.84 71.3555L146.12 69.98L146.441 71.2252L147.094 73.7625Z" fill="white"/>
<path d="M119.843 81.2878C119.767 81.2879 119.693 81.2678 119.627 81.2296C117.951 80.25 116.098 79.6115 114.174 79.3509C113.795 79.2984 113.414 79.2585 113.033 79.2311C112.796 79.2146 112.558 79.2072 112.32 79.2089H112.317C112.212 79.209 112.112 79.171 112.033 79.102C111.955 79.033 111.904 78.9378 111.891 78.8342C111.878 78.7305 111.903 78.6256 111.961 78.5391C112.02 78.4525 112.108 78.3903 112.209 78.3641L137.882 71.6795L146.011 69.564C146.122 69.5356 146.239 69.5516 146.337 69.6093C146.436 69.667 146.506 69.7616 146.535 69.8722L147.51 73.655C147.538 73.765 147.521 73.8818 147.464 73.9797C147.406 74.0776 147.312 74.1487 147.202 74.1773L135.934 77.113L119.951 81.2742C119.916 81.2835 119.88 81.2882 119.843 81.2881L119.843 81.2878ZM114.797 78.5777C116.593 78.8811 118.322 79.4976 119.905 80.3993L135.718 76.2824L146.572 73.4548L145.812 70.5037L138.097 72.511L114.797 78.5777Z" fill="#232323"/>
<path d="M145.649 86.1097L142.162 87.1205C141.958 87.1686 141.753 87.2051 141.545 87.2298C139.194 87.5087 137.533 86.0003 136.971 83.7963L135.579 77.265C134.996 75.0632 136.183 72.7786 138.313 72.0002C138.467 71.9419 138.625 71.8932 138.785 71.8543L141.539 71.1948L145.649 86.1097Z" fill="#232323"/>
<path d="M176.973 74.2363C176.92 76.3197 175.442 78.0899 173.41 78.5036L171.445 78.9386C169.154 79.4052 167.828 77.9944 165.712 77.0552C163.516 75.9044 160.814 76.7797 159.694 78.9902C158.423 81.2791 158.363 82.7467 155.335 83.5465C143.88 86.5948 144.141 86.5772 144.141 86.5775C140.998 87.2178 141.078 83.8377 139.267 76.4741C138.619 74.0748 138.469 71.9312 140.858 71.3036L169.976 63.5057C172.335 62.8857 174.751 64.2922 175.39 66.6581C176.926 73.5419 176.994 73.3899 176.973 74.2363Z" fill="#EFAF49"/>
<path d="M155.794 67.3175L150.396 84.8606C149.898 84.9933 149.393 85.1264 148.896 85.2563L154.291 67.7186L154.556 67.6482L155.794 67.3175ZM162.172 65.6001L156.872 82.9736C156.541 83.168 156.186 83.3178 155.815 83.4192C155.815 83.4192 155.641 83.4661 155.336 83.5467L160.685 66.0012L161.942 65.6625L162.172 65.6001Z" fill="white"/>
</g>
<g clip-path="url(#clip4_1482_947)">
<path d="M348.751 323.996H301.84C301.078 323.996 300.681 323.091 301.199 322.532L315.082 307.632L320.619 301.689V273.248H329.972V301.689L335.509 307.632L349.393 322.532C349.91 323.091 349.514 323.996 348.751 323.996Z" fill="white"/>
<path d="M348.751 323.996H301.84C301.078 323.996 300.681 323.091 301.199 322.531L315.082 307.631H335.509L349.393 322.531C349.91 323.091 349.514 323.996 348.751 323.996Z" fill="#1C5AF6"/>
<path d="M348.751 324.432H301.84C301.311 324.432 300.851 324.132 300.639 323.648C300.427 323.165 300.519 322.623 300.879 322.235L320.182 301.517V273.247C320.182 273.132 320.228 273.021 320.31 272.939C320.392 272.857 320.503 272.812 320.619 272.812H329.972C330.088 272.812 330.199 272.857 330.281 272.939C330.363 273.021 330.409 273.132 330.409 273.247V301.517L349.713 322.235C350.073 322.624 350.164 323.166 349.952 323.649C349.74 324.132 349.28 324.432 348.751 324.432ZM321.056 273.683V301.688C321.056 301.799 321.014 301.904 320.939 301.985L301.519 322.828C301.339 323.022 301.413 323.238 301.44 323.299C301.467 323.36 301.575 323.56 301.84 323.56H348.751C349.016 323.56 349.125 323.361 349.152 323.299C349.179 323.238 349.252 323.022 349.072 322.827L329.652 301.985C329.577 301.905 329.535 301.799 329.535 301.688V273.683H321.056Z" fill="#232323"/>
<path d="M319.16 271.3H331.348C332.221 271.3 332.928 272.006 332.928 272.876C332.928 273.746 332.221 274.452 331.348 274.452H319.16C318.287 274.452 317.58 273.746 317.58 272.876C317.58 272.006 318.287 271.3 319.16 271.3Z" fill="white"/>
<path d="M331.348 274.888H326.229C326.171 274.888 326.114 274.877 326.061 274.855C326.008 274.833 325.96 274.801 325.92 274.76C325.879 274.72 325.847 274.672 325.825 274.619C325.803 274.566 325.792 274.509 325.792 274.452C325.792 274.395 325.803 274.338 325.825 274.285C325.847 274.232 325.879 274.184 325.92 274.144C325.96 274.103 326.008 274.071 326.061 274.049C326.114 274.027 326.171 274.016 326.229 274.016H331.348C331.978 274.016 332.491 273.505 332.491 272.876C332.491 272.247 331.978 271.736 331.348 271.736H319.16C318.53 271.736 318.017 272.247 318.017 272.876C318.017 273.505 318.53 274.016 319.16 274.016H322.485C322.542 274.016 322.599 274.027 322.652 274.049C322.705 274.071 322.753 274.103 322.794 274.144C322.834 274.184 322.866 274.232 322.888 274.285C322.91 274.338 322.921 274.395 322.921 274.452C322.921 274.509 322.91 274.566 322.888 274.619C322.866 274.672 322.834 274.72 322.794 274.76C322.753 274.801 322.705 274.833 322.652 274.855C322.599 274.877 322.542 274.888 322.485 274.888H319.16C318.048 274.888 317.143 273.985 317.143 272.876C317.143 271.766 318.048 270.864 319.16 270.864H331.348C332.46 270.864 333.365 271.766 333.365 272.876C333.365 273.985 332.46 274.888 331.348 274.888Z" fill="#232323"/>
</g>
<defs>
<clipPath id="clip0_1482_947">
<rect width="319.968" height="312.624" fill="white" transform="translate(9.64795 30.0957)"/>
</clipPath>
<clipPath id="clip1_1482_947">
<rect width="47.232" height="72.288" fill="white" transform="translate(265.968 251.712)"/>
</clipPath>
<clipPath id="clip2_1482_947">
<rect width="49.68" height="72.72" fill="white" transform="translate(264.96 251.712)"/>
</clipPath>
<clipPath id="clip3_1482_947">
<rect width="65.088" height="23.904" fill="white" transform="translate(111.888 63.3599)"/>
</clipPath>
<clipPath id="clip4_1482_947">
<rect width="49.536" height="53.568" fill="white" transform="translate(300.528 270.864)"/>
</clipPath>
</defs>
</svg>
