<svg width="372" height="372" viewBox="0 0 372 372" fill="none" xmlns="http://www.w3.org/2000/svg">
<rect width="372" height="372" fill="white"/>
<g clip-path="url(#clip0_1482_1393)">
<path d="M233.33 283.022C231.933 283.022 230.9 282.025 231.474 280.753L266.259 203.717C267.53 200.904 270.335 199.094 273.427 199.094H351.072C354.487 199.094 356.763 202.611 355.36 205.718L320.765 282.332C320.454 283.021 319.852 282.934 319.095 282.934L233.33 283.022H233.33Z" fill="#1C5AF6"/>
<path d="M269.437 206.592C269.856 205.664 270.535 204.876 271.393 204.323C272.25 203.77 273.248 203.476 274.269 203.476H347.341C349.141 203.476 350.341 205.33 349.602 206.969L317.175 278.781H236.84L269.437 206.592Z" fill="white"/>
<path d="M209.183 278.22L211.307 282.858L232.094 282.713L262.416 282.501L262.871 282.992L263.308 283.463L263.309 283.464H318.995C320.639 283.464 321.972 282.134 321.972 280.494C321.972 280.264 321.946 280.041 321.897 279.827C321.593 278.507 320.41 277.522 318.995 277.522H263.468L263.438 277.53L263.434 277.531L262.038 277.902L232.682 278.078L209.183 278.22Z" fill="#1C5AF6"/>
<path d="M195.459 277.522C193.856 277.522 192.477 278.752 192.402 280.35C192.321 282.056 193.683 283.464 195.375 283.464H263.219C264.863 283.464 266.195 282.134 266.195 280.493C266.195 278.853 264.863 277.523 263.219 277.523H195.459L195.459 277.522Z" fill="#1C5AF6"/>
<path d="M310.066 281.447C309.555 281.447 309.14 281.033 309.14 280.523C309.14 280.012 309.555 279.598 310.066 279.598C310.578 279.598 310.993 280.012 310.993 280.523C310.993 281.033 310.578 281.447 310.066 281.447Z" fill="white"/>
<path d="M305.747 280.986C305.889 280.986 306.025 280.93 306.126 280.83C306.226 280.73 306.283 280.594 306.283 280.452C306.284 280.382 306.27 280.312 306.243 280.247C306.217 280.182 306.177 280.123 306.128 280.073C306.078 280.023 306.019 279.983 305.954 279.956C305.889 279.929 305.819 279.915 305.749 279.915L299.408 279.893H299.406C299.264 279.893 299.128 279.949 299.028 280.049C298.927 280.149 298.87 280.284 298.87 280.426C298.87 280.497 298.883 280.566 298.91 280.631C298.937 280.696 298.976 280.756 299.026 280.805C299.075 280.855 299.134 280.895 299.199 280.922C299.264 280.949 299.334 280.963 299.405 280.964L305.745 280.986H305.747Z" fill="white"/>
<path d="M264.744 277.522C265.723 278.121 266.417 279.255 266.417 280.493C266.417 281.453 266.006 282.352 265.369 282.989C265.188 283.17 264.99 283.33 264.777 283.464H263.558C263.683 283.445 263.806 283.416 263.927 283.379C263.928 283.379 263.928 283.378 263.929 283.378C264.202 283.293 264.459 283.161 264.695 282.989H264.696C265.453 282.444 265.974 281.508 265.974 280.493C265.974 278.988 264.809 277.659 263.434 277.531C263.415 277.53 263.396 277.529 263.378 277.527L263.328 277.524H263.323C263.31 277.523 263.296 277.523 263.282 277.523L264.744 277.522Z" fill="white"/>
</g>
<g clip-path="url(#clip1_1482_1393)">
<path d="M147.503 238.684C159.103 233.185 166.057 222.961 170.574 216.623C179.468 204.143 187.054 199.212 193.22 200.882C202.014 203.264 182.548 238.248 147.503 238.684Z" fill="#232323"/>
<path d="M250.323 201.052C233.493 219.667 228.609 241.625 206.335 256.239C181.744 272.373 156.839 258.703 147.503 238.684L176.143 204.253C177.561 205.783 181.58 210.728 183.082 212.566C183.382 212.932 183.679 213.299 183.975 213.667C185.658 215.749 186.915 217.373 186.915 217.373C186.915 217.373 210.007 189.804 236.916 173.93C266.201 156.655 257.168 168.385 257.168 168.385C289.423 156.532 270.056 169.669 270.056 169.669C288.534 164.795 272.23 174.986 272.23 174.986C286.483 173.156 269.427 181.596 269.059 181.778C281.156 179.429 263.376 186.615 250.323 201.052Z" fill="white"/>
<path d="M184 263.782C180.635 263.782 177.273 263.313 173.949 262.368C162.493 259.113 152.463 250.326 147.118 238.863C147.084 238.79 147.071 238.709 147.082 238.629C147.092 238.549 147.125 238.474 147.176 238.412L175.816 203.982C175.855 203.935 175.903 203.897 175.957 203.871C176.012 203.845 176.071 203.83 176.131 203.828C176.192 203.826 176.252 203.837 176.308 203.861C176.363 203.884 176.414 203.92 176.454 203.964C177.76 205.371 181.278 209.683 182.969 211.755L183.412 212.297C183.72 212.673 184.02 213.044 184.307 213.4C185.189 214.493 186.064 215.593 186.93 216.699C188.3 215.1 193.716 208.889 201.529 201.299C209.881 193.184 222.764 181.785 236.7 173.563C254.268 163.201 257.603 163.478 258.583 164.587C259.252 165.344 258.765 166.61 258.236 167.543C263.972 165.463 268.362 164.084 271.294 163.44C274.231 162.796 275.726 162.87 276.142 163.681C276.566 164.506 275.738 165.725 273.457 167.633C273.008 168.007 272.551 168.371 272.085 168.724C277.745 167.398 278.893 167.95 279.218 168.703C279.477 169.3 279.349 170.312 276.042 172.853C275.309 173.417 274.556 173.948 273.931 174.374C276.702 174.144 278.029 174.433 278.287 175.285C278.485 175.941 278.176 177.019 273.991 179.559C273.155 180.067 272.302 180.547 271.555 180.954C272.891 180.829 273.294 181.025 273.459 181.406C273.808 182.213 272.634 183.108 268.505 186.091C263.82 189.475 256.738 194.59 250.638 201.337C244.101 208.568 239.324 216.385 234.705 223.945C227.264 236.124 220.235 247.627 206.568 256.594C199.301 261.362 191.642 263.782 184 263.782ZM148.003 238.747C153.273 249.871 163.041 258.384 174.181 261.55C177.425 262.472 180.708 262.93 183.994 262.93C191.475 262.931 198.977 260.558 206.102 255.883C219.609 247.021 226.589 235.597 233.979 223.502C238.619 215.909 243.417 208.057 250.008 200.767C256.168 193.954 263.293 188.807 268.007 185.402C270.064 183.916 272.184 182.385 272.597 181.779C272.291 181.73 271.449 181.746 269.141 182.195C268.931 182.235 268.725 182.115 268.657 181.914C268.589 181.712 268.68 181.491 268.871 181.397C269.123 181.272 271.391 180.143 273.55 178.833C277.661 176.337 277.483 175.563 277.473 175.531C277.464 175.5 277.186 174.778 272.284 175.407C272.188 175.42 272.09 175.399 272.007 175.348C271.925 175.298 271.862 175.22 271.829 175.129C271.796 175.037 271.796 174.938 271.828 174.846C271.86 174.754 271.922 174.676 272.005 174.625C272.023 174.614 273.83 173.481 275.528 172.176C278.694 169.743 278.45 169.068 278.438 169.04C278.393 168.935 277.775 168.072 270.164 170.08C270.067 170.106 269.964 170.096 269.874 170.053C269.783 170.01 269.711 169.936 269.669 169.845C269.628 169.754 269.62 169.651 269.647 169.554C269.674 169.458 269.734 169.374 269.817 169.317C269.833 169.306 271.431 168.22 272.916 166.977C275.656 164.684 275.389 164.075 275.386 164.069C275.373 164.045 275.042 163.488 271.476 164.271C268.378 164.951 263.613 166.469 257.315 168.784C257.228 168.815 257.134 168.818 257.046 168.791C256.958 168.765 256.881 168.71 256.826 168.636C256.772 168.562 256.743 168.472 256.744 168.38C256.745 168.288 256.775 168.199 256.831 168.126C257.534 167.212 258.374 165.634 257.946 165.15C257.519 164.667 254.755 163.901 237.132 174.296C223.268 182.474 210.44 193.826 202.121 201.908C193.104 210.668 187.299 217.576 187.241 217.645C187.2 217.694 187.149 217.733 187.091 217.759C187.034 217.786 186.971 217.799 186.907 217.797C186.844 217.796 186.781 217.781 186.724 217.752C186.668 217.724 186.618 217.683 186.579 217.632C186.567 217.616 185.305 215.988 183.645 213.933C183.35 213.566 183.053 213.2 182.754 212.836L182.311 212.293C180.752 210.382 177.634 206.562 176.157 204.901L148.003 238.747Z" fill="#232323"/>
<path d="M188.057 216.111C183.694 221.363 181.057 226.348 181.057 226.348L188.057 216.111Z" fill="white"/>
<path d="M181.056 226.772C180.983 226.772 180.911 226.753 180.847 226.717C180.783 226.681 180.73 226.629 180.692 226.566C180.654 226.503 180.633 226.432 180.632 226.359C180.63 226.286 180.646 226.213 180.681 226.148C180.707 226.098 183.388 221.065 187.73 215.839C187.802 215.752 187.905 215.698 188.018 215.688C188.13 215.677 188.242 215.712 188.328 215.784C188.415 215.856 188.47 215.959 188.48 216.072C188.49 216.184 188.456 216.296 188.384 216.383C184.098 221.541 181.458 226.496 181.432 226.546C181.396 226.614 181.342 226.671 181.276 226.711C181.209 226.751 181.133 226.772 181.056 226.772ZM244.036 186.351C243.955 186.351 243.875 186.328 243.807 186.284C243.739 186.241 243.684 186.179 243.65 186.105C243.616 186.032 243.604 185.95 243.614 185.87C243.625 185.79 243.658 185.714 243.71 185.653C246.493 182.338 248.656 179.283 250.946 176.049C252.882 173.315 254.884 170.487 257.399 167.309C257.47 167.222 257.572 167.166 257.683 167.153C257.794 167.141 257.906 167.173 257.994 167.242C258.082 167.312 258.139 167.413 258.153 167.525C258.166 167.636 258.135 167.748 258.066 167.836C255.565 170.997 253.569 173.815 251.64 176.541C249.34 179.789 247.167 182.858 244.361 186.199C244.322 186.247 244.272 186.285 244.215 186.311C244.159 186.338 244.098 186.351 244.036 186.351ZM258.762 175.821C258.665 175.821 258.571 175.788 258.495 175.727C258.42 175.666 258.367 175.582 258.347 175.487C258.326 175.392 258.338 175.293 258.381 175.206C258.425 175.119 258.496 175.05 258.585 175.01C258.672 174.969 267.419 170.945 271.615 168.111C271.661 168.079 271.713 168.056 271.769 168.044C271.824 168.032 271.881 168.031 271.936 168.042C271.992 168.052 272.044 168.073 272.092 168.104C272.139 168.135 272.179 168.175 272.211 168.222C272.242 168.268 272.264 168.321 272.275 168.376C272.286 168.432 272.286 168.489 272.275 168.544C272.264 168.599 272.242 168.652 272.21 168.698C272.179 168.745 272.138 168.785 272.091 168.816C267.836 171.688 259.028 175.741 258.939 175.782C258.882 175.808 258.822 175.821 258.762 175.821ZM261.203 180.311C261.104 180.311 261.008 180.277 260.931 180.213C260.855 180.15 260.803 180.061 260.785 179.964C260.767 179.866 260.784 179.765 260.832 179.678C260.881 179.592 260.958 179.525 261.051 179.489C261.126 179.46 268.666 176.558 273.843 173.446C273.94 173.388 274.055 173.37 274.165 173.398C274.274 173.425 274.368 173.494 274.426 173.591C274.484 173.688 274.502 173.803 274.474 173.913C274.447 174.022 274.378 174.116 274.281 174.174C269.04 177.325 261.431 180.254 261.355 180.283C261.307 180.302 261.255 180.311 261.203 180.311ZM261.944 184.885C261.843 184.885 261.746 184.849 261.669 184.784C261.592 184.719 261.541 184.628 261.525 184.529C261.509 184.429 261.528 184.327 261.58 184.241C261.632 184.154 261.713 184.089 261.809 184.057C261.863 184.039 267.289 182.211 271.471 180.095C271.521 180.07 271.575 180.055 271.631 180.051C271.687 180.047 271.743 180.053 271.796 180.071C271.849 180.088 271.898 180.116 271.94 180.152C271.983 180.189 272.017 180.233 272.043 180.283C272.068 180.333 272.083 180.387 272.087 180.443C272.091 180.498 272.085 180.554 272.067 180.607C272.05 180.66 272.022 180.709 271.986 180.752C271.949 180.794 271.905 180.829 271.855 180.854C267.616 182.998 262.134 184.845 262.079 184.863C262.036 184.878 261.99 184.885 261.944 184.885Z" fill="#232323"/>
<path d="M139.192 264.635C139.14 264.635 139.089 264.624 139.042 264.602C138.995 264.58 138.953 264.548 138.92 264.508C134.835 259.615 130.869 256.689 130.83 256.661C130.792 256.633 130.761 256.598 130.736 256.559C130.712 256.519 130.696 256.475 130.689 256.429C130.682 256.383 130.684 256.336 130.695 256.291C130.706 256.246 130.726 256.203 130.753 256.166C130.781 256.128 130.815 256.096 130.855 256.072C130.895 256.048 130.939 256.032 130.985 256.025C131.031 256.018 131.078 256.02 131.123 256.031C131.168 256.042 131.211 256.061 131.248 256.089C131.288 256.118 135.32 259.09 139.464 264.054C139.507 264.106 139.534 264.169 139.543 264.235C139.552 264.302 139.541 264.37 139.513 264.431C139.484 264.492 139.439 264.543 139.382 264.58C139.325 264.616 139.26 264.635 139.192 264.635Z" fill="#9B3C82"/>
<path d="M101.688 106.688C103.153 125.979 86.748 138.57 71.9135 135.134C57.0789 131.698 38.4222 137.931 31.6125 154.678C21.7348 178.969 39.7915 188.365 20.1714 207.53C3.82745 223.495 6.51068 246.132 32.6606 256.845C32.6606 256.845 84.1756 265.355 95.8168 255.329C105.24 247.214 111.01 236.883 114.826 224.248C123.355 196.002 113.074 176.159 113.074 176.159L119.374 129.533L101.688 106.688Z" fill="#232323"/>
<path d="M149.152 141.036C146.732 142.589 144.051 142.914 139.438 141.776C138.377 144.38 137.575 157.88 140.742 167.46C136.935 173.615 114.624 177.033 106.71 163.887C115.164 150.39 117.416 136.241 116.662 132.861L107.266 119.85C107.018 119.553 106.779 119.249 106.55 118.938C105.337 117.302 106.063 115.148 105.409 113.278C101.541 102.257 105.995 89.8668 120.11 85.7825C120.298 85.7312 121.551 85.3589 121.563 85.3551C124.506 84.5665 126.456 84.5165 129.497 84.7568C136.337 85.2967 141.909 88.3537 145.86 93.9023C147.501 96.2059 149.038 98.0814 150.166 100.67C150.46 101.352 150.723 102.04 150.966 102.736C150.985 102.783 151 102.83 151.017 102.877C151.019 102.887 151.023 102.895 151.026 102.903V102.905C151.026 102.907 151.028 102.907 151.028 102.909C151.036 102.928 151.041 102.948 151.049 102.966C151.049 102.971 151.05 102.975 151.053 102.978C151.054 102.985 151.058 102.991 151.06 102.997C151.067 103.021 151.075 103.046 151.084 103.068C151.086 103.076 151.09 103.089 151.092 103.097C151.223 103.47 151.633 104.606 152.163 106.2C152.244 106.445 152.324 106.689 152.403 106.934C152.47 107.138 152.537 107.348 152.605 107.562C152.613 107.588 152.622 107.615 152.629 107.641C153.573 110.61 154.688 114.565 155.242 118.183C156.267 124.876 155.091 137.227 149.152 141.036Z" fill="white"/>
<path d="M125.346 173.336C125.285 173.336 125.225 173.336 125.164 173.336C116.706 173.285 109.847 169.921 106.346 164.106C106.305 164.039 106.284 163.962 106.285 163.883C106.285 163.805 106.308 163.728 106.35 163.661C114.826 150.128 116.887 136.229 116.265 133.037L106.93 120.111C106.68 119.811 106.439 119.504 106.208 119.189C105.422 118.13 105.371 116.902 105.323 115.715C105.29 114.903 105.258 114.135 105.007 113.418C102.924 107.481 103.233 101.385 105.877 96.2537C108.569 91.0291 113.45 87.267 119.992 85.3743C120.177 85.3236 121.394 84.9625 121.441 84.9483C124.516 84.1242 126.497 84.0937 129.531 84.3333C136.587 84.8903 142.198 88.027 146.207 93.656C146.507 94.0773 146.804 94.4843 147.095 94.884C148.392 96.6634 149.616 98.344 150.556 100.5C150.839 101.159 151.104 101.841 151.365 102.587C151.379 102.622 151.391 102.656 151.403 102.691L151.418 102.733L151.424 102.751L151.428 102.763C151.433 102.776 151.438 102.789 151.442 102.802C151.447 102.815 151.452 102.827 151.456 102.84C151.461 102.853 151.465 102.866 151.468 102.877C151.471 102.886 151.474 102.895 151.477 102.904C151.487 102.927 151.494 102.948 151.499 102.971L151.584 103.211C151.922 104.159 152.249 105.111 152.567 106.066C152.648 106.312 152.728 106.557 152.808 106.803C152.86 106.961 152.912 107.125 152.966 107.291L153.011 107.432L153.015 107.448L153.023 107.473C153.028 107.489 153.033 107.504 153.037 107.519C153.921 110.302 155.093 114.398 155.663 118.119C156.234 121.85 156.067 126.701 155.226 130.777C154.48 134.389 152.861 139.163 149.383 141.394H149.382C146.838 143.026 144.018 143.289 139.713 142.279C138.766 145.452 138.101 158.115 141.146 167.327C141.185 167.446 141.17 167.577 141.104 167.684C139.102 170.92 132.349 173.336 125.346 173.336ZM107.209 163.889C109.001 166.762 111.607 168.968 114.956 170.447C117.926 171.759 121.457 172.463 125.169 172.486C125.229 172.486 125.29 172.486 125.35 172.486C131.959 172.486 138.288 170.324 140.275 167.399C138.467 161.806 138.123 155.369 138.08 152.007C138.014 146.9 138.515 142.914 139.044 141.615C139.083 141.521 139.154 141.443 139.245 141.397C139.336 141.351 139.441 141.339 139.54 141.363C143.862 142.429 146.493 142.238 148.923 140.679C150.706 139.535 153.102 136.86 154.393 130.605C155.215 126.621 155.38 121.886 154.822 118.248C154.261 114.578 153.1 110.524 152.224 107.77C152.223 107.765 152.221 107.76 152.22 107.755L152.212 107.729C152.208 107.714 152.203 107.7 152.199 107.685L152.156 107.551C152.104 107.39 152.052 107.228 151.999 107.067C151.92 106.823 151.841 106.579 151.76 106.335C151.322 105.016 150.971 104.026 150.782 103.495L150.691 103.237C150.687 103.224 150.683 103.212 150.679 103.198C150.673 103.179 150.666 103.16 150.66 103.141C150.655 103.129 150.651 103.117 150.647 103.105C150.643 103.094 150.639 103.084 150.636 103.073C150.633 103.066 150.63 103.059 150.628 103.052L150.626 103.048C150.62 103.031 150.614 103.015 150.609 102.998L150.599 102.968C150.591 102.944 150.582 102.919 150.572 102.895C150.57 102.888 150.568 102.882 150.565 102.876C150.31 102.146 150.051 101.479 149.775 100.838C148.874 98.7689 147.676 97.125 146.408 95.3845C146.115 94.9823 145.816 94.5729 145.514 94.1489C141.658 88.7342 136.258 85.7169 129.463 85.1805C126.531 84.9489 124.618 84.9772 121.678 85.7643C121.567 85.7975 120.412 86.1405 120.223 86.1924C113.917 88.017 109.215 91.6314 106.633 96.643C104.097 101.564 103.804 107.422 105.81 113.137C106.103 113.974 106.138 114.842 106.173 115.681C106.218 116.788 106.26 117.834 106.892 118.684C107.113 118.985 107.348 119.285 107.592 119.578C107.598 119.585 107.605 119.593 107.61 119.601L117.007 132.612C117.041 132.659 117.064 132.712 117.077 132.769C117.458 134.477 117.134 138.826 115.549 144.691C114.287 149.364 111.818 156.47 107.209 163.889ZM151.46 102.857L151.461 102.859C151.461 102.858 151.46 102.857 151.46 102.857ZM151.46 102.855L151.46 102.856C151.46 102.856 151.46 102.855 151.46 102.855Z" fill="#232323"/>
<path d="M132.471 111.13C129.886 112.685 128.924 115.448 129.83 116.592C130.736 117.736 133.497 117.276 135.751 115.272C138.069 113.213 139.257 110.805 138.392 109.811C137.495 108.78 135.035 109.588 132.471 111.13ZM152.629 107.641C152.245 107.801 151.848 107.929 151.443 108.026C148.651 108.7 146.194 108.332 145.893 107.149C145.584 105.92 147.479 104.228 150.007 103.093C150.33 102.948 150.649 102.822 150.966 102.736C150.985 102.783 151 102.83 151.017 102.877C151.019 102.887 151.022 102.896 151.026 102.905L151.049 102.966C151.049 102.971 151.05 102.975 151.053 102.979C151.054 102.985 151.058 102.991 151.06 102.997C151.067 103.022 151.075 103.046 151.084 103.068C151.086 103.077 151.09 103.089 151.092 103.097C151.223 103.47 151.633 104.606 152.163 106.201C152.302 106.625 152.451 107.081 152.605 107.562C152.613 107.588 152.622 107.615 152.629 107.641ZM147.668 127.94C147.425 128.238 147.109 128.468 146.773 128.64C146.436 128.807 146.075 128.923 145.704 128.983C144.967 129.104 144.199 129.046 143.478 128.754C143.128 128.604 142.801 128.407 142.506 128.167C142.215 127.923 141.953 127.643 141.747 127.324C141.33 126.694 141.11 125.921 141.196 125.173C141.203 125.106 141.235 125.044 141.286 124.999C141.336 124.955 141.402 124.93 141.469 124.931C141.537 124.932 141.602 124.959 141.651 125.005C141.7 125.051 141.73 125.114 141.735 125.182L141.736 125.188C141.787 125.807 142.023 126.391 142.389 126.874C142.759 127.356 143.247 127.734 143.806 127.971C144.349 128.198 144.985 128.269 145.597 128.211C146.21 128.15 146.813 127.949 147.279 127.564L147.284 127.56C147.336 127.517 147.402 127.495 147.469 127.498C147.537 127.501 147.6 127.529 147.648 127.576C147.696 127.624 147.724 127.687 147.728 127.755C147.732 127.822 147.71 127.888 147.668 127.94ZM134.454 118.306C135.599 117.716 138.377 116.366 140.712 114.243C140.79 114.172 140.881 114.117 140.98 114.082C141.079 114.046 141.184 114.031 141.289 114.036C141.395 114.042 141.498 114.068 141.593 114.113C141.687 114.159 141.772 114.223 141.843 114.301C142.605 115.152 143.593 116.742 141.817 117.984C139.635 119.51 135.525 119.818 134.392 118.996C134.148 118.82 134.187 118.443 134.454 118.306ZM152.466 110.325C151.341 110.709 149.735 110.97 147.319 111.288C146.878 111.346 146.621 111.82 146.725 112.252C146.992 113.362 147.689 114.923 149.771 114.322C151.855 113.72 153.007 112.062 153.07 110.666C153.084 110.365 152.751 110.228 152.466 110.325ZM139.535 98.9641C139.535 98.9641 133.131 106.834 130.897 108.905C125.813 113.618 117.473 117.65 107.194 119.658C106.991 119.414 106.773 119.176 106.55 118.938C105.337 117.302 103.248 113.621 102.568 111.76C100.539 106.211 101.455 89.3463 117.658 84.2691C134.647 78.9455 144.105 90.4648 146.091 93.2536C147.731 95.5572 149.038 98.0816 150.166 100.67C150.46 101.353 150.366 101.159 150.639 101.84C150.649 101.862 148.009 101.719 145.349 101.026C142.462 100.273 139.535 98.9641 139.535 98.9641Z" fill="#232323"/>
<path d="M118.415 118.953C118.415 118.953 112.693 114.641 107.006 117.415C101.641 120.031 103.409 128.53 113.878 132.188C115.486 132.75 118.313 133.269 120.486 133.185" fill="white"/>
<path d="M119.992 133.619C117.817 133.619 115.259 133.121 113.738 132.59C110.668 131.517 108.101 129.938 106.315 128.024C104.703 126.297 103.755 124.31 103.644 122.43C103.504 120.052 104.661 118.085 106.819 117.033C112.673 114.178 118.429 118.432 118.671 118.614C118.76 118.682 118.819 118.783 118.834 118.894C118.849 119.005 118.82 119.118 118.752 119.207C118.685 119.297 118.585 119.356 118.474 119.372C118.363 119.388 118.25 119.36 118.16 119.293C118.104 119.252 112.572 115.173 107.192 117.797C105.358 118.691 104.374 120.362 104.493 122.38C104.661 125.243 107.257 129.425 114.018 131.787C115.546 132.321 118.326 132.843 120.469 132.76C120.525 132.757 120.581 132.766 120.633 132.785C120.686 132.804 120.734 132.834 120.775 132.872C120.816 132.91 120.849 132.955 120.872 133.006C120.896 133.057 120.908 133.112 120.91 133.168C120.915 133.281 120.874 133.39 120.797 133.473C120.721 133.556 120.615 133.605 120.502 133.609C120.335 133.616 120.165 133.619 119.992 133.619ZM139.579 141.351C139.217 142.417 138.808 145.217 138.67 148.81C138.669 148.808 138.668 148.808 138.668 148.808C131.105 145.697 130.103 139.839 131.299 138.608C132.335 137.541 133.883 138.782 135.189 139.411C137.766 140.652 137.327 140.424 139.579 141.351Z" fill="#232323"/>
<path d="M108.554 121.978C108.554 121.978 113.787 120.753 117.658 126.281L108.554 121.978Z" fill="white"/>
<path d="M117.658 126.706C117.59 126.706 117.523 126.69 117.462 126.658C117.401 126.627 117.349 126.581 117.31 126.525C113.66 121.313 108.853 122.345 108.65 122.392C108.42 122.445 108.194 122.302 108.141 122.074C108.088 121.846 108.229 121.618 108.457 121.564C108.514 121.551 109.88 121.241 111.743 121.641C113.453 122.008 115.927 123.069 118.006 126.037C118.051 126.101 118.077 126.176 118.082 126.253C118.087 126.331 118.071 126.408 118.035 126.477C117.999 126.546 117.945 126.604 117.879 126.644C117.812 126.684 117.736 126.706 117.658 126.706ZM147.87 122.099C147.771 122.099 147.675 122.064 147.599 122.001C147.523 121.938 147.471 121.85 147.452 121.753C147.434 121.656 147.45 121.555 147.498 121.469C147.545 121.382 147.622 121.315 147.714 121.278C148.676 120.897 149.806 119.585 149.8 118.858C149.798 118.711 149.758 118.56 149.473 118.453C147.093 117.56 146.272 115.622 146.239 115.54C146.196 115.436 146.196 115.319 146.239 115.215C146.282 115.111 146.365 115.028 146.469 114.985C146.573 114.942 146.69 114.942 146.794 114.985C146.899 115.028 146.981 115.111 147.024 115.215C147.036 115.242 147.757 116.901 149.772 117.658C150.333 117.868 150.645 118.292 150.65 118.85C150.66 120.02 149.216 121.597 148.027 122.068C147.977 122.088 147.924 122.099 147.87 122.099Z" fill="#232323"/>
<path d="M99.976 234.036C99.976 242.648 77.4002 256.239 68.7879 256.239C60.1756 256.239 68.7879 242.648 68.7879 234.036C68.7879 225.424 75.7696 218.443 84.382 218.443C92.9943 218.443 99.976 225.424 99.976 234.036Z" fill="#1C5AF6"/>
<path d="M193.121 200.849C193.079 200.831 192.985 200.797 192.831 200.762C192.551 200.692 192.077 200.623 191.403 200.665C188.06 200.685 180.369 202.552 170.575 216.623C169.771 217.779 168.948 218.922 168.105 220.052C165.742 222.866 163.486 225.635 161.644 227.929C158.946 231.278 157.124 233.616 157.124 233.616L165.596 267.782C165.596 267.782 163.598 272.26 158.202 273.545C151.721 275.087 141.101 277.093 126.596 273.926C94.7415 266.974 58.8035 272.945 58.8035 272.945L89.2146 230.621L115.46 164.647C120.179 167.855 129.521 176.538 139.903 166.345C139.164 163.853 138.791 161.014 138.791 161.014C138.791 161.014 146.529 155.218 155.574 171.597C166.843 192.004 177.917 193.348 193.121 200.849Z" fill="#1C5AF6"/>
<path d="M83.714 230.763C83.6797 230.763 83.6447 230.758 83.6099 230.75C69.5455 227.206 58.0564 223.229 49.4614 218.928C42.1239 215.257 37.0456 211.381 34.7756 207.72C33.0165 204.883 32.82 201.553 34.2867 199.433C35.6669 197.438 38.3178 196.713 41.7508 197.39C41.8056 197.401 41.8577 197.422 41.9042 197.453C41.9506 197.484 41.9905 197.524 42.0216 197.571C42.0527 197.617 42.0743 197.669 42.0853 197.724C42.0963 197.778 42.0964 197.835 42.0856 197.889C42.0747 197.944 42.0533 197.996 42.0223 198.043C41.9914 198.089 41.9516 198.129 41.9052 198.16C41.8588 198.191 41.8068 198.213 41.7521 198.224C41.6973 198.235 41.641 198.235 41.5862 198.224C38.506 197.616 36.1619 198.218 34.9857 199.917C33.7088 201.762 33.9146 204.718 35.4982 207.272C40.3922 215.165 58.004 223.422 83.8179 229.925C83.9185 229.951 84.0064 230.012 84.0651 230.097C84.1238 230.183 84.1491 230.287 84.1363 230.39C84.1236 230.493 84.0736 230.588 83.9958 230.656C83.918 230.725 83.8178 230.763 83.714 230.763Z" fill="#1C5AF6"/>
<path d="M178.219 283.088C175.311 280.303 170.855 277.39 163.776 274.05L163.778 274.048C171.249 268.345 170.659 266.773 163.188 268.149C159.985 268.739 156.933 269.322 153.568 269.461H153.565C153.545 269.464 153.528 269.466 153.508 269.466C127.397 258.661 89.4575 248.451 71.3843 248.101C71.3843 248.101 71.352 248.101 71.3074 248.099L86.4981 230.621L110.561 185.192L82.0241 168.544C82.0241 168.544 54.2374 189.658 33.8712 223.701C29.8587 230.408 19.9199 247.268 22.49 262.168C26.0484 282.798 47.849 288.009 55.3271 289.661C55.399 289.678 55.4735 289.693 55.5453 289.708C81.657 295.403 109.5 288.151 126.873 291.295C127.02 291.317 127.164 291.344 127.307 291.372H127.313C129.301 291.756 131.312 292.234 133.318 292.782C153.846 298.349 173.712 310.664 158.666 295.083C158.666 295.083 180.057 308.747 171.448 297.248C171.681 297.357 185.407 303.833 174.984 292.331C169.283 286.041 165.745 283.485 163.779 281.714C171.249 285.255 189.928 294.297 178.219 283.088Z" fill="white"/>
<path d="M162.944 303.1C161.176 303.101 157.685 301.805 151.78 299.549C146.466 297.52 139.851 294.994 133.207 293.192C131.146 292.629 129.144 292.158 127.253 291.792C127.245 291.792 127.237 291.79 127.228 291.789C127.09 291.762 126.951 291.736 126.81 291.714C119.349 290.365 109.722 290.955 99.5293 291.581C85.8536 292.421 70.3529 293.372 55.455 290.123L55.4282 290.117C55.3617 290.103 55.2937 290.089 55.2278 290.073C50.1782 288.958 43.56 287.19 37.2206 283.396C28.7112 278.302 23.6143 271.184 22.0715 262.24C19.4415 246.992 29.6599 229.912 33.5067 223.482C44.0492 205.86 56.6064 191.772 65.2839 183.056C74.6884 173.611 81.6976 168.259 81.7672 168.206C81.8341 168.155 81.9146 168.125 81.9985 168.12C82.0824 168.115 82.1659 168.135 82.2385 168.177L110.776 184.824C110.87 184.88 110.94 184.969 110.97 185.075C111 185.18 110.988 185.293 110.937 185.39L86.8742 230.82C86.859 230.848 86.8406 230.875 86.8194 230.9L72.2186 247.698C80.872 247.996 94.0655 250.382 109.54 254.451C124.841 258.475 140.886 263.789 153.579 269.035C156.77 268.901 159.668 268.366 162.735 267.801L163.112 267.731C167.096 266.997 168.985 267.112 169.43 268.115C170.02 269.447 167.527 271.685 164.585 273.964C170.936 277.005 175.497 279.893 178.513 282.78C182.573 286.667 182.676 287.834 182.242 288.464C181.336 289.779 177.288 288.516 166.483 283.461C168.545 285.213 171.431 287.777 175.299 292.045C179.659 296.857 179.608 298.3 179.075 299.02C178.168 300.248 174.938 299.198 172.686 298.26C173.919 300.126 174.207 301.267 173.629 301.89C173.043 302.521 171.553 302.806 165.17 299.385C163.712 298.604 162.284 297.778 161.12 297.085C164.279 300.605 164.676 301.883 164.204 302.599C163.979 302.938 163.569 303.1 162.944 303.1ZM127.366 290.95C127.376 290.951 127.385 290.952 127.393 290.954C129.311 291.324 131.342 291.802 133.43 292.372C140.115 294.185 146.751 296.719 152.083 298.755C155.331 299.996 158.136 301.067 160.196 301.688C163.046 302.546 163.443 302.207 163.494 302.13C163.503 302.117 163.703 301.78 162.672 300.317C161.843 299.14 160.432 297.524 158.36 295.378C158.288 295.303 158.245 295.204 158.241 295.1C158.237 294.996 158.271 294.894 158.337 294.813C158.403 294.733 158.496 294.679 158.599 294.663C158.702 294.647 158.807 294.669 158.895 294.725C158.927 294.745 162.173 296.814 165.575 298.638C172.008 302.086 172.923 301.401 173.006 301.311C173.06 301.253 173.465 300.652 171.108 297.502C171.051 297.426 171.021 297.333 171.023 297.239C171.025 297.144 171.058 297.053 171.118 296.979C171.178 296.906 171.261 296.854 171.353 296.833C171.445 296.812 171.542 296.822 171.628 296.862C174.546 298.231 177.87 299.221 178.391 298.515C178.513 298.35 178.906 297.292 174.669 292.616C170.233 287.721 167.099 285.086 165.025 283.343C164.437 282.848 163.929 282.421 163.494 282.03C163.419 281.961 163.37 281.868 163.357 281.767C163.344 281.666 163.369 281.563 163.425 281.478C163.482 281.393 163.567 281.332 163.665 281.304C163.764 281.277 163.869 281.286 163.961 281.33L164.67 281.666C167.59 283.052 171.589 284.951 175.08 286.347C180.862 288.661 181.49 288.059 181.542 287.982C181.561 287.955 181.963 287.26 177.926 283.395C174.878 280.477 170.19 277.546 163.595 274.435C163.529 274.403 163.471 274.356 163.429 274.296C163.387 274.236 163.361 274.166 163.353 274.093C163.346 274.02 163.357 273.947 163.387 273.879C163.416 273.812 163.462 273.754 163.521 273.71C168.692 269.763 168.756 268.694 168.653 268.46C168.568 268.268 167.927 267.709 163.266 268.567L162.889 268.637C159.787 269.209 156.857 269.749 153.6 269.885C153.51 269.895 153.427 269.892 153.346 269.858C126.211 258.63 88.6732 248.86 71.3769 248.526H71.3772C71.3718 248.526 71.334 248.525 71.2847 248.523C71.2053 248.518 71.1287 248.492 71.0636 248.446C70.9986 248.4 70.9477 248.337 70.9167 248.264C70.8857 248.191 70.8759 248.11 70.8884 248.032C70.9009 247.953 70.9351 247.88 70.9873 247.819L86.146 230.379L109.995 185.353L82.0577 169.056C80.7924 170.042 74.3024 175.202 65.8742 183.668C57.2338 192.348 44.731 206.376 34.2361 223.919C32.4805 226.853 28.8276 232.959 26.109 240.014C22.8964 248.351 21.8198 255.78 22.9091 262.095C24.4079 270.785 29.37 277.706 37.6573 282.666C43.8914 286.398 50.4242 288.142 55.419 289.245C55.4839 289.261 55.5424 289.273 55.5997 289.285L55.6318 289.291C70.4185 292.516 85.8563 291.569 99.4773 290.733C109.722 290.104 119.399 289.51 126.949 290.876C127.083 290.896 127.225 290.923 127.366 290.95Z" fill="#232323"/>
<path d="M171.668 297.878C171.559 297.878 171.453 297.836 171.374 297.76C166.9 293.476 162.517 289.411 158.09 286.755C157.993 286.697 157.924 286.603 157.896 286.493C157.869 286.384 157.886 286.268 157.944 286.172C158.002 286.075 158.096 286.005 158.206 285.978C158.315 285.951 158.431 285.968 158.528 286.026C163.03 288.727 167.452 292.827 171.962 297.146C172.023 297.205 172.066 297.281 172.084 297.363C172.101 297.446 172.094 297.533 172.062 297.611C172.031 297.69 171.976 297.757 171.906 297.805C171.836 297.853 171.753 297.878 171.668 297.878ZM158.569 295.456C158.467 295.456 158.368 295.419 158.291 295.352C156.212 293.55 154.165 292.21 154.144 292.196C154.05 292.134 153.985 292.038 153.962 291.928C153.939 291.818 153.961 291.703 154.022 291.609C154.083 291.515 154.18 291.449 154.289 291.425C154.399 291.402 154.514 291.423 154.609 291.484C154.629 291.498 156.723 292.868 158.848 294.71C158.913 294.767 158.96 294.842 158.981 294.926C159.003 295.01 158.998 295.098 158.968 295.18C158.938 295.261 158.883 295.331 158.812 295.38C158.741 295.43 158.656 295.456 158.569 295.456ZM165.253 275.138C165.195 275.138 165.135 275.126 165.078 275.1C165.013 275.07 158.52 272.12 152.304 269.401C152.252 269.379 152.205 269.347 152.166 269.306C152.127 269.266 152.096 269.219 152.075 269.166C152.054 269.114 152.044 269.058 152.045 269.002C152.046 268.946 152.058 268.891 152.081 268.839C152.103 268.788 152.136 268.741 152.176 268.702C152.217 268.664 152.265 268.633 152.317 268.613C152.369 268.593 152.425 268.583 152.482 268.585C152.538 268.586 152.593 268.599 152.644 268.622C158.867 271.344 165.365 274.296 165.43 274.326C165.518 274.366 165.59 274.435 165.634 274.522C165.677 274.609 165.69 274.708 165.669 274.803C165.649 274.898 165.596 274.983 165.521 275.044C165.445 275.105 165.351 275.138 165.253 275.138ZM60.1259 251.841C60.0294 251.841 59.9358 251.809 59.8604 251.748C59.785 251.688 59.7323 251.604 59.711 251.51C59.6896 251.416 59.7009 251.318 59.743 251.231C59.7851 251.144 59.8555 251.074 59.9426 251.033C63.9865 249.104 68.8616 247.728 72.9837 247.352C73.0959 247.342 73.2075 247.377 73.2941 247.449C73.3806 247.521 73.4351 247.625 73.4456 247.737C73.4558 247.849 73.4211 247.961 73.3489 248.047C73.2768 248.134 73.1732 248.188 73.0609 248.199C69.0336 248.566 64.2664 249.912 60.3087 251.8C60.2516 251.827 60.1891 251.841 60.1259 251.841Z" fill="#232323"/>
<path d="M87.7136 231.838C98.8498 219.57 117.11 185.924 115.46 164.647C113.761 142.753 91.4886 153.7 65.064 178.048C53.7763 188.448 39.2055 195.6 35.4307 198.431C44.3018 196.544 56.9479 205.604 67.1403 216.928C71.36 221.617 78.0875 229.573 87.7136 231.838Z" fill="#1C5AF6"/>
<path d="M158.258 236.805C158.18 236.805 158.104 236.78 158.042 236.732C157.98 236.685 157.936 236.618 157.916 236.543L138.957 165.733C138.935 165.643 138.949 165.547 138.996 165.467C139.043 165.387 139.12 165.329 139.21 165.305C139.299 165.281 139.395 165.293 139.476 165.339C139.557 165.385 139.616 165.46 139.642 165.55L158.6 236.36C158.614 236.412 158.616 236.467 158.606 236.52C158.595 236.574 158.572 236.624 158.539 236.667C158.506 236.71 158.463 236.745 158.415 236.769C158.366 236.793 158.312 236.805 158.258 236.805ZM85.9641 231.58C85.8979 231.58 85.833 231.561 85.7768 231.526C85.7206 231.491 85.6754 231.441 85.6463 231.381C85.6172 231.322 85.6054 231.255 85.6122 231.189C85.619 231.123 85.6442 231.061 85.6849 231.008C97.7963 215.427 106.3 201.157 110.959 188.593C114.623 178.712 116.018 169.779 115.224 161.284C115.22 161.237 115.225 161.191 115.238 161.146C115.252 161.102 115.274 161.06 115.304 161.025C115.334 160.989 115.37 160.959 115.411 160.937C115.452 160.916 115.497 160.902 115.544 160.898C115.59 160.894 115.637 160.899 115.681 160.912C115.726 160.926 115.767 160.948 115.803 160.978C115.839 161.008 115.868 161.044 115.89 161.085C115.912 161.126 115.925 161.171 115.929 161.218C116.734 169.821 115.325 178.856 111.623 188.839C106.939 201.471 98.4002 215.805 86.2441 231.443C86.2109 231.486 86.1685 231.52 86.1199 231.544C86.0714 231.568 86.0181 231.58 85.9641 231.58Z" fill="white"/>
</g>
<g clip-path="url(#clip2_1482_1393)">
<path d="M266.863 191.394L252.29 189.02C250.153 188.672 248.703 186.657 249.051 184.521L254.941 148.43C255.29 146.293 257.306 144.843 259.443 145.192L274.015 147.566C276.153 147.914 277.603 149.928 277.254 152.065L271.364 188.156C271.016 190.293 269 191.742 266.863 191.394Z" fill="white"/>
<path d="M268.144 192.71C267.648 192.772 267.146 192.762 266.652 192.682L252.08 190.307C250.702 190.083 249.494 189.335 248.679 188.203C247.863 187.07 247.538 185.688 247.763 184.311L253.653 148.219C253.878 146.842 254.626 145.635 255.759 144.819C256.892 144.004 258.275 143.679 259.653 143.903L274.226 146.277C275.604 146.502 276.811 147.249 277.627 148.382C278.442 149.515 278.768 150.897 278.543 152.274L272.653 188.365C272.271 190.703 270.384 192.428 268.144 192.71ZM267.073 190.106C268.495 190.338 269.843 189.369 270.076 187.946L275.966 151.855C276.022 151.516 276.01 151.169 275.932 150.835C275.853 150.5 275.709 150.185 275.507 149.907C275.307 149.627 275.054 149.39 274.762 149.21C274.469 149.029 274.144 148.908 273.805 148.853L259.233 146.479C258.894 146.423 258.547 146.435 258.213 146.513C257.878 146.592 257.562 146.736 257.284 146.938C257.004 147.138 256.767 147.391 256.586 147.683C256.406 147.975 256.284 148.3 256.23 148.639L250.34 184.73C250.284 185.069 250.295 185.416 250.374 185.75C250.453 186.085 250.597 186.4 250.798 186.678C250.998 186.958 251.252 187.195 251.544 187.376C251.836 187.556 252.161 187.677 252.501 187.732L267.073 190.106Z" fill="#232323"/>
<path d="M270.638 149.293C270.534 149.306 270.426 149.304 270.318 149.287L262.027 147.936C261.881 147.912 261.742 147.861 261.617 147.783C261.492 147.706 261.383 147.605 261.297 147.486C261.211 147.367 261.149 147.231 261.115 147.088C261.081 146.945 261.076 146.797 261.1 146.652C261.124 146.506 261.176 146.367 261.253 146.242C261.331 146.117 261.432 146.009 261.552 145.923C261.671 145.837 261.806 145.776 261.95 145.742C262.093 145.709 262.242 145.704 262.387 145.728L270.678 147.079C270.944 147.122 271.185 147.259 271.358 147.465C271.531 147.672 271.623 147.934 271.618 148.203C271.613 148.472 271.512 148.73 271.332 148.93C271.152 149.131 270.905 149.259 270.638 149.293Z" fill="#232323"/>
</g>
<g clip-path="url(#clip3_1482_1393)">
<path d="M257.331 156.393L272.353 158.988L270.016 172.159L254.994 169.564L257.331 156.393Z" fill="#F9AF36"/>
</g>
<g clip-path="url(#clip4_1482_1393)">
<path d="M341.94 176.127C341.932 176.064 341.907 176.004 341.868 175.953C341.829 175.902 341.777 175.863 341.718 175.839L335.702 173.402C342.575 156.153 334.177 136.509 316.85 129.483C316.806 129.465 316.759 129.456 316.711 129.456C316.664 129.456 316.616 129.465 316.573 129.483C316.529 129.502 316.489 129.529 316.455 129.562C316.422 129.596 316.396 129.636 316.378 129.68L313.103 137.661C313.085 137.705 313.075 137.752 313.075 137.799C313.076 137.846 313.085 137.893 313.104 137.937C313.122 137.98 313.149 138.02 313.183 138.053C313.217 138.086 313.257 138.112 313.301 138.13C325.831 143.212 331.921 157.396 327.005 169.88L320.998 167.438C320.939 167.414 320.874 167.406 320.811 167.415C320.748 167.424 320.689 167.448 320.638 167.487C320.588 167.526 320.549 167.577 320.525 167.636C320.501 167.695 320.493 167.758 320.502 167.821L323.544 189.854C323.552 189.917 323.577 189.977 323.616 190.027C323.655 190.078 323.707 190.117 323.766 190.142C323.809 190.16 323.856 190.169 323.903 190.169C323.984 190.169 324.062 190.142 324.125 190.093L341.809 176.462C341.858 176.423 341.896 176.371 341.919 176.312C341.942 176.253 341.949 176.189 341.94 176.127Z" fill="#F9AF36"/>
</g>
<g clip-path="url(#clip5_1482_1393)">
<path d="M235.506 156.415C235.489 156.383 235.48 156.346 235.481 156.309C235.483 156.272 235.494 156.235 235.514 156.204L237.537 153.012C228.445 147.201 225.772 135.078 231.596 125.88C231.61 125.857 231.63 125.836 231.652 125.82C231.675 125.804 231.7 125.792 231.727 125.786C231.754 125.78 231.782 125.779 231.81 125.784C231.837 125.788 231.863 125.798 231.886 125.813L236.138 128.469C236.161 128.483 236.181 128.502 236.197 128.525C236.213 128.547 236.225 128.572 236.231 128.599C236.237 128.626 236.237 128.654 236.232 128.681C236.228 128.708 236.217 128.734 236.202 128.758C231.991 135.409 233.909 144.172 240.462 148.397L242.479 145.206C242.499 145.174 242.527 145.149 242.559 145.131C242.592 145.114 242.629 145.106 242.666 145.107C242.703 145.108 242.738 145.119 242.77 145.139C242.801 145.158 242.826 145.186 242.843 145.218L248.861 156.652C248.878 156.685 248.887 156.721 248.885 156.758C248.884 156.795 248.873 156.832 248.853 156.863C248.839 156.886 248.82 156.907 248.797 156.923C248.759 156.95 248.713 156.964 248.667 156.962L235.682 156.529C235.645 156.527 235.609 156.516 235.579 156.496C235.548 156.476 235.523 156.448 235.506 156.415Z" fill="#F9AF36"/>
</g>
<g clip-path="url(#clip6_1482_1393)">
<path d="M113.369 116.399C113.369 116.399 116.377 117.1 118.532 118.594C114.57 107.864 117.327 87.8217 133.567 84.2792C134.154 82.9225 130.082 78.6572 122.901 82.1294C117.02 84.9696 108.814 96.6932 113.369 116.399Z" fill="#F9AF36"/>
</g>
<g clip-path="url(#clip7_1482_1393)">
<path d="M311.354 95.4381C310.223 95.4385 309.094 95.5276 307.977 95.7046C306.489 90.8849 303.636 86.5995 299.764 83.3664C295.891 80.1332 291.165 78.0907 286.157 77.4858C281.148 76.8809 276.072 77.7395 271.541 79.9577C267.01 82.176 263.218 85.6589 260.625 89.9856C258.819 89.2465 256.862 88.947 254.918 89.1119C252.973 89.2768 251.095 89.9014 249.439 90.9341C247.783 91.9668 246.396 93.3781 245.392 95.0518C244.389 96.7255 243.797 98.6136 243.666 100.561C239.174 101.786 235.279 104.6 232.705 108.481C230.132 112.361 229.054 117.044 229.674 121.659C230.294 126.273 232.568 130.506 236.074 133.571C239.58 136.635 244.08 138.322 248.736 138.32H311.354C317.007 138.269 322.412 135.988 326.392 131.973C330.371 127.958 332.604 122.534 332.604 116.881C332.604 111.229 330.371 105.805 326.392 101.79C322.412 97.7749 317.007 95.4939 311.354 95.4433V95.4381Z" fill="white"/>
<path d="M311.354 138.835H248.736C243.984 138.841 239.388 137.133 235.795 134.023C232.201 130.913 229.85 126.611 229.175 121.907C228.499 117.204 229.543 112.414 232.116 108.418C234.689 104.423 238.618 101.49 243.18 100.158C243.368 98.2025 244.003 96.3161 245.036 94.6443C246.068 92.9725 247.471 91.56 249.136 90.5156C250.8 89.4712 252.682 88.8228 254.637 88.6204C256.592 88.4179 258.567 88.6667 260.41 89.3478C262.798 85.502 266.129 82.3293 270.086 80.1301C274.044 77.9309 278.497 76.778 283.025 76.7804C288.778 76.7644 294.38 78.629 298.976 82.0903C303.351 85.3814 306.616 89.9315 308.332 95.1304C309.333 94.9922 310.343 94.9227 311.354 94.9224C323.461 94.9224 333.31 104.772 333.31 116.877C333.305 122.698 330.991 128.28 326.874 132.396C322.758 136.513 317.176 138.829 311.354 138.835ZM255.955 89.5833C252.964 89.5896 250.086 90.7292 247.901 92.7725C245.716 94.8157 244.387 97.6109 244.181 100.595C244.174 100.702 244.133 100.804 244.066 100.888C243.998 100.971 243.906 101.031 243.802 101.059C239.428 102.25 235.636 104.988 233.13 108.765C230.624 112.541 229.575 117.1 230.178 121.592C230.781 126.084 232.995 130.204 236.409 133.186C239.823 136.168 244.203 137.809 248.736 137.804H311.354C316.871 137.754 322.145 135.527 326.029 131.609C329.912 127.691 332.091 122.398 332.091 116.881C332.091 111.365 329.912 106.072 326.029 102.154C322.145 98.2353 316.871 96.0089 311.354 95.9589C310.25 95.9594 309.147 96.0462 308.057 96.2185C307.934 96.2372 307.81 96.2113 307.705 96.1457C307.6 96.0801 307.522 95.979 307.486 95.8609C305.876 90.698 302.684 86.1714 298.362 82.9205C294.35 79.9206 289.547 78.1626 284.546 77.8641C279.545 77.5656 274.567 78.7397 270.227 81.2411C266.461 83.4227 263.31 86.5228 261.067 90.2519C261.003 90.3576 260.904 90.437 260.787 90.4758C260.67 90.5145 260.543 90.5101 260.429 90.4634C259.01 89.8801 257.49 89.581 255.955 89.5833Z" fill="#232323"/>
</g>
<g clip-path="url(#clip8_1482_1393)">
<path d="M236.866 174.004C266.025 156.7 257.03 168.449 257.03 168.449C251.578 175.38 249.088 179.87 243.955 186.021" fill="white"/>
<path d="M243.955 186.447C243.875 186.446 243.797 186.421 243.73 186.377C243.663 186.333 243.61 186.271 243.576 186.198C243.543 186.125 243.531 186.043 243.542 185.964C243.553 185.884 243.586 185.809 243.637 185.747C246.411 182.424 248.413 179.584 250.532 176.577C252.336 174.022 254.199 171.366 256.705 168.185C257.4 167.274 258.237 165.694 257.811 165.205C257.65 165.022 256.837 164.537 253.126 165.97C249.529 167.361 244.131 170.185 237.086 174.366C237.038 174.401 236.984 174.425 236.926 174.438C236.868 174.45 236.808 174.45 236.75 174.438C236.692 174.426 236.637 174.401 236.589 174.366C236.541 174.332 236.501 174.287 236.471 174.235C236.442 174.184 236.423 174.127 236.417 174.068C236.41 174.008 236.416 173.948 236.434 173.892C236.452 173.835 236.482 173.783 236.521 173.738C236.561 173.694 236.609 173.658 236.663 173.634C254.143 163.258 257.462 163.534 258.44 164.646C259.475 165.825 257.727 168.238 257.366 168.709C254.875 171.877 253.014 174.516 251.216 177.069C249.087 180.091 247.075 182.944 244.279 186.294C244.24 186.341 244.19 186.38 244.134 186.406C244.078 186.433 244.017 186.447 243.955 186.447Z" fill="#232323"/>
</g>
<g clip-path="url(#clip9_1482_1393)">
<path d="M279.372 129.481L265.104 109.781C264.877 109.467 265.099 109.027 265.485 109.026L273.917 109.008C274.172 109.008 274.424 109.068 274.652 109.184C274.879 109.3 275.076 109.469 275.226 109.676L279.824 116.024C280.077 116.373 280.588 116.39 280.863 116.059L290.826 104.092C291.003 103.88 291.224 103.709 291.474 103.592C291.724 103.475 291.996 103.415 292.272 103.416L300.901 103.444C301.383 103.446 301.644 104.01 301.335 104.381L280.412 129.516C280.136 129.847 279.625 129.829 279.372 129.481Z" fill="#1C5AF6"/>
</g>
<g clip-path="url(#clip10_1482_1393)">
<path d="M254.115 261.441H314.971C315.441 261.441 315.901 261.306 316.296 261.051C316.691 260.796 317.004 260.432 317.197 260.003L337.485 215.04C337.595 214.796 337.642 214.529 337.622 214.262C337.601 213.996 337.515 213.739 337.37 213.515C337.224 213.29 337.025 213.106 336.791 212.978C336.556 212.851 336.293 212.784 336.026 212.784H275.803C275.144 212.784 274.499 212.974 273.946 213.331C273.393 213.688 272.954 214.197 272.683 214.798L252.665 259.184C252.555 259.427 252.508 259.693 252.528 259.959C252.548 260.225 252.633 260.482 252.777 260.706C252.921 260.93 253.119 261.115 253.353 261.244C253.587 261.372 253.849 261.44 254.115 261.441Z" fill="#F9AF36"/>
</g>
<defs>
<clipPath id="clip0_1482_1393">
<rect width="163.382" height="84.3696" fill="white" transform="matrix(-1 0 0 1 355.781 199.094)"/>
</clipPath>
<clipPath id="clip1_1482_1393">
<rect width="269.328" height="220.224" fill="white" transform="translate(9.96948 82.8818)"/>
</clipPath>
<clipPath id="clip2_1482_1393">
<rect width="34.968" height="49.6992" fill="white" transform="translate(242.704 145.82) rotate(-7.1719)"/>
</clipPath>
<clipPath id="clip3_1482_1393">
<rect width="17.856" height="16.368" fill="white" transform="translate(254.356 156.539) rotate(-2.80946)"/>
</clipPath>
<clipPath id="clip4_1482_1393">
<rect width="28.8672" height="60.7104" fill="white" transform="translate(313.075 129.456)"/>
</clipPath>
<clipPath id="clip5_1482_1393">
<rect width="16.8144" height="35.2656" fill="white" transform="matrix(-0.812701 0.582681 0.582681 0.812701 233.374 124.586)"/>
</clipPath>
<clipPath id="clip6_1482_1393">
<rect width="21.576" height="37.7952" fill="white" transform="translate(112.046 80.7983)"/>
</clipPath>
<clipPath id="clip7_1482_1393">
<rect width="104.309" height="62.0496" fill="white" transform="translate(229.003 76.7808)"/>
</clipPath>
<clipPath id="clip8_1482_1393">
<rect width="22.32" height="22.32" fill="white" transform="translate(236.443 164.126)"/>
</clipPath>
<clipPath id="clip9_1482_1393">
<rect width="36.456" height="26.3376" fill="white" transform="translate(265.013 103.416)"/>
</clipPath>
<clipPath id="clip10_1482_1393">
<rect width="85.1136" height="48.6576" fill="white" transform="translate(252.514 212.784)"/>
</clipPath>
</defs>
</svg>
