<svg width="250" height="250" viewBox="0 0 250 250" fill="none" xmlns="http://www.w3.org/2000/svg">
<g clip-path="url(#clip0_1518_3303)">
<path d="M93.1109 207.763L103.516 148.904C103.651 148.176 104.345 147.684 105.073 147.807L149.091 155.577C149.819 155.711 150.312 156.406 150.189 157.133L139.783 215.992C139.649 216.72 138.955 217.212 138.227 217.089L94.2086 209.319C93.4693 209.185 92.9765 208.49 93.1109 207.763Z" fill="#D9C6F4"/>
<path d="M136.815 214.458L127.709 212.857L138.529 154.749L147.613 156.35C148.24 156.462 148.666 157.067 148.554 157.694L138.137 213.529C138.025 214.156 137.431 214.57 136.815 214.458C136.804 214.458 136.804 214.458 136.815 214.458Z" fill="white"/>
<path d="M145.832 155.958L145.652 156.943L135.337 215.287C135.225 215.891 134.654 216.294 134.049 216.182L89.5827 208.334C88.9778 208.233 88.5746 207.651 88.6754 207.046L99.1591 147.718C99.2711 147.113 99.8423 146.71 100.447 146.822L144.275 154.558L144.936 154.67C145.54 154.782 145.944 155.353 145.832 155.958Z" fill="#D9C6F4"/>
<path d="M83.8144 210.204L94.2197 151.346C94.3541 150.618 95.0485 150.125 95.7766 150.248L139.795 158.019C140.523 158.153 141.015 158.847 140.892 159.575L130.487 218.456C130.353 219.183 129.658 219.676 128.93 219.553L84.9121 211.771C84.184 211.637 83.6912 210.943 83.8144 210.204Z" fill="white"/>
<path d="M129.165 219.9C129.065 219.9 128.975 219.889 128.874 219.878L84.8561 212.107C84.408 212.029 84.0272 211.783 83.7696 211.413C83.512 211.044 83.4112 210.596 83.4896 210.159L93.8949 151.301C94.0517 150.383 94.9253 149.778 95.8438 149.935L139.862 157.705C140.31 157.783 140.691 158.03 140.948 158.399C141.206 158.769 141.307 159.217 141.228 159.653L130.823 218.512C130.677 219.329 129.961 219.9 129.165 219.9ZM84.1504 210.271C84.1056 210.54 84.1616 210.809 84.3184 211.021C84.4752 211.245 84.7104 211.391 84.9681 211.436L128.986 219.206C129.535 219.307 130.061 218.937 130.162 218.388L140.567 159.53C140.612 159.261 140.556 158.993 140.399 158.78C140.243 158.556 140.007 158.41 139.75 158.366L95.7318 150.595C95.1829 150.495 94.6565 150.864 94.5557 151.413L84.1504 210.271Z" fill="#232323"/>
<path d="M127.967 218.399L118.872 216.798L129.244 157.212L138.327 158.813C138.955 158.925 139.38 159.53 139.268 160.157L129.3 217.481C129.188 218.097 128.594 218.511 127.967 218.399Z" fill="white"/>
<path d="M128.169 218.758C128.079 218.758 128 218.747 127.911 218.735C127.888 218.735 127.877 218.724 127.855 218.724L118.805 217.123C118.626 217.09 118.502 216.922 118.536 216.731L128.908 157.145C128.919 157.056 128.975 156.977 129.042 156.932C129.121 156.876 129.21 156.865 129.289 156.876L138.372 158.478C138.764 158.545 139.111 158.769 139.335 159.093C139.559 159.418 139.649 159.81 139.582 160.202L129.613 217.526C129.546 217.918 129.322 218.254 128.997 218.489C128.762 218.668 128.471 218.758 128.169 218.758ZM128.068 218.075C128.269 218.097 128.471 218.053 128.628 217.929C128.807 217.806 128.919 217.616 128.964 217.403L138.932 160.079C138.966 159.866 138.921 159.642 138.798 159.463C138.675 159.284 138.484 159.16 138.271 159.127L129.513 157.582L119.253 216.507L128.023 218.053C128.034 218.075 128.056 218.075 128.068 218.075Z" fill="#232323"/>
<path d="M134.642 159.216L134.553 159.742L124.54 216.384C124.293 217.862 122.893 218.858 121.415 218.612L86.6258 212.241L85.9201 212.107L84.4865 211.849C83.0304 211.592 82.1231 210.831 82.3808 209.341L92.4164 151.524C92.6628 150.046 94.0629 149.05 95.5414 149.296L96.8406 149.531L97.5575 149.666L132.47 156.059C132.66 156.092 132.85 156.148 133.03 156.227C134.194 156.719 134.866 157.962 134.642 159.216Z" fill="white"/>
<path d="M121.874 218.981C121.706 218.981 121.538 218.97 121.359 218.936H121.347L86.5697 212.577L84.4304 212.185C82.6271 211.86 81.7871 210.841 82.0559 209.296L92.0804 151.468C92.3604 149.811 93.9397 148.691 95.5861 148.971L97.6134 149.341L132.514 155.734C132.727 155.767 132.94 155.834 133.142 155.924C134.463 156.484 135.214 157.872 134.956 159.283L134.866 159.809L124.864 216.439C124.73 217.234 124.293 217.94 123.632 218.41C123.106 218.791 122.501 218.981 121.874 218.981ZM121.471 218.276C122.098 218.376 122.725 218.231 123.24 217.861C123.755 217.492 124.103 216.943 124.203 216.316L134.217 159.663L134.306 159.137C134.508 158.029 133.926 156.954 132.884 156.517C132.727 156.45 132.559 156.405 132.402 156.372L97.5014 150.001L95.4853 149.632C94.1973 149.419 92.9652 150.292 92.7524 151.58L82.7167 209.397C82.5151 210.561 83.1088 211.256 84.5536 211.513L86.6929 211.905L121.471 218.276Z" fill="#232323"/>
<path d="M97.5574 149.666L86.6257 212.241L85.92 212.107L96.8518 149.531L97.5574 149.666Z" fill="#232323"/>
</g>
<g clip-path="url(#clip1_1518_3303)">
<path d="M116.08 45.13C115.279 45.7059 114.365 46.7109 113.395 47.9643C113.102 48.3482 112.797 48.7548 112.492 49.1726C112.414 49.2742 112.346 49.3758 112.267 49.4887C111.5 50.5841 110.71 51.7923 109.943 53.0457C109.864 53.17 109.785 53.2942 109.717 53.4184C109.514 53.7571 109.3 54.0959 109.097 54.4347L108.815 54.9089C108.724 55.067 108.634 55.2251 108.532 55.3832C108.431 55.5413 108.352 55.6994 108.262 55.8575C108.059 56.2075 107.867 56.5576 107.664 56.8963C107.438 57.2803 107.224 57.6642 107.009 58.0481C106.344 59.2451 105.712 60.3969 105.148 61.4583C104.527 62.6327 103.975 63.6942 103.535 64.5524C102.824 65.9413 102.406 66.7995 102.406 66.7995C102.395 66.7995 102.395 66.7882 102.384 66.7882L102.361 66.7769C102.282 66.7317 102.102 66.6414 101.831 66.5059L101.662 66.4156C101.481 66.3252 101.267 66.2236 101.03 66.0994L100.737 65.9639C100.511 65.851 100.274 65.738 100.026 65.6138L99.8114 65.5122L99.7325 65.467L99.4278 65.3202C98.7058 64.9815 97.9048 64.5975 97.0586 64.2249C96.9007 64.1571 96.7427 64.0894 96.5848 64.0103C96.0545 63.7732 95.5242 63.5474 94.994 63.3215C94.6894 63.1973 94.3735 63.0618 94.0689 62.9376C93.7642 62.8134 93.4596 62.7005 93.1663 62.5875C92.5683 62.3617 91.993 62.1584 91.4401 61.9778L91.3724 61.9552L91.3386 61.9439C90.955 61.8084 90.5714 61.7068 90.1765 61.6164H90.1653C89.7817 61.5261 89.3981 61.4583 89.0145 61.4132C88.9355 61.3228 88.8678 61.2325 88.7888 61.1535C88.7437 61.097 88.6986 61.0518 88.6535 60.9954C88.3714 60.6792 88.1006 60.3856 87.8186 60.1146C87.7509 60.0468 87.6832 59.9791 87.6155 59.9226C87.5478 59.8662 87.4801 59.7984 87.4237 59.7307L87.2319 59.55L87.0401 59.3806L86.8483 59.2112C86.7355 59.1096 86.6227 59.0193 86.4986 58.9289C86.2955 58.7708 86.0924 58.6127 85.9006 58.4659C85.7878 58.3869 85.675 58.3079 85.5735 58.2288C85.4381 58.1272 85.2914 58.0368 85.156 57.9352L84.8514 57.732L84.3437 57.3932L83.9488 57.1335C83.757 56.998 83.554 56.8738 83.3622 56.7383L83.0463 56.5124C82.9899 56.4785 82.9447 56.4334 82.8883 56.3995L82.7304 56.2866L82.5837 56.1624C82.4822 56.0833 82.3806 55.993 82.2791 55.9139C79.9775 53.9152 79.4473 51.0245 80.1919 48.4612C80.2257 48.337 80.2596 48.224 80.3047 48.1111C80.3611 47.9304 80.4288 47.7611 80.5078 47.5917C80.5529 47.4788 80.6093 47.3658 80.6545 47.2529C80.7673 47.0271 80.8801 46.8125 81.0042 46.598C81.1283 46.3834 81.2637 46.1802 81.4104 45.9769C81.4442 45.9317 81.4893 45.8753 81.5232 45.8188C81.6022 45.7172 81.6811 45.6269 81.7601 45.5252C81.8842 45.3784 82.0083 45.2429 82.1324 45.1074L82.2678 44.9719C83.8134 43.4475 86.0135 42.5328 88.6309 42.8377C87.4124 36.5932 95.1858 30.5294 101.481 34.4251C101.526 34.4477 101.56 34.4703 101.605 34.5042C101.696 34.5606 101.797 34.6284 101.887 34.6961C101.989 34.2783 102.113 33.8718 102.282 33.4879C102.361 33.2959 102.451 33.1153 102.542 32.9346C102.722 32.5845 102.948 32.2571 103.185 31.9409C105.17 29.434 108.736 28.6662 111.793 30.0551C112.098 30.2019 112.402 30.36 112.684 30.5407C112.876 30.6649 113.068 30.7891 113.26 30.9359C113.35 31.0036 113.451 31.0827 113.542 31.1504C114.083 31.5795 114.568 32.0764 114.986 32.6297C115.054 32.7313 115.121 32.8217 115.189 32.912L115.279 33.0588C115.336 33.1491 115.392 33.2508 115.437 33.3411C115.482 33.4314 115.527 33.5331 115.573 33.6347C115.64 33.7702 115.685 33.917 115.742 34.0638C115.922 34.6397 116.013 35.2269 116.001 35.8366C116.001 36.0399 115.99 36.2432 115.979 36.4464C115.922 37.3498 115.753 38.2983 115.629 39.3485L115.595 39.6534C115.584 39.755 115.573 39.8566 115.573 39.9582C115.573 40.0599 115.55 40.1615 115.55 40.2744V40.3648C115.55 40.4325 115.539 40.489 115.539 40.5567C115.516 40.8955 115.516 41.223 115.516 41.5617V41.7763C115.516 41.8666 115.527 41.9682 115.527 42.0699C115.527 42.115 115.527 42.1715 115.539 42.2167C115.539 42.307 115.55 42.386 115.561 42.4764C115.595 42.8603 115.64 43.2329 115.708 43.6169L115.776 43.9895C115.798 44.1137 115.832 44.2379 115.855 44.3622C115.877 44.4299 115.888 44.5089 115.911 44.588C115.945 44.7348 115.99 44.8703 116.024 45.0171C116.069 45.0736 116.069 45.1074 116.08 45.13Z" fill="#232323"/>
<path d="M102.057 39.5292C101.955 39.5292 101.854 39.4728 101.808 39.3825C101.132 38.1177 100.974 36.5256 101.346 34.764C101.617 33.4541 102.09 32.5169 102.113 32.483C102.181 32.3475 102.35 32.291 102.497 32.3588C102.632 32.4265 102.688 32.5959 102.621 32.7427C102.598 32.7766 100.838 36.3336 102.316 39.1227C102.384 39.2582 102.339 39.4276 102.203 39.5067C102.147 39.518 102.102 39.5292 102.057 39.5292ZM105.114 99.6708C101.38 99.6708 95.7612 98.5981 90.0976 93.5392C91.7787 87.2157 93.1664 80.7679 94.2156 74.3427C94.2382 74.2072 94.2607 74.0491 94.2946 73.9023V73.8797C94.3397 73.5861 94.1366 73.3038 93.8433 73.2587H93.832L93.753 73.2474C91.2935 72.8973 86.1828 72.1633 85.2915 67.2513C84.8289 64.7219 86.4197 61.9892 88.7664 61.2665C88.7776 61.2665 88.7889 61.2552 88.8115 61.2552C89.1048 61.1648 89.3982 61.1084 89.7028 61.0858C89.951 61.0632 90.1992 61.0519 90.4361 61.0519C92.5346 61.0519 94.0238 61.8424 96.0997 62.9377C96.5848 63.1974 97.0812 63.4571 97.6341 63.7394C98.5141 64.1798 99.1797 64.3944 99.7325 64.3944C101.47 64.3944 101.673 62.5651 101.955 60.0356L101.966 59.9227C102.181 58.1386 102.621 56.3883 103.286 54.7058L103.298 54.6832C103.602 53.9153 103.952 53.1588 104.347 52.4248C104.674 51.8489 105.08 51.3069 105.532 50.8213C107.664 48.5403 111.048 47.0385 113.519 46.169L113.553 46.1577C114.309 45.8867 115.087 45.6495 115.877 45.435C116.272 46.4739 116.701 47.5127 117.141 48.5177C117.931 50.3245 118.788 52.1199 119.713 53.8476C120.898 56.0721 122.646 57.7998 124.045 59.0532C124.215 59.2113 124.384 59.3581 124.553 59.5049C125.805 60.6228 127.001 61.673 127.915 63.0055C128.175 63.3894 128.378 63.7959 128.536 64.225C129.021 65.6704 128.942 67.24 128.333 68.6289C126.539 72.7392 121.394 74.5572 117.389 75.3703C117.265 75.3929 116.328 75.4945 115.753 75.5622C115.482 75.5961 115.268 75.822 115.268 76.1043V76.1946C115.302 76.4317 115.573 78.6224 116.013 81.6374C116.712 86.4252 117.412 90.4678 118.088 93.6521C116.554 96.5994 111.579 99.6708 105.114 99.6708Z" fill="white"/>
<path d="M105.114 100.01C101.335 100.01 95.6258 98.9258 89.8719 93.7879C89.7817 93.6976 89.7365 93.5734 89.7704 93.4492C91.4514 87.1256 92.8278 80.6778 93.8771 74.2865C93.8884 74.1962 93.9109 74.0946 93.9222 74.0042L93.9448 73.88V73.8348C93.9673 73.7219 93.8884 73.6203 93.7755 73.5977L93.6966 73.5864C91.1581 73.2251 85.8781 72.4685 84.9529 67.308C84.4678 64.6205 86.1601 61.7072 88.6535 60.9393H88.6647C88.676 60.9393 88.676 60.9393 88.6873 60.928C89.0145 60.8264 89.3304 60.7699 89.6576 60.7473C89.9171 60.7247 90.1653 60.7135 90.4135 60.7135C92.6022 60.7135 94.1253 61.5265 96.235 62.6444L96.2463 62.6557C96.7202 62.9041 97.2166 63.1638 97.7581 63.4461C98.593 63.8639 99.2022 64.0559 99.6986 64.0559C101.075 64.0559 101.289 62.667 101.583 60.0021L101.594 59.8891C101.808 58.0824 102.26 56.2983 102.925 54.6044L102.937 54.5819V54.5706C103.241 53.7914 103.602 53.0123 103.997 52.2783C104.347 51.6685 104.764 51.1039 105.238 50.5958C107.416 48.2696 110.857 46.7339 113.361 45.8531L113.395 45.8418C114.162 45.5708 114.952 45.3224 115.742 45.1078C115.911 45.0627 116.08 45.153 116.148 45.3111C116.554 46.3612 116.971 47.4001 117.4 48.3825C118.179 50.178 119.036 51.9508 119.961 53.6785C121.123 55.8692 122.849 57.563 124.226 58.7938L124.294 58.8616C124.44 58.9971 124.587 59.1213 124.734 59.2455L124.756 59.2681C126.02 60.3973 127.216 61.4587 128.163 62.8251C128.434 63.2316 128.66 63.672 128.818 64.135C129.325 65.6594 129.258 67.308 128.603 68.7873C126.753 73.0331 121.496 74.8963 117.411 75.7206H117.389C117.265 75.7432 116.509 75.8222 115.753 75.9126C115.651 75.9239 115.573 76.0142 115.573 76.1158V76.161C115.573 76.1836 115.855 78.4081 116.317 81.6038C117.017 86.3803 117.716 90.4229 118.382 93.596C118.393 93.675 118.382 93.754 118.348 93.8218C116.78 96.8932 111.725 100.01 105.114 100.01ZM90.4812 93.4266C96.0207 98.3047 101.492 99.3323 105.114 99.3323C109.751 99.3323 115.708 97.3223 117.705 93.6072C117.039 90.4342 116.351 86.4255 115.651 81.6941C115.189 78.4985 114.907 76.2626 114.907 76.24C114.907 76.1949 114.896 76.161 114.896 76.1158C114.896 75.6642 115.234 75.2802 115.674 75.2351C116.182 75.1786 117.129 75.0657 117.287 75.0544C121.202 74.2639 126.245 72.4798 127.983 68.5163C128.558 67.1951 128.626 65.7158 128.175 64.3608C128.039 63.9543 127.847 63.5703 127.599 63.2203C126.708 61.9217 125.546 60.8828 124.305 59.7875L124.294 59.7762C124.147 59.652 123.989 59.5165 123.854 59.381L123.786 59.3132C122.364 58.0372 120.582 56.287 119.375 54.006C118.438 52.267 117.569 50.4603 116.791 48.6535C116.396 47.7502 116.013 46.8016 115.64 45.8418C114.963 46.0338 114.286 46.2483 113.632 46.4742L113.598 46.4855C111.161 47.3436 107.822 48.8229 105.746 51.0474C105.306 51.5104 104.922 52.0299 104.606 52.5945C104.223 53.3059 103.884 54.0511 103.58 54.8077L103.568 54.8303V54.8416C102.914 56.4902 102.485 58.2179 102.271 59.9682L102.26 60.0811C101.978 62.6783 101.752 64.7334 99.6986 64.7334C99.0894 64.7334 98.3786 64.5189 97.4535 64.0446C96.912 63.7736 96.4155 63.5026 95.9304 63.2542L95.9191 63.2429C93.8996 62.1701 92.433 61.391 90.4135 61.391C90.1878 61.391 89.9509 61.4023 89.714 61.4249C89.4432 61.4474 89.1724 61.4926 88.913 61.5716C88.8904 61.5829 88.8678 61.5942 88.834 61.5942C86.6678 62.2831 85.1899 64.8351 85.6186 67.1838C86.4647 71.8587 91.4176 72.5701 93.7981 72.9089L93.8771 72.9202H93.8996C94.3735 72.9992 94.6894 73.4283 94.633 73.9026V73.959L94.6104 74.1058C94.5991 74.2075 94.5766 74.2978 94.5653 74.3994C93.516 80.7456 92.1396 87.1482 90.4812 93.4266Z" fill="#232323"/>
<path d="M103.286 56.9074C103.41 57.122 103.636 57.2575 103.896 57.2688C104.076 57.2688 104.257 57.2349 104.426 57.1558C104.742 56.9977 105.013 56.7606 105.204 56.467C105.295 56.3428 105.385 56.2186 105.464 56.1057L105.938 55.4282C106.242 54.9991 106.513 54.6264 106.784 54.2989C107.055 53.9715 107.314 53.6892 107.596 53.3504C107.743 53.1923 107.901 53.0004 108.081 52.8084C108.262 52.6164 108.465 52.4019 108.702 52.1309L108.815 51.9954C109.153 51.5776 109.097 50.9565 108.668 50.6064C108.589 50.5387 108.499 50.4935 108.408 50.4596C108.014 50.3128 107.585 50.2451 107.167 50.2677C106.739 50.279 106.321 50.3693 105.915 50.5274C105.509 50.6968 105.125 50.9113 104.787 51.1936C104.448 51.4646 104.155 51.7921 103.907 52.1422C103.422 52.8084 103.117 53.5875 102.982 54.4006C102.925 54.7845 102.903 55.1797 102.937 55.5749C102.948 55.7669 102.982 55.9702 103.027 56.1508C103.049 56.2525 103.072 56.3428 103.106 56.4444L103.219 56.7606C103.241 56.8058 103.264 56.851 103.286 56.9074ZM94.8812 73.6761C94.193 73.6761 93.5951 73.5971 93.1889 73.518C93.0084 73.4842 92.8843 73.3035 92.9181 73.1228C92.952 72.9422 93.1325 72.8179 93.313 72.8518C94.1366 73.0099 95.7612 73.1793 97.2956 72.5695C97.4648 72.5018 97.6679 72.5808 97.7356 72.7615C97.8033 72.9309 97.7243 73.1341 97.5438 73.2019C96.6299 73.5519 95.6935 73.6761 94.8812 73.6761ZM117.536 48.8223L117.378 48.7771C116.915 48.6642 116.509 48.5739 116.125 48.5061C115.742 48.4384 115.403 48.4045 115.008 48.3367C114.805 48.3141 114.602 48.2803 114.354 48.2577C114.106 48.2351 113.846 48.2125 113.531 48.1561L113.418 48.1335L113.373 48.1222C113.282 48.1109 113.192 48.077 113.113 48.0318C112.684 47.806 112.515 47.264 112.741 46.8349C112.876 46.5865 113.045 46.3606 113.248 46.1574C113.316 46.0896 113.395 46.0332 113.463 45.9767C113.767 45.7283 114.106 45.5363 114.478 45.4121C114.839 45.2766 115.212 45.1975 115.595 45.1524C115.753 45.1185 115.922 45.1072 116.08 45.1185C116.092 45.1524 117.028 47.6592 117.536 48.8223ZM116.114 80.7676C109.04 80.6772 107.122 74.9521 107.799 74.1165C110.326 75.3022 114.185 75.2796 115.606 75.2457C115.448 76.3411 115.719 77.7977 116.114 80.7676ZM96.754 68.335C96.6525 68.335 96.551 68.2898 96.4833 68.1995C93.1099 63.852 89.1386 65.6475 88.9694 65.7152C88.8002 65.7943 88.5971 65.7265 88.5181 65.5571C88.4391 65.3878 88.5068 65.1845 88.6761 65.1055C88.7212 65.0829 89.8607 64.5634 91.4515 64.6312C92.9181 64.6989 95.0843 65.2974 97.0135 67.7817C97.1264 67.9285 97.1038 68.143 96.9571 68.2559C96.9007 68.3124 96.8217 68.335 96.754 68.335ZM118.009 58.5109C117.942 58.5109 117.874 58.4883 117.818 58.4544C117.66 58.3528 117.626 58.1382 117.739 57.9802C118.337 57.122 118.562 56.5122 118.438 56.1057C118.314 55.733 117.874 55.4282 116.994 55.1233C114.162 54.1183 114.58 52.6277 114.591 52.56C114.647 52.3793 114.839 52.2777 115.008 52.3341C115.189 52.3906 115.291 52.5826 115.234 52.7519C115.234 52.7519 115.031 53.7118 117.208 54.4796C117.998 54.7619 118.833 55.1458 119.081 55.9024C119.284 56.5348 119.047 57.3026 118.303 58.3754C118.224 58.4544 118.122 58.5109 118.009 58.5109ZM106.75 57.2688C106.66 57.4043 106.705 57.5962 106.84 57.6866C107.72 58.2173 110.71 57.7204 112.199 56.4557C113.418 55.4282 112.594 54.3328 111.974 53.7569C111.737 53.5424 111.364 53.5537 111.15 53.7908C109.582 55.4959 107.641 56.6703 106.84 57.1784L106.75 57.2688Z" fill="#232323"/>
<path d="M118.167 50.9797C118.337 50.9684 118.472 51.1039 118.483 51.262C118.528 52.1427 118.032 53.4978 116.588 53.8704C115.279 54.1979 114.602 53.5543 114.422 52.7412C114.354 52.425 114.546 52.1089 114.862 52.0411C116.543 51.6346 117.208 51.4539 118.055 51.0135C118.077 51.0022 118.122 50.991 118.167 50.9797ZM120.311 62.0911C120.187 62.4185 119.984 62.7008 119.736 62.9493C119.487 63.1864 119.217 63.3783 118.912 63.5364C118.303 63.8526 117.615 63.9881 116.938 63.9204C116.599 63.8752 116.261 63.7962 115.945 63.6607C115.629 63.5251 115.336 63.3445 115.076 63.1186C114.546 62.6782 114.196 62.0572 114.083 61.3797C114.061 61.1877 114.196 61.0183 114.388 60.9844C114.535 60.9619 114.681 61.0409 114.749 61.1764L114.76 61.1877C114.975 61.6394 115.302 62.0346 115.708 62.3169C115.911 62.4524 116.125 62.5653 116.351 62.6557C116.577 62.746 116.814 62.8025 117.062 62.825C117.558 62.8702 118.055 62.7912 118.506 62.6105C118.98 62.4411 119.386 62.1475 119.702 61.7636L119.713 61.7523C119.826 61.6055 120.051 61.5716 120.198 61.6958C120.311 61.7862 120.356 61.9443 120.311 62.0911ZM185.341 118.314C180.907 112.849 157.012 132.666 153.762 152.303C169.986 145.81 189.617 123.576 185.341 118.314Z" fill="#232323"/>
<path d="M188.681 104.04C189.109 100.009 191.794 85.7586 190.914 75.9119C190.914 75.9119 191.264 62.0791 192.144 56.7831C193.024 51.521 194.604 50.1208 196.702 55.9024C196.702 55.9024 196.713 55.8572 196.725 55.7669C196.804 55.2587 196.905 54.7619 197.029 54.265C197.605 52.0743 199.026 49.3191 201.79 57.1219C201.79 57.1219 201.813 57.0541 201.847 56.9412C201.971 56.5686 202.129 56.2072 202.321 55.8572C203.155 54.3779 204.927 52.989 207.409 60.8031C209.361 67.5219 209.597 70.04 209.71 70.9886C209.699 70.9208 209.733 67.2283 209.834 65.478C209.846 65.3312 209.846 65.1731 209.857 65.0151C210.083 61.3338 212.023 59.6626 214.234 66.5959C216.13 72.5243 216.92 83.6808 218.082 107.349C220.146 132.88 220.53 165.91 196.612 174.164C174.702 181.719 155.511 164.6 150.017 157.384C148.821 155.815 150.017 152.303 150.017 152.303C150.017 152.303 156.132 89.214 177.004 118.641C177.06 118.743 183.006 127.494 183.006 127.494C185.003 119.511 187.564 111.753 188.681 104.04Z" fill="white"/>
<path d="M185.431 176.4C183.897 176.4 182.351 176.299 180.806 176.096C176.214 175.486 171.566 173.984 166.996 171.624C159.009 167.502 152.713 161.495 149.746 157.599C148.505 155.973 149.543 152.653 149.678 152.247C149.746 151.569 150.705 142.276 152.973 132.745C154.349 126.952 155.929 122.199 157.677 118.63C159.889 114.102 162.393 111.437 165.112 110.703C168.824 109.709 172.919 112.318 177.274 118.461C177.274 118.472 177.286 118.472 177.286 118.483C177.41 118.675 180.772 123.621 182.848 126.693C183.4 124.502 183.998 122.323 184.585 120.2C186.108 114.622 187.552 109.359 188.331 104.007C188.421 103.171 188.602 101.918 188.838 100.337C189.741 94.1264 191.264 83.7264 190.565 75.9462V75.9123C190.565 75.7768 190.914 62.0005 191.794 56.7384C192.325 53.5314 193.081 51.928 194.096 51.8376C194.919 51.7586 195.721 52.6732 196.567 54.6832C196.601 54.5251 196.646 54.3558 196.679 54.1977C197.119 52.5265 197.74 51.657 198.507 51.6231C199.534 51.5779 200.572 53.0346 201.768 56.1738C201.835 56.0157 201.914 55.8689 201.993 55.7221C202.659 54.5477 203.358 54.3558 203.832 54.4009C205.13 54.5364 206.393 56.6029 207.702 60.7245C208.548 63.6266 209.067 65.7382 209.406 67.2852C209.428 66.6077 209.451 65.9527 209.473 65.4785C209.485 65.3317 209.485 65.1736 209.496 65.0155C209.62 62.9377 210.252 61.6279 211.166 61.5149C212.305 61.3794 213.433 63.0507 214.539 66.5173C216.423 72.4231 217.224 83.3877 218.409 107.349C218.815 112.329 219.345 119.838 219.289 127.415C219.232 135.071 218.623 141.587 217.416 147.323C215.994 154.053 213.704 159.677 210.624 164.047C207.104 169.015 202.433 172.527 196.725 174.503C193.047 175.757 189.267 176.4 185.431 176.4ZM166.669 111.166C166.195 111.166 165.744 111.223 165.281 111.347C160.712 112.566 156.685 120.008 153.616 132.881C151.28 142.682 150.344 152.235 150.333 152.337C150.333 152.36 150.321 152.394 150.321 152.416C150.31 152.45 149.193 155.77 150.265 157.181C153.187 161.021 159.403 166.949 167.29 171.014C171.791 173.34 176.372 174.82 180.885 175.407C186.187 176.107 191.445 175.576 196.488 173.837C202.061 171.917 206.63 168.485 210.06 163.629C213.095 159.338 215.34 153.805 216.75 147.165C219.447 134.417 218.691 119.206 217.732 107.372C216.559 83.4667 215.757 72.536 213.896 66.698C212.474 62.2489 211.448 62.136 211.245 62.1699C210.793 62.2263 210.286 63.2313 210.173 65.0381C210.162 65.1962 210.15 65.343 210.15 65.4897C210.049 67.2174 210.026 70.7631 210.026 70.9551C210.037 71.1358 209.913 71.2939 209.733 71.3165C209.552 71.339 209.383 71.2035 209.361 71.0229L209.338 70.8535C209.214 69.7694 208.909 67.2287 207.07 60.8826C205.502 55.9254 204.34 55.0898 203.776 55.0333C203.291 54.9881 202.862 55.5301 202.603 56.0044C202.422 56.3319 202.275 56.6706 202.151 57.0207C202.117 57.1223 202.095 57.1788 202.095 57.1901C202.05 57.3369 201.926 57.4272 201.779 57.4385C201.632 57.4385 201.497 57.3482 201.452 57.2127C199.85 52.7071 198.879 52.2442 198.541 52.2667C198.124 52.2893 197.672 53.0572 197.334 54.3332C197.21 54.8075 197.108 55.3043 197.029 55.8012L197.007 55.9254C196.984 56.0835 196.86 56.1964 196.702 56.219C196.544 56.2303 196.397 56.1399 196.352 55.9931C195.134 52.6507 194.355 52.4474 194.141 52.47C193.915 52.4926 193.103 52.8652 192.449 56.8061C191.591 61.9327 191.242 75.28 191.23 75.8672C191.93 83.7264 190.407 94.1603 189.493 100.394C189.267 101.974 189.075 103.217 188.996 104.041V104.052C188.218 109.45 186.763 114.734 185.228 120.335C184.585 122.684 183.919 125.123 183.31 127.54C183.276 127.664 183.175 127.765 183.039 127.788C182.904 127.811 182.78 127.754 182.701 127.641C180.975 125.101 177.015 119.274 176.71 118.8C173.111 113.741 169.738 111.166 166.669 111.166Z" fill="#232323"/>
<path d="M199.782 74.3987C199.613 74.3987 199.466 74.2745 199.444 74.1051L199.365 73.4727C198.913 69.8705 197.548 58.906 196.386 56.0491C196.318 55.8797 196.397 55.6764 196.567 55.6087C196.736 55.5409 196.939 55.62 197.007 55.7893C198.214 58.7366 199.534 69.3737 200.03 73.3824L200.109 74.0147C200.132 74.1954 199.996 74.3648 199.816 74.3987C199.805 74.3874 199.793 74.3987 199.782 74.3987ZM204.893 74.3761C204.724 74.3761 204.577 74.2406 204.554 74.0712C204.035 68.3913 202.997 62.7227 201.452 57.2347C201.407 57.0541 201.508 56.8621 201.689 56.8169C201.869 56.7718 202.061 56.8734 202.106 57.0541C203.663 62.5872 204.712 68.2897 205.231 74.0147C205.254 74.1954 205.107 74.3648 204.927 74.3874C204.915 74.3761 204.904 74.3761 204.893 74.3761ZM209.947 74.2406C209.767 74.2406 209.609 74.0938 209.609 73.9131C209.575 72.8742 209.53 72.4903 209.372 71.1014L209.361 71.0449C209.338 70.8643 209.473 70.6949 209.654 70.6723C209.834 70.6497 210.004 70.7852 210.026 70.9659L210.037 71.011C210.195 72.3887 210.252 72.8065 210.274 73.8792C210.286 74.0825 210.139 74.2293 209.947 74.2406ZM180.163 146.408H180.14C179.948 146.397 179.813 146.239 179.824 146.047C180.354 136.652 182.024 129.391 183.423 124.118C183.468 123.937 183.66 123.824 183.84 123.881C184.021 123.926 184.134 124.118 184.077 124.298C182.69 129.538 181.031 136.765 180.501 146.092C180.49 146.273 180.332 146.408 180.163 146.408Z" fill="#232323"/>
<path d="M118.348 92.3078C118.348 92.3078 112.989 98.3829 105.554 98.3829C94.9715 98.3829 89.9397 92.353 89.9397 92.353C89.9397 92.353 85.5058 92.2062 85.2125 92.1497C85.1787 93.087 86.8258 121.509 67.8719 142.004C65.4801 144.59 59.3427 147.108 56.1386 148.554C55.5181 151.117 55.1232 177.8 53.7693 203.004C88.1346 207.961 143.473 206.73 159.686 205.782C159.686 205.782 156.831 172.12 153.762 152.303C155.635 138.3 177.827 112.837 185.341 118.313C142.401 72.6709 120.988 92.3981 118.348 92.3078Z" fill="#1C5AF6"/>
<path d="M105.972 115.841C105.261 115.841 104.494 115.661 103.67 115.288C100.85 114.012 97.4423 110.523 94.5541 105.949C91.5756 101.241 89.6803 96.2834 89.3531 92.3425C89.3418 92.1505 89.4772 91.9924 89.6577 91.9811C89.8382 91.9698 90.0074 92.1053 90.0187 92.286C90.3459 96.1253 92.2074 100.97 95.1182 105.588C97.9387 110.048 101.233 113.447 103.941 114.667C105.441 115.344 106.694 115.333 107.653 114.622C109.289 113.402 110.936 109.54 109.446 98.0111L109.255 96.5657L110.056 97.7852C111.601 100.123 114.478 102.754 117.75 104.843C120.898 106.841 123.876 107.993 125.512 107.824C126.144 107.756 126.528 107.519 126.708 107.079C127.159 105.961 126.663 102.584 118.235 92.6361C118.111 92.4893 118.134 92.2747 118.269 92.1618C118.416 92.0376 118.63 92.0602 118.743 92.1957C125.343 99.9985 128.231 105.091 127.329 107.327C127.137 107.801 126.685 108.377 125.569 108.49C123.763 108.671 120.695 107.519 117.378 105.407C114.512 103.578 111.94 101.331 110.259 99.2193C111.263 107.959 110.518 113.323 108.036 115.164C107.461 115.615 106.75 115.841 105.972 115.841Z" fill="white"/>
<path d="M114.399 116.259C114.885 116.259 115.279 115.864 115.279 115.378C115.279 114.891 114.885 114.497 114.399 114.497C113.913 114.497 113.519 114.891 113.519 115.378C113.519 115.864 113.913 116.259 114.399 116.259Z" fill="white"/>
<path d="M117.186 126.072C117.672 126.072 118.066 125.677 118.066 125.191C118.066 124.704 117.672 124.31 117.186 124.31C116.7 124.31 116.306 124.704 116.306 125.191C116.306 125.677 116.7 126.072 117.186 126.072Z" fill="white"/>
<path d="M115.448 132.745C115.291 132.745 115.155 132.643 115.121 132.485C115.076 132.305 115.189 132.124 115.37 132.079C115.392 132.067 116.78 131.729 118.077 130.87C119.77 129.753 120.525 128.318 120.334 126.613C119.916 122.943 117.953 116.936 114.647 109.246C112.143 103.419 109.728 98.6316 109.706 98.5865C109.627 98.4171 109.683 98.2138 109.853 98.1348C110.022 98.0557 110.225 98.1122 110.304 98.2816C110.699 99.0607 119.984 117.523 120.999 126.534C121.225 128.488 120.334 130.193 118.427 131.446C117.028 132.372 115.584 132.722 115.527 132.734C115.505 132.745 115.471 132.745 115.448 132.745ZM154.71 154.437C154.552 154.437 154.406 154.324 154.372 154.155C152.803 144.85 148.584 133.185 145.165 125.36C145.087 125.191 145.165 124.987 145.335 124.908C145.504 124.829 145.707 124.908 145.786 125.078C149.216 132.937 153.458 144.669 155.037 154.031C155.071 154.211 154.947 154.392 154.755 154.426C154.755 154.437 154.733 154.437 154.71 154.437Z" fill="white"/>
<path d="M23.1385 151.783C25.0564 146.916 62.4678 150.338 76.4801 161.766C33.9354 168.439 20.3856 159.326 23.1385 151.783Z" fill="#232323"/>
<path d="M80.0905 153.082C79.1541 155.894 74.9797 164.859 69.1017 175.982C64.2956 185.095 33.0216 201.909 29.4791 198.544C24.797 191.373 24.0749 183.13 24.8421 175.169C26.2862 164.43 28.6667 155.058 32.4575 145.279C36.8124 134.043 54.4802 92.3418 76.8864 92.3418C84.9418 92.3531 98.2998 98.5863 80.0905 153.082Z" fill="white"/>
<path d="M31.0472 199.323C30.2236 199.323 29.6257 199.142 29.2534 198.792C29.2308 198.77 29.2195 198.758 29.2083 198.736C25.1241 192.491 23.5898 184.768 24.5149 175.147V175.135C25.9477 164.408 28.3734 154.889 32.1416 145.166C34.1837 139.904 39.7683 126.388 47.6206 114.429C51.9981 107.767 56.4545 102.505 60.8883 98.7898C66.2473 94.2956 71.6289 92.0259 76.8863 92.0259C80.9027 92.0259 84.0279 93.539 86.1715 96.5201C88.8341 100.224 89.9284 106.175 89.4207 114.204C88.8002 124.05 85.7653 137.172 80.4176 153.206C79.4925 155.973 75.3294 164.961 69.4176 176.163C67.5335 179.731 61.2719 184.96 52.6637 190.143C44.676 194.953 36.7447 198.51 32.4575 199.221C31.9272 199.278 31.4534 199.323 31.0472 199.323ZM29.7498 198.318C30.0318 198.567 30.7201 198.792 32.3447 198.521C36.4965 197.844 44.518 194.23 52.314 189.533C60.8206 184.406 66.9919 179.28 68.8196 175.824C74.7089 164.656 78.872 155.713 79.7858 152.969C85.1222 136.991 88.1458 123.926 88.7551 114.136C89.2515 106.265 88.2023 100.461 85.6299 96.8928C83.6217 94.1036 80.6771 92.6808 76.8976 92.6808C71.8094 92.6808 66.5745 94.9054 61.3283 99.2867C56.9509 102.957 52.5283 108.162 48.196 114.779C40.3775 126.693 34.8154 140.153 32.7847 145.392C29.039 155.058 26.6247 164.532 25.1918 175.203C24.278 184.655 25.7672 192.209 29.7498 198.318Z" fill="#232323"/>
<path d="M75.4084 163.584C77.4279 160.433 79.4812 155.42 81.4556 150.44C81.4556 150.44 87.9089 132.621 90.2443 123.045C93.6966 108.896 86.1602 92.3649 86.1602 92.3649C86.1602 92.3649 58.756 84.7202 37.2975 117.388C26.8954 133.242 22.9467 152.077 22.9467 152.077C25.8349 146.827 57.8309 150.034 75.4084 163.584Z" fill="#1C5AF6"/>
<path d="M75.4761 163.798C75.4197 163.798 75.3633 163.787 75.3069 163.753C75.1489 163.662 75.0925 163.448 75.1828 163.29C77.9243 158.592 80.4966 152.619 82.6402 146.036C85.0095 138.741 86.7131 131.006 87.5705 123.677C87.5931 123.497 87.7623 123.361 87.9428 123.384C88.1233 123.406 88.2587 123.576 88.2362 123.756C86.2618 140.762 80.4966 155.51 75.7582 163.64C75.713 163.742 75.6002 163.798 75.4761 163.798ZM188.681 104.04C189.109 101.443 189.707 97.6603 187.834 91.6868C187.033 89.1348 182.938 77.8992 181.618 73.2808C181.257 72.016 181.279 69.6899 184.066 70.119C185.127 70.2771 187.744 71.9483 189.662 74.2858C191.873 76.9733 193.622 79.6269 193.622 79.6269C193.622 79.6269 200.03 80.6771 203.821 84.0308C206.292 86.2102 208.605 90.4108 208.605 90.4108" fill="white"/>
<path d="M188.68 104.379H188.624C188.444 104.345 188.319 104.176 188.342 103.984C188.759 101.5 189.38 97.762 187.507 91.7885C187.225 90.8738 186.492 88.7848 185.646 86.3683C184.077 81.8966 182.137 76.3296 181.279 73.3711C181.02 72.4564 180.975 71.1917 181.663 70.4239C182.182 69.8367 183.006 69.6221 184.1 69.7915C185.341 69.9835 188.026 71.7902 189.899 74.0825C191.828 76.4313 193.43 78.78 193.802 79.322C194.807 79.5027 200.482 80.6432 204.024 83.7824C206.506 85.9731 208.785 90.0834 208.887 90.2527C208.977 90.4108 208.92 90.6254 208.751 90.7157C208.582 90.8061 208.379 90.7496 208.289 90.5802C208.266 90.535 205.965 86.4021 203.573 84.2905C199.895 81.0384 193.599 79.977 193.543 79.9657C193.453 79.9544 193.363 79.8979 193.317 79.8189C193.295 79.7963 191.546 77.1539 189.369 74.5116C188.522 73.4727 187.439 72.4677 186.311 71.6773C185.183 70.8756 184.371 70.5255 183.987 70.469C183.13 70.3335 182.52 70.4803 182.159 70.8868C181.652 71.4627 181.719 72.4903 181.922 73.2017C182.769 76.149 184.709 81.7046 186.277 86.165C187.124 88.5815 187.857 90.6818 188.15 91.5965C190.068 97.7281 189.436 101.567 189.008 104.108C188.985 104.266 188.838 104.379 188.68 104.379Z" fill="#232323"/>
<path d="M69.113 175.982C78.793 175.745 96.8105 182.204 112.515 182.182C120.571 182.17 128.276 182.137 131.751 179.935C135.621 177.473 139.524 176.299 137.877 178.625C135.057 182.611 133.432 184.259 135.136 185.694C137.776 187.726 140.608 186.518 141.499 184.372C143.891 186.811 142.221 190.097 142.221 190.097C142.221 190.097 143.044 193.248 140.687 195.01C140.687 195.01 141.634 197.787 139.096 200.035C138.87 207.352 130.634 208.481 120.954 211.168C100.5 216.837 67.6689 219.796 45.9847 213.224C37.2862 210.593 31.4421 205.251 28.0801 200.102C23.398 192.932 24.0862 183.13 24.8534 175.181" fill="white"/>
<path d="M76.1643 217.3C65.2094 217.3 54.5929 216.182 45.8831 213.54C35.6503 210.446 30.1559 203.896 27.7867 200.271C23.1949 193.248 23.6462 184 24.5036 175.135C24.5262 174.955 24.6841 174.808 24.8759 174.83C25.0564 174.853 25.2031 175.011 25.1805 175.203C24.3344 183.954 23.8944 193.067 28.3621 199.91C30.6749 203.456 36.0565 209.858 46.0862 212.896C67.2288 219.299 99.71 216.701 120.864 210.83C122.071 210.491 123.256 210.186 124.406 209.881C128.479 208.808 131.999 207.894 134.583 206.426C137.347 204.867 138.678 202.823 138.757 200.012C138.757 199.921 138.802 199.831 138.87 199.775C141.194 197.708 140.393 195.213 140.359 195.111C140.314 194.975 140.359 194.817 140.472 194.727C142.616 193.124 141.894 190.199 141.882 190.176C141.86 190.097 141.871 190.007 141.905 189.939C141.961 189.826 143.281 187.15 141.566 184.971C141.014 185.931 140.1 186.642 139.017 186.936C137.652 187.297 136.196 186.958 134.91 185.964C134.91 185.964 134.899 185.964 134.899 185.953C133.184 184.519 134.369 182.893 136.512 179.923C136.851 179.449 137.2 178.975 137.584 178.433C137.911 177.97 137.911 177.789 137.911 177.755C137.821 177.687 137.291 177.631 135.925 178.15C134.73 178.602 133.308 179.347 131.92 180.228C128.321 182.509 120.277 182.52 112.504 182.532H112.447C103.839 182.532 94.5315 180.601 86.3294 178.896C79.4248 177.461 73.4566 176.219 69.1129 176.332C68.9324 176.332 68.7745 176.185 68.7632 176.005C68.7519 175.824 68.9099 175.666 69.0904 175.655C73.513 175.553 79.515 176.795 86.4535 178.241C94.633 179.934 103.896 181.865 112.436 181.865H112.493C120.176 181.854 128.118 181.843 131.548 179.663C133.827 178.218 137.539 176.389 138.396 177.292C138.87 177.789 138.306 178.568 138.125 178.828C137.742 179.37 137.37 179.878 137.054 180.33C134.809 183.424 134.154 184.451 135.327 185.434C136.444 186.292 137.685 186.597 138.836 186.281C139.885 185.998 140.754 185.242 141.16 184.237C141.205 184.135 141.296 184.056 141.409 184.033C141.521 184.011 141.634 184.045 141.713 184.124C143.992 186.439 142.83 189.488 142.548 190.12C142.683 190.73 143.101 193.417 141.047 195.122C141.228 195.868 141.555 198.182 139.412 200.181C139.118 206.719 132.687 208.402 124.564 210.536C123.425 210.841 122.24 211.146 121.033 211.484C108.499 214.962 91.9704 217.3 76.1643 217.3Z" fill="#232323"/>
<path d="M137.291 192.04H137.054C136.862 192.028 136.715 191.882 136.726 191.69C136.738 191.498 136.896 191.362 137.076 191.362C139.852 191.452 142.018 189.691 142.04 189.68C142.187 189.555 142.401 189.578 142.514 189.725C142.638 189.872 142.616 190.086 142.469 190.199C142.379 190.267 140.213 192.04 137.291 192.04ZM135.858 196.94H135.621C135.429 196.929 135.282 196.782 135.294 196.59C135.305 196.398 135.452 196.252 135.643 196.263C138.43 196.353 140.585 194.592 140.608 194.58C140.754 194.456 140.969 194.479 141.081 194.626C141.205 194.772 141.183 194.987 141.036 195.1C140.946 195.168 138.78 196.94 135.858 196.94ZM134.526 201.762H134.29C134.098 201.751 133.951 201.604 133.962 201.412C133.974 201.22 134.12 201.085 134.312 201.085C137.099 201.175 139.254 199.413 139.276 199.391C139.423 199.267 139.637 199.289 139.75 199.436C139.874 199.583 139.852 199.797 139.705 199.91C139.615 200.001 137.449 201.762 134.526 201.762ZM52.8781 179.856C52.7765 179.856 52.6637 179.81 52.596 179.709C52.4832 179.551 52.5283 179.347 52.675 179.234C52.8555 179.11 57.2217 176.118 69.0904 175.644C69.2822 175.644 69.4402 175.779 69.4402 175.971C69.4514 176.163 69.3048 176.321 69.113 176.321C57.436 176.784 53.1037 179.765 53.0586 179.788C53.0134 179.833 52.9458 179.856 52.8781 179.856Z" fill="#232323"/>
</g>
<g clip-path="url(#clip2_1518_3303)">
<path d="M180.865 41.5371L236.964 47.4322L232.938 85.8608L176.839 79.9655L180.865 41.5371Z" fill="white"/>
<path d="M232.936 86.1997C232.924 86.2008 232.912 86.2008 232.9 86.1997L176.802 80.2998C176.757 80.2955 176.714 80.2824 176.675 80.2614C176.636 80.2404 176.602 80.2118 176.574 80.1774C176.546 80.1429 176.525 80.1032 176.512 80.0606C176.499 80.018 176.495 79.9733 176.5 79.9291L180.527 41.5031C180.537 41.4148 180.582 41.334 180.651 41.2783C180.685 41.2493 180.725 41.2274 180.767 41.2138C180.81 41.2003 180.855 41.1955 180.9 41.1997L236.994 47.0973C237.037 47.1019 237.08 47.1152 237.119 47.1363C237.158 47.1575 237.192 47.1861 237.22 47.2205C237.248 47.2549 237.269 47.2945 237.281 47.337C237.294 47.3795 237.298 47.424 237.293 47.4681L233.266 85.8941C233.257 85.9773 233.218 86.0544 233.155 86.1102C233.093 86.1661 233.013 86.1968 232.929 86.1963L232.936 86.1997ZM177.207 79.665L232.636 85.4918L236.593 47.74L181.163 41.9075L177.207 79.665Z" fill="#232323"/>
<path d="M223.193 51.574L193.478 48.4514C192.587 48.3577 191.788 49.0057 191.694 49.8987L191.653 50.292C191.56 51.185 192.207 51.9849 193.098 52.0786L222.813 55.2012C223.705 55.2949 224.503 54.6469 224.597 53.7539L224.638 53.3606C224.732 52.4676 224.085 51.6677 223.193 51.574Z" fill="#232323"/>
<path d="M229.194 62.6283H229.16L185.348 58.0217C185.304 58.017 185.261 58.0037 185.222 57.9825C185.183 57.9613 185.149 57.9325 185.121 57.8979C185.093 57.8634 185.072 57.8236 185.059 57.7809C185.046 57.7382 185.042 57.6935 185.047 57.6492C185.052 57.605 185.065 57.5621 185.086 57.5229C185.107 57.4838 185.136 57.4493 185.171 57.4213C185.205 57.3932 185.245 57.3723 185.287 57.3597C185.33 57.347 185.375 57.3429 185.419 57.3476L229.229 61.9542C229.318 61.9588 229.402 61.9987 229.462 62.0652C229.522 62.1317 229.553 62.2193 229.548 62.3087C229.544 62.3981 229.504 62.482 229.437 62.5419C229.371 62.6019 229.284 62.6329 229.194 62.6283ZM222.178 66.781H222.143L191.35 63.5418C191.261 63.5324 191.179 63.4879 191.123 63.418C191.066 63.3482 191.04 63.2587 191.049 63.1693C191.058 63.0799 191.103 62.9979 191.173 62.9413C191.242 62.8848 191.332 62.8583 191.421 62.8676L222.213 66.1046C222.302 66.1093 222.386 66.1492 222.446 66.2157C222.506 66.2822 222.537 66.3697 222.532 66.4591C222.528 66.5485 222.488 66.6324 222.421 66.6924C222.355 66.7523 222.267 66.7834 222.178 66.7788V66.781ZM210.657 78.5673C210.498 78.5734 210.34 78.5502 210.19 78.4987C209.725 78.338 209.397 77.9077 209.21 77.2156C208.531 77.9414 207.864 78.165 207.399 78.2167C206.805 78.2819 206.295 78.0976 206.052 77.8852C206.036 77.8714 206.02 77.8564 206.005 77.8403C205.22 78.3122 204.339 78.4201 203.544 78.1212C203.35 78.0562 203.172 77.9484 203.025 77.8057C202.878 77.6629 202.765 77.4889 202.693 77.2965C202.607 77.0439 202.576 76.7757 202.601 76.51C201.749 77.3527 200.352 78.165 198.439 77.4358C196.005 76.5066 195.692 74.9067 195.723 74.0359C195.767 72.7865 196.592 71.5326 197.56 71.2393C198.337 71.0034 199.396 71.5169 199.916 72.382C200.211 72.8696 200.737 74.1674 199.259 75.6786C199.207 75.7305 199.136 75.7598 199.063 75.76C198.989 75.7602 198.918 75.7313 198.866 75.6797C198.813 75.628 198.783 75.5577 198.782 75.4839C198.78 75.4101 198.808 75.3387 198.859 75.2853C200.018 74.0999 199.718 73.1404 199.436 72.673C199.003 71.9573 198.201 71.6315 197.718 71.7742C197.055 71.9753 196.318 72.9393 196.279 74.0539C196.235 75.2977 197.072 76.3123 198.635 76.9089C201.314 77.9313 202.8 75.4673 203.047 75.0145C203.068 74.9707 203.084 74.9437 203.087 74.937C203.104 74.9043 203.128 74.8753 203.156 74.8517C203.184 74.828 203.217 74.8102 203.252 74.7992C203.287 74.7882 203.324 74.7842 203.361 74.7875C203.398 74.7908 203.433 74.8014 203.466 74.8185C203.499 74.8356 203.527 74.859 203.551 74.8873C203.575 74.9156 203.593 74.9483 203.603 74.9835C203.614 75.0187 203.618 75.0558 203.615 75.0925C203.612 75.1293 203.601 75.165 203.584 75.1977C203.584 75.1977 203.572 75.2201 203.553 75.2561C203.365 75.6156 203.001 76.5235 203.216 77.1055C203.26 77.2217 203.33 77.3264 203.421 77.4116C203.511 77.4969 203.619 77.5605 203.738 77.5976C204.38 77.8392 205.102 77.7403 205.747 77.3392C205.695 77.0118 205.723 76.6765 205.83 76.3628C206.024 75.728 206.462 75.055 206.923 74.9977C207.031 74.986 207.139 75.0068 207.235 75.0575C207.331 75.1081 207.409 75.1863 207.46 75.2819C207.474 75.3047 207.484 75.3293 207.491 75.355C207.649 75.9471 207.28 76.7752 206.574 77.4156L206.472 77.5044C206.736 77.6464 207.038 77.701 207.335 77.6605C207.783 77.6111 208.457 77.356 209.143 76.4179C209.176 76.3727 209.222 76.3383 209.274 76.3193C209.327 76.3003 209.384 76.2974 209.438 76.3111C209.492 76.3254 209.541 76.3553 209.578 76.397C209.615 76.4388 209.639 76.4906 209.647 76.546C209.723 77.1077 209.911 77.8111 210.372 77.9706C210.741 78.0976 211.482 77.9594 212.914 76.5707C212.968 76.5235 213.038 76.499 213.11 76.5021C213.182 76.5053 213.249 76.5358 213.299 76.5875C213.349 76.6392 213.377 76.7081 213.378 76.78C213.379 76.8519 213.352 76.9214 213.303 76.974C212.226 78.0201 211.353 78.547 210.654 78.5695L210.657 78.5673ZM206.964 75.5628C206.825 75.6291 206.522 76.0123 206.364 76.5415C206.328 76.6624 206.302 76.7865 206.289 76.9122C206.738 76.4628 207.014 75.9257 206.962 75.564L206.964 75.5628Z" fill="#232323"/>
</g>
<g clip-path="url(#clip3_1518_3303)">
<path d="M193.26 105.862C193.693 103.269 194.288 99.4917 192.414 93.5228C191.615 90.977 187.526 79.7563 186.2 75.1449C185.839 73.8867 185.862 71.5641 188.643 71.988C189.699 72.1492 192.313 73.8156 194.229 76.1506C196.434 78.8352 198.191 81.4802 198.191 81.4802C198.191 81.4802 204.591 82.5322 208.381 85.8774C210.846 88.0545 213.162 92.2465 213.162 92.2465" fill="white"/>
<path d="M193.26 106.2C193.242 106.201 193.223 106.201 193.205 106.2C193.161 106.193 193.119 106.177 193.081 106.153C193.044 106.13 193.011 106.099 192.985 106.063C192.959 106.027 192.941 105.986 192.931 105.943C192.921 105.899 192.919 105.855 192.926 105.811C193.34 103.336 193.964 99.5973 192.091 93.6341C191.805 92.7208 191.077 90.6339 190.228 88.2222C188.667 83.7461 186.726 78.1944 185.876 75.2393C185.612 74.3238 185.575 73.0655 186.257 72.291C186.775 71.7013 187.596 71.4871 188.693 71.6551C189.933 71.8433 192.612 73.6473 194.491 75.9395C196.416 78.2801 198.018 80.6196 198.39 81.1732C199.393 81.3547 205.058 82.4935 208.604 85.6267C211.084 87.8174 213.361 91.9124 213.457 92.0861C213.48 92.125 213.495 92.1682 213.501 92.213C213.507 92.2578 213.504 92.3033 213.492 92.3469C213.48 92.3905 213.46 92.4313 213.432 92.4668C213.404 92.5024 213.369 92.5319 213.329 92.5538C213.29 92.5757 213.246 92.5894 213.201 92.5941C213.156 92.5988 213.111 92.5945 213.068 92.5814C213.025 92.5683 212.984 92.5466 212.95 92.5177C212.915 92.4888 212.886 92.4532 212.866 92.413C212.843 92.3713 210.548 88.2414 208.157 86.1341C204.486 82.8915 198.199 81.826 198.136 81.8148C198.09 81.807 198.046 81.7901 198.008 81.7648C197.969 81.7396 197.936 81.7067 197.91 81.6682C197.892 81.6422 196.137 79.0062 193.966 76.369C193.076 75.2956 192.052 74.3417 190.918 73.5312C189.791 72.7273 188.977 72.3823 188.592 72.3237C187.737 72.1929 187.127 72.3327 186.765 72.7374C186.264 73.3113 186.322 74.343 186.526 75.0521C187.37 77.9892 189.307 83.5308 190.867 87.9832C191.715 90.4061 192.445 92.4931 192.736 93.4221C194.659 99.5454 194.017 103.38 193.589 105.918C193.576 105.996 193.536 106.067 193.476 106.119C193.416 106.17 193.339 106.199 193.26 106.2Z" fill="#232323"/>
</g>
<g clip-path="url(#clip4_1518_3303)">
<path d="M234.83 96.4431L230.227 93.9355L226.123 97.2001L224.714 80.9342L233.42 80.1772L234.83 96.4431Z" fill="#1C5AF6"/>
<path d="M229.05 86.9205C232.667 86.9205 235.6 83.9834 235.6 80.3604C235.6 76.7373 232.667 73.8003 229.05 73.8003C225.432 73.8003 222.5 76.7373 222.5 80.3604C222.5 83.9834 225.432 86.9205 229.05 86.9205Z" fill="#F9AF36"/>
<path d="M229.05 85.0518C231.637 85.0518 233.734 82.9513 233.734 80.3601C233.734 77.769 231.637 75.6685 229.05 75.6685C226.463 75.6685 224.366 77.769 224.366 80.3601C224.366 82.9513 226.463 85.0518 229.05 85.0518Z" fill="#F9AF36"/>
<path d="M229.042 85.3373C227.761 85.3361 226.53 84.8398 225.606 83.9517C224.682 83.0637 224.135 81.8526 224.081 80.5709C224.027 79.2893 224.468 78.0361 225.314 77.0728C226.16 76.1095 227.345 75.5104 228.621 75.4005C229.934 75.2863 231.238 75.6992 232.247 76.5483C233.256 77.3974 233.887 78.6131 234.001 79.9281C234.115 81.243 233.703 82.5495 232.855 83.5601C232.007 84.5706 230.793 85.2025 229.48 85.3167C229.333 85.3316 229.187 85.3373 229.042 85.3373ZM229.058 75.9539C228.929 75.9539 228.8 75.9597 228.67 75.9711C227.53 76.0724 226.475 76.6166 225.731 77.4873C224.986 78.358 224.612 79.4859 224.688 80.6296C224.764 81.7733 225.284 82.8418 226.136 83.6063C226.989 84.3708 228.106 84.7706 229.25 84.7201C230.393 84.6696 231.471 84.1728 232.253 83.336C233.035 82.4992 233.459 81.3891 233.434 80.2431C233.409 79.0972 232.937 78.0067 232.119 77.205C231.301 76.4034 230.202 75.9543 229.058 75.9539Z" fill="white"/>
</g>
<g clip-path="url(#clip5_1518_3303)">
<path d="M91.2932 84.363C90.8252 84.4031 89.4192 84.6616 88.0708 86.4506C85.5456 89.8292 84.6909 96.563 85.5182 106.434C86.6967 120.597 91.3454 140.784 99.3559 166.457C99.493 166.912 99.9424 167.19 100.408 167.131C100.466 167.123 100.524 167.116 100.58 167.089C101.091 166.925 101.376 166.376 101.231 165.862C93.363 140.684 88.754 120.808 87.4982 106.812C86.4669 95.0349 88.0076 89.9681 89.5054 87.8052C90.4862 86.3786 91.4052 86.3203 91.444 86.3154L91.541 86.303C92.0841 86.2336 92.4562 85.7523 92.3869 85.2091C92.3199 84.6853 91.8362 84.2937 91.2932 84.363Z" fill="#232323"/>
<path d="M132.526 158.236C132.352 158.259 132.15 158.225 131.983 158.148L128.585 156.551C125.397 155.046 123.322 151.92 123.15 148.413C122.841 141.985 122.381 130.51 122.613 125.847C122.887 120.43 125.532 116.76 130.064 115.51C134.594 114.242 138.782 116.013 141.894 120.466C144.572 124.304 150.25 134.343 153.414 139.972C155.149 143.063 155.014 146.787 153.101 149.713L151.055 152.833C150.758 153.285 150.142 153.403 149.71 153.103C149.258 152.806 149.14 152.19 149.439 151.758L151.485 148.638C153.002 146.314 153.098 143.364 151.721 140.918C148.58 135.306 142.933 125.361 140.301 121.576C138.465 118.932 135.302 116.083 130.598 117.374C125.916 118.682 124.741 122.756 124.575 125.932C124.35 130.495 124.803 141.912 125.107 148.301C125.245 151.083 126.884 153.574 129.422 154.768L132.819 156.365C133.303 156.599 133.515 157.183 133.281 157.667C133.146 157.999 132.856 158.194 132.526 158.236Z" fill="#707069"/>
<path d="M133.76 159.111C134.76 158.374 134.964 156.952 134.214 155.934C133.465 154.917 132.047 154.689 131.047 155.425C130.047 156.162 129.844 157.584 130.593 158.601C131.342 159.619 132.76 159.847 133.76 159.111Z" fill="black"/>
<path d="M151.598 154.142C152.598 153.406 152.801 151.984 152.052 150.966C151.303 149.949 149.885 149.721 148.885 150.457C147.885 151.194 147.681 152.615 148.431 153.633C149.18 154.651 150.598 154.879 151.598 154.142Z" fill="black"/>
<path d="M130.465 117.411C129.999 117.471 129.528 117.176 129.408 116.698C129.378 116.623 127.412 109.56 125.953 104.62C124.947 101.219 121.618 95.5325 117.402 93.5473C116.919 93.3133 116.706 92.7293 116.94 92.2459C117.174 91.7626 117.758 91.55 118.242 91.784C123.276 94.1574 126.798 100.588 127.814 104.067C129.273 109.007 131.261 116.087 131.271 116.165C131.416 116.678 131.112 117.23 130.598 117.374C130.562 117.399 130.503 117.406 130.465 117.411Z" fill="#232323"/>
<path d="M123.729 126.868C123.671 126.875 123.612 126.883 123.552 126.871C123.016 126.841 122.602 126.381 122.632 125.845C122.906 120.427 125.552 116.757 130.084 115.508C134.613 114.239 138.801 116.011 141.913 120.464C142.225 120.897 142.108 121.523 141.672 121.815C141.219 122.13 140.612 122.01 140.32 121.574C138.484 118.93 135.321 116.081 130.617 117.372C125.935 118.68 124.76 122.753 124.594 125.929C124.559 126.427 124.194 126.808 123.729 126.868Z" fill="#232323"/>
<path d="M106.03 184.906C111.75 184.175 115.794 178.945 115.063 173.223C114.333 167.502 109.103 163.456 103.383 164.187C97.6627 164.918 93.6181 170.148 94.349 175.87C95.0799 181.591 100.309 185.637 106.03 184.906Z" fill="#707069"/>
<path d="M104.451 180.573C107.9 180.132 110.339 176.978 109.899 173.528C109.458 170.078 106.304 167.639 102.855 168.08C99.4059 168.52 96.967 171.674 97.4077 175.124C97.8485 178.574 101.002 181.014 104.451 180.573Z" fill="black"/>
</g>
<g clip-path="url(#clip6_1518_3303)">
<path d="M104.243 149.197L93.8233 208.143C93.6937 208.876 94.1835 209.576 94.9173 209.705L138.996 217.49C139.73 217.62 140.43 217.13 140.559 216.397L150.979 157.452C151.108 156.718 150.618 156.018 149.885 155.889L105.806 148.104C105.072 147.974 104.372 148.464 104.243 149.197Z" fill="#F9AF36"/>
<path d="M137.59 214.859L128.48 213.25L139.309 155.061L148.407 156.668C148.71 156.722 148.98 156.893 149.156 157.146C149.333 157.398 149.402 157.71 149.349 158.013L138.918 213.926C138.892 214.074 138.837 214.216 138.755 214.344C138.674 214.471 138.569 214.581 138.445 214.667C138.322 214.754 138.182 214.815 138.035 214.848C137.887 214.881 137.735 214.884 137.586 214.857L137.59 214.859Z" fill="white"/>
<path d="M146.625 156.277L146.45 157.263L136.123 215.683C136.07 215.973 135.904 216.23 135.662 216.398C135.42 216.566 135.121 216.631 134.831 216.58L90.2902 208.719C90.146 208.694 90.0083 208.64 89.8848 208.562C89.7613 208.483 89.6546 208.381 89.5706 208.261C89.4866 208.142 89.4271 208.006 89.3955 207.863C89.3638 207.721 89.3607 207.573 89.3862 207.429L99.8881 148.02C99.9405 147.73 100.106 147.473 100.348 147.305C100.59 147.137 100.889 147.071 101.179 147.123L145.063 154.868L145.725 154.981C146.016 155.035 146.273 155.201 146.441 155.444C146.61 155.686 146.676 155.986 146.625 156.277Z" fill="#F9AF36"/>
<path d="M94.9418 151.651L84.5226 210.596C84.393 211.33 84.8827 212.029 85.6166 212.159L129.695 219.944C130.429 220.073 131.129 219.584 131.259 218.85L141.678 159.905C141.808 159.172 141.318 158.472 140.584 158.342L96.5053 150.558C95.7715 150.428 95.0715 150.918 94.9418 151.651Z" fill="#232323"/>
<path d="M129.935 220.3C129.835 220.301 129.735 220.292 129.637 220.274L85.5569 212.489C85.3389 212.451 85.1306 212.37 84.944 212.251C84.7573 212.132 84.596 211.978 84.4692 211.796C84.3423 211.615 84.2526 211.41 84.205 211.194C84.1574 210.978 84.1529 210.755 84.1918 210.537L94.6108 151.592C94.6489 151.374 94.7298 151.165 94.8488 150.978C94.9677 150.792 95.1224 150.63 95.304 150.503C95.4855 150.376 95.6903 150.287 95.9067 150.239C96.123 150.191 96.3466 150.187 96.5646 150.226L140.645 158.01C140.863 158.048 141.072 158.129 141.259 158.248C141.446 158.367 141.608 158.521 141.735 158.703C141.862 158.884 141.952 159.089 141.999 159.305C142.047 159.522 142.051 159.745 142.012 159.963L131.591 218.908C131.523 219.298 131.32 219.651 131.017 219.906C130.714 220.16 130.33 220.3 129.935 220.3ZM96.2719 150.873C96.0339 150.873 95.8034 150.956 95.6211 151.109C95.4389 151.262 95.3166 151.475 95.2759 151.709L84.8547 210.654C84.831 210.785 84.8335 210.919 84.862 211.049C84.8905 211.179 84.9444 211.302 85.0208 211.411C85.0971 211.521 85.1942 211.614 85.3067 211.685C85.4191 211.756 85.5445 211.805 85.6758 211.828L129.756 219.612C129.887 219.636 130.022 219.633 130.152 219.605C130.282 219.576 130.405 219.522 130.514 219.446C130.623 219.37 130.716 219.272 130.788 219.16C130.859 219.048 130.908 218.922 130.931 218.791L141.349 159.847C141.373 159.716 141.371 159.581 141.342 159.451C141.314 159.321 141.26 159.198 141.183 159.089C141.107 158.98 141.01 158.887 140.898 158.816C140.785 158.744 140.66 158.696 140.528 158.673L96.448 150.889C96.3899 150.878 96.331 150.873 96.2719 150.873Z" fill="#232323"/>
<path d="M128.73 218.797L119.62 217.188L130.009 157.516L139.107 159.123C139.257 159.149 139.401 159.205 139.53 159.287C139.658 159.369 139.769 159.476 139.857 159.601C139.944 159.725 140.006 159.866 140.039 160.015C140.072 160.164 140.075 160.318 140.048 160.468L130.066 217.872C130.039 218.02 129.984 218.162 129.903 218.29C129.822 218.417 129.717 218.527 129.593 218.613C129.469 218.699 129.33 218.761 129.183 218.793C129.035 218.826 128.883 218.829 128.734 218.803L128.73 218.797Z" fill="white"/>
<path d="M128.931 219.151C128.844 219.151 128.757 219.143 128.672 219.128L119.562 217.52C119.474 217.504 119.395 217.455 119.344 217.382C119.293 217.309 119.273 217.218 119.288 217.131L129.677 157.457C129.684 157.414 129.7 157.372 129.724 157.335C129.748 157.297 129.779 157.265 129.815 157.24C129.851 157.214 129.892 157.196 129.935 157.187C129.979 157.177 130.023 157.176 130.067 157.184L139.166 158.791C139.556 158.86 139.903 159.082 140.131 159.407C140.358 159.732 140.448 160.134 140.379 160.525L130.397 217.929C130.334 218.272 130.153 218.582 129.885 218.805C129.617 219.029 129.279 219.151 128.931 219.151ZM128.788 218.466C129.001 218.503 129.219 218.455 129.396 218.331C129.572 218.207 129.693 218.019 129.73 217.807L139.713 160.409C139.732 160.302 139.73 160.193 139.706 160.087C139.682 159.981 139.638 159.88 139.576 159.791C139.513 159.702 139.433 159.627 139.342 159.569C139.25 159.511 139.147 159.471 139.04 159.453L130.282 157.905L120.009 216.915L128.788 218.466Z" fill="#232323"/>
<path d="M135.417 159.535L135.325 160.059L125.298 216.783C125.239 217.135 125.111 217.471 124.922 217.773C124.733 218.076 124.486 218.338 124.195 218.545C123.905 218.752 123.576 218.899 123.229 218.979C122.881 219.059 122.521 219.07 122.17 219.011L87.3348 212.635L86.6259 212.502L85.1902 212.24C83.732 211.981 82.819 211.22 83.0815 209.732L93.1314 151.828C93.2511 151.118 93.6479 150.485 94.2345 150.068C94.8211 149.651 95.5496 149.483 96.2596 149.603L97.5663 149.84L98.2808 149.973L133.237 156.372C133.429 156.406 133.617 156.461 133.798 156.537C134.368 156.779 134.839 157.207 135.133 157.752C135.427 158.297 135.528 158.926 135.417 159.535Z" fill="white"/>
<path d="M122.63 219.389C122.454 219.389 122.278 219.373 122.104 219.342L87.2741 212.966L85.1295 212.577C83.3225 212.253 82.4757 211.223 82.7505 209.675L92.8015 151.771C92.9377 150.974 93.3844 150.263 94.044 149.794C94.7035 149.326 95.522 149.137 96.3201 149.271L98.3391 149.642L133.297 156.041C133.515 156.08 133.727 156.143 133.931 156.228C134.567 156.503 135.093 156.985 135.421 157.595C135.75 158.205 135.864 158.909 135.743 159.591L125.623 216.837C125.486 217.638 125.037 218.351 124.375 218.822C123.867 219.188 123.257 219.387 122.63 219.389ZM95.7985 149.903C95.2394 149.91 94.7002 150.112 94.2744 150.475C93.8487 150.837 93.5633 151.337 93.4678 151.888L83.4134 209.79C83.207 210.962 83.8071 211.655 85.2484 211.91L122.224 218.68C122.53 218.734 122.843 218.726 123.145 218.658C123.447 218.589 123.733 218.46 123.984 218.279C124.502 217.91 124.853 217.351 124.96 216.725L135.081 159.477C135.176 158.944 135.088 158.394 134.832 157.917C134.576 157.44 134.167 157.063 133.67 156.848C133.51 156.781 133.344 156.732 133.174 156.703L98.2224 150.304L96.2034 149.934C96.0696 149.912 95.9341 149.902 95.7985 149.903Z" fill="#232323"/>
<path d="M98.2841 149.973L87.3347 212.635L86.6202 212.502L97.5685 149.84L98.2841 149.973Z" fill="#232323"/>
</g>
<g clip-path="url(#clip7_1518_3303)">
<path d="M25.885 170.5C24.2994 178.641 22.6119 188.703 26.7573 196.582C29.734 202.239 35.2668 208.343 44.0291 211.941C65.8748 220.884 100.23 221.111 122.014 217.291C132.324 215.478 140.981 215.132 141.942 207.591C144.789 205.509 144.08 202.555 144.08 202.555C146.701 200.969 146.16 197.631 146.16 197.631C146.16 197.631 148.219 194.401 145.979 191.641C144.842 193.77 141.782 194.748 139.246 192.372C137.62 190.732 139.471 189.178 142.792 185.351C144.732 183.111 140.565 183.935 136.306 186.094C132.482 188.023 124.484 187.29 116.125 186.499C99.8304 184.945 81.5464 176.308 71.711 175.764C59.3032 175.066 54.5161 177.798 54.5161 177.798" fill="white"/>
<path d="M74.9357 219.164C63.57 218.072 52.6664 215.858 43.9041 212.259C33.5948 208.041 28.5449 200.724 26.4468 196.741C22.3805 189.023 23.7673 179.509 25.5373 170.432C25.5787 170.247 25.756 170.123 25.9539 170.154C26.1389 170.195 26.2754 170.373 26.2329 170.569C24.4858 179.531 23.1124 188.905 27.068 196.423C29.1154 200.319 34.0628 207.473 44.1659 211.625C52.8719 215.194 63.7064 217.39 75.0019 218.475C91.3307 220.044 108.64 219.281 121.953 216.944C123.239 216.714 124.499 216.517 125.711 216.316C130.043 215.613 133.786 215.019 136.613 213.759C139.635 212.424 141.219 210.444 141.592 207.546C141.601 207.453 141.657 207.364 141.733 207.313C144.351 205.397 143.766 202.749 143.741 202.641C143.708 202.496 143.77 202.337 143.896 202.255C146.291 200.812 145.821 197.716 145.812 197.692C145.796 197.608 145.817 197.516 145.859 197.449C145.929 197.326 147.564 194.703 146.001 192.28C145.332 193.217 144.3 193.871 143.16 194.056C141.72 194.295 140.245 193.788 139.008 192.644C139.008 192.644 138.996 192.643 138.997 192.631C137.36 190.978 138.752 189.404 141.271 186.548C141.668 186.103 142.079 185.636 142.53 185.126C142.915 184.68 142.933 184.493 142.937 184.458C142.85 184.379 142.305 184.268 140.837 184.669C139.552 185.016 138.003 185.645 136.476 186.417C132.516 188.404 124.169 187.614 116.104 186.839L116.046 186.833C107.185 185.982 97.7552 183.061 89.4394 180.472C82.3163 178.256 76.1668 176.357 71.702 176.105C65.3693 175.744 61.074 176.309 58.6016 176.837C55.9117 177.415 54.7139 178.077 54.7011 178.088C54.5271 178.177 54.3198 178.122 54.2173 177.959C54.116 177.784 54.183 177.578 54.3464 177.476C54.546 177.366 59.3731 174.708 71.7341 175.401C76.282 175.65 82.4644 177.575 89.6332 179.807C97.9395 182.372 107.323 185.288 116.113 186.133L116.172 186.138C124.143 186.904 132.385 187.685 136.159 185.774C138.669 184.495 142.7 182.986 143.5 184.006C143.942 184.566 143.28 185.316 143.067 185.566C142.615 186.088 142.205 186.543 141.807 187C139.169 189.986 138.376 190.982 139.496 192.114C140.569 193.112 141.827 193.551 143.051 193.351C144.168 193.164 145.144 192.468 145.677 191.471C145.734 191.37 145.835 191.298 145.955 191.286C146.074 191.274 146.188 191.32 146.262 191.409C148.385 194.028 146.888 197.065 146.532 197.69C146.612 198.334 146.778 201.154 144.479 202.711C144.592 203.5 144.701 205.925 142.279 207.777C141.325 214.506 134.473 215.615 125.835 216.999C124.622 217.201 123.363 217.398 122.077 217.627C108.714 219.983 91.3347 220.74 74.9357 219.164Z" fill="#232323"/>
<path d="M140.865 199.136L140.619 199.113C140.421 199.082 140.283 198.916 140.314 198.718C140.345 198.521 140.512 198.384 140.71 198.415C143.592 198.786 146.002 197.18 146.027 197.17C146.191 197.057 146.412 197.101 146.514 197.264C146.628 197.429 146.584 197.648 146.42 197.75C146.319 197.823 143.896 199.428 140.865 199.136ZM138.89 204.071L138.644 204.047C138.446 204.016 138.309 203.85 138.34 203.653C138.37 203.455 138.537 203.318 138.735 203.349C141.617 203.72 144.028 202.114 144.054 202.093C144.218 201.979 144.438 202.024 144.541 202.187C144.655 202.351 144.61 202.571 144.447 202.673C144.345 202.746 141.922 204.362 138.89 204.071ZM137.03 208.922L136.784 208.898C136.586 208.868 136.449 208.701 136.48 208.504C136.51 208.307 136.676 208.181 136.875 208.2C139.745 208.57 142.168 206.965 142.192 206.956C142.357 206.842 142.577 206.887 142.679 207.05C142.794 207.214 142.749 207.434 142.586 207.536C142.484 207.608 140.062 209.213 137.03 208.922Z" fill="#232323"/>
</g>
<defs>
<clipPath id="clip0_1518_3303">
<rect width="68.2" height="73.1" fill="white" transform="translate(81.9999 146.8)"/>
</clipPath>
<clipPath id="clip1_1518_3303">
<rect width="196.5" height="187.9" fill="white" transform="translate(22.8 29.4004)"/>
</clipPath>
<clipPath id="clip2_1518_3303">
<rect width="60.8" height="45" fill="white" transform="translate(176.5 41.2002)"/>
</clipPath>
<clipPath id="clip3_1518_3303">
<rect width="27.8" height="34.6" fill="white" transform="translate(185.7 71.5996)"/>
</clipPath>
<clipPath id="clip4_1518_3303">
<rect width="13.1" height="23.4" fill="white" transform="translate(222.5 73.7998)"/>
</clipPath>
<clipPath id="clip5_1518_3303">
<rect width="63.9" height="101.6" fill="white" transform="translate(82.7202 85.458) rotate(-7.28004)"/>
</clipPath>
<clipPath id="clip6_1518_3303">
<rect width="68.3" height="73.2" fill="white" transform="translate(82.7001 147.1)"/>
</clipPath>
<clipPath id="clip7_1518_3303">
<rect width="124.2" height="44.1" fill="white" transform="translate(24.9939 170.062) rotate(5.48896)"/>
</clipPath>
</defs>
</svg>
