<svg xmlns="http://www.w3.org/2000/svg" viewBox="0 0 2500 2500" width="2500" height="2500"><g transform="translate(408.0 459.0) rotate(0.0 839.5 791.5) scale(1.0010493429682097 1.0011067193675889)"><svg width="1677.24" height="1581.25" viewBox="0 0 1677.24 1581.25"><path d="M392.44 1022.25C523.93 713.7 686.82 552.23 813.25 584h.13c9.17 1.26 9.9 217.28 3.5 254.23-25.22 145.69-89.44 603.64-399.25 602.48-130.83-.53-99.23-244.71-25.19-418.46z" fill="#fff"/><path d="M418.8 1443.67h-1.18c-29.54-.11-52.48-12.27-68.18-36.13-29-44-26.78-117.41-19.82-171.21 8.76-67.79 30.66-146.25 60.06-215.25 63.93-150 137.55-270.24 212.91-347.67 74.29-76.33 147.27-108.29 211.09-92.41h.1a4 4 0 0 1 2.7 1.71c6.06 8.29 7.28 86.29 7.52 119.46.38 52-.76 116.87-4.16 136.53-1 6-2.14 12.49-3.32 19.47-13.48 79.67-38.58 228-97.15 353.83-71.52 153.73-172.66 231.67-300.57 231.67zm-26.36-421.42 2.76 1.18c-29.2 68.52-50.93 146.4-59.63 213.67-9.79 75.7-3.26 133.5 18.88 167.14 14.53 22.08 35.79 33.33 63.19 33.43h1.15c67.68 0 128.3-22.53 180.2-67 44-37.71 82.71-92 115-161.23 58.22-125.14 83.23-272.91 96.67-352.3 1.18-7 2.28-13.51 3.32-19.5 6.62-38.26 4.91-235.82-2-250.95-61.55-15.12-132.42 16.29-205 90.87-74.85 76.91-148 196.5-211.69 345.84z" fill="#232323"/><path d="m1070.88 502.45 47 71.24s146.51 591.81 11 762.57c-112.92 142.32-513.48 145-529.38 17.56-24.87-199.19 59.41-507 179.86-730l60-69.41z" fill="#fff"/><path d="M649.87 1216c15.26-168.69 67.54-326.46 144.57-511.22-6.65-20.88 22-79.39 75.5-85.4-4.38 24 3.82 46.22 3.82 46.22 0 23.26-2.51 48.55-18.18 57.92 0 0-71.22 283.64-65.21 472L703 1300.84z" fill="#1C5AF6"/><path d="M845.75 728.86c-20.9 0-48.87-8.26-57.61-25.4a2.5 2.5 0 0 1 4.46-2.27C801.69 719 836.81 726.6 856 723a2.5 2.5 0 1 1 .92 4.92 62.19 62.19 0 0 1-11.17.94zM54.42 771c-13.35-79.44-25.93-136.12-47-212.75C-4.33 515.7 8.71 493.39 31 497.86 19.67 476.7 42.11 456.35 58.53 463 45 414.85 75.39 366.52 87.21 354.74c21-20.89 22.93 12.32 17 31.69 9-23.49 17.56-35.89 28.17-42.62 9.34-5.92 16.67 15.18 12.16 34-2.36 9.85-4 34.91-1.17 49.2 5 25.28 16 47.83 31.31 70.27 5.75-15.91 11.06-25 16.89-38.48 6-13.93 13.15-33.57 29-42.94 19.47-11.48 13.21 33.48 13.33 53.45.14 23.34 11.11 54.6 17.13 75.87 9.88 34.88 56.44 147 70.8 194.58C339.91 790.13 73 881.51 54.42 771z" fill="#fff"/><path d="M140.7 826.23c-16.09 0-30.61-1.86-42.81-5.6-26.7-8.21-42.33-24.73-46.42-49.12-13.17-78.32-25.9-135.9-47-212.44-7.17-26-5.63-47 4.22-57.62a22.36 22.36 0 0 1 17.56-7.15 26.58 26.58 0 0 1 5.79-26.23c6.09-6.78 14.55-10.13 22.34-9.19C44 411.67 72.87 364.79 85.1 352.61c7.11-7.09 13.18-9.2 18-6.28s6.89 10.72 7 19.39c6.24-11.81 12.81-19.48 20.63-24.44a8.35 8.35 0 0 1 9.71.17c7.34 5.25 10.54 22.21 7 37-2.35 9.77-3.86 34.2-1.15 47.92 4.25 21.47 13.06 42 27.62 64.33 3-7.69 6-13.91 8.83-20 2-4.15 4-8.43 6.05-13.21.55-1.26 1.11-2.57 1.68-3.91 5.92-14 13.3-31.39 28.6-40.41 4.43-2.62 8.28-3 11.44-1.08 7.87 4.73 7.78 21.25 6.79 44.08-.2 4.83-.4 9.38-.38 13 .11 18.54 7.37 42.72 13.2 62.14 1.38 4.59 2.68 8.92 3.82 12.93 4.78 16.88 18.26 52.13 32.54 89.44 15.15 39.6 30.82 80.54 38.22 105 3.66 10.36-3.24 20.57-9.68 27.31-17.36 18.17-54.51 36.78-97 48.59-27.45 7.76-54.02 11.65-77.32 11.65zM25.63 500.31a16.53 16.53 0 0 0-12.52 5.23c-4 4.27-12.2 17.87-2.82 51.93 21.13 76.76 33.89 134.5 47.09 213 3.69 22 17.92 36.89 42.28 44.37 28.78 8.84 71.36 6.66 116.82-6 40.84-11.36 77.82-29.79 94.22-47 7.69-8.05 10.5-15.19 8.35-21.21a.88.88 0 0 1-.05-.15c-7.33-24.26-23-65.14-38.1-104.67-14.33-37.45-27.86-72.82-32.72-90-1.12-4-2.41-8.27-3.78-12.83-6-19.79-13.35-44.43-13.46-63.84 0-3.77.18-8.4.39-13.3.57-13.25 1.53-35.42-3.89-38.68-1.13-.68-2.92-.3-5.31 1.11-13.58 8-20.54 24.41-26.12 37.58l-1.69 4c-2.1 4.87-4.16 9.2-6.14 13.39a255.64 255.64 0 0 0-10.67 24.92 3 3 0 0 1-5.3.67c-17-24.86-27.07-47.54-31.78-71.37-3-15-1.24-40.32 1.2-50.49 2.54-10.6 1-26.69-4.64-30.75a2.32 2.32 0 0 0-3 0c-10.35 6.56-18.42 18.86-27 41.15a3 3 0 0 1-5.67-1.95c4.18-13.66 3.51-31.18-1.31-34.08-2.09-1.26-6 .7-10.7 5.39C77.34 368.8 48.46 416 61.42 462.2a3 3 0 0 1-4 3.59c-6.58-2.67-15.16-.08-20.88 6.29a20.63 20.63 0 0 0-2.85 24.37 3 3 0 0 1-3.23 4.36 24.15 24.15 0 0 0-4.83-.5z" fill="#232323"/><path d="M117.64 486a3 3 0 0 1-2.55-1.41c-.59-1-14.69-23.75-17.25-43.73-.14-1.13-.29-2.25-.45-3.37-1.55-11.31-3.31-24.13 3.92-51.8a3 3 0 1 1 5.8 1.52c-6.92 26.52-5.32 38.18-3.77 49.46.15 1.15.31 2.28.46 3.43 2.38 18.66 16.25 41.09 16.39 41.31a3 3 0 0 1-1 4.14 3.09 3.09 0 0 1-1.55.45zm-2.77 60.36c-11.14 0-27.45-7.19-45.52-20.59a3 3 0 1 1 3.58-4.77c25 18.52 43.84 22.64 48.92 17.12 4.2-4.56 1-19.12-21.88-45.16-14.47-16.53-28.72-21.96-42.5-27.15a3 3 0 0 1 2.13-5.61c13.79 5.23 29.4 11.15 44.88 28.8 30.05 34.22 26.55 48 21.78 53.19-2.61 2.81-6.51 4.17-11.39 4.17z" fill="#232323"/><path d="M78.5 571.65c-13.19 0-33.06-10-51.47-26.9a3 3 0 1 1 4.06-4.41c25.78 23.7 48.43 28.8 54.22 23.27 4-3.83 2.1-16.16-16.47-38.33-12.72-15.19-24.71-19.51-38.6-24.51l-.22-.08a3 3 0 0 1 2-5.65l.23.08c14.09 5.08 27.39 9.87 41.16 26.31 25 29.88 20.78 42 16 46.52-2.58 2.51-6.35 3.7-10.91 3.7zm80.58 18.82H159a3 3 0 0 1-2.93-3.07c0-2.26 1.45-55.74 15.82-91.27a3 3 0 1 1 5.57 2.25c-14 34.5-15.38 88.62-15.39 89.16a3 3 0 0 1-2.99 2.93z" fill="#232323"/><path d="M417.63 1440.67C155.94 1448.43 116.31 1282.49 54.42 771c102.38 23.71 220-28.69 251.08-78.57 43.29 100.57 136.9 296.2 173.8 377.72" fill="#fff"/><path d="M400.34 1443.93c-59.29 0-104.92-9.66-142.59-30-41.87-22.67-73.44-58.26-99.35-112-48.26-100.11-73.89-257.19-106.95-530.48a3 3 0 0 1 3.65-3.29c46.05 10.66 99.53 6.54 150.61-11.6 44.65-15.86 81.92-41 97.24-65.63a3 3 0 0 1 5.3.39c27.55 64 74.65 164.7 116.2 253.57 23.7 50.68 44.17 94.45 57.59 124.1a3 3 0 1 1-5.47 2.47c-13.4-29.61-33.86-73.36-57.55-124-40.5-86.61-86.27-184.48-114.1-248.69-17.53 24.18-54.09 48.16-97.21 63.48-50.61 18-103.61 22.45-149.8 12.71 32.75 270.05 58.24 425.55 105.89 524.4 49.27 102.19 122.79 142.32 253.74 138.41a3 3 0 0 1 .18 6q-8.88.15-17.38.16z" fill="#232323"/><path d="M127 911.67c-21.73 0-41.23-2.68-57.17-8.09a3 3 0 0 1 1.93-5.68c37.48 12.73 95.71 9.73 155.77-8C288 872 336.4 843.06 357.1 812.45a3 3 0 0 1 4.16-.81 3 3 0 0 1 .81 4.17c-21.46 31.73-71.13 61.56-132.87 79.82-35.95 10.62-71.34 16.04-102.2 16.04z" fill="#232323"/><path d="M813.12 584.09c8.8-10.05 17.77-22.5 26.27-29.72 0 0-1.95 9-2.83 11.3-6.07 15.6-20.7 47.78-31.95 75.24-30.53 74.61-81.1 248.65-94.28 417.69-5.76 73.77-17.42 284-12 363.85-16.88 11.46-79.84-1.21-108.6-18.1-51.68-360.68 75.21-705.07 223.39-820.26z" fill="#fff"/><path d="M676.54 1429.83a171.43 171.43 0 0 1-28.6-2.85c-22.73-4.07-45.63-11.76-59.74-20a3 3 0 0 1-1.45-2.16A1186.57 1186.57 0 0 1 579 1140c6.75-82.41 21.75-162.71 44.6-238.67C666.89 757.38 735.2 641 811.05 581.9c2.72-3.12 5.51-6.53 8.22-9.83 6-7.33 12.19-14.9 18.18-20a3 3 0 0 1 4.87 2.92c-.2 1-2 9.33-3 11.74-3.09 7.93-8.26 19.85-14.24 33.66-5.71 13.15-12.17 28.06-17.73 41.64-30.57 74.69-80.86 247.33-94.07 416.78-5.77 74-17.42 283.58-12 363.41a3 3 0 0 1-1.31 2.69c-5.42 3.72-14.29 4.91-23.43 4.92zm-84.06-27.35c27.16 15.27 85.29 27.27 102.73 18.33-5.14-81.48 6.39-288.92 12.13-362.45 13.26-170.14 63.78-343.54 94.5-418.58 5.58-13.64 12.06-28.58 17.77-41.76 6-13.75 11.11-25.62 14.16-33.44q.09-.24.21-.63c-3.34 3.69-6.74 7.85-10.07 11.92-2.8 3.41-5.69 7-8.54 10.2a3 3 0 0 1-.41.39C740 644.75 672.33 760.13 629.35 903c-22.73 75.57-37.66 155.45-44.37 237.44a1181.54 1181.54 0 0 0 7.5 262.04z" fill="#232323"/><path d="M697.25 1434.23c5.86-94.16 16.85-189.57 38.87-287.09 45.9-203.24 139.7-415.6 334.76-644.69a154.37 154.37 0 0 1 22 27.78c.9 1.94 67.48 18.24 102.82 79s142.88 827.36 69.13 858.09-567.58-33.09-567.58-33.09z" fill="#fff"/><path d="M1180.29 1478.69c-160 0-467.28-39.4-483.43-41.49a3 3 0 0 1-2.61-3.16c6.75-108.41 19.13-199.79 39-287.56a1362.43 1362.43 0 0 1 111.63-313.33c57-114 130.16-222.78 223.71-332.65a3 3 0 0 1 2.14-1.05 3.08 3.08 0 0 1 2.23.84 155.76 155.76 0 0 1 22.04 27.77c.75.32 2.22.87 3.65 1.41a226.15 226.15 0 0 1 44.39 21.75c23.67 15.21 42.24 34.22 55.19 56.49 16.41 28.21 48 204.57 70.36 393.14 12.84 108.1 39.82 368.05 13.28 446.93-4.12 12.25-9.34 19.55-15.94 22.3-14.72 6.14-45.58 8.61-85.64 8.61zm-479.87-47.08c40.05 5.08 493.91 61.81 563.23 32.93 4.85-2 9.07-8.3 12.56-18.67 9.85-29.28 13-88.39 9.49-175.7-3-74.34-11-167.23-23-268.61-21.93-184.71-53.79-363.69-69.58-390.83-29.33-50.42-79.89-69.41-96.5-75.64-4.7-1.77-5.71-2.15-6.37-3.41a151.71 151.71 0 0 0-19.25-24.79c-92.18 108.65-164.42 216.28-220.75 328.94a1356.56 1356.56 0 0 0-111.2 312c-19.58 86.67-31.87 176.92-38.63 283.78z" fill="#232323"/><path d="M1214.65 1242.47s-49.42-73.37-120.09-285.17-26.52-378.15 1.25-416c18.31-25 133-31.81 255.27 67.11 116.09 93.93 216.8 212.17 299.32 507.39 38.09 136.27 33 272.94-33.05 359.9-110.35 145.3-303.96-25.7-402.7-233.23z" fill="#fff"/><path d="M1517.94 1532.81a133.53 133.53 0 0 1-13.72-.72c-49.16-5.06-104-37.19-158.73-92.92-50.74-51.71-98.13-121-133.46-195.21-1.43-2.16-13.48-20.73-33.64-63.36-19.36-41-50.12-112.8-86.68-222.35-38.71-116.08-41.18-213.25-36.42-274.39 5.56-71.41 23.14-124 38.1-144.36 5.77-7.87 19-13.5 37.16-15.86 50.24-6.51 135 11.72 222.42 82.42 70.41 57 119.12 110.48 162.89 178.93 54 84.5 99 192.44 137.43 330 19.47 69.67 27.29 138.65 22.62 199.48-5.06 65.75-24 120.61-56.17 163-27.91 36.77-62.1 55.34-101.8 55.34zM1150.27 528.43a146.91 146.91 0 0 0-19 1.16c-16.31 2.11-28.37 7-33.09 13.46-14.45 19.71-31.49 71-37 141.27-4.72 60.55-2.28 156.9 36.13 272 36.46 109.27 67.12 180.86 86.42 221.68 20.85 44.1 33.19 62.59 33.32 62.77a3.61 3.61 0 0 1 .22.39c35.06 73.67 82.08 142.49 132.41 193.78 53.69 54.72 107.31 86.24 155.07 91.15 43.35 4.47 80.4-13.12 110.12-52.26 31.51-41.5 50-95.29 55-159.87 4.62-60.14-3.13-128.4-22.42-197.4-38.28-137-83-244.38-136.71-328.37-43.39-67.87-91.73-121-161.61-177.5-40-32.41-82-55.81-124.77-69.53-26.06-8.36-51.7-12.73-74.09-12.73z" fill="#232323"/><path d="M887.27 1279.89c-14 0-26.34.21-37.5.52-26.06-.52-103-26.77-142-46.33-49.69-25-31.63 5.74-25.75 16 7.66 13.29 17.48 23.49 26 31.46-68.19-5.74-109.88-21.84-159.44-18.65-40.5 2.61 22.87 35.5 68.93 54-20-6.49-56.05-14-78.5-17.58-99.67-15.88-36.32 24.78-36.32 24.78-79.78-1.21 64.53 74.67 67.63 76.3-73.64-25.21-74.14-3.28-22.34 31.82 30.87 20.91 74.59 39.06 114.73 51.11a1547.38 1547.38 0 0 0 236.07 51.19c83.03 11.31 153.56-254.62-11.51-254.62z" fill="#fff"/><path d="M904 1537.83a41.39 41.39 0 0 1-5.55-.37 1559.14 1559.14 0 0 1-236.53-51.3c-45.1-13.54-87.22-32.31-115.55-51.5-35.83-24.28-39.76-36.57-36.75-42.6 3.22-6.45 15.05-7.25 35.26-2.42-7.66-4.43-16.35-9.62-24.85-15.07-42.59-27.3-45.51-38.31-44-44.21 1.6-6.28 9.46-8.42 17.64-9.07-7.3-5.7-15.9-14.21-13.25-21.16 3.29-8.62 21.47-9.8 58.94-3.84h.24c12.24 2 27.79 4.94 42.62 8.24-7.75-3.73-15-7.45-21.24-11-26.27-14.72-28.84-21.6-28.14-25.94 1-6.13 9.41-7.38 15.67-7.78 29-1.87 55.22 2.76 85.53 8.13 19.3 3.42 40.92 7.25 65.89 9.74a128.66 128.66 0 0 1-20.42-26.19l-.18-.33c-5.81-10.07-11.55-21.31-6.14-27 4.81-5.09 15.92-2.86 36 7.23 45.23 22.73 118.69 45.53 140.62 46 12.43-.35 24.69-.52 37.49-.52 41.73 0 72.6 17 89.3 49.21 12.49 24.1 16.66 56.58 11.74 91.46-4.52 32-16.29 63.39-32.31 86.11-15.7 22.24-34.03 34.18-52.03 34.18zm-380.5-145.36c-7.22 0-8.42 2.09-8.51 2.27-1.71 3.42 6.13 15.56 34.75 35 27.85 18.86 69.36 37.35 113.91 50.73a1553.18 1553.18 0 0 0 235.62 51.09c17.53 2.4 35.95-8.72 51.87-31.3 15.48-22 26.88-52.39 31.27-83.48 4.75-33.66.8-64.87-11.13-87.87-15.59-30.08-44.63-46-84-46-12.78 0-25 .17-37.41.52h-.24c-26.63-.6-104.41-27.18-143.15-46.64-23.86-12-28.31-9.17-29-8.48-1.28 1.35-1.1 5.91 7 19.93l.18.32c7.73 13.42 17.68 23.49 25.48 30.76a3 3 0 0 1-2.3 5.19c-28.86-2.43-53.32-6.76-74.9-10.59-29.92-5.3-55.76-9.88-84.09-8.05-9.38.6-10.13 2.71-10.14 2.74 0 .21-.53 5.36 25.15 19.76 14.77 8.28 34.76 17.65 54.84 25.71a3 3 0 0 1-2.05 5.64c-18.95-6.16-54.4-13.69-77.85-17.43h-.23c-47.18-7.51-52.09-1.3-52.59 0-1.35 3.53 8.59 13 18.36 19.27a3 3 0 0 1-1.62 5.52h-.05c-18.16-.29-20.58 3.59-20.88 4.79-.57 2.24.72 11.58 41.43 37.67 22.29 14.29 45.87 26.79 48.49 28.16a3 3 0 0 1 1.37 3.86 3 3 0 0 1-3.7 1.66c-24.99-8.58-38.57-10.75-45.92-10.75z" fill="#232323"/><path d="M674 1336.25a3.21 3.21 0 0 1-.8-.11c-5.1-1.41-10.23-2.74-15.2-4-13.51-3.5-27.48-7.12-41.48-12.46a3 3 0 0 1 2.14-5.61c13.69 5.22 26.88 8.64 40.85 12.27 5 1.29 10.14 2.63 15.29 4a3 3 0 0 1-.8 5.9zm-4.1 104.98a3.06 3.06 0 0 1-.78-.11C631.34 1431 605.48 1422.29 569 1403a3 3 0 1 1 2.8-5.31c36 19 61.57 27.59 98.92 37.63a3 3 0 0 1-.78 5.9zm0-44.42a3 3 0 0 1-.51 0c-65.26-11.3-144.39-51.81-168.49-70.37a3 3 0 1 1 3.66-4.76c23.7 18.25 101.55 58.08 165.85 69.17a3 3 0 0 1-.51 6z" fill="#232323"/><path d="M708.1 1281.5c4.75.4 9.62.75 14.64 1" fill="#fff"/><path d="M722.74 1285.54h-.18c-4.89-.28-9.84-.63-14.71-1a3 3 0 1 1 .5-6c4.82.41 9.72.76 14.56 1a3 3 0 0 1-.17 6z" fill="#232323"/><path d="M1617.35 1475.68c-51.21 67-98.31 91.23-206.23 99.67-162.07 12.67-379.76-19-512.3-40.87 54.49-72.5 36.17-207.42-11.55-254.59 129.37-4.43 188.11-26.13 327.38-37.42 24.53-1.49 102.06-7.25 139.28 12.36" fill="#fff"/><path d="M1330.54 1581.27c-111.6 0-254-14.48-432.21-43.83a3 3 0 0 1-1.91-4.76c24.39-32.45 36-81.57 32-134.76-3.74-48.84-20.31-93.25-43.22-115.9a3 3 0 0 1 2-5.13c71.27-2.44 121.57-10.21 174.82-18.44 44.23-6.84 90-13.9 152.42-19l3.21-.2c27.69-1.73 101.23-6.33 137.72 12.9a3 3 0 1 1-2.8 5.31c-35-18.45-107.32-13.92-134.55-12.22l-3.15.2c-62.19 5-107.81 12.09-151.94 18.91-51.78 8-100.78 15.57-168.94 18.26 21.51 24.73 36.82 67.87 40.42 114.82 4 52.51-7 101.3-30.28 134.85 329.3 53.92 462.79 43.49 506.8 40 55.07-4.31 93.1-12.82 123.29-27.59 29.75-14.55 53.91-35.76 80.79-70.92a3 3 0 1 1 4.76 3.65c-52.68 68.91-101.36 92.47-208.38 100.84q-37.39 3.01-80.85 3.01z" fill="#232323"/><path d="M981.62 1528.23a16.63 16.63 0 1 1 16.62-16.63 16.64 16.64 0 0 1-16.62 16.63zm0-27.25a10.63 10.63 0 1 0 10.62 10.62 10.63 10.63 0 0 0-10.62-10.6zm41.69 54.5a3 3 0 0 1-2.4-4.79c20.36-27.24 32.18-82.15 29.44-136.64-3.15-62.36-23.9-113.59-56.95-140.56a3 3 0 0 1 3.79-4.65c34.36 28 55.92 80.86 59.15 144.91 2.86 56.65-9.16 111.81-30.62 140.53a3 3 0 0 1-2.41 1.2zM922.7 249.72c12.66 28.06 20.92 40.21 42.72 18.27s31.92-38.92 56.13-46.49c-8.07-35 8-77.37 17.5-97.64 26.47-55.77-47.78-126.31-110.26-80.45C918.08-5.75 836.23-20.27 810 37.55c-1.72 3.91-3.17 7.58-3.17 7.58s-4.72-1.91-8.86-3.74a66.74 66.74 0 0 0-51.87 2.28c-41 20.69-55.74 94.76 7.95 115.46 5.8-.45 12.18-.6 18.83-.67 24.28-.14 79.56 6.2 107.12 31.3a177.65 177.65 0 0 1 40.6 56.48z" fill="#232323"/><path d="M806.8 45.13s-1.1-.44-2.7-1.11a3 3 0 0 0 1.4 1.15c14.48 5.72 24.91 21.14 29.86 33.67a3 3 0 0 0 2.79 1.9 3.06 3.06 0 0 0 1.1-.21 3 3 0 0 0 1.69-3.89c-6.8-17.24-18.73-30.78-32.07-36.54-1.19 2.82-2.07 5.03-2.07 5.03z" fill="#fff"/><path d="M903.31 736.3a3 3 0 0 1-2.3-1.07c-19-22.68-38.37-75.8-35.94-115.76a3 3 0 0 1 6 .37c-2.34 38.55 16.33 89.73 34.56 111.54a3 3 0 0 1-2.31 4.92z" fill="#232323"/><path d="M686.82 864.67a8.41 8.41 0 0 1-1.48-.14 8 8 0 0 1-6.34-9.33c7.36-39.38 33.55-108.57 66.71-176.25 17-34.61 59.67-117.22 90.18-137a8 8 0 1 1 8.7 13.43C826 567.42 793.6 617.46 760 686c-32.58 66.49-58.23 134.07-65.35 172.15a8 8 0 0 1-7.83 6.52z" fill="#EF8C44"/><ellipse cx="686.82" cy="856.67" fill="#EF8C44" rx="35.32" ry="29.6" transform="matrix(.33364233 -.94269974 .94269974 .33364233 -349.93 1218.27)"/><ellipse cx="686.82" cy="856.67" fill="#fff" rx="15.29" ry="12.81" transform="matrix(.33364233 -.94269974 .94269974 .33364233 -349.93 1218.27)"/><path d="M1088.51 264.9c-7.8-46.39-59.19-59.26-92.92-29.13-27.47 18.77-47.09 75.29-71.61 11.58-10.71-27.81-31-53.39-56.58-69.57-5.8-3.41-13.67-7.23-18.54-8.52-23.77-8.57-51.88-11-76.16-10.91-7.33.13-18.68.78-18.68.78s-1.33 23.33-2.18 30.67c-1.69 18.83-4.15 37.66-7.43 56.37-8.65 50.57-41.49 72.13-46.83 115.22-9.67 80.91 141.12 69.74 151.8 65.53 6.43 26.72-5.21 115-12.82 138.75-3 13 1.81 34.27 28.87 54 105-5.28 173.23-68 205.45-117.2-22.49-31.64-64.24-106.17-68.87-150.18 35.99-3.29 93.12-38.46 86.5-87.39z" fill="#fff"/><g fill="#232323"><path d="M865.43 622.65a3.06 3.06 0 0 1-1.77-.57c-34.32-25-31.66-50-30-57.09a2.17 2.17 0 0 1 .07-.24c7.31-22.84 18.18-105.13 13.34-134.16-19 3.67-96 6.83-132.5-21.34C698.93 397.2 692.22 381 694.61 361c2.71-21.89 12.16-38.12 22.17-55.3s20.39-35 24.68-60.07c3.22-18.42 5.7-37.3 7.39-56.13.84-7.25 2.16-30.34 2.17-30.57a3 3 0 0 1 2.83-2.83c.11 0 11.49-.65 18.8-.78 20.84-.13 51.1 1.7 77.11 11 5.36 1.45 13.47 5.46 19.16 8.81 25.65 16.23 46.71 42.12 57.86 71.08 6.57 17.06 13.18 26.29 19.65 27.44 7.8 1.38 16.67-8.77 26.06-19.51 6.67-7.63 13.56-15.51 21.24-20.81 17.63-15.65 41.27-20.91 61.74-13.72 19.24 6.75 32.36 23 36 44.72a.34.34 0 0 1 0 .1c2.35 17.33-2.88 34.61-15.12 50-18.33 23-48.88 37.41-71 40.43 6.09 44 46.88 116.15 68 145.81a3 3 0 0 1 .07 3.38c-19.11 29.19-46.2 56.16-76.29 75.94-39.35 25.87-83.6 40.21-131.52 42.62zm-26-56.19c-2.84 12.56 2.77 32.21 26.88 50.14 46.44-2.51 89.31-16.5 127.46-41.58 28.84-18.95 54.85-44.65 73.45-72.52C1047 473.54 1003.92 399 999 352.58a3 3 0 0 1 2.71-3.3c21-1.92 51.78-15.77 69.93-38.55 11.34-14.23 16-29.5 13.87-45.38-3.28-19.43-15-34-32.06-40-18.46-6.49-39.88-1.63-55.89 12.67l-.31.24c-7.12 4.86-13.8 12.51-20.27 19.91-10.54 12-20.49 23.44-31.63 21.47-8.92-1.58-16.62-11.5-24.2-31.2-10.7-27.78-30.88-52.6-55.39-68.11-5.12-3-12.91-6.9-17.7-8.16l-.25-.08c-25.2-9.08-54.77-10.85-75.12-10.73-5 .09-12.07.43-15.86.63-.38 6.38-1.35 22.23-2 28.17-1.69 18.91-4.2 38-7.45 56.54-4.47 26.13-15.12 44.39-25.41 62.06-9.69 16.64-18.84 32.35-21.4 53-2.11 17.68 3.83 32.07 17.65 42.74C738.35 420 771 425 794.75 426.4c27 1.61 50-.89 53.52-2.27a3 3 0 0 1 2.49.13 3 3 0 0 1 1.53 2c6.55 27.18-4.9 115.23-12.83 140.2z"/><path d="M1002 352.27c1-.09 2-.21 3-.34a3 3 0 0 0-3.24-2.65c-10.32.92-22.25-1.54-27.35-3.31a3 3 0 0 0-2 5.67 83.69 83.69 0 0 0 24.59 3.84c1.76 0 3.53-.07 5.26-.23h.1c-.12-1.02-.24-2.01-.36-2.98zM885.17 209a44.6 44.6 0 0 0-4.5-15.19c-9.3-20.74-41.88-36.11-59.81-17-5.52 8.63 5.21 14.41 11.41 17.42 5.52 3.21 10.17 6.16 15.4 9.31 4.69 3 11.53 8.12 16.49 11.88 3.49 2.79 7.37 5.64 12 6.09 8.03 1.38 10.27-5.87 9.01-12.51zm-15.81 30.51c-15-5.11-29.38-7.46-46.71-16.88a5.32 5.32 0 0 0-7.25 2c-13.72 23.2 12.18 27.79 33.16 26.77 8.49-.41 15.61-2.57 19.64-5s5.11-5.55 1.16-6.89zm-78.45-68.4c-9.2-15.08-24.53-13.18-36.89-12-.5 10.19-1.29 20.54-2.18 30.67a213.26 213.26 0 0 1 25-5.23c4.19-.87 10.9-.67 13.93-4.94l-.09-.07a8 8 0 0 0 .23-8.43zm57.66 252.96c4.22-1.36 9.77-3.33 15.89-5.79 13.83-5.58 30.58-14 42.33-25 8.35 5.39 7.79 62.18-56.57 82-.09-29.28-1.62-50.28-1.65-51.21zm-57.15-202.22a3.41 3.41 0 0 0-.6-1.15 5.38 5.38 0 0 0-5.14-2.73c-15.61 1.18-21.94 1.58-30.42.13a3.46 3.46 0 0 0-1.16.06 2.66 2.66 0 0 0-1.93 3.33c2.19 7.6 10.2 18 23.76 17.06 1.29-.09 4-.53 4-.53 7.94-1.73 11.41-6.75 11.9-12.45a12 12 0 0 0-.41-3.72zM129.93 850.08a16.63 16.63 0 1 1 16.63-16.63 16.65 16.65 0 0 1-16.63 16.63zm0-27.25a10.63 10.63 0 1 0 10.63 10.62 10.64 10.64 0 0 0-10.63-10.62zm857.15-514.06a3.24 3.24 0 0 1-.86-.12 3 3 0 0 1-2-3.73c9.34-31.5 33.38-49.49 64.33-48.11a3 3 0 0 1-.27 6c-28.41-1.26-49.67 14.7-58.31 43.81a3 3 0 0 1-2.89 2.15z"/><path d="M776.84 280.56a2.91 2.91 0 0 1-1.69-.53c-8.39-5.73-12.64-11.39-12.64-16.82 0-5.84 4.74-10.93 10.22-16.83 6.09-6.55 13-14 13-22.77a3 3 0 0 1 3-3 3 3 0 0 1 3 3c0 11.16-8.09 19.86-14.59 26.86-4.43 4.76-8.62 9.26-8.62 12.74 0 3.19 3.65 7.52 10 11.87a3 3 0 0 1-1.69 5.48zm-4.71 38.76a24.56 24.56 0 0 0 13.33 4.68 29.73 29.73 0 0 0 14-2.26 27.76 27.76 0 0 0 10.88-8.88 25.59 25.59 0 0 0 4.82-13.33v-.06a2.23 2.23 0 0 1 4.44-.18 25.88 25.88 0 0 1-3.88 17.14 30 30 0 0 1-5.82 6.83 32.06 32.06 0 0 1-7.56 4.85 32.59 32.59 0 0 1-17.56 2.27 29.65 29.65 0 0 1-8.53-2.51 21.78 21.78 0 0 1-7.25-5.37 2.23 2.23 0 0 1 3.07-3.21z"/></g><path d="M976 801.2a7.63 7.63 0 0 1-.82 0 8 8 0 0 1-7.18-8.8c4-39.64 20.78-93.73 46-148.38 24.27-52.6 53.17-98.41 77.29-122.54a8 8 0 1 1 11.32 11.31c-22.86 22.87-50.56 67-74.08 117.93C1004.06 703.83 987.8 756.06 984 794a8 8 0 0 1-8 7.2z" fill="#EF8C44"/><path d="M972.91 1117.28a4.81 4.81 0 0 1-1.18-.14c-22.76-5.49-41.83-21-56.7-46.12-33.72-56.94-35.3-144.59-28.55-169.46a5 5 0 1 1 9.65 2.61c-6.23 23-4.3 108.06 27.5 161.76 13.44 22.7 30.41 36.66 50.45 41.49a5 5 0 0 1-1.17 9.86z" fill="#232323"/><path d="M912.35 1110.6a61.5 61.5 0 0 1-10.29-.89 5 5 0 0 1 1.69-9.86c31 5.32 58.38-18.7 81.5-71.39 13.15-30 24.36-68.26 33.32-113.78a5 5 0 1 1 9.81 1.93c-9.09 46.24-20.53 85.22-34 115.87-22.75 51.9-50.31 78.12-82.03 78.12z" fill="#232323"/><path d="M1023.49 923.65a8 8 0 0 1-7.9-9.36c5.17-30.1 5-73.56-12.5-97a39.07 39.07 0 0 0-28-16.17A48.41 48.41 0 0 0 938 811.77c-20.32 16.19-34.07 48.85-38.73 92a8 8 0 1 1-15.92-1.77c5.12-47.38 21-83.87 44.67-102.74a64.75 64.75 0 0 1 48.92-14 55 55 0 0 1 39 22.48c20.5 27.45 21.43 74.43 15.45 109.26a8 8 0 0 1-7.9 6.65z" fill="#EF8C44"/><rect fill="#EF8C44" height="21.88" rx="10.05" transform="matrix(.98738619 .1583304 -.1583304 .98738619 185.76 -126.88)" width="33.8" x="872.43" y="1091.66"/><rect fill="#EF8C44" height="21.88" rx="10.05" transform="matrix(.99390336 .11025473 -.11025473 .99390336 129 -101.97)" width="33.8" x="969.85" y="1104.84"/></svg></g><g transform="translate(595.0 1446.0) rotate(0.0 295.5 294.5) scale(0.9989182611047259 1.0004926024698069)"><svg width="591.64" height="588.71" viewBox="0 0 591.64 588.71"><path d="M316.31 106h-24.48a9 9 0 0 0 8.74-11.25L280.92 16c-1.47-6.62.74-13 9.58-13 7.89 0 12.58 5.35 14.52 13l20 78.73a9 9 0 0 1-8.71 11.27z" fill="#fff"/><path d="M316.31 109h-24.48a3 3 0 0 1 0-6 6 6 0 0 0 5.84-7.51L278 16.73c-1.11-5-.37-9.37 2.07-12.4 1.58-2 4.68-4.33 10.42-4.33 8.62 0 15 5.56 17.43 15.26L328 94a12 12 0 0 1-11.65 15zm-14.07-6h14.07a6 6 0 0 0 5.84-7.51l-20-78.73C300.87 11.84 297.85 6 290.5 6c-2.7 0-4.63.7-5.74 2.08-1.26 1.56-1.59 4.21-.91 7.27L303.49 94a12 12 0 0 1-1.25 9z" fill="#232323"/><path d="M443.11 47.47h-398a22 22 0 0 0-21.29 27.45l126.5 497.2a22 22 0 0 0 21.34 16.59h398A22 22 0 0 0 591 561.26L464.45 64.06a22 22 0 0 0-21.34-16.59z" fill="#232323"/><path d="M420 47.47H22A22 22 0 0 0 .69 74.92l126.5 497.2a22 22 0 0 0 21.34 16.59h398a22 22 0 0 0 21.34-27.45L441.32 64.06A22 22 0 0 0 420 47.47z" fill="#EF8C44"/><path d="M261.85 3H143a19.79 19.79 0 0 0-19.2 24.67L142 99.18a9 9 0 0 0 8.74 6.8h141.1a9 9 0 0 0 8.75-11.25L280.92 16c-1.46-6.62.75-13 9.58-13z" fill="#fff"/><path d="M291.83 109h-141.1a12 12 0 0 1-11.65-9.06l-18.19-71.53A22.78 22.78 0 0 1 143 0h147.5a3 3 0 0 1 0 6c-2.7 0-4.63.7-5.74 2.08-1.25 1.56-1.59 4.21-.91 7.27L303.49 94a12 12 0 0 1-11.66 15zM143 6a16.79 16.79 0 0 0-16.3 20.93l18.2 71.51a6 6 0 0 0 5.83 4.54h141.1a6 6 0 0 0 5.84-7.51L278 16.72c-.92-4.13-.56-7.84 1-10.72z" fill="#232323"/></svg></g><g transform="translate(886.0 1720.0) rotate(0.0 161.5 130.5) scale(0.9971597925413682 1.0014964890065614)"><svg width="323.92" height="260.61" viewBox="0 0 323.92 260.61"><path d="M320.92 257.61c-54.57-11.19-99.8-23.52-133.89-33.76-40.14-12-83.85-30.2-114.73-51.11-51.8-35.1-51.3-57 22.34-31.82-3.09-1.63-147.4-77.51-67.64-76.3 0 0-63.34-40.66 36.32-24.78 22.46 3.57 58.54 11.08 78.5 17.57C95.81 38.91 32.44 6 73 3.42 126 0 170 18.66 247 23.1" style="fill:#fff"/><path d="M320.92 260.61a3.05 3.05 0 0 1-.6-.06c-45.61-9.35-89.49-20.41-134.15-33.82-45.11-13.55-87.17-32.32-115.55-51.51-35.83-24.28-39.77-36.57-36.76-42.6 3.22-6.45 15-7.25 35.26-2.42-7.66-4.43-16.34-9.61-24.84-15.06C1.68 87.83-1.24 76.83.27 70.93c1.34-5.26 7-8.21 17.67-9.06C10.63 56.17 2 47.65 4.67 40.69c3.33-8.61 21.46-9.8 58.93-3.84h.24c12.25 2 27.79 4.94 42.62 8.24-7.75-3.73-15-7.44-21.24-11-13.8-7.68-29.46-17.62-28.14-25.89C58.06 2.07 66.5.83 72.75.42 101.8-1.45 128 3.19 158.27 8.56 183.46 13 212 18.08 247.19 20.11a3 3 0 0 1-.34 6c-35.54-2.05-64.27-7.14-89.62-11.63-29.92-5.31-55.77-9.89-84.09-8.06C63.76 7 63 9.13 63 9.15c0 .21-.54 5.36 25.14 19.76 14.77 8.28 34.76 17.65 54.84 25.72a3 3 0 0 1-2.05 5.63C122 54.1 86.55 46.58 63.1 42.83h-.24c-47.18-7.52-52.08-1.3-52.59 0-1.35 3.54 8.59 13 18.36 19.27a3 3 0 0 1 1.25 3.39A3 3 0 0 1 27 67.62c-18.2-.26-20.61 3.6-20.92 4.79-.57 2.24.73 11.58 41.43 37.67 22.3 14.3 45.88 26.79 48.49 28.17a3 3 0 0 1 1.38 3.85 3 3 0 0 1-3.71 1.66c-49.53-17-54.26-8.82-54.44-8.46-1.18 2.37 2.76 13.27 34.75 35 27.85 18.86 69.36 37.34 113.91 50.72s88.2 24.38 133.63 33.69a3 3 0 0 1-.6 5.94Z" style="fill:#232323"/><path d="M198.29 76.81a2.71 2.71 0 0 1-.8-.11c-5.11-1.4-10.24-2.74-15.21-4-13.51-3.5-27.48-7.12-41.48-12.46a3 3 0 1 1 2.14-5.6c13.69 5.21 26.88 8.63 40.84 12.26 5 1.29 10.15 2.63 15.3 4a3 3 0 0 1-.79 5.89Zm-4.1 104.98a3 3 0 0 1-.78-.1c-37.79-10.16-63.65-18.84-100.17-38.12a3 3 0 0 1 2.8-5.3c36 19 61.57 27.58 98.92 37.62a3 3 0 0 1-.77 5.9Zm0-44.42a3.12 3.12 0 0 1-.52 0C128.42 126.07 49.3 85.56 25.18 67a3 3 0 1 1 3.66-4.75c23.71 18.24 101.56 58.07 165.85 69.16a3 3 0 0 1-.5 6Z" style="fill:#232323"/></svg></g><g transform="translate(1417.0 660.0) rotate(-17.630101890955036 -169.0 118.0) scale(-1.9169691470054446 1.9041164415613756)"><svg width="176.32" height="123.942" viewBox="0 0 176.32 123.942"><path d="M42.906 63.693a94.336 94.336 0 0 1-20.994-2.162C11.264 59.065 3.892 54.573 0 48.182l4.27-2.6c3.167 5.2 9.482 8.926 18.771 11.078 20.682 4.792 49.729-.051 56.382-4.3l2.692 4.214c-5.397 3.445-21.97 7.119-39.209 7.119zm-25.94 45.643a18.118 18.118 0 0 1-6.2-.952 10.19 10.19 0 0 1-6.396-6.414l4.73-1.617a5.144 5.144 0 0 0 3.377 3.334c12.34 4.5 47.822-14.229 60.452-21.828l2.578 4.284c-.118.071-11.885 7.128-25.484 13.361-14.272 6.542-25.347 9.832-33.057 9.832z" fill="#333"/><path d="M101.58 33.126C122.341 17.646 148.02 2.5 148.02 2.5s43.736 41.718 17.32 88.866c-18.4 32.84-82.375 43.287-110.56 8.367-15.663-19.405-3.134-29.376 46.8-66.607z" fill="#fff"/><path d="M104.584 123.953c-21.385 0-39.968-8.053-51.749-22.65-5.393-6.681-7.479-12.186-6.764-17.849C47.682 70.682 63.8 58.18 100.086 31.122 120.716 15.739 146.492.5 146.75.347a2.5 2.5 0 0 1 3 .344 99.379 99.379 0 0 1 19.106 27.5c10.341 22.117 9.881 44.384-1.33 64.394-9.419 16.81-31.214 29-55.527 31.049q-3.758.319-7.415.319zm43.025-118.3c-6.034 3.627-27.149 16.51-44.535 29.473-34.193 25.499-50.689 38.23-52.043 48.954-.53 4.2 1.226 8.547 5.694 14.082 12.064 14.947 32.056 22.418 54.848 20.493 22.707-1.916 42.955-13.107 51.586-28.511 10.514-18.765 10.928-38.848 1.229-59.689a98.2 98.2 0 0 0-16.779-24.798z" fill="#333"/></svg></g><g transform="translate(322.0 596.0) rotate(0.0 238.0 195.0) scale(1.0 1.0)"><svg width="476" height="390" viewBox="0 0 476 390"><path d="M435.1 190.1c-.9 2.3-1.8 4.7-2.8 7-41.8 98.8-172.8 166.8-194.3 177.4-20.6-10.3-142.9-74.1-189.3-167-1.2-2.3-2.3-4.6-3.3-7-11.6-25.8-17.3-53.8-13.2-83.5 17.6-128.3 178.7-134.3 205-22.7.1.3.4.6.7.7.5.1 1.1-.2 1.2-.7C265.8-17.2 426.9-10.5 444 117.8c3.3 25.5-.4 49.7-8.9 72.3z" fill="#1C5AF6"/><path d="M435.1 190.1c-.9 2.3-1.8 4.7-2.8 7l-53.7-.2c-.8 0-1.6.6-1.8 1.4l-13.9 50.4c-2.1 7.6-10.1 12.1-17.8 10.1-4.5-1.2-8.1-4.5-9.8-8.8l-26.5-64.5c-1.2-2.9-3.8-4.6-6.9-4.6-3.2 0-5.7 1.8-6.9 4.6l-43.5 107c-2.1 5.4-7.4 9-13.3 9.1h-.2c-5.9 0-11.2-3.5-13.4-8.8L145 112.1c-1.8-4.1-5.7-6.5-10.1-6.3s-8.1 2.9-9.6 7.1l-29.6 85c-2 5.8-7.5 9.8-13.8 9.8l-33.2-.1c-1.2-2.3-2.3-4.6-3.3-7l36.6.1c3.3 0 6.2-2 7.2-5l29.6-85c2.4-7 8.5-11.5 15.9-11.8 7.3-.3 13.8 3.7 16.8 10.5l79.6 180.8c1.2 2.8 3.9 4.6 7 4.6h.2c3.1 0 5.8-1.9 6.9-4.7l43.5-107c2.3-5.5 7.4-9 13.4-9s11.1 3.4 13.4 9l26.6 64.6c.9 2.3 2.8 4 5.1 4.6 4 1.1 8.2-1.2 9.3-5.2l13.9-50.4c1.1-3.8 4.6-6.5 8.6-6.5z" fill="#fff"/></svg></g><g transform="translate(514.0 870.0) rotate(89.99999999999993 86.0 54.0) scale(1.3128468167281109 1.3155490590169925)"><svg width="131.013" height="82.095" viewBox="0 0 131.013 82.095"><path d="M128.013 79.095C86.341 49.679 49.767 46.351 25.876 41.508-34.589 29.252 37.315-5.066 96.964 4.739z" fill="#fff"/><path d="M128.011 82.095a2.989 2.989 0 0 1-1.728-.549c-35.64-25.157-67.554-30.955-90.857-35.187-3.584-.651-6.969-1.266-10.147-1.91C7.103 40.764-1.351 34.737.153 26.537 2.358 14.523 26.823 7.152 34.269 5.18c20.41-5.407 43.438-6.647 63.182-3.401a3 3 0 0 1-.973 5.921C52.974.548 7.991 17.072 6.055 27.619c-.582 3.174 4.476 7.717 20.417 10.948 3.118.632 6.474 1.242 10.027 1.887 23.854 4.333 56.521 10.267 93.245 36.189a3 3 0 0 1-1.733 5.452z" fill="#232323"/></svg></g></svg>