<svg width="379" height="233" viewBox="0 0 379 233" fill="none" xmlns="http://www.w3.org/2000/svg">
<g clip-path="url(#clip0_1584_4881)">
<g clip-path="url(#clip1_1584_4881)">
<path d="M282.423 192.676C287.283 190.721 288.389 151.202 273.665 132.535C267.99 125.339 260.924 117.587 252.596 109.196C222.838 80.0643 202.254 74.7827 191.289 78.9625C190.71 79.1829 190.127 79.2158 189.603 79.4878C180.21 84.3622 193.173 129.795 204.217 151.938C218.34 180.816 247.181 202.906 282.423 192.676Z" fill="white"/>
<path d="M265.069 195.654C262.457 195.655 259.849 195.477 257.262 195.122C249.599 194.069 242.168 191.454 235.178 187.351C222.396 179.849 211.261 167.341 203.822 152.131C198.11 140.679 192.22 123.88 188.818 109.337C186.485 99.3664 183.459 82.18 189.4 79.0971C189.748 78.9165 190.103 78.8305 190.447 78.7475C190.686 78.6894 190.911 78.6351 191.132 78.551C195.47 76.8972 203.145 76.0115 215.07 81.1834C226.436 86.1124 239.165 95.4312 252.904 108.881C261.643 117.687 268.546 125.334 274.011 132.262C277.861 137.143 282.921 146.38 285.166 162.665C286.542 172.649 286.416 183.301 284.853 189.169C284.258 191.401 283.497 192.718 282.588 193.083C282.574 193.089 282.56 193.094 282.546 193.098C276.682 194.8 270.831 195.654 265.069 195.654ZM198.711 78.1416C195.638 78.1416 193.243 78.6877 191.445 79.3727C191.173 79.4768 190.909 79.5405 190.654 79.6022C190.348 79.6762 190.058 79.7464 189.805 79.8776C185.852 81.9293 185.804 92.5936 189.674 109.137C193.01 123.396 199.013 140.517 204.611 151.741C211.976 166.801 222.989 179.178 235.623 186.593C242.513 190.637 249.834 193.213 257.382 194.251C265.495 195.367 273.871 194.697 282.277 192.26C282.578 192.129 283.31 191.542 284.003 188.943C285.281 184.144 285.867 174.195 284.294 162.785C282.564 150.232 278.666 139.585 273.32 132.806C267.876 125.905 260.995 118.282 252.284 109.505C238.626 96.1351 225.986 86.876 214.72 81.9899C208.07 79.1061 202.793 78.1416 198.711 78.1416Z" fill="#232323"/>
<path d="M267.733 125.049C267.26 124.506 253.806 101.097 237.306 89.2665C212.798 71.6939 199.753 74.346 191.415 78.0566L183.152 78.0264C183.152 78.0264 178.299 78.96 175.282 78.1254C165.217 75.3456 156.458 78.8202 153.128 80.3601C152.866 80.2187 151.377 76.5804 151.377 76.5804L129.427 75.9875L129.416 75.999C121.579 71.5439 109.829 70.2689 97.7429 74.8249C73.9409 83.7973 44.3824 107.042 27.6044 133.658C24.0534 139.29 21.658 146.334 20.8226 152.533C20.4412 155.372 20.3724 158.154 20.6287 160.86L20.6277 160.86C20.6286 160.864 20.6294 160.871 20.6303 160.876L94.1598 146.036C93.9826 145.997 93.8048 145.961 93.6267 145.927C93.6267 145.927 94.3942 145.859 95.7319 145.681C95.5451 180.493 97.5178 221.948 96.7757 224.675C166.891 242.011 231.53 224.557 231.53 224.557C231.48 217.509 230.615 200.341 229.134 183.042C229.899 183.709 230.667 184.315 231.437 184.843C244.995 194.143 261.617 198.351 280.073 193.704C280.869 193.521 276.388 111.509 267.733 125.049Z" fill="white"/>
<path d="M162.602 232.789C157.492 232.789 152.416 232.662 147.389 232.409C129.755 231.522 112.691 229.063 96.6704 225.102C96.6135 225.088 96.56 225.063 96.5131 225.028C96.4661 224.993 96.4266 224.948 96.3969 224.898C96.3672 224.848 96.3479 224.792 96.3401 224.734C96.3323 224.675 96.3362 224.616 96.3516 224.56C96.6806 223.35 96.4236 213.145 96.0982 200.225C95.7196 185.188 95.2021 164.644 95.2899 146.182C94.9996 146.219 94.7455 146.249 94.5298 146.274C94.498 146.323 94.4565 146.365 94.408 146.399C94.3594 146.432 94.3047 146.455 94.2471 146.466L20.7176 161.307C20.6558 161.319 20.5921 161.318 20.5308 161.304C20.4694 161.289 20.4118 161.262 20.362 161.224C20.3121 161.185 20.271 161.137 20.2416 161.081C20.2121 161.025 20.195 160.964 20.1913 160.901H20.1909C19.9341 158.189 20 155.354 20.3871 152.475C21.2669 145.949 23.8257 138.828 27.2326 133.424C35.2558 120.696 46.5037 108.2 59.7602 97.2858C72.2042 87.041 85.6384 78.9182 97.588 74.4136C103.344 72.2439 109.433 71.2682 115.198 71.5938C120.491 71.8922 125.439 73.2599 129.516 75.55L151.389 76.141C151.474 76.1432 151.557 76.1702 151.627 76.2187C151.697 76.2672 151.752 76.335 151.784 76.4139C152.33 77.7491 152.974 79.2214 153.283 79.806C157.667 77.8353 166.076 75.1267 175.4 77.7016C178.28 78.4986 183.022 77.6035 183.069 77.5943C183.097 77.589 183.127 77.5855 183.154 77.5864L191.323 77.6163C200.122 73.7246 213.333 71.5366 237.563 88.9091C244.306 93.7443 254.976 103.736 267.508 123.878C267.594 124.015 267.675 124.147 267.749 124.265C268.518 123.287 269.319 122.921 270.136 123.177C272.463 123.906 273.98 129.902 274.918 134.349C276.088 139.892 277.177 147.4 278.155 156.667C279.874 172.962 280.722 189.79 280.591 193.154C280.572 193.651 280.557 194.044 280.172 194.132C262.962 198.466 246.021 195.38 231.188 185.205C230.665 184.844 230.156 184.463 229.663 184.061C231.046 200.51 231.92 217.455 231.97 224.553C231.971 224.651 231.939 224.745 231.88 224.823C231.821 224.9 231.739 224.956 231.645 224.981C231.483 225.025 215.162 229.38 190.485 231.555C181.159 232.377 171.827 232.789 162.602 232.789ZM97.2748 224.345C113.123 228.235 129.99 230.652 147.419 231.53C161.481 232.239 175.937 231.953 190.386 230.681C213.073 228.683 228.666 224.839 231.087 224.218C231.011 216.786 230.108 199.574 228.696 183.079C228.689 182.992 228.708 182.904 228.75 182.828C228.793 182.751 228.857 182.689 228.936 182.65C229.014 182.61 229.102 182.595 229.189 182.606C229.276 182.616 229.358 182.653 229.424 182.711C230.197 183.386 230.958 183.981 231.686 184.48C246.229 194.456 262.827 197.519 279.704 193.343C279.874 191.192 279.131 175.117 277.505 158.948C275.39 137.919 272.642 125.199 269.965 124.05C269.407 123.811 268.781 124.227 268.104 125.285C268.067 125.343 268.018 125.391 267.959 125.426C267.9 125.461 267.834 125.482 267.766 125.487C267.698 125.492 267.629 125.481 267.566 125.455C267.503 125.429 267.447 125.389 267.402 125.338C267.33 125.255 267.21 125.063 266.761 124.342C254.305 104.323 243.728 94.4121 237.05 89.6232C213.104 72.4541 200.179 74.6377 191.594 78.458C191.538 78.4829 191.477 78.4958 191.415 78.4958L183.193 78.4659C182.671 78.563 178.128 79.3688 175.165 78.5486C165.865 75.9802 157.482 78.8308 153.313 80.7589C153.251 80.7875 153.183 80.8014 153.114 80.7992C153.046 80.7971 152.979 80.779 152.919 80.7466C152.773 80.6678 152.53 80.5369 151.079 77.0117L129.483 76.4285C129.387 76.4443 129.286 76.4303 129.199 76.3807C125.217 74.1171 120.358 72.7652 115.149 72.4715C109.506 72.1535 103.541 73.1094 97.8982 75.2361C86.0366 79.7075 72.6909 87.7793 60.3194 97.9642C47.1343 108.819 35.9505 121.243 27.9765 133.893C24.6336 139.195 22.1223 146.185 21.2588 152.592C20.9032 155.238 20.8251 157.844 21.0256 160.347L93.2128 145.778C93.2413 145.699 93.2917 145.63 93.3581 145.578C93.4246 145.527 93.5044 145.496 93.588 145.489C93.5955 145.488 94.3634 145.419 95.6742 145.245C95.7365 145.237 95.7999 145.242 95.8601 145.26C95.9203 145.278 95.9758 145.309 96.023 145.351C96.0702 145.392 96.1079 145.444 96.1337 145.501C96.1594 145.558 96.1725 145.621 96.1721 145.683C96.0722 164.262 96.5955 185.035 96.9774 200.202C97.3313 214.24 97.5158 222.161 97.2748 224.345ZM137.101 28.1823C139.443 30.4286 143.657 35.1382 144.837 40.2383C144.933 40.6481 145.008 41.0624 145.062 41.4798C150.17 41.6848 162.513 48.9768 162.513 48.9768C162.513 48.9768 162.618 48.7545 162.813 48.3472C163.388 47.1495 164.746 44.3564 166.52 40.9361C167.121 39.7781 167.77 38.5475 168.452 37.2818C168.956 36.3476 169.479 35.393 170.015 34.4337C172.023 30.8442 174.206 27.2054 176.263 24.3234C177.724 22.2746 179.12 20.6077 180.342 19.6125L180.343 19.6121C180.355 19.6014 180.367 19.591 180.38 19.5812C180.391 19.5719 180.413 19.5536 180.413 19.5536C180.413 19.5536 184.605 14.3117 184.094 8.78227C183.741 4.9635 178.798 -1.70571 171.644 -0.196599C169.146 0.330474 168.015 2.00191 166.339 3.96265C159.449 -4.45925 147.362 2.40834 148.602 10.4504C137.022 7.29708 130.2 21.5915 137.101 28.1823Z" fill="#232323"/>
<path d="M195.962 52.9325C191.865 61.4283 180.698 62.5285 179.549 62.6217C179.539 62.6235 179.534 62.6235 179.534 62.6235C180.116 65.6148 180.763 68.5929 181.476 71.5558C181.855 73.1336 183.511 77.8384 183.606 78.0276C183.738 79.2999 183.57 82.3487 181.006 84.8828C179.161 86.7065 176.292 87.6495 173.699 87.5526C154.319 86.8285 151.908 77.5627 151.732 76.996C151.724 76.9727 151.717 76.9492 151.71 76.9255C151.736 76.572 152.479 64.8962 152.669 59.5077C152.679 59.1765 152.691 58.8436 152.701 58.5144V58.5126L152.706 58.3436C133.108 60.6923 132 39.3132 144.866 40.3721C147.512 40.5878 150.749 41.7569 154.54 44.2744C161.374 48.1423 157.442 36.9336 164.186 28.1584C164.962 27.1463 165.881 26.1667 166.976 25.246C169.565 23.0681 173.135 21.2213 178.119 20.061C178.887 19.8816 179.66 19.7247 180.437 19.5903C180.564 19.9591 180.694 20.3269 180.827 20.6939C180.932 20.992 181.04 21.2892 181.151 21.5855C181.192 21.7027 181.237 21.82 181.28 21.9355C181.398 22.2537 181.518 22.571 181.641 22.8875C181.747 23.1658 181.855 23.4434 181.965 23.7202C181.997 23.8064 182.03 23.891 182.065 23.9773C183.123 26.6443 184.294 29.2653 185.574 31.8335C189.427 39.5535 196.702 40.5315 197.349 46.5665C197.656 49.4215 196.571 51.6719 195.962 52.9324V52.9325Z" fill="white"/>
<path d="M174.074 87.9998C173.943 87.9998 173.813 87.9974 173.683 87.9926C165.624 87.6913 159.476 85.9095 155.41 82.6962C152.637 80.5045 151.659 78.2883 151.323 77.1619L151.314 77.1335C151.305 77.1058 151.296 77.0778 151.288 77.0496C151.273 76.9992 151.267 76.9465 151.271 76.894C151.304 76.4431 152.043 64.7768 152.229 59.4927L152.251 58.8367C145.654 59.4983 140.335 57.491 137.607 53.2906C135.589 50.183 135.381 46.3423 137.076 43.5059C138.603 40.9523 141.455 39.6509 144.902 39.9346C147.846 40.1745 151.166 41.5086 154.77 43.9C155.957 44.5695 156.807 44.77 157.368 44.5133C158.332 44.0715 158.712 42.1647 159.192 39.7506C159.852 36.4378 160.755 31.9012 163.837 27.8912C164.667 26.8088 165.628 25.8058 166.693 24.9103C169.571 22.4882 173.382 20.7129 178.019 19.6332C178.767 19.4588 179.519 19.3055 180.274 19.1733L180.36 19.158C180.463 19.1399 180.569 19.1591 180.66 19.2121C180.75 19.2651 180.818 19.3485 180.852 19.4473C180.979 19.8144 181.108 20.1798 181.24 20.5453C181.346 20.8444 181.454 21.1388 181.563 21.4332C181.595 21.5252 181.627 21.61 181.659 21.6942L181.692 21.7828C181.809 22.0994 181.929 22.4147 182.051 22.7302C182.157 23.0083 182.264 23.2842 182.373 23.5579C182.408 23.6488 182.439 23.7309 182.473 23.8146C183.528 26.4703 184.694 29.0805 185.968 31.6382C187.761 35.2312 190.333 37.3462 192.601 39.2119C195.191 41.3417 197.428 43.1812 197.786 46.5206C198.107 49.5038 196.97 51.859 196.359 53.1244C192.501 61.1221 182.581 62.7311 180.058 63.0144C180.615 65.8401 181.23 68.6539 181.903 71.4541C182.284 73.0369 183.899 77.6035 184.003 77.8416C184.027 77.8891 184.038 77.9309 184.043 77.9835C184.114 78.6676 184.315 82.2314 181.315 85.1965C179.547 86.9441 176.802 87.9998 174.074 87.9998ZM152.154 76.8727L152.166 76.9105C152.64 78.4976 155.906 86.4483 173.715 87.114C176.334 87.2102 179.01 86.2374 180.697 84.5708C183.335 81.9639 183.24 78.8686 183.174 78.1319C182.897 77.4214 181.409 73.1602 181.048 71.6592C180.334 68.69 179.685 65.7055 179.102 62.7079C179.09 62.6476 179.091 62.5855 179.105 62.5256C179.119 62.4658 179.145 62.4094 179.182 62.3603C179.219 62.3111 179.265 62.2702 179.319 62.2402C179.373 62.2102 179.432 62.1918 179.493 62.1861C179.5 62.1852 179.507 62.1845 179.514 62.184C180.738 62.0846 191.596 60.9747 195.567 52.7421C196.18 51.4725 197.206 49.3478 196.912 46.614C196.592 43.6316 194.584 41.9808 192.043 39.8906C189.706 37.9689 187.058 35.7908 185.181 32.0302C183.896 29.4507 182.72 26.8182 181.656 24.1398C181.621 24.0524 181.587 23.9655 181.554 23.8767C181.444 23.6003 181.336 23.3232 181.23 23.0452C181.107 22.7272 180.986 22.4083 180.867 22.0885L180.836 22.0027C180.802 21.913 180.768 21.8226 180.736 21.7318C180.625 21.4357 180.517 21.1386 180.412 20.8406C180.321 20.5907 180.232 20.3404 180.145 20.0896C179.481 20.2109 178.836 20.3448 178.219 20.4892C173.718 21.5373 170.031 23.2508 167.259 25.5826C166.251 26.4291 165.337 27.3826 164.534 28.4264C161.578 32.2738 160.698 36.6944 160.055 39.9221C159.505 42.6864 159.107 44.6837 157.734 45.3124C156.884 45.7014 155.8 45.4935 154.323 44.6573C154.314 44.6522 154.305 44.6468 154.296 44.6409C150.812 42.3274 147.628 41.0385 144.83 40.8106C141.684 40.5517 139.199 41.6688 137.831 43.9565C136.306 46.5074 136.508 49.9831 138.345 52.8117C140.953 56.8273 146.168 58.6849 152.654 57.9074C152.717 57.8999 152.78 57.9059 152.841 57.9252C152.901 57.9445 152.956 57.9766 153.003 58.0192C153.05 58.0618 153.087 58.114 153.111 58.1722C153.136 58.2304 153.148 58.2932 153.146 58.3564L153.108 59.5219C152.928 64.6372 152.231 75.7134 152.154 76.8729V76.8727Z" fill="#232323"/>
<path d="M163.744 33.3843L163.608 32.9466C163.577 32.8145 163.545 32.6823 163.514 32.55C163.467 32.2895 163.428 32.0126 163.422 31.7519C163.389 31.2099 163.426 30.6716 163.522 30.141C163.722 29.0252 164.182 27.9723 164.865 27.0677C165.226 26.585 165.65 26.1636 166.119 25.7958C166.599 25.4256 167.133 25.1312 167.703 24.9228C168.256 24.7201 168.843 24.6161 169.436 24.6075C170.011 24.5906 170.6 24.6939 171.131 24.9133C171.46 25.055 171.721 25.3209 171.855 25.6532C171.989 25.9855 171.987 26.3573 171.848 26.6878C171.796 26.8166 171.714 26.9411 171.623 27.0413L171.455 27.2372C171.127 27.6122 170.83 27.8795 170.576 28.1463C170.317 28.4006 170.099 28.6549 169.894 28.8633C169.479 29.3093 169.125 29.6927 168.739 30.1426C168.349 30.5801 167.955 31.0882 167.529 31.6624L166.844 32.5743C166.73 32.7441 166.605 32.9068 166.471 33.0614C166.192 33.4608 165.813 33.7698 165.372 33.9761C165.145 34.0813 164.884 34.1289 164.632 34.1184C164.288 34.0837 163.988 33.8954 163.816 33.5946C163.803 33.5162 163.765 33.4462 163.744 33.3843H163.744ZM167.136 36.2645C168.249 35.5937 170.962 34.0582 173.186 31.7774C173.494 31.4647 174.003 31.4566 174.329 31.7607L174.333 31.773C175.151 32.5864 176.255 34.1179 174.534 35.4801C172.435 37.1516 168.31 37.7166 167.112 36.9641C166.917 36.8371 166.869 36.5768 167 36.3937C167.037 36.3396 167.078 36.2977 167.136 36.2643L167.136 36.2645ZM182.754 28.2325C181.583 28.8125 180.657 29.0182 178.337 29.5202C177.899 29.6144 177.612 30.0305 177.707 30.4686C177.939 31.5926 178.848 32.5129 180.646 32.1059C182.664 31.6522 183.375 29.8047 183.353 28.6087C183.343 28.3769 183.156 28.1922 182.936 28.198C182.866 28.1945 182.816 28.2114 182.754 28.2325ZM176.263 24.3245C176.326 24.3527 176.393 24.3754 176.461 24.3928C176.587 24.4216 176.716 24.4332 176.846 24.4272L177.074 24.4051C177.521 24.3768 177.868 24.2999 178.204 24.2684C178.53 24.2118 178.828 24.1933 179.097 24.17C179.647 24.1202 180.114 24.0715 180.64 24.0298C181.076 23.9964 181.549 23.9865 182.066 23.9774C181.489 22.5277 180.947 21.0651 180.437 19.5906L180.343 19.6133C180.355 19.6025 180.367 19.5921 180.38 19.5823C180.391 19.573 180.403 19.5637 180.413 19.5547C179.906 19.5652 179.398 19.6398 178.907 19.7675C178.45 19.8995 178.011 20.0888 177.602 20.3308L177.601 20.3311C177.541 20.3668 177.481 20.4032 177.421 20.4409C176.967 20.7339 176.581 21.1018 176.253 21.5179C175.927 21.929 175.693 22.4051 175.567 22.9141C175.421 23.4971 175.731 24.0885 176.263 24.3245ZM152.486 57.9453C153.738 57.8417 154.965 57.5395 156.122 57.0502C156.359 56.9482 156.641 57.0653 156.742 57.3022C156.843 57.5389 156.726 57.821 156.489 57.9221C155.147 58.495 153.716 58.832 152.26 58.9182L152.486 57.9453ZM181.074 70.1269C180.921 69.4963 180.773 68.8644 180.632 68.2312C180.214 66.3727 179.848 64.503 179.533 62.6244L179.585 62.1948C179.585 62.1948 172.779 61.9781 168.335 60.6681C167.329 61.8547 170.042 70.568 181.074 70.1269ZM184.721 42.8992C184.27 43.482 183.677 43.9337 182.975 44.1871C182.296 44.4608 181.563 44.574 180.833 44.5179C180.112 44.4324 179.426 44.1686 178.827 43.7508C178.223 43.3208 177.747 42.7367 177.46 42.06L177.456 42.0477C177.368 41.8289 177.114 41.7357 176.896 41.8243C176.714 41.9001 176.612 42.0873 176.638 42.2856C176.811 43.2364 177.314 44.102 178.064 44.7172C178.431 45.0313 178.845 45.2865 179.291 45.4736C180.637 46.0513 182.177 45.9816 183.468 45.3056C183.892 45.0924 184.284 44.819 184.63 44.4938C184.988 44.1641 185.262 43.7522 185.453 43.2997C185.543 43.0753 185.434 42.8363 185.209 42.7468C185.031 42.6694 184.82 42.7415 184.705 42.8915L184.721 42.8992ZM152.902 51.2234C153.167 51.1882 153.351 50.9592 153.316 50.6945C153.303 50.6161 153.274 50.5292 153.223 50.4634C148.3 43.7497 141.914 46.4426 141.852 46.4637C141.613 46.5733 141.499 46.8473 141.608 47.0864C141.718 47.3258 141.988 47.4269 142.231 47.3302C142.462 47.2373 147.998 44.9314 152.461 51.028C152.511 51.097 152.577 51.1515 152.655 51.1858C152.732 51.2202 152.818 51.2331 152.902 51.2232V51.2234Z" fill="#232323"/>
<path d="M182.243 38.1577C182.351 38.1487 182.442 38.09 182.512 38.0108C183.43 36.7705 183.767 35.8946 183.596 35.1507C183.386 34.2128 182.397 33.7069 181.267 33.111C178.722 31.7808 178.641 30.3286 178.637 30.3161C178.636 30.1092 178.457 29.9491 178.249 29.9507C178.042 29.9523 177.878 30.119 177.88 30.326C177.88 30.4087 177.923 32.2338 180.915 33.7842C182.042 34.3678 182.732 34.768 182.865 35.3178C182.976 35.8051 182.671 36.532 181.912 37.5518C181.789 37.7182 181.828 37.9539 181.995 38.077C182.049 38.155 182.152 38.1749 182.243 38.1577Z" fill="#232323"/>
<mask id="mask0_1584_4881" style="mask-type:luminance" maskUnits="userSpaceOnUse" x="145" y="0" width="23" height="17">
<path d="M166.926 16.3834C166.926 16.3834 168.015 2.00266 166.339 3.96335C159.449 -4.45844 147.362 2.409 148.602 10.451C137.021 7.29791 166.926 16.3834 166.926 16.3834Z" fill="white"/>
</mask>
<g mask="url(#mask0_1584_4881)">
<path d="M164.128 10.9691C164.018 10.969 163.911 10.9275 163.83 10.8527C163.749 10.7779 163.699 10.6754 163.69 10.5655C163.171 4.27066 168.161 0.762725 168.374 0.616539C168.422 0.583808 168.475 0.560766 168.532 0.548727C168.588 0.536688 168.646 0.535888 168.703 0.546375C168.76 0.556861 168.814 0.578426 168.863 0.609842C168.911 0.641257 168.953 0.681909 168.985 0.72947C169.018 0.777032 169.041 0.830574 169.053 0.887041C169.065 0.943507 169.066 1.00179 169.056 1.05857C169.045 1.11534 169.024 1.16949 168.992 1.21793C168.961 1.26637 168.92 1.30816 168.873 1.34089C168.825 1.37362 164.091 4.71649 164.567 10.4933C164.572 10.5539 164.564 10.6149 164.544 10.6724C164.525 10.7299 164.493 10.7827 164.452 10.8275C164.411 10.8722 164.361 10.9079 164.305 10.9322C164.249 10.9566 164.189 10.9691 164.128 10.9691Z" fill="white"/>
</g>
<mask id="mask1_1584_4881" style="mask-type:luminance" maskUnits="userSpaceOnUse" x="27" y="71" width="125" height="97">
<path d="M151.735 76.5815L129.427 75.988C129.427 75.988 117.131 67.3445 97.7429 74.8255C74.0115 83.9825 44.3826 107.042 27.6045 133.659C24.0538 139.291 140.494 167.762 140.494 167.762L151.735 76.5815Z" fill="white"/>
</mask>
<g mask="url(#mask1_1584_4881)">
<path d="M86.3036 145.355C86.193 145.354 86.0867 145.312 86.0059 145.236C85.9252 145.161 85.8759 145.057 85.8679 144.947C85.8599 144.837 85.8938 144.728 85.9627 144.641C86.0317 144.555 86.1307 144.497 86.2401 144.481C86.308 144.47 93.1251 143.447 101.673 140.449C109.544 137.689 120.535 132.642 128.204 124.273C131.781 120.37 136.402 112.268 137.654 102.28C138.578 94.9027 137.848 84.4112 129.118 76.3222C129.032 76.2429 128.981 76.1329 128.977 76.0164C128.973 75.8999 129.015 75.7864 129.094 75.7008C129.173 75.6153 129.283 75.5648 129.4 75.5604C129.516 75.556 129.63 75.598 129.716 75.6773C138.72 84.0199 139.477 94.8079 138.527 102.389C137.475 110.779 133.678 119.602 128.853 124.867C121.056 133.375 109.918 138.491 101.947 141.285C93.3225 144.308 86.4368 145.341 86.3682 145.351C86.3468 145.354 86.3252 145.355 86.3036 145.355Z" fill="#232323"/>
</g>
<path d="M143.382 225.228L75.6401 201.735C75.5309 201.697 75.4303 201.638 75.3439 201.561C75.2576 201.484 75.1872 201.392 75.1368 201.288C75.0864 201.184 75.0569 201.071 75.0502 200.956C75.0434 200.84 75.0594 200.725 75.0973 200.616L106.141 111.185C106.179 111.076 106.238 110.975 106.315 110.889C106.391 110.803 106.484 110.732 106.588 110.682C106.692 110.631 106.805 110.602 106.92 110.595C107.036 110.588 107.151 110.604 107.261 110.642L175.003 134.135C175.112 134.173 175.212 134.232 175.299 134.309C175.385 134.386 175.455 134.479 175.506 134.582C175.556 134.686 175.586 134.799 175.592 134.914C175.599 135.03 175.583 135.145 175.545 135.254L144.502 224.685C144.425 224.906 144.264 225.087 144.054 225.188C143.844 225.29 143.603 225.304 143.382 225.228Z" fill="#1C5AF6"/>
<path d="M148.773 135.935L126.444 128.191C126.335 128.153 126.234 128.094 126.148 128.018C126.062 127.941 125.991 127.848 125.941 127.744C125.89 127.64 125.861 127.527 125.854 127.412C125.847 127.297 125.863 127.181 125.901 127.072L131.583 110.705C131.621 110.596 131.68 110.496 131.756 110.409C131.833 110.323 131.926 110.253 132.03 110.202C132.134 110.152 132.247 110.123 132.362 110.116C132.478 110.109 132.593 110.125 132.702 110.163L155.031 117.906C155.14 117.944 155.241 118.003 155.327 118.08C155.413 118.157 155.484 118.25 155.534 118.354C155.585 118.457 155.614 118.57 155.621 118.686C155.628 118.801 155.612 118.916 155.574 119.025L149.892 135.392C149.855 135.501 149.796 135.602 149.719 135.688C149.642 135.775 149.549 135.845 149.445 135.895C149.341 135.946 149.228 135.975 149.113 135.982C148.998 135.989 148.882 135.973 148.773 135.935Z" fill="#232323"/>
<path d="M168.683 161.733C168.683 161.733 173.582 156.74 170.136 151.846C166.831 155.025 157.167 155.725 156.636 153.77C156.206 152.187 158.779 146.451 159.53 143.724C160.736 139.329 160.513 135.729 154.064 140.657C132.814 159.912 101.636 147.966 92.9597 146.31C87.4284 145.256 83.2589 144.488 82.3158 144.387C60.1296 142 22.1878 159.454 22.1878 159.456C22.3835 160.414 23.6552 181.361 45.0566 192.109C63.8706 201.557 110.413 195.596 128.526 192.807C131.662 192.324 143.288 190.137 146.602 189.376C157.491 186.876 162.725 183.042 162.399 177.901C162.399 177.901 167.796 174.172 166.28 169.95C166.28 169.95 170.366 165.86 168.683 161.733Z" fill="white"/>
<path d="M77.9434 197.672C64.8264 197.672 52.5492 196.363 44.8594 192.501C26.4974 183.28 22.6173 166.619 21.8015 159.883C21.7828 159.729 21.765 159.583 21.7571 159.544C21.7418 159.469 21.7464 159.391 21.7704 159.318C21.7944 159.246 21.8371 159.18 21.8942 159.129C22.0003 159.034 31.5536 154.667 43.7961 150.607C55.0211 146.885 70.8241 142.708 82.3632 143.95C83.2241 144.042 86.7174 144.673 93.0424 145.878C94.2229 146.103 95.8389 146.523 97.71 147.009C109.993 150.2 135.551 156.838 153.769 140.332C153.779 140.323 153.788 140.315 153.798 140.308C156.715 138.078 158.586 137.385 159.686 138.126C160.729 138.828 160.817 140.697 159.954 143.84C159.703 144.752 159.258 145.977 158.787 147.275C157.952 149.575 156.809 152.725 157.061 153.655C157.1 153.8 157.352 154.012 157.94 154.175C160.616 154.915 167.28 153.984 169.831 151.53C169.877 151.486 169.931 151.452 169.991 151.432C170.051 151.411 170.115 151.403 170.178 151.409C170.306 151.421 170.422 151.488 170.496 151.593C171.997 153.725 172.208 156.216 171.106 158.797C170.471 160.286 169.58 161.389 169.191 161.831C169.808 163.58 169.572 165.565 168.502 167.594C167.871 168.792 167.123 169.682 166.78 170.061C167.321 171.868 166.796 173.84 165.253 175.782C164.32 176.957 163.28 177.794 162.85 178.117C162.932 180.738 161.626 183.048 158.965 184.984C156.296 186.927 152.169 188.549 146.7 189.805C143.425 190.557 131.712 192.761 128.593 193.241C117.426 194.961 96.8163 197.672 77.9434 197.672ZM22.6678 159.721L22.6747 159.778C23.4735 166.372 27.2728 182.685 45.2542 191.716C52.8151 195.512 64.9284 196.803 77.8938 196.804C96.6999 196.804 117.304 194.09 128.459 192.372C131.568 191.893 143.24 189.697 146.503 188.948C157.069 186.522 162.269 182.814 161.96 177.929C161.956 177.853 161.971 177.777 162.004 177.709C162.037 177.641 162.087 177.583 162.149 177.539C162.2 177.504 167.249 173.95 165.866 170.098C165.838 170.02 165.832 169.935 165.851 169.854C165.869 169.773 165.91 169.698 165.969 169.639C166.007 169.6 169.827 165.703 168.275 161.899C168.243 161.82 168.234 161.733 168.251 161.649C168.267 161.565 168.308 161.487 168.368 161.426C168.38 161.414 169.558 160.197 170.307 158.429C171.215 156.284 171.126 154.296 170.045 152.51C167.033 154.935 160.501 155.795 157.705 155.023C156.855 154.788 156.352 154.405 156.211 153.885C155.91 152.773 156.746 150.32 157.96 146.975C158.425 145.694 158.864 144.484 159.105 143.607C160.112 139.942 159.503 139.063 159.194 138.855C158.788 138.582 157.619 138.497 154.346 140.995C145.028 149.431 133.872 151.942 123.5 151.942C113.204 151.943 103.68 149.469 97.4885 147.86C95.6322 147.378 94.0293 146.962 92.8772 146.742C86.6636 145.558 83.0944 144.913 82.2689 144.824C61.3618 142.574 26.238 158.108 22.6678 159.721Z" fill="#232323"/>
<mask id="mask2_1584_4881" style="mask-type:luminance" maskUnits="userSpaceOnUse" x="126" y="140" width="46" height="53">
<path d="M168.683 161.733C170.366 165.86 166.28 169.95 166.28 169.95C167.797 174.172 162.4 177.901 162.4 177.901C162.879 185.483 151.266 191.702 127.246 192.108C126.308 192.124 126.941 153.159 128.415 152.984C135.952 152.088 144.929 148.454 152.474 142.691C158.923 137.763 159.862 141.576 158.655 145.971C157.904 148.698 156.207 152.186 156.636 153.77C157.167 155.725 166.832 155.025 170.136 151.846C173.582 156.739 168.683 161.733 168.683 161.733Z" fill="white"/>
</mask>
<g mask="url(#mask2_1584_4881)">
<path d="M162.396 164.326C161.008 164.326 160.135 164.007 160.058 163.978C160.004 163.957 159.954 163.927 159.911 163.887C159.869 163.848 159.834 163.8 159.81 163.747C159.786 163.694 159.773 163.637 159.771 163.579C159.769 163.521 159.779 163.463 159.8 163.409C159.82 163.355 159.852 163.305 159.892 163.263C159.932 163.221 159.979 163.187 160.033 163.163C160.086 163.14 160.143 163.127 160.201 163.126C160.259 163.124 160.317 163.135 160.371 163.156C160.379 163.159 161.313 163.5 162.783 163.43C164.14 163.366 166.246 162.929 168.579 161.208C168.673 161.139 168.791 161.11 168.906 161.127C169.021 161.145 169.125 161.207 169.194 161.301C169.264 161.395 169.293 161.513 169.275 161.628C169.258 161.743 169.195 161.847 169.101 161.916C166.452 163.87 164.056 164.326 162.396 164.326ZM160.481 172.24C159.545 172.24 158.688 172.066 157.949 171.712C157.843 171.662 157.763 171.572 157.724 171.462C157.685 171.352 157.692 171.231 157.742 171.126C157.792 171.021 157.883 170.94 157.993 170.901C158.103 170.862 158.224 170.869 158.329 170.919C160.234 171.832 163.122 171.329 166.054 169.573C166.103 169.544 166.158 169.524 166.216 169.516C166.273 169.507 166.331 169.51 166.387 169.524C166.443 169.538 166.496 169.563 166.542 169.598C166.588 169.632 166.628 169.675 166.657 169.725C166.687 169.774 166.707 169.829 166.715 169.886C166.724 169.943 166.721 170.002 166.707 170.058C166.693 170.114 166.668 170.166 166.633 170.213C166.599 170.259 166.556 170.298 166.506 170.328C164.404 171.586 162.296 172.24 160.481 172.24ZM157.423 179.551C156.599 179.551 155.902 179.433 155.442 179.204C155.339 179.151 155.261 179.06 155.224 178.949C155.188 178.839 155.197 178.719 155.249 178.615C155.301 178.512 155.392 178.432 155.502 178.395C155.612 178.358 155.732 178.366 155.836 178.417C156.84 178.919 160.052 178.736 162.607 177.318C162.709 177.264 162.828 177.251 162.939 177.284C163.05 177.316 163.144 177.391 163.2 177.492C163.256 177.593 163.27 177.712 163.239 177.824C163.208 177.935 163.134 178.03 163.034 178.087C161.254 179.075 159.082 179.551 157.423 179.551Z" fill="#232323"/>
</g>
<path d="M128.535 192.811C109.543 196.196 65.8672 201.476 46.8584 194.002C20.4858 183.632 20.8447 159.583 20.9334 156.832C20.8818 156.848 56.4472 142.037 78.6613 139.923C80.6701 139.732 89.4723 142.246 95.0036 143.3C99.1606 144.093 125.532 151.385 125.532 151.385C125.532 151.385 122.95 161.891 123.437 170.882C124.046 182.131 128.547 192.809 128.535 192.811Z" fill="white"/>
<mask id="mask3_1584_4881" style="mask-type:luminance" maskUnits="userSpaceOnUse" x="41" y="127" width="88" height="70">
<path d="M125.522 151.38C111.61 147.725 100.118 144.273 94.9945 143.295L96.29 139.563C96.29 139.563 46.1358 113.234 41.7791 139.211C38.9018 156.368 97.6828 196.787 97.6828 196.787C97.6828 196.787 105.701 196.031 108.479 195.702C113.52 195.104 128.526 192.806 128.526 192.806C128.526 192.806 128.585 192.987 128.075 191.647C125.995 186.181 123.605 170.684 123.641 165.022C123.667 161.065 125.522 151.38 125.522 151.38Z" fill="white"/>
</mask>
<g mask="url(#mask3_1584_4881)">
<path d="M95.1551 143.274C95.1189 143.274 95.0821 143.27 95.0454 143.26C85.1979 140.73 75.157 138.702 60.6446 141.632C60.5311 141.653 60.4141 141.629 60.3186 141.564C60.2231 141.499 60.1568 141.4 60.1339 141.287C60.1111 141.174 60.1335 141.056 60.1964 140.96C60.2593 140.863 60.3576 140.795 60.4702 140.77C75.1653 137.803 85.3138 139.852 95.2642 142.408C95.3682 142.435 95.4589 142.498 95.5194 142.587C95.5798 142.675 95.6057 142.783 95.5923 142.889C95.5789 142.996 95.5271 143.093 95.4466 143.164C95.3661 143.235 95.2624 143.274 95.1551 143.274Z" fill="#232323"/>
</g>
<mask id="mask4_1584_4881" style="mask-type:luminance" maskUnits="userSpaceOnUse" x="41" y="127" width="88" height="70">
<path d="M125.522 151.38C111.61 147.725 100.118 144.273 94.9945 143.295L96.29 139.563C96.29 139.563 46.1358 113.234 41.7791 139.211C38.9018 156.368 97.6828 196.787 97.6828 196.787C97.6828 196.787 105.701 196.031 108.479 195.702C113.52 195.104 128.526 192.806 128.526 192.806C128.526 192.806 128.585 192.987 128.075 191.647C125.995 186.181 123.605 170.684 123.641 165.022C123.667 161.065 125.522 151.38 125.522 151.38Z" fill="white"/>
</mask>
<g mask="url(#mask4_1584_4881)">
<path d="M115.645 188.948C116.955 188.948 118.018 187.886 118.018 186.575C118.018 185.265 116.955 184.203 115.645 184.203C114.334 184.203 113.271 185.265 113.271 186.575C113.271 187.886 114.334 188.948 115.645 188.948Z" fill="#232323"/>
</g>
<mask id="mask5_1584_4881" style="mask-type:luminance" maskUnits="userSpaceOnUse" x="41" y="127" width="88" height="70">
<path d="M125.522 151.38C111.61 147.725 100.118 144.273 94.9945 143.295L96.29 139.563C96.29 139.563 46.1358 113.234 41.7791 139.211C38.9018 156.368 97.6828 196.787 97.6828 196.787C97.6828 196.787 105.701 196.031 108.479 195.702C113.52 195.104 128.526 192.806 128.526 192.806C128.526 192.806 128.585 192.987 128.075 191.647C125.995 186.181 123.605 170.684 123.641 165.022C123.667 161.065 125.522 151.38 125.522 151.38Z" fill="white"/>
</mask>
<g mask="url(#mask5_1584_4881)">
<path d="M108.844 197.68C108.756 197.68 108.67 197.653 108.597 197.604C108.524 197.555 108.468 197.484 108.435 197.402C108.41 197.339 105.906 190.962 104.58 181.557C103.356 172.876 102.911 159.751 107.74 146.532C107.78 146.422 107.862 146.333 107.968 146.284C108.073 146.235 108.194 146.229 108.304 146.269C108.414 146.309 108.503 146.391 108.552 146.497C108.601 146.603 108.606 146.724 108.566 146.833C103.803 159.873 104.242 172.833 105.448 181.409C106.757 190.716 109.228 197.015 109.253 197.078C109.279 197.145 109.289 197.217 109.281 197.288C109.274 197.359 109.248 197.428 109.208 197.487C109.168 197.547 109.113 197.595 109.05 197.629C108.987 197.662 108.916 197.68 108.844 197.68Z" fill="#232323"/>
</g>
<path d="M83.7332 140.815C83.6662 140.815 83.6 140.799 83.5398 140.77C83.4795 140.741 83.4268 140.698 83.3857 140.645C79.5507 135.717 69.7141 133.422 69.6153 133.4C69.5015 133.374 69.4027 133.304 69.3407 133.205C69.2786 133.106 69.2583 132.987 69.2843 132.873C69.3103 132.759 69.3803 132.661 69.4791 132.599C69.5779 132.537 69.6973 132.516 69.8111 132.542C69.9151 132.566 72.3901 133.137 75.3957 134.348C79.4601 135.986 82.3819 137.923 84.0802 140.105C84.1307 140.17 84.162 140.248 84.1705 140.33C84.179 140.411 84.1643 140.494 84.1282 140.568C84.092 140.642 84.0359 140.704 83.966 140.748C83.8962 140.791 83.8155 140.814 83.7332 140.815Z" fill="#232323"/>
<path d="M75.709 198.244C62.9128 198.244 53.1806 196.96 46.6884 194.408C36.2166 190.29 28.6459 183.777 24.186 175.048C21.8647 170.504 20.5079 165.573 20.1536 160.39C20.1411 160.209 20.1284 160.021 20.1201 159.975C20.0781 159.739 20.2335 159.507 20.4699 159.462C20.7066 159.417 20.9343 159.566 20.9825 159.801C21.0008 159.89 21.0099 160.02 21.0312 160.33C21.3775 165.394 22.7025 170.211 24.9695 174.648C29.3288 183.18 36.7445 189.553 47.0104 193.589C55.1669 196.797 69.2271 197.988 87.6711 197.037C106.118 196.084 122.548 193.411 127.919 192.469C126.705 189.365 123.502 180.384 122.989 170.903C122.558 162.952 124.533 153.728 124.999 151.689C121.673 150.734 98.8287 144.182 95.0506 143.262L94.0179 143.01C89.5374 141.913 84.9043 140.779 78.6228 140.358C78.5651 140.355 78.5088 140.339 78.457 140.314C78.4053 140.288 78.3591 140.253 78.321 140.209C78.283 140.166 78.2539 140.115 78.2355 140.06C78.217 140.006 78.2095 139.948 78.2133 139.89C78.2172 139.833 78.2324 139.776 78.258 139.725C78.2836 139.673 78.3192 139.627 78.3627 139.589C78.4062 139.551 78.4568 139.522 78.5115 139.503C78.5662 139.485 78.6241 139.477 78.6817 139.481C85.0394 139.907 89.7102 141.05 94.2273 142.156L95.2589 142.408C99.3325 143.399 125.381 150.883 125.644 150.959C125.753 150.99 125.846 151.063 125.903 151.161C125.96 151.259 125.977 151.376 125.95 151.486C125.924 151.591 123.39 162.035 123.867 170.855C124.412 180.916 128.154 190.694 128.899 192.552C128.954 192.692 129.012 192.835 128.913 193.017C128.881 193.075 128.837 193.126 128.784 193.164C128.73 193.203 128.669 193.229 128.604 193.241C123.854 194.087 106.87 196.926 87.7168 197.915C83.4554 198.134 79.4508 198.244 75.709 198.244Z" fill="#232323"/>
<path d="M292.433 45.9666C298.543 60.9981 296.735 68.6995 292.83 80.2935C286.514 99.0425 262.754 129.461 259.01 139.659C247.812 170.159 251.647 189.984 263.279 192.914C309.607 204.582 325.109 128.718 327.242 119.227C331.573 99.9632 334 74.6171 334.049 59.6009C334.105 42.7096 333.287 43.1473 333.287 43.1473C333.287 43.1473 309.561 35.3768 307.415 40.3597C305.656 44.4449 304.847 54.9515 304.847 54.9515C304.847 54.9515 303.88 52.4999 301.593 49.1752C297.446 43.1473 291.824 44.4667 292.433 45.9666Z" fill="white"/>
<path d="M272.675 194.564C269.583 194.564 266.414 194.157 263.172 193.34C259.685 192.462 256.82 190.065 254.888 186.409C249.821 176.824 251.173 159.729 258.597 139.507C260.157 135.26 265.107 127.609 270.84 118.751C278.805 106.443 288.716 91.126 292.413 80.1532C296.19 68.9427 298.191 61.3019 292.026 46.1321C291.847 45.6921 291.937 45.0704 292.727 44.6452C294.163 43.8717 298.481 43.8758 301.956 48.9259C303.179 50.7032 304.025 52.2259 304.555 53.2744C304.86 50.1345 305.649 43.3506 307.011 40.1859C308.01 37.8673 312.666 37.6283 321.247 39.4548C327.103 40.7014 332.791 42.5246 333.375 42.7136C333.43 42.7238 333.485 42.7442 333.536 42.7748C333.837 42.9558 334.543 43.3798 334.489 59.6025C334.44 74.427 332.083 99.7009 327.671 119.324C327.617 119.566 327.554 119.852 327.481 120.178C326.379 125.161 323.451 138.395 317.651 152.559C310.31 170.486 301.264 182.861 290.765 189.34C285.129 192.819 279.071 194.564 272.675 194.564ZM294.519 45.1531C293.903 45.1531 293.423 45.2693 293.144 45.4193C293.031 45.4802 292.775 45.6393 292.841 45.8011C295.787 53.0493 297.016 58.7959 296.827 64.4339C296.642 69.9519 295.096 74.9445 293.247 80.4337C289.515 91.5108 279.57 106.879 271.579 119.228C265.875 128.042 260.949 135.655 259.423 139.81C255.626 150.153 253.426 159.573 252.886 167.811C252.392 175.336 253.354 181.625 255.666 185.998C257.504 189.477 260.102 191.66 263.387 192.487C266.552 193.285 269.649 193.682 272.667 193.683C278.906 193.683 284.809 191.982 290.302 188.592C300.64 182.212 309.568 169.977 316.836 152.226C322.608 138.131 325.524 124.95 326.622 119.988C326.695 119.661 326.758 119.374 326.813 119.131C331.211 99.5696 333.561 74.3761 333.609 59.5993C333.652 46.62 333.18 44.0295 333.013 43.5205C332.088 43.2235 326.649 41.5031 321.058 40.3134C310.582 38.0841 308.267 39.4942 307.819 40.5332C306.109 44.5052 305.294 54.8806 305.286 54.9849C305.278 55.0841 305.237 55.1777 305.169 55.2505C305.102 55.3234 305.011 55.3711 304.913 55.3859C304.814 55.4007 304.714 55.3818 304.628 55.3321C304.542 55.2825 304.475 55.2051 304.438 55.1126C304.429 55.0885 303.459 52.662 301.231 49.424C298.887 46.0183 296.199 45.1531 294.519 45.1531Z" fill="#232323"/>
<path d="M311.385 72.9859C311.269 72.9859 311.157 72.9396 311.074 72.8572C310.992 72.7748 310.945 72.663 310.945 72.5464C310.945 72.4305 310.867 60.8837 304.555 55.2804C304.47 55.2024 304.419 55.0941 304.413 54.9787C304.407 54.8633 304.447 54.7502 304.523 54.6638C304.6 54.5774 304.708 54.5247 304.823 54.5171C304.938 54.5094 305.052 54.5475 305.14 54.623C308.605 57.6992 310.238 62.4156 310.997 65.8303C311.816 69.5083 311.825 72.4242 311.825 72.5464C311.825 72.663 311.779 72.7748 311.696 72.8572C311.614 72.9396 311.502 72.9859 311.385 72.9859Z" fill="#232323"/>
<path d="M306.825 40.0955C307.457 36.3073 313.261 34.609 314.319 39.8649C314.38 36.5554 320.157 35.6564 321.19 39.3681C322.146 37.3113 326.637 36.3026 327.797 40.2532C328.253 38.7768 332.779 38.2228 333.269 42.0743C333.704 45.4932 330.515 47.3102 328.794 45.9327C328.101 45.3278 327.448 43.2757 327.42 43.0994C325.734 45.7371 322.919 48.0759 320.628 42.8951C319.438 45.2114 317.648 49.1772 313.965 43.9707C313.149 46.0475 312.064 47.2504 310.807 47.3967C308.678 47.6444 307.14 43.7853 306.937 42.2599C306.937 42.26 306.651 41.1243 306.825 40.0955Z" fill="white"/>
<path d="M310.608 47.8479C309.589 47.8479 308.614 47.1177 307.773 45.7195C307.057 44.5291 306.616 43.1411 306.504 42.3415C306.46 42.1556 306.216 41.0536 306.391 40.0218C306.752 37.8644 308.717 36.1467 310.865 36.1112C312.395 36.0796 313.613 36.9112 314.299 38.3773C314.806 37.4948 315.778 36.7442 317.264 36.5553C318.759 36.3657 320.466 36.8973 321.292 38.4416C322.095 37.567 323.448 37.0307 324.773 37.1293C326.184 37.2352 327.301 38.0354 327.928 39.3598C328.51 38.8919 329.442 38.6282 330.415 38.7125C332.232 38.8699 333.462 40.1059 333.705 42.0188C333.992 44.2707 332.863 45.763 331.711 46.4086C330.613 47.0239 329.39 46.9729 328.519 46.276C328.514 46.2721 328.509 46.2681 328.505 46.264C327.993 45.8178 327.552 44.8244 327.278 44.0811C326.345 45.3368 325.061 46.526 323.598 46.4144C322.473 46.3285 321.473 45.4768 320.618 43.8789C319.89 45.2668 318.912 46.8597 317.428 46.9666C316.36 47.0433 315.257 46.3481 314.069 44.8442C313.216 46.6583 312.115 47.6873 310.858 47.8336C310.775 47.8431 310.692 47.8478 310.608 47.8479ZM310.932 36.99L310.879 36.9904C309.356 37.0157 307.585 38.2109 307.258 40.1674L307.258 40.1683C307.101 41.0953 307.361 42.1417 307.364 42.1521C307.368 42.1684 307.371 42.185 307.373 42.2017C307.574 43.7081 308.989 46.9676 310.616 46.968C310.662 46.968 310.709 46.9654 310.756 46.9599C311.826 46.8354 312.795 45.7461 313.556 43.8098C313.585 43.7359 313.633 43.6713 313.696 43.6228C313.759 43.5742 313.834 43.5436 313.912 43.534C313.991 43.5245 314.071 43.5365 314.144 43.5687C314.216 43.6009 314.279 43.6521 314.324 43.7169C315.482 45.3534 316.507 46.1529 317.364 46.0895C318.548 46.0043 319.449 44.2378 320.107 42.948L320.237 42.6944C320.275 42.6207 320.333 42.5591 320.404 42.517C320.476 42.4748 320.558 42.4537 320.641 42.4561C320.724 42.4585 320.805 42.4843 320.873 42.5306C320.942 42.5768 320.997 42.6416 321.03 42.7175C321.826 44.5162 322.712 45.465 323.664 45.5377C324.678 45.6158 325.913 44.6402 327.049 42.8629C327.097 42.7878 327.167 42.729 327.249 42.6944C327.332 42.6598 327.422 42.651 327.51 42.6692C327.597 42.6874 327.677 42.7317 327.738 42.7963C327.8 42.8609 327.84 42.9426 327.854 43.0307C327.916 43.3212 328.531 45.1096 329.076 45.5957C329.661 46.0584 330.505 46.0762 331.28 45.6418C332.182 45.1364 333.063 43.9484 332.832 42.1299C332.562 40.0079 330.998 39.6458 330.338 39.5886C329.293 39.4993 328.356 39.9333 328.217 40.383C328.16 40.5684 327.985 40.6873 327.793 40.6931C327.699 40.6924 327.607 40.6613 327.532 40.6044C327.456 40.5475 327.401 40.4679 327.374 40.3772C326.808 38.446 325.459 38.063 324.706 38.0067C323.428 37.9105 322.029 38.6048 321.588 39.5536C321.55 39.635 321.488 39.7028 321.41 39.748C321.333 39.7931 321.243 39.8136 321.153 39.8065C321.064 39.7992 320.978 39.7645 320.909 39.7072C320.84 39.6499 320.79 39.5727 320.766 39.4861C320.272 37.712 318.63 37.2684 317.375 37.4281C316.133 37.5859 314.785 38.4182 314.758 39.8732C314.756 39.9815 314.714 40.0853 314.64 40.1646C314.566 40.2439 314.466 40.2931 314.358 40.3028C314.25 40.3127 314.142 40.2822 314.055 40.2174C313.968 40.1526 313.908 40.0579 313.887 39.9516C313.508 38.0663 312.432 36.99 310.932 36.99Z" fill="#232323"/>
<mask id="mask6_1584_4881" style="mask-type:luminance" maskUnits="userSpaceOnUse" x="306" y="35" width="28" height="16">
<path d="M306.833 41.693C306.122 35.666 312.499 33.0755 314.319 39.8645C314.38 36.555 320.157 35.656 321.19 39.3677C322.146 37.3109 326.57 36.3725 327.906 40.2686C328.362 38.7922 332.809 38.0392 333.299 41.8906C333.734 45.3095 330.727 47.4081 328.777 46.157C322.531 51.5445 314.529 51.2329 310.254 48.7076C307.258 46.9371 306.887 43.9217 306.833 41.693Z" fill="white"/>
</mask>
<g mask="url(#mask6_1584_4881)">
<path d="M330.115 46.4909C329.885 46.4909 329.663 46.4523 329.447 46.3755C327.094 45.5384 326.976 40.4317 326.981 40.3823C326.994 40.2679 327.052 40.1633 327.141 40.0909C327.231 40.0185 327.345 39.9841 327.46 39.9952C327.575 40.0063 327.681 40.0618 327.755 40.15C327.829 40.2382 327.865 40.3519 327.856 40.4667C327.831 41.1333 328.254 45.0737 329.775 45.5586C330.435 45.7689 331.971 45.4573 334.855 41.0144C334.918 40.9165 335.018 40.8479 335.132 40.8236C335.189 40.8116 335.247 40.8108 335.304 40.8213C335.361 40.8318 335.415 40.8533 335.463 40.8848C335.512 40.9162 335.554 40.9568 335.586 41.0044C335.619 41.052 335.642 41.1055 335.654 41.162C335.666 41.2185 335.667 41.2768 335.657 41.3335C335.646 41.3903 335.624 41.4445 335.593 41.4929C333.418 44.8446 331.617 46.4907 330.115 46.4909Z" fill="#232323"/>
<path d="M324.177 46.7541C322.644 46.7541 321.259 45.2839 320.755 43.7377C319.959 41.3019 320.352 37.7893 320.37 37.6409C320.376 37.5833 320.394 37.5276 320.422 37.4769C320.45 37.4262 320.487 37.3815 320.533 37.3454C320.578 37.3093 320.63 37.2825 320.686 37.2665C320.741 37.2506 320.8 37.2458 320.857 37.2524C320.915 37.259 320.971 37.277 321.021 37.3052C321.072 37.3334 321.116 37.3713 321.152 37.4168C321.188 37.4623 321.215 37.5144 321.23 37.5701C321.246 37.6259 321.251 37.6842 321.244 37.7417C321.24 37.7761 320.856 41.2133 321.591 43.4647C322.073 44.939 323.328 46.0123 324.392 45.8591C325.926 45.637 326.91 42.9971 327.026 38.7974C327.033 38.5547 327.238 38.3651 327.478 38.37C327.594 38.3733 327.705 38.4227 327.785 38.5074C327.865 38.592 327.909 38.7051 327.905 38.8217C327.727 45.3009 325.707 46.5573 324.519 46.7293C324.404 46.7462 324.29 46.7541 324.177 46.7541Z" fill="#232323"/>
<path d="M317.182 47.2636C316.254 47.2636 315.328 46.6296 314.624 45.4831C313.033 42.8917 313.399 37.8399 313.416 37.6261C313.425 37.5099 313.48 37.4022 313.568 37.3263C313.656 37.2505 313.771 37.2127 313.888 37.2212C314.004 37.2301 314.112 37.2848 314.188 37.3733C314.264 37.4618 314.302 37.5768 314.293 37.6931C314.289 37.7427 313.932 42.675 315.374 45.023C316.008 46.0548 316.778 46.5357 317.488 46.3425C318.832 45.9766 320.312 43.1761 320.437 36.414C320.439 36.2988 320.487 36.1891 320.569 36.1084C320.651 36.0277 320.762 35.9824 320.877 35.9824H320.885C321.002 35.9846 321.113 36.033 321.194 36.117C321.275 36.2009 321.319 36.3136 321.317 36.4302C321.201 42.6773 319.89 46.5995 317.719 47.1908C317.544 47.2391 317.363 47.2636 317.182 47.2636Z" fill="#232323"/>
<path d="M310.662 48.0237C310.628 48.0237 310.593 48.0231 310.559 48.0221C309.312 47.9834 308.237 46.9472 307.365 44.9427C306.752 43.534 306.466 42.1578 306.454 42.0999C306.431 41.9857 306.453 41.8668 306.518 41.7695C306.582 41.6721 306.682 41.6042 306.796 41.5808C306.911 41.5573 307.03 41.5802 307.127 41.6444C307.224 41.7086 307.292 41.8088 307.316 41.923C307.611 43.3558 308.773 47.0868 310.586 47.1431C311.151 47.1628 311.61 46.9827 311.994 46.599C313.618 44.9741 313.467 40.2528 313.376 37.4319C313.355 36.7615 313.336 36.1826 313.345 35.7538C313.349 35.5111 313.552 35.3134 313.793 35.3226C313.909 35.3248 314.02 35.3732 314.101 35.4572C314.182 35.5412 314.226 35.6539 314.224 35.7705C314.216 36.1769 314.235 36.7455 314.256 37.404C314.357 40.559 314.509 45.3267 312.616 47.2208C312.083 47.7539 311.426 48.0237 310.662 48.0237Z" fill="#232323"/>
</g>
<path d="M313.713 52.4225L313.698 52.4224C313.641 52.4206 313.584 52.4074 313.531 52.3837C313.478 52.3599 313.431 52.326 313.391 52.2839C313.352 52.2418 313.321 52.1923 313.301 52.1382C313.28 52.0842 313.271 52.0267 313.273 51.969L313.526 43.9567C313.527 43.8988 313.54 43.8418 313.564 43.789C313.587 43.7361 313.621 43.6885 313.663 43.6489C313.706 43.6093 313.755 43.5785 313.81 43.5583C313.864 43.5381 313.922 43.5289 313.98 43.5313C314.037 43.5331 314.094 43.5462 314.147 43.57C314.199 43.5937 314.247 43.6276 314.286 43.6698C314.326 43.7119 314.357 43.7614 314.377 43.8154C314.397 43.8694 314.407 43.9269 314.405 43.9846L314.152 51.997C314.148 52.111 314.1 52.2192 314.018 52.2986C313.936 52.378 313.827 52.4225 313.713 52.4225ZM320.817 52.5224C320.702 52.5224 320.591 52.4773 320.509 52.3968C320.427 52.3163 320.38 52.2068 320.377 52.0917L320.189 42.9039C320.189 42.7894 320.235 42.6797 320.315 42.5982C320.396 42.5167 320.505 42.4697 320.62 42.4674C320.734 42.465 320.845 42.5074 320.929 42.5856C321.013 42.6637 321.063 42.7714 321.068 42.8858L321.257 52.0736C321.259 52.1902 321.215 52.3029 321.134 52.3871C321.054 52.4712 320.943 52.5198 320.826 52.5223L320.817 52.5224ZM327.853 51.7463C327.74 51.7463 327.632 51.703 327.55 51.6256C327.469 51.5481 327.42 51.4423 327.414 51.3299L326.981 43.1227C326.978 43.0651 326.986 43.0074 327.006 42.9529C327.025 42.8985 327.055 42.8484 327.093 42.8054C327.132 42.7625 327.179 42.7276 327.231 42.7028C327.283 42.6779 327.339 42.6636 327.397 42.6605C327.455 42.6571 327.513 42.6652 327.567 42.6843C327.622 42.7034 327.672 42.7332 327.715 42.7719C327.758 42.8106 327.793 42.8574 327.818 42.9097C327.843 42.962 327.857 43.0187 327.86 43.0765L328.292 51.2836C328.296 51.3433 328.287 51.4029 328.266 51.4589C328.245 51.5149 328.213 51.5662 328.172 51.6095C328.131 51.6528 328.082 51.6872 328.027 51.7108C327.972 51.7343 327.913 51.7464 327.853 51.7463Z" fill="#232323"/>
<path d="M268.179 195.133C271.92 194.909 276.156 194.69 280.074 193.704C280.869 193.523 282.518 193.022 282.518 193.022C314.127 183.285 325.434 127.378 327.242 119.338C329.154 110.832 330.959 98.9823 332.204 87.5427C332.204 87.5427 320.83 90.2147 312.691 88.7791C300.993 86.7158 293.202 79.1812 293.202 79.1812C288.879 92.0119 275.942 111.537 267.286 125.078C267.286 125.078 237.423 138.968 239.858 166.242C242.01 190.339 268.179 195.133 268.179 195.133Z" fill="white"/>
<path d="M267.683 195.549C314.796 195.549 325.435 127.378 327.242 119.338C329.154 110.832 330.959 98.9823 332.204 87.5427C332.204 87.5427 320.831 90.2147 312.691 88.7791C300.994 86.7158 293.202 79.1812 293.202 79.1812C288.879 92.0119 275.942 111.537 267.286 125.078" fill="white"/>
<path d="M267.682 195.989C267.566 195.989 267.454 195.943 267.371 195.86C267.289 195.778 267.242 195.666 267.242 195.549C267.242 195.433 267.289 195.321 267.371 195.239C267.454 195.156 267.566 195.11 267.682 195.11C277.78 195.11 286.947 191.905 294.929 185.585C301.537 180.352 307.418 172.926 312.408 163.513C321.278 146.782 324.984 128.299 326.38 121.341C326.56 120.442 326.702 119.732 326.813 119.241C328.628 111.166 330.404 99.8481 331.7 88.1053C329.216 88.6394 319.773 90.4746 312.614 89.2119C302.594 87.4442 295.326 81.6289 293.401 79.9523C289.292 91.6206 278.695 108.12 270.151 121.425C269.29 122.766 268.455 124.065 267.657 125.314C267.626 125.363 267.585 125.405 267.538 125.438C267.491 125.471 267.437 125.495 267.381 125.507C267.324 125.519 267.266 125.521 267.209 125.511C267.152 125.5 267.098 125.479 267.049 125.448C267.001 125.417 266.958 125.377 266.925 125.329C266.892 125.282 266.869 125.229 266.856 125.172C266.844 125.116 266.843 125.058 266.853 125.001C266.863 124.944 266.884 124.89 266.915 124.841C267.714 123.592 268.549 122.292 269.41 120.95C278.084 107.445 288.878 90.6364 292.785 79.0406C292.808 78.9703 292.849 78.9071 292.904 78.8569C292.959 78.8068 293.025 78.7712 293.098 78.7537C293.17 78.7361 293.245 78.7371 293.317 78.7565C293.388 78.776 293.454 78.8132 293.507 78.8648C293.584 78.9392 301.347 86.3314 312.767 88.3459C320.722 89.7488 331.99 87.1409 332.103 87.1145C332.172 87.0984 332.243 87.099 332.311 87.1162C332.38 87.1333 332.443 87.1666 332.495 87.2132C332.548 87.2598 332.589 87.3183 332.614 87.3839C332.64 87.4494 332.649 87.5201 332.641 87.59C331.336 99.5815 329.525 111.188 327.671 119.434C327.563 119.915 327.421 120.621 327.242 121.514C325.84 128.506 322.115 147.081 313.186 163.924C308.138 173.446 302.179 180.965 295.475 186.274C287.334 192.72 277.983 195.989 267.682 195.989Z" fill="#232323"/>
<path d="M173.161 103.119C174.31 105.518 175.459 107.916 176.609 110.315C178.485 110.471 180.618 110.346 182.866 109.653C183.78 109.371 184.667 109.009 185.518 108.572C185.755 105.84 185.991 103.105 186.227 100.373C185.412 99.6195 184.627 98.8332 183.875 98.0162C180.566 93.9531 178.029 90.3707 176.496 87.1021C176.056 89.6143 175.798 92.4975 175.18 95.2118C174.576 97.8646 173.902 100.501 173.161 103.119ZM176.213 183.223C182.089 187.771 187.967 192.319 193.843 196.867L206.299 180.311C205.068 167.084 202.614 153.999 198.968 141.225C195.503 129.08 189.751 118.463 185.649 109.625C184.845 110.016 184.012 110.344 183.158 110.607C182.289 110.876 181.4 111.074 180.499 111.201C179.339 111.365 178.164 111.412 176.994 111.343C178.473 119.759 179.216 129.146 179.095 138.658C178.906 153.553 177.944 168.428 176.213 183.223Z" fill="#EF8C44"/>
<mask id="mask7_1584_4881" style="mask-type:luminance" maskUnits="userSpaceOnUse" x="27" y="71" width="305" height="151">
<path d="M312.691 88.7791C300.993 86.7158 293.202 79.1812 293.202 79.1812C288.916 91.9027 276.162 111.204 267.509 124.729C265.62 121.931 251.875 98.1885 235.66 88.1059C202.972 67.7792 191.415 78.0569 191.415 78.0569L183.152 78.0266L151.735 76.5815L129.427 75.988C129.427 75.988 117.131 67.3445 97.743 74.8255C74.0116 83.9825 44.3827 107.042 27.6046 133.659C24.0538 139.291 231.53 221.919 231.53 221.919C231.932 215.191 230.881 200.811 229.399 183.273C230.03 183.804 230.802 184.408 231.437 184.843C244.996 194.144 280.122 193.593 280.137 193.403C280.906 193.225 281.669 193.02 282.423 192.787C314.032 183.049 325.435 127.378 327.242 119.338C329.154 110.832 330.704 99.0122 331.949 87.5727C331.948 87.5725 320.83 90.2147 312.691 88.7791Z" fill="white"/>
</mask>
<g mask="url(#mask7_1584_4881)">
<path d="M264.697 144.602C264.592 144.602 264.491 144.564 264.411 144.496C264.332 144.427 264.279 144.333 264.263 144.229C262.842 135.029 267.06 124.664 267.102 124.561C267.124 124.507 267.156 124.458 267.197 124.417C267.238 124.376 267.287 124.344 267.34 124.321C267.393 124.299 267.451 124.287 267.509 124.287C267.567 124.287 267.624 124.298 267.677 124.32C267.731 124.342 267.78 124.375 267.821 124.416C267.862 124.457 267.894 124.505 267.916 124.559C267.938 124.612 267.95 124.67 267.95 124.728C267.949 124.785 267.938 124.843 267.916 124.896C267.874 124.998 263.75 135.141 265.132 144.095C265.142 144.158 265.138 144.222 265.121 144.283C265.103 144.344 265.073 144.4 265.031 144.449C264.99 144.497 264.939 144.535 264.881 144.562C264.823 144.588 264.761 144.602 264.697 144.602Z" fill="#232323"/>
</g>
<mask id="mask8_1584_4881" style="mask-type:luminance" maskUnits="userSpaceOnUse" x="27" y="71" width="305" height="151">
<path d="M312.691 88.7791C300.993 86.7158 293.202 79.1812 293.202 79.1812C288.916 91.9027 276.162 111.204 267.509 124.729C265.62 121.931 251.875 98.1885 235.66 88.1059C202.972 67.7792 191.415 78.0569 191.415 78.0569L183.152 78.0266L151.735 76.5815L129.427 75.988C129.427 75.988 117.131 67.3445 97.743 74.8255C74.0116 83.9825 44.3827 107.042 27.6046 133.659C24.0538 139.291 231.53 221.919 231.53 221.919C231.932 215.191 230.881 200.811 229.399 183.273C230.03 183.804 230.802 184.408 231.437 184.843C244.996 194.144 280.122 193.593 280.137 193.403C280.906 193.225 281.669 193.02 282.423 192.787C314.032 183.049 325.435 127.378 327.242 119.338C329.154 110.832 330.704 99.0122 331.949 87.5727C331.948 87.5725 320.83 90.2147 312.691 88.7791Z" fill="white"/>
</mask>
<g mask="url(#mask8_1584_4881)">
<path d="M261.726 139.609C261.665 139.609 261.605 139.596 261.549 139.572C261.494 139.548 261.443 139.512 261.402 139.467C261.361 139.422 261.329 139.369 261.31 139.312C261.29 139.254 261.282 139.193 261.287 139.133C261.881 131.999 265.251 127.198 266.69 125.149C266.886 124.87 267.04 124.65 267.136 124.497C267.198 124.399 267.296 124.33 267.409 124.304C267.522 124.278 267.641 124.298 267.739 124.359C267.838 124.42 267.908 124.518 267.935 124.631C267.962 124.744 267.943 124.863 267.883 124.962C267.774 125.136 267.614 125.364 267.411 125.654C266.012 127.645 262.738 132.309 262.164 139.206C262.155 139.315 262.105 139.418 262.024 139.492C261.943 139.567 261.836 139.609 261.726 139.609Z" fill="#232323"/>
</g>
<mask id="mask9_1584_4881" style="mask-type:luminance" maskUnits="userSpaceOnUse" x="27" y="71" width="305" height="151">
<path d="M312.691 88.7791C300.993 86.7158 293.202 79.1812 293.202 79.1812C288.916 91.9027 276.162 111.204 267.509 124.729C265.62 121.931 251.875 98.1885 235.66 88.1059C202.972 67.7792 191.415 78.0569 191.415 78.0569L183.152 78.0266L151.735 76.5815L129.427 75.988C129.427 75.988 117.131 67.3445 97.743 74.8255C74.0116 83.9825 44.3827 107.042 27.6046 133.659C24.0538 139.291 231.53 221.919 231.53 221.919C231.932 215.191 230.881 200.811 229.399 183.273C230.03 183.804 230.802 184.408 231.437 184.843C244.996 194.144 280.122 193.593 280.137 193.403C280.906 193.225 281.669 193.02 282.423 192.787C314.032 183.049 325.435 127.378 327.242 119.338C329.154 110.832 330.704 99.0122 331.949 87.5727C331.948 87.5725 320.83 90.2147 312.691 88.7791Z" fill="white"/>
</mask>
<g mask="url(#mask9_1584_4881)">
<path d="M323.624 100.838C324.935 100.838 325.998 99.7757 325.998 98.4655C325.998 97.1554 324.935 96.0933 323.624 96.0933C322.314 96.0933 321.251 97.1554 321.251 98.4655C321.251 99.7757 322.314 100.838 323.624 100.838Z" fill="#232323"/>
<path d="M318.838 108.041C314.128 108.041 309.205 107.135 304.343 105.333C296.636 102.475 289.948 97.7017 286.454 92.5632C286.389 92.4668 286.364 92.3483 286.386 92.2337C286.408 92.1192 286.474 92.018 286.571 91.9525C286.667 91.8869 286.786 91.8624 286.901 91.8843C287.015 91.9061 287.116 91.9726 287.182 92.0691C290.526 96.9873 297.219 101.754 304.649 104.508C313.278 107.707 322.094 108.025 329.475 105.403C329.529 105.383 329.587 105.374 329.645 105.377C329.703 105.38 329.76 105.394 329.812 105.419C329.865 105.443 329.912 105.478 329.95 105.521C329.989 105.564 330.019 105.614 330.039 105.669C330.058 105.723 330.067 105.781 330.064 105.839C330.061 105.897 330.046 105.954 330.021 106.006C329.996 106.058 329.961 106.105 329.918 106.144C329.875 106.182 329.824 106.212 329.769 106.231C326.369 107.439 322.674 108.041 318.838 108.041Z" fill="#232323"/>
</g>
<mask id="mask10_1584_4881" style="mask-type:luminance" maskUnits="userSpaceOnUse" x="27" y="71" width="305" height="151">
<path d="M312.691 88.7791C300.993 86.7158 293.202 79.1812 293.202 79.1812C288.916 91.9027 276.162 111.204 267.509 124.729C265.62 121.931 251.875 98.1885 235.66 88.1059C202.972 67.7792 191.415 78.0569 191.415 78.0569L183.152 78.0266L151.735 76.5815L129.427 75.988C129.427 75.988 117.131 67.3445 97.743 74.8255C74.0116 83.9825 44.3827 107.042 27.6046 133.659C24.0538 139.291 231.53 221.919 231.53 221.919C231.932 215.191 230.881 200.811 229.399 183.273C230.03 183.804 230.802 184.408 231.437 184.843C244.996 194.144 280.122 193.593 280.137 193.403C280.906 193.225 281.669 193.02 282.423 192.787C314.032 183.049 325.435 127.378 327.242 119.338C329.154 110.832 330.704 99.0122 331.949 87.5727C331.948 87.5725 320.83 90.2147 312.691 88.7791Z" fill="white"/>
</mask>
<g mask="url(#mask10_1584_4881)">
<path d="M186.673 100.207C185.702 100.207 183.968 99.2468 180.339 94.2482C178.071 91.1248 176.115 87.8491 176.096 87.8164C176.066 87.7668 176.047 87.7118 176.039 87.6547C176.03 87.5975 176.033 87.5393 176.048 87.4833C176.062 87.4274 176.087 87.3748 176.121 87.3285C176.156 87.2822 176.199 87.2432 176.249 87.2137C176.299 87.1842 176.354 87.1647 176.411 87.1564C176.468 87.1481 176.526 87.1512 176.582 87.1654C176.638 87.1796 176.691 87.2047 176.737 87.2392C176.783 87.2737 176.822 87.3171 176.852 87.3667C176.871 87.3992 178.809 90.6447 181.054 93.7359C185.113 99.3249 186.512 99.4071 186.844 99.2996C186.991 99.2518 187.113 99.1293 187.215 98.9253C188.652 96.0774 184.706 82.7031 183.064 77.79C183.045 77.7351 183.037 77.6768 183.041 77.6187C183.044 77.5606 183.059 77.5037 183.085 77.4515C183.11 77.3992 183.146 77.3526 183.19 77.3142C183.234 77.2759 183.285 77.2467 183.34 77.2282C183.396 77.2098 183.454 77.2025 183.512 77.2068C183.57 77.211 183.627 77.2268 183.679 77.2532C183.731 77.2795 183.777 77.3159 183.815 77.3603C183.852 77.4046 183.881 77.456 183.899 77.5115C184.144 78.2469 189.896 95.5651 188.001 99.3214C187.79 99.7396 187.492 100.014 187.116 100.136C186.973 100.183 186.823 100.207 186.673 100.207Z" fill="#232323"/>
<path d="M170.069 105.669C170.049 105.669 170.028 105.669 170.007 105.668C165.747 105.553 159.436 95.8827 150.149 75.2357C150.101 75.1294 150.097 75.0084 150.139 74.8994C150.18 74.7904 150.263 74.7022 150.37 74.6544C150.476 74.6066 150.597 74.603 150.706 74.6443C150.815 74.6857 150.903 74.7687 150.951 74.875C159.834 94.6222 166.253 104.687 170.031 104.789C173.054 104.871 175.316 94.2545 176.036 87.5439C176.042 87.4859 176.059 87.4296 176.086 87.3781C176.113 87.3267 176.151 87.2812 176.196 87.2443C176.241 87.2074 176.293 87.1798 176.349 87.1632C176.405 87.1466 176.463 87.1412 176.521 87.1474C176.579 87.1536 176.635 87.1713 176.686 87.1994C176.737 87.2275 176.782 87.2654 176.819 87.3111C176.855 87.3567 176.882 87.409 176.898 87.4651C176.914 87.5212 176.918 87.5798 176.911 87.6377C176.906 87.6824 176.42 92.156 175.38 96.5566C173.933 102.687 172.195 105.669 170.069 105.669Z" fill="#232323"/>
</g>
<mask id="mask11_1584_4881" style="mask-type:luminance" maskUnits="userSpaceOnUse" x="27" y="71" width="305" height="151">
<path d="M312.691 88.7791C300.993 86.7158 293.202 79.1812 293.202 79.1812C288.916 91.9027 276.162 111.204 267.509 124.729C265.62 121.931 251.875 98.1885 235.66 88.1059C202.972 67.7792 191.415 78.0569 191.415 78.0569L183.152 78.0266L151.735 76.5815L129.427 75.988C129.427 75.988 117.131 67.3445 97.743 74.8255C74.0116 83.9825 44.3827 107.042 27.6046 133.659C24.0538 139.291 231.53 221.919 231.53 221.919C231.932 215.191 230.881 200.811 229.399 183.273C230.03 183.804 230.802 184.408 231.437 184.843C244.996 194.144 280.122 193.593 280.137 193.403C280.906 193.225 281.669 193.02 282.423 192.787C314.032 183.049 325.435 127.378 327.242 119.338C329.154 110.832 330.704 99.0122 331.949 87.5727C331.948 87.5725 320.83 90.2147 312.691 88.7791Z" fill="white"/>
</mask>
<g mask="url(#mask11_1584_4881)">
<path d="M190.074 77.3442C221.976 104.63 229.134 183.042 229.134 183.042Z" fill="white"/>
<path d="M229.134 183.482C229.024 183.482 228.919 183.441 228.838 183.367C228.757 183.293 228.706 183.191 228.696 183.082C228.678 182.887 226.842 163.239 221.138 140.52C217.79 127.187 213.785 115.421 209.234 105.549C203.557 93.2363 197.015 83.8592 189.788 77.678C189.744 77.6405 189.708 77.5947 189.682 77.5432C189.655 77.4917 189.64 77.4356 189.635 77.3781C189.626 77.2618 189.664 77.1467 189.739 77.0581C189.815 76.9695 189.923 76.9147 190.04 76.9056C190.156 76.8966 190.271 76.9341 190.36 77.0099C197.685 83.2752 204.305 92.7551 210.035 105.186C214.609 115.11 218.633 126.93 221.994 140.318C227.714 163.102 229.554 182.806 229.573 183.002C229.578 183.063 229.571 183.125 229.551 183.183C229.532 183.241 229.5 183.294 229.459 183.339C229.418 183.384 229.368 183.42 229.312 183.445C229.256 183.469 229.195 183.482 229.134 183.482Z" fill="#232323"/>
</g>
</g>
<g clip-path="url(#clip2_1584_4881)">
<path d="M355.265 154.162H278.598C277.607 154.162 276.82 152.914 276.82 151.923L276.82 43.8629C276.82 42.872 277.623 42.0688 278.614 42.0688H355.208C356.199 42.0688 357.002 42.872 357.002 43.8629V151.889C357.002 152.88 356.256 154.162 355.265 154.162Z" fill="white"/>
<path d="M355.265 154.601H278.598C277.349 154.601 276.38 153.162 276.38 151.923L276.38 43.8628C276.38 42.6311 277.382 41.6289 278.614 41.6289H355.208C356.44 41.6289 357.442 42.6311 357.442 43.8628V151.889C357.442 153.143 356.491 154.601 355.265 154.601ZM278.614 42.5086C277.867 42.5086 277.26 43.1161 277.26 43.8628L277.26 151.923C277.26 152.716 277.89 153.722 278.599 153.722H355.265C355.952 153.722 356.562 152.697 356.562 151.889V43.863C356.562 43.1163 355.954 42.5088 355.208 42.5088L278.614 42.5086Z" fill="#232323"/>
<path d="M344.905 111.74H318.948C318.832 111.74 318.72 111.694 318.637 111.611C318.555 111.529 318.508 111.417 318.508 111.3C318.508 111.184 318.555 111.072 318.637 110.989C318.72 110.907 318.832 110.86 318.948 110.86H344.905C345.022 110.86 345.134 110.907 345.216 110.989C345.299 111.072 345.345 111.184 345.345 111.3C345.345 111.417 345.299 111.529 345.216 111.611C345.134 111.694 345.022 111.74 344.905 111.74ZM315.267 111.74H286.811C286.694 111.74 286.582 111.694 286.5 111.611C286.417 111.529 286.371 111.417 286.371 111.3C286.371 111.184 286.417 111.072 286.5 110.989C286.582 110.907 286.694 110.86 286.811 110.86H315.267C315.384 110.86 315.496 110.907 315.578 110.989C315.661 111.072 315.707 111.184 315.707 111.3C315.707 111.417 315.661 111.529 315.578 111.611C315.496 111.694 315.384 111.74 315.267 111.74ZM344.905 103.379H328.029C327.912 103.379 327.8 103.333 327.718 103.25C327.635 103.168 327.589 103.056 327.589 102.939C327.589 102.822 327.635 102.711 327.718 102.628C327.8 102.546 327.912 102.499 328.029 102.499H344.905C345.022 102.499 345.134 102.546 345.216 102.628C345.299 102.711 345.345 102.822 345.345 102.939C345.345 103.056 345.299 103.168 345.216 103.25C345.134 103.333 345.022 103.379 344.905 103.379ZM324.437 103.379H305.807C305.69 103.379 305.578 103.333 305.496 103.25C305.413 103.168 305.367 103.056 305.367 102.939C305.367 102.822 305.413 102.711 305.496 102.628C305.578 102.546 305.69 102.499 305.807 102.499H324.437C324.553 102.499 324.665 102.546 324.748 102.628C324.83 102.711 324.877 102.822 324.877 102.939C324.877 103.056 324.83 103.168 324.748 103.25C324.665 103.333 324.553 103.379 324.437 103.379ZM302.091 103.379H286.811C286.694 103.379 286.582 103.333 286.5 103.25C286.417 103.168 286.371 103.056 286.371 102.939C286.371 102.822 286.417 102.711 286.5 102.628C286.582 102.546 286.694 102.499 286.811 102.499H302.091C302.208 102.499 302.319 102.546 302.402 102.628C302.484 102.711 302.531 102.822 302.531 102.939C302.531 103.056 302.484 103.168 302.402 103.25C302.319 103.333 302.208 103.379 302.091 103.379ZM344.905 95.0179H314.875C314.758 95.0179 314.646 94.9715 314.564 94.8891C314.481 94.8066 314.435 94.6947 314.435 94.578C314.435 94.4614 314.481 94.3495 314.564 94.267C314.646 94.1845 314.758 94.1382 314.875 94.1382H344.905C345.022 94.1382 345.134 94.1845 345.216 94.267C345.299 94.3495 345.345 94.4614 345.345 94.578C345.345 94.6947 345.299 94.8066 345.216 94.8891C345.134 94.9715 345.022 95.0179 344.905 95.0179ZM311.189 95.0179H286.811C286.694 95.0179 286.582 94.9715 286.5 94.8891C286.417 94.8066 286.371 94.6947 286.371 94.578C286.371 94.4614 286.417 94.3495 286.5 94.267C286.582 94.1845 286.694 94.1382 286.811 94.1382H311.189C311.306 94.1382 311.418 94.1845 311.5 94.267C311.583 94.3494 311.629 94.4613 311.629 94.5779C311.629 94.6946 311.583 94.8065 311.5 94.889C311.418 94.9715 311.306 95.0179 311.189 95.0179Z" fill="#232323"/>
<path d="M295.064 126.709H286.647C286.53 126.709 286.418 126.663 286.336 126.58C286.253 126.498 286.207 126.386 286.207 126.269V118.351C286.207 118.235 286.253 118.123 286.336 118.04C286.418 117.958 286.53 117.912 286.647 117.912H295.064C295.181 117.912 295.293 117.958 295.375 118.04C295.458 118.123 295.504 118.235 295.504 118.351V126.269C295.504 126.386 295.458 126.498 295.375 126.58C295.293 126.663 295.181 126.709 295.064 126.709ZM287.087 125.829H294.624V118.791H287.087V125.829Z" fill="#1C5AF6"/>
<path d="M290.782 124.484C290.718 124.484 290.655 124.47 290.597 124.443C290.539 124.417 290.488 124.377 290.446 124.328L287.802 121.205C287.729 121.115 287.694 121.001 287.704 120.886C287.715 120.771 287.77 120.664 287.858 120.59C287.946 120.515 288.06 120.478 288.176 120.487C288.291 120.495 288.398 120.549 288.474 120.636L290.772 123.352L295.67 117.208C295.706 117.162 295.751 117.124 295.801 117.095C295.852 117.066 295.908 117.048 295.966 117.041C296.024 117.034 296.082 117.039 296.138 117.055C296.194 117.071 296.246 117.098 296.292 117.134C296.338 117.17 296.375 117.215 296.403 117.266C296.431 117.317 296.449 117.374 296.455 117.431C296.461 117.489 296.456 117.548 296.439 117.604C296.423 117.659 296.395 117.711 296.358 117.756L291.126 124.318C291.085 124.369 291.034 124.41 290.976 124.439C290.917 124.468 290.853 124.483 290.788 124.484L290.782 124.484Z" fill="#232323"/>
<path d="M295.064 140.803H286.647C286.53 140.803 286.418 140.757 286.336 140.674C286.253 140.592 286.207 140.48 286.207 140.363V132.446C286.207 132.329 286.253 132.217 286.336 132.135C286.418 132.052 286.53 132.006 286.647 132.006H295.064C295.181 132.006 295.293 132.052 295.375 132.135C295.458 132.217 295.504 132.329 295.504 132.446V140.363C295.504 140.48 295.458 140.592 295.375 140.674C295.293 140.757 295.181 140.803 295.064 140.803ZM287.087 139.924H294.624V132.886H287.087V139.924Z" fill="#1C5AF6"/>
<path d="M290.782 138.579C290.718 138.579 290.655 138.565 290.597 138.538C290.539 138.512 290.488 138.472 290.446 138.424L287.802 135.3C287.729 135.21 287.694 135.096 287.704 134.981C287.715 134.866 287.77 134.759 287.858 134.685C287.946 134.61 288.06 134.573 288.176 134.582C288.291 134.59 288.398 134.644 288.474 134.731L290.772 137.447L295.67 131.303C295.706 131.257 295.751 131.219 295.801 131.19C295.852 131.162 295.908 131.143 295.966 131.136C296.024 131.129 296.082 131.134 296.138 131.15C296.194 131.166 296.246 131.193 296.292 131.229C296.338 131.266 296.375 131.311 296.403 131.362C296.431 131.413 296.449 131.469 296.455 131.527C296.461 131.585 296.456 131.643 296.439 131.699C296.423 131.755 296.395 131.807 296.358 131.852L291.126 138.414C291.085 138.464 291.034 138.506 290.976 138.534C290.917 138.563 290.853 138.578 290.788 138.579H290.782ZM323.639 122.744H306.892C306.776 122.744 306.664 122.698 306.581 122.616C306.499 122.533 306.452 122.421 306.452 122.305C306.452 122.188 306.499 122.076 306.581 121.994C306.664 121.911 306.776 121.865 306.892 121.865H323.639C323.756 121.865 323.868 121.911 323.95 121.994C324.033 122.076 324.079 122.188 324.079 122.305C324.079 122.421 324.033 122.533 323.95 122.616C323.868 122.698 323.756 122.744 323.639 122.744ZM341.145 122.744H327.133C327.017 122.744 326.905 122.698 326.822 122.616C326.74 122.533 326.694 122.421 326.694 122.305C326.694 122.188 326.74 122.076 326.822 121.994C326.905 121.911 327.017 121.865 327.133 121.865H341.145C341.262 121.865 341.373 121.911 341.456 121.994C341.538 122.076 341.585 122.188 341.585 122.305C341.585 122.421 341.538 122.533 341.456 122.616C341.373 122.698 341.262 122.744 341.145 122.744ZM303.4 122.744H298.668C298.552 122.744 298.44 122.698 298.357 122.616C298.275 122.533 298.229 122.421 298.229 122.305C298.229 122.188 298.275 122.076 298.357 121.994C298.44 121.911 298.552 121.865 298.668 121.865H303.4C303.517 121.865 303.629 121.911 303.711 121.994C303.794 122.076 303.84 122.188 303.84 122.305C303.84 122.421 303.794 122.533 303.711 122.616C303.629 122.698 303.517 122.744 303.4 122.744ZM331.143 136.675H308.847C308.73 136.675 308.618 136.629 308.536 136.546C308.453 136.464 308.407 136.352 308.407 136.235C308.407 136.119 308.453 136.007 308.536 135.924C308.618 135.842 308.73 135.796 308.847 135.796H331.143C331.26 135.796 331.371 135.842 331.454 135.924C331.536 136.007 331.583 136.119 331.583 136.235C331.583 136.352 331.536 136.464 331.454 136.546C331.371 136.629 331.26 136.675 331.143 136.675ZM305.437 136.624L298.678 136.623C298.562 136.623 298.45 136.576 298.367 136.494C298.285 136.411 298.239 136.3 298.239 136.183C298.239 136.066 298.285 135.954 298.367 135.872C298.45 135.789 298.562 135.743 298.678 135.743L305.437 135.745C305.554 135.745 305.666 135.791 305.748 135.873C305.831 135.956 305.877 136.068 305.877 136.184C305.877 136.301 305.831 136.413 305.748 136.495C305.666 136.578 305.554 136.624 305.437 136.624ZM324.188 74.8868C326.113 73.9875 340.311 67.0447 338.965 57.5412C337.738 48.8641 326.181 48.417 324.262 55.9493C324.252 55.9846 324.213 56.0059 324.175 55.9968C324.163 55.9941 324.152 55.9883 324.143 55.98C324.134 55.9716 324.127 55.961 324.124 55.9493C322.237 48.4098 310.679 48.8132 309.414 57.4854C308.029 66.9838 322.267 73.9801 324.188 74.8868Z" fill="#232323"/>
<path d="M339.293 62.7711C339.225 62.9453 339.157 63.1272 339.081 63.3015C335.914 70.7877 325.989 75.9401 324.36 76.7433C322.799 75.9628 313.533 71.1286 310.017 64.0895C309.926 63.9152 309.843 63.7409 309.767 63.5591C308.888 61.6042 308.456 59.4826 308.767 57.2322C310.101 47.5108 322.306 47.0562 324.299 55.5122C324.307 55.5349 324.329 55.5577 324.352 55.5652C324.39 55.5728 324.435 55.5501 324.443 55.5122C326.466 47.0637 338.672 47.5714 339.968 57.2928C340.218 59.225 339.937 61.0586 339.293 62.7711Z" fill="#1C5AF6"/>
<path d="M339.293 62.7709C339.225 62.9452 339.157 63.127 339.081 63.3013L335.012 63.2861C334.952 63.2861 334.891 63.3316 334.876 63.3922L333.823 67.2111C333.664 67.7869 333.058 68.1279 332.474 67.9764C332.133 67.8854 331.861 67.6354 331.732 67.3096L329.724 62.4223C329.633 62.2026 329.436 62.0738 329.201 62.0738C328.959 62.0738 328.769 62.2102 328.678 62.4223L325.383 70.5299C325.223 70.939 324.822 71.2118 324.375 71.2194H324.36C323.913 71.2194 323.511 70.9542 323.344 70.5526L317.313 56.8607C317.177 56.5501 316.882 56.3682 316.548 56.3834C316.215 56.3985 315.935 56.6031 315.821 56.9214L313.578 63.3619C313.427 63.8014 313.01 64.1045 312.533 64.1045L310.017 64.0969C309.926 63.9226 309.843 63.7483 309.767 63.5665L312.54 63.5741C312.79 63.5741 313.01 63.4225 313.086 63.1952L315.328 56.7547C315.51 56.2243 315.972 55.8833 316.533 55.8606C317.086 55.8378 317.579 56.1409 317.806 56.6562L323.837 70.3556C323.928 70.5677 324.132 70.7041 324.367 70.7041H324.382C324.617 70.7041 324.822 70.5602 324.905 70.348L328.201 62.2405C328.375 61.8238 328.762 61.5586 329.216 61.5586C329.671 61.5586 330.057 61.8162 330.232 62.2405L332.247 67.1353C332.315 67.3096 332.459 67.4384 332.633 67.4839C332.936 67.5672 333.255 67.3929 333.338 67.0898L334.391 63.271C334.474 62.9831 334.74 62.7785 335.043 62.7785L339.293 62.7709Z" fill="white"/>
<path d="M308.591 56.0683L295.715 61.4143C295.517 61.497 295.39 61.6814 295.39 61.885V69.8796C295.39 80.7492 305.033 85.8245 308.813 86.538C312.592 85.8243 322.307 80.7492 322.307 69.8796V61.885C322.307 61.6814 322.179 61.497 321.982 61.4143L309.035 56.0683C308.965 56.039 308.889 56.0239 308.813 56.0239C308.736 56.0239 308.661 56.039 308.591 56.0683Z" fill="white"/>
<path d="M308.661 86.8266C308.634 86.8266 308.607 86.8239 308.58 86.819C304.263 86.004 294.799 80.569 294.799 69.7283V61.7337C294.799 61.3526 295.032 61.0087 295.394 60.8574L308.271 55.5108C308.521 55.4071 308.803 55.4072 309.054 55.5111L321.999 60.8565C322.362 61.0085 322.596 61.3525 322.596 61.7335V69.728C322.596 80.5586 313.083 85.9995 308.743 86.8186C308.716 86.8239 308.689 86.8266 308.661 86.8266ZM308.661 56.3125C308.643 56.3125 308.625 56.316 308.609 56.3229L308.608 56.3233L295.732 61.6693C295.7 61.6825 295.678 61.7087 295.678 61.7337V69.7282C295.678 75.4803 298.482 79.3297 300.834 81.5458C303.471 84.0307 306.646 85.5339 308.661 85.9384C310.684 85.5327 313.873 84.0286 316.525 81.5447C318.893 79.3274 321.716 75.4773 321.716 69.728V61.7337C321.716 61.7087 321.694 61.6827 321.661 61.6688L308.716 56.3234C308.699 56.3163 308.68 56.3126 308.661 56.3125Z" fill="#232323"/>
<path d="M308.485 59.2844L298.227 63.7163C298.07 63.7819 297.969 63.9285 297.969 64.0901V70.4412C297.969 79.0762 305.659 83.0804 308.661 83.6473C311.664 83.0804 319.377 79.0873 319.377 70.4522V64.1012C319.377 63.9395 319.276 63.793 319.118 63.7274L308.838 59.2844C308.782 59.261 308.722 59.249 308.661 59.249C308.601 59.249 308.541 59.261 308.485 59.2844Z" fill="#EF8C44"/>
<path d="M308.758 77.2428C312.341 77.2428 315.245 74.5106 315.245 71.1402C315.245 67.7698 312.341 65.0376 308.758 65.0376C305.174 65.0376 302.27 67.7698 302.27 71.1402C302.27 74.5106 305.174 77.2428 308.758 77.2428Z" fill="white"/>
<path d="M308.645 64.5962C304.59 64.5962 301.302 67.6887 301.302 71.5034C301.302 75.318 304.59 78.4105 308.645 78.4105C312.701 78.4105 315.988 75.318 315.988 71.5034C315.988 67.6887 312.701 64.5962 308.645 64.5962ZM313.484 72.9241H310.696C310.398 72.9241 310.155 73.1517 310.155 73.4327V76.0551C310.155 76.3358 309.913 76.5637 309.615 76.5637H307.675C307.377 76.5637 307.135 76.336 307.135 76.0551V73.4327C307.135 73.1519 306.892 72.9241 306.594 72.9241H303.806C303.507 72.9241 303.265 72.6964 303.265 72.4154V70.5911C303.265 70.3103 303.507 70.0825 303.806 70.0825H306.594C306.892 70.0825 307.135 69.8548 307.135 69.5738V66.9515C307.135 66.6707 307.377 66.4428 307.675 66.4428H309.615C309.913 66.4428 310.155 66.6705 310.155 66.9515V69.5738C310.155 69.8546 310.398 70.0825 310.696 70.0825H313.484C313.783 70.0825 314.025 70.3101 314.025 70.5911V72.4154C314.025 72.6962 313.783 72.9241 313.484 72.9241Z" fill="#EF8C44"/>
</g>
<g clip-path="url(#clip3_1584_4881)">
<path d="M306.406 40.0182C306.789 35.7264 313.233 34.4458 313.96 39.786C314.022 36.453 319.845 35.5475 320.887 39.2857C321.878 36.4482 326.608 35.9632 327.777 39.9421C328.236 38.4551 332.569 38.1323 333.062 42.0112C333.394 44.6136 331.64 46.3501 330.012 46.3613C327.891 46.3758 327.2 44.4884 327.183 43.5502C326.309 46.7494 321.734 48.5992 320.478 43.3274C320.164 46.2706 315.709 48.8089 313.604 43.9213C312.781 46.0129 311.688 47.2246 310.421 47.3718C308.275 47.6212 306.564 44.6283 306.359 43.092C306.359 43.092 306.231 41.0544 306.406 40.0182Z" fill="white"/>
<path d="M310.173 47.8284C309.172 47.8284 308.168 47.2508 307.315 46.1761C306.602 45.2779 306.041 44.0618 305.92 43.1498C305.918 43.1396 305.917 43.1294 305.917 43.1191C305.911 43.0345 305.789 41.0397 305.966 39.9614C306.209 37.3358 308.411 35.8712 310.364 35.826C311.717 35.792 313.238 36.4333 313.993 38.1999C314.517 37.3496 315.481 36.6368 316.93 36.453C318.403 36.2665 320.08 36.7739 320.933 38.2497C321.671 37.2229 322.947 36.5772 324.315 36.6156C325.913 36.6558 327.21 37.5455 327.909 39.0379C328.435 38.6238 329.245 38.4045 330.129 38.4809C331.562 38.6048 333.2 39.5827 333.502 41.9551C333.68 43.3503 333.32 44.6409 332.489 45.5896C331.819 46.3551 330.917 46.7976 330.016 46.8038H329.988C328.653 46.8038 327.873 46.1383 327.453 45.5779C327.3 45.3725 327.17 45.1511 327.065 44.9174C326.262 46.2191 324.889 47.1127 323.529 47.0861C321.908 47.0595 320.995 45.8622 320.498 44.7617C319.887 45.9547 318.712 46.8806 317.413 47.0765C315.496 47.366 314.288 46.0416 313.635 44.9527C312.786 46.6851 311.703 47.6679 310.472 47.8112C310.372 47.8227 310.273 47.8284 310.173 47.8284ZM306.801 43.0483C306.983 44.3522 308.507 47.1488 310.369 46.9315C311.448 46.8061 312.424 45.7092 313.192 43.7589C313.224 43.6772 313.28 43.607 313.352 43.557C313.424 43.507 313.51 43.4796 313.597 43.4782C313.685 43.4768 313.772 43.5015 313.845 43.5492C313.919 43.5969 313.977 43.6654 314.012 43.746C314.78 45.531 315.941 46.4029 317.28 46.2009C318.651 45.9941 319.888 44.684 320.038 43.2801C320.049 43.1762 320.096 43.0796 320.172 43.0073C320.247 42.9351 320.346 42.8918 320.45 42.8851C320.555 42.879 320.658 42.9097 320.742 42.9717C320.826 43.0338 320.885 43.1233 320.91 43.2247C321.362 45.1234 322.297 46.1803 323.544 46.2007C324.893 46.2194 326.333 44.9814 326.756 43.4333C326.784 43.3306 326.848 43.2414 326.937 43.1821C327.026 43.1229 327.133 43.0976 327.238 43.1108C327.344 43.124 327.442 43.175 327.513 43.2542C327.585 43.3335 327.625 43.4357 327.627 43.5423C327.638 44.1606 328.095 45.9183 329.988 45.9183H330.01C330.648 45.9141 331.325 45.5731 331.822 45.0065C332.483 44.2513 332.768 43.2073 332.623 42.0668C332.548 41.4783 332.141 39.5439 330.052 39.3631C329.101 39.2813 328.327 39.6633 328.2 40.0725C328.143 40.2591 327.973 40.3798 327.774 40.3847C327.678 40.384 327.586 40.3527 327.51 40.2954C327.434 40.2381 327.378 40.1579 327.351 40.0666C326.89 38.4968 325.747 37.5377 324.293 37.501C322.946 37.4681 321.715 38.2609 321.305 39.4315C321.275 39.5209 321.216 39.598 321.138 39.6515C321.06 39.7049 320.967 39.7318 320.873 39.7281C320.778 39.7251 320.687 39.692 320.613 39.6338C320.539 39.5755 320.485 39.4951 320.46 39.4042C319.962 37.617 318.307 37.1712 317.041 37.3313C315.79 37.4902 314.431 38.3285 314.404 39.7939C314.402 39.9054 314.357 40.012 314.28 40.0924C314.203 40.1728 314.098 40.2211 313.986 40.2276C313.875 40.2343 313.765 40.1986 313.678 40.1277C313.592 40.0568 313.536 39.9558 313.521 39.8452C313.248 37.8436 312.077 36.6744 310.384 36.7112C308.811 36.7477 307.037 37.9328 306.848 40.0571C306.847 40.0686 306.846 40.0801 306.844 40.0916C306.687 41.019 306.79 42.8596 306.801 43.0483Z" fill="#232323"/>
<mask id="mask12_1584_4881" style="mask-type:luminance" maskUnits="userSpaceOnUse" x="306" y="35" width="28" height="13">
<path d="M306.415 41.6278C305.698 35.5576 312.789 32.9584 313.96 39.786C314.022 36.453 319.845 35.5475 320.887 39.2857C321.988 36.4482 326.642 35.9751 327.777 39.9421C328.236 38.4552 332.599 37.9477 333.093 41.8267C333.531 45.2699 330.518 47.1571 328.551 45.8971C327.385 45.6234 327.183 43.5502 327.183 43.5502C327.183 43.5502 326.183 46.5395 323.923 46.5035C321.553 46.466 320.346 43.2755 320.346 43.2755C320.346 43.2755 319.974 46.4389 317.034 46.6456C314.51 46.8231 313.604 43.9211 313.604 43.9211C313.604 43.9211 312.354 47.4648 310.086 47.3833C306.58 47.2574 306.469 43.8724 306.415 41.6278Z" fill="white"/>
</mask>
<g mask="url(#mask12_1584_4881)">
<path d="M313.587 45.5632C313.526 45.5633 313.466 45.5509 313.41 45.5266C313.354 45.5024 313.304 45.467 313.262 45.4225C313.221 45.378 313.189 45.3254 313.169 45.268C313.148 45.2107 313.14 45.1498 313.144 45.0891L313.695 37.3581C313.699 37.3001 313.714 37.2435 313.74 37.1915C313.766 37.1395 313.802 37.0931 313.846 37.055C313.89 37.0169 313.941 36.9879 313.997 36.9695C314.052 36.9511 314.11 36.9438 314.168 36.9479C314.226 36.952 314.283 36.9675 314.335 36.9935C314.387 37.0196 314.434 37.0556 314.472 37.0995C314.51 37.1434 314.539 37.1944 314.557 37.2496C314.576 37.3047 314.583 37.363 314.579 37.421L314.029 45.152C314.021 45.2636 313.971 45.3681 313.889 45.4444C313.807 45.5207 313.699 45.5632 313.587 45.5632ZM320.386 45.0138C320.325 45.0138 320.264 45.0013 320.208 44.9769C320.152 44.9526 320.102 44.9169 320.06 44.8723C320.019 44.8276 319.987 44.7748 319.967 44.7173C319.947 44.6598 319.939 44.5987 319.943 44.5379L320.467 37.5526C320.476 37.4356 320.531 37.327 320.62 37.2504C320.71 37.1739 320.825 37.1357 320.943 37.1441C321.06 37.153 321.169 37.2079 321.245 37.2969C321.322 37.386 321.36 37.5017 321.352 37.6188L320.827 44.6041C320.819 44.7154 320.769 44.8195 320.687 44.8954C320.605 44.9714 320.497 45.0137 320.386 45.0138ZM326.909 45.6026C326.844 45.6026 326.78 45.5885 326.721 45.5612C326.663 45.5339 326.61 45.4941 326.569 45.4445C326.527 45.395 326.497 45.3369 326.48 45.2744C326.463 45.2119 326.46 45.1464 326.472 45.0827L327.651 38.4113C327.673 38.2974 327.739 38.1969 327.835 38.1313C327.931 38.0657 328.048 38.0402 328.163 38.0604C328.277 38.0806 328.379 38.1447 328.447 38.2391C328.514 38.3335 328.542 38.4506 328.524 38.5652L327.345 45.2366C327.327 45.3391 327.273 45.4319 327.193 45.4988C327.114 45.5657 327.013 45.6024 326.909 45.6026Z" fill="#232323"/>
</g>
</g>
<g clip-path="url(#clip4_1584_4881)">
<path d="M160.314 47.0292C158.311 47.0481 156.311 46.8437 154.354 46.4198C151.331 45.7247 149.238 44.4586 148.133 42.6572L149.345 41.9243C150.244 43.39 152.037 44.4403 154.674 45.0468C160.546 46.3976 168.793 45.0325 170.682 43.8348L171.446 45.0226C169.914 45.9936 165.208 47.0292 160.314 47.0292ZM152.95 59.8945C152.352 59.9073 151.756 59.8165 151.189 59.6262C150.767 59.4842 150.383 59.2472 150.068 58.9336C149.753 58.6199 149.515 58.2382 149.373 57.8183L150.716 57.3625C150.788 57.584 150.913 57.7851 151.08 57.9487C151.247 58.1123 151.451 58.2335 151.675 58.3022C155.179 59.5706 165.252 54.2915 168.838 52.1496L169.57 53.3572C169.536 53.3772 166.196 55.3663 162.335 57.1232C158.283 58.9672 155.138 59.8945 152.95 59.8945Z" fill="#232323"/>
<path d="M176.972 38.4142C182.866 34.0509 190.157 29.7817 190.157 29.7817C190.157 29.7817 202.574 41.5407 195.074 54.8302C189.85 64.0867 171.687 67.0314 163.685 57.1886C159.238 51.7189 162.796 48.9084 176.972 38.4142Z" fill="white"/>
<path d="M177.825 64.0149C171.754 64.0149 166.478 61.745 163.133 57.6306C161.602 55.7475 161.01 54.1958 161.213 52.5996C161.67 48.9995 166.246 45.4756 176.548 37.8488C182.405 33.5129 189.723 29.2175 189.796 29.1744C189.93 29.0961 190.085 29.0633 190.239 29.0808C190.392 29.0983 190.536 29.1652 190.648 29.2713C192.885 31.5319 194.719 34.1529 196.072 37.0227C199.008 43.2568 198.878 49.5331 195.695 55.1733C193.021 59.9115 186.833 63.3474 179.93 63.925C179.219 63.9849 178.517 64.0149 177.825 64.0149ZM190.04 30.67C188.327 31.6923 182.332 35.3236 177.396 38.9774C167.689 46.1648 163.005 49.7533 162.621 52.776C162.47 53.9598 162.969 55.1851 164.237 56.7453C167.663 60.9583 173.338 63.0642 179.809 62.5216C186.256 61.9815 192.005 58.8271 194.455 54.4852C197.44 49.196 197.558 43.5352 194.804 37.6608C193.585 35.1029 191.979 32.7456 190.04 30.6711V30.67Z" fill="#232323"/>
</g>
</g>
<defs>
<clipPath id="clip0_1584_4881">
<rect width="378.087" height="233" fill="white" transform="translate(0.0738525)"/>
</clipPath>
<clipPath id="clip1_1584_4881">
<rect width="315.627" height="233.204" fill="white" transform="translate(20.0369 -0.415039)"/>
</clipPath>
<clipPath id="clip2_1584_4881">
<rect width="81.0619" height="112.972" fill="white" transform="translate(276.38 41.6289)"/>
</clipPath>
<clipPath id="clip3_1584_4881">
<rect width="27.676" height="12.0988" fill="white" transform="translate(305.871 35.731)"/>
</clipPath>
<clipPath id="clip4_1584_4881">
<rect width="50.0587" height="34.9352" fill="white" transform="translate(148.133 29.0767)"/>
</clipPath>
</defs>
</svg>
