<svg width="342" height="408" viewBox="0 0 342 408" fill="none" xmlns="http://www.w3.org/2000/svg">
<g clip-path="url(#clip0_1482_2336)">
<path d="M200.405 63.1624C193.759 57.9846 179.703 54.0877 167.95 69.0564C159.489 80.9177 155.57 91.7372 137.093 89.6665L137.184 89.7081C128.839 88.934 120.649 91.7792 116.062 103.852C108.473 122.024 122.641 127.009 106.635 139.996C93.3014 150.814 95.1342 183.105 124.084 190.191C124.084 190.191 146.87 195.667 155.193 175.131C163.517 154.595 174.021 125.154 174.021 125.154L181.935 90.7218C181.935 90.7218 180.853 86.0266 181.263 84.4871C182.501 85.6002 184.096 84.2164 186.679 82.1364C192.524 77.4302 197.615 77.995 199.777 70.9447C203.283 74.9049 207.136 75.5478 207.136 75.5478C206.853 72.7242 204.703 66.4496 200.405 63.1624Z" fill="#232323"/>
<path d="M130.761 191.422C126.853 191.422 124.115 190.779 123.951 190.74C110.786 187.518 101.653 178.631 98.8916 166.357C96.5235 155.834 99.4921 145.064 106.278 139.558C115.153 132.357 114.523 127.906 113.652 121.745C112.979 116.986 112.216 111.593 115.54 103.635C119.518 93.162 126.723 88.2749 136.948 89.1207C137.016 89.1029 137.086 89.0977 137.156 89.1055C144.286 89.9044 149.642 88.8214 154.007 85.6959C157.998 82.8381 160.818 78.6105 164.084 73.7149C165.163 72.0979 166.278 70.4257 167.488 68.7288C167.493 68.7216 167.499 68.7149 167.504 68.7079C172.778 61.9914 179.197 58.2852 186.068 57.9902C193.433 57.6741 198.788 61.187 200.75 62.715C205.388 66.2635 207.434 72.8552 207.698 75.4918C207.707 75.5781 207.695 75.6653 207.665 75.7465C207.634 75.8278 207.585 75.9009 207.522 75.9602C207.458 76.0195 207.382 76.0634 207.299 76.0885C207.216 76.1137 207.128 76.1193 207.042 76.1051C206.887 76.0791 203.411 75.4645 200.008 72.0195C198.462 76.1233 195.77 77.5068 192.685 79.0916C190.97 79.9726 189.027 80.9711 187.034 82.5761L186.7 82.8451C184.66 84.4913 183.084 85.7618 181.732 85.3904C181.723 86.9069 182.242 89.5394 182.486 90.5951C182.505 90.6783 182.505 90.7648 182.486 90.8481L174.571 125.28C174.566 125.302 174.56 125.323 174.552 125.343C174.447 125.638 163.95 155.031 155.717 175.343C151.32 186.19 142.903 189.8 136.616 190.918C134.514 191.292 132.519 191.422 130.761 191.422ZM134.736 90.1568C131.229 90.1568 128.13 90.9253 125.497 92.4512C121.669 94.6703 118.672 98.5736 116.591 104.053C113.38 111.742 114.12 116.973 114.772 121.587C115.66 127.869 116.362 132.831 106.991 140.435C103.845 142.987 101.511 146.792 100.242 151.438C98.9693 156.098 98.8839 161.171 99.9949 166.11C102.659 177.949 111.488 186.526 124.218 189.642C124.272 189.655 129.907 190.972 136.455 189.799C140.275 189.115 143.658 187.728 146.508 185.676C150.068 183.114 152.813 179.495 154.668 174.919C162.773 154.923 173.079 126.107 173.476 124.996L181.355 90.7214C181.158 89.8447 180.308 85.8736 180.715 84.3422C180.74 84.2488 180.789 84.1634 180.856 84.0941C180.924 84.0248 181.008 83.9739 181.101 83.9464C181.194 83.9188 181.292 83.9155 181.386 83.9367C181.481 83.9579 181.568 84.003 181.64 84.0676C182.43 84.7777 183.609 83.8871 185.989 81.9669L186.323 81.6972C188.406 80.0197 190.404 78.9932 192.167 78.0875C195.368 76.4426 197.897 75.1435 199.235 70.7797C199.265 70.6837 199.319 70.5972 199.393 70.5292C199.467 70.4612 199.558 70.4141 199.656 70.3929C199.755 70.3716 199.857 70.3769 199.952 70.4083C200.048 70.4396 200.133 70.4959 200.2 70.5712C202.6 73.2823 205.187 74.3809 206.449 74.7836C205.918 71.9964 203.935 66.5743 200.06 63.6109C200.058 63.6099 200.057 63.6089 200.056 63.6077C196.181 60.5886 190.971 58.9104 186.116 59.1189C179.496 59.4032 173.536 62.8602 168.402 69.395C167.204 71.0738 166.096 72.7349 165.025 74.3412C161.698 79.3286 158.824 83.6359 154.665 86.6138C150.118 89.8701 144.598 91.0309 137.31 90.2587C137.251 90.2723 137.191 90.2764 137.13 90.2707C136.334 90.1957 135.535 90.1577 134.736 90.1568Z" fill="#232323"/>
<path d="M207.737 79.5614C207.736 79.5409 207.732 79.52 207.73 79.4993C207.709 79.3319 207.689 79.168 207.667 79.0082C207.643 78.8165 207.618 78.6249 207.591 78.4334C207.42 77.1837 207.274 76.2882 207.229 75.9947C207.229 75.9885 207.227 75.9791 207.227 75.9727C207.224 75.9542 207.221 75.9355 207.219 75.9168C207.219 75.9121 207.217 75.907 207.216 75.9023C207.215 75.8992 207.215 75.8959 207.215 75.8927C207.212 75.8782 207.211 75.8624 207.208 75.8477C207.208 75.8462 207.206 75.8458 207.207 75.8443L207.207 75.8428C207.205 75.836 207.204 75.829 207.204 75.8219C207.198 75.785 207.193 75.7483 207.186 75.711C203.783 75.0164 201.677 74.2018 199.676 71.604C196.59 78.4794 191.577 77.2665 184.368 84.2072C182.635 85.8754 181.64 84.9494 181.263 84.4871C181.263 84.4871 177.249 79.2179 172.662 80.4803C168.336 81.6711 168.468 88.1881 175.702 92.3325C176.335 92.6744 176.992 92.9718 177.667 93.2225C177.743 95.8424 171.965 109.253 164.997 117.339C169.031 128.132 187.02 126.088 190.684 122.071C189.668 114.564 192.259 104.733 193.269 102.934C196.522 104.411 198.549 104.541 200.553 103.729C205.469 101.737 208.045 92.7832 208.212 87.7028C208.302 84.9557 208.023 81.8825 207.737 79.5614Z" fill="white"/>
<path d="M179.565 125.879C178.057 125.879 176.509 125.747 174.985 125.453C172.535 124.981 170.416 124.131 168.688 122.928C166.71 121.55 165.29 119.736 164.467 117.536C164.432 117.441 164.423 117.339 164.44 117.239C164.458 117.14 164.502 117.047 164.568 116.97C171.256 109.21 176.698 96.7722 177.08 93.601C176.517 93.3751 175.966 93.1173 175.432 92.8288C173.264 91.5871 171.556 90.0397 170.479 88.347C169.495 86.8017 169.056 85.1466 169.241 83.6867C169.476 81.837 170.698 80.4346 172.513 79.9355C174.562 79.3715 176.811 79.9318 179.018 81.5552C180.592 82.7127 181.607 84.0069 181.706 84.1363C181.948 84.4296 182.2 84.5802 182.476 84.5967C182.893 84.6231 183.409 84.3462 183.976 83.8004C187.145 80.7487 189.849 79.2729 192.234 77.971C195.283 76.3065 197.485 75.104 199.16 71.3729C199.2 71.2837 199.262 71.2064 199.341 71.1486C199.42 71.0908 199.513 71.0544 199.61 71.0429C199.707 71.0315 199.806 71.0455 199.896 71.0834C199.986 71.1214 200.065 71.1821 200.125 71.2596C202.016 73.7149 203.945 74.4728 207.3 75.1576C207.409 75.1798 207.508 75.2335 207.587 75.3119C207.665 75.3904 207.719 75.4902 207.741 75.5989C207.748 75.6327 207.753 75.6664 207.758 75.6999L207.763 75.7301C207.764 75.7361 207.765 75.7423 207.765 75.7485L207.766 75.7532C207.768 75.7649 207.77 75.7766 207.772 75.7884L207.775 75.8067C207.778 75.8217 207.78 75.8366 207.782 75.8513C207.787 75.8771 207.791 75.9068 207.793 75.9347L207.819 76.0994C207.88 76.4915 208.009 77.3072 208.153 78.3571C208.178 78.5412 208.203 78.736 208.229 78.9357C208.244 79.0481 208.259 79.165 208.274 79.2838L208.292 79.4278L208.295 79.4489C208.297 79.4707 208.299 79.4867 208.301 79.501C208.692 82.6826 208.853 85.4483 208.778 87.7216C208.683 90.5815 207.882 94.1706 206.687 97.0881C205.619 99.6945 203.725 103.053 200.766 104.253C198.648 105.111 196.526 104.947 193.544 103.673C192.454 106.266 190.322 115.18 191.245 121.996C191.256 122.077 191.249 122.161 191.225 122.239C191.2 122.318 191.158 122.391 191.103 122.452C189.37 124.351 184.695 125.879 179.565 125.879ZM165.647 117.448C167.498 121.973 171.842 123.697 175.2 124.344C181.187 125.499 187.855 124.009 190.088 121.873C189.146 114.234 191.727 104.525 192.776 102.658C192.845 102.535 192.959 102.442 193.093 102.398C193.228 102.354 193.374 102.362 193.503 102.421C196.481 103.772 198.398 103.993 200.34 103.206C202.934 102.155 204.654 99.0664 205.639 96.6606C206.788 93.8589 207.557 90.4194 207.647 87.6845C207.72 85.4674 207.562 82.7577 207.176 79.6304C207.175 79.623 207.175 79.6157 207.174 79.6083L207.17 79.5707L207.151 79.4254C207.137 79.3112 207.122 79.197 207.107 79.0829C207.083 78.8923 207.058 78.7017 207.031 78.5112C206.929 77.7648 206.819 77.0195 206.701 76.2754L206.686 76.1839C203.668 75.5392 201.656 74.7397 199.802 72.6454C198.017 76.1013 195.681 77.377 192.776 78.9625C190.454 80.2303 187.821 81.6676 184.761 84.614C183.949 85.3958 183.157 85.7699 182.409 85.7247C181.994 85.6998 181.382 85.527 180.824 84.8441C180.82 84.8391 180.816 84.8341 180.813 84.829C180.775 84.7797 176.973 79.8798 172.813 81.0249C171.434 81.4044 170.541 82.4266 170.363 83.8292C170.102 85.8909 171.417 89.2267 175.983 91.8429C176.59 92.1693 177.219 92.4536 177.865 92.6938C177.97 92.7331 178.061 92.8029 178.127 92.8943C178.192 92.9856 178.229 93.0944 178.232 93.2066C178.307 95.8093 172.817 108.991 165.647 117.448Z" fill="#232323"/>
<path d="M193.385 78.0908C191.307 78.9995 190.324 80.9648 190.889 81.9036C191.454 82.8424 193.558 82.7658 195.432 81.4908C197.359 80.1798 198.477 78.5016 197.928 77.6778C197.358 76.8238 195.446 77.1888 193.385 78.0908Z" fill="#232323"/>
<mask id="mask0_1482_2336" style="mask-type:luminance" maskUnits="userSpaceOnUse" x="164" y="59" width="45" height="67">
<path d="M200.552 103.729C198.549 104.541 196.522 104.411 193.269 102.934C192.259 104.733 189.667 114.564 190.684 122.071C187.02 126.088 169.031 128.133 164.997 117.339C171.973 109.244 177.756 95.8112 177.666 93.2132L172.519 82.3138C172.377 82.0606 172.242 81.8031 172.116 81.5416C171.456 80.1877 171.005 78.7419 170.778 77.2534C169.442 68.5836 175.115 61.9319 186.113 60.8647C186.259 60.8527 186.532 60.3116 186.679 60.3C186.911 62.8656 187.612 59.7362 187.622 59.7352C189.909 59.5381 190.867 59.912 193.089 60.4882C198.07 61.8302 201.682 63.5664 203.836 68.2064C204.706 70.144 206.428 72.0005 206.879 74.0757C207.001 74.6171 207.103 75.1626 207.186 75.7112C207.193 75.7485 207.198 75.7852 207.204 75.8221C207.204 75.8293 207.205 75.8362 207.207 75.843L207.207 75.8445C207.206 75.846 207.208 75.8464 207.208 75.8479C207.211 75.8626 207.212 75.8784 207.215 75.8929C207.215 75.8961 207.215 75.8994 207.216 75.9025C207.217 75.9072 207.219 75.9123 207.219 75.917C207.221 75.9358 207.223 75.9545 207.227 75.9729C207.227 75.9793 207.228 75.9887 207.229 75.9949C207.274 76.2884 207.421 77.1839 207.591 78.4337C207.617 78.6176 207.642 78.8106 207.667 79.0084C207.689 79.1682 207.709 79.3322 207.73 79.4995C207.732 79.5201 207.736 79.5409 207.737 79.5615C208.023 81.8826 208.302 84.9557 208.212 87.7032C208.044 92.7834 205.468 101.737 200.552 103.729Z" fill="white"/>
</mask>
<g mask="url(#mask0_1482_2336)">
<path d="M208.098 79.6327C207.726 79.5909 207.357 79.5248 206.993 79.4346C204.461 78.8134 202.519 77.6241 202.622 76.7171C202.729 75.7764 204.817 75.3726 207.265 75.5835C207.567 75.6064 207.871 75.6497 208.173 75.713C208.175 75.7516 208.173 75.7886 208.174 75.8265C208.172 75.8339 208.172 75.8415 208.173 75.8491L208.173 75.8988C208.172 75.9019 208.172 75.9052 208.173 75.9084C208.173 75.9131 208.174 75.9187 208.174 75.9236C208.172 75.9424 208.172 75.9614 208.173 75.9806C208.172 75.9869 208.171 75.9965 208.17 76.0025C208.168 76.3024 208.172 77.2201 208.138 78.4896C208.129 78.8268 208.116 79.189 208.102 79.5702C208.1 79.5907 208.1 79.6125 208.098 79.6327Z" fill="#232323"/>
</g>
<path d="M201.363 93.9964C201.131 94.2081 200.856 94.3667 200.556 94.461C200.266 94.5543 199.962 94.6014 199.657 94.6005C199.039 94.6059 198.432 94.433 197.909 94.1025C197.651 93.9301 197.419 93.7219 197.219 93.4842C197.023 93.2445 196.864 92.9761 196.75 92.6882C196.511 92.1149 196.492 91.4737 196.697 90.8875C196.728 90.8054 196.787 90.7367 196.864 90.6934C196.94 90.6501 197.029 90.6348 197.116 90.6503C197.202 90.6658 197.281 90.7111 197.337 90.7782C197.394 90.8453 197.425 90.9301 197.426 91.0179L197.426 91.0441C197.427 91.4626 197.533 91.8743 197.734 92.2411C197.833 92.4193 197.953 92.5845 198.092 92.7329C198.228 92.8831 198.383 93.0152 198.553 93.1259C198.903 93.3447 199.298 93.4824 199.708 93.529C200.121 93.5882 200.542 93.5401 200.931 93.3889L200.958 93.3776C201.039 93.3439 201.13 93.3395 201.214 93.3654C201.298 93.3912 201.37 93.4456 201.418 93.5191C201.466 93.5926 201.487 93.6806 201.477 93.7677C201.467 93.8549 201.426 93.9358 201.363 93.9964ZM193.348 84.5678C194.3 84.3933 196.594 84.0275 198.737 83.0104C198.808 82.9766 198.885 82.9571 198.964 82.953C199.042 82.9489 199.121 82.9603 199.195 82.9865C199.269 83.0127 199.337 83.0532 199.396 83.1057C199.454 83.1583 199.502 83.2218 199.536 83.2926L199.538 83.2985C199.902 84.0754 200.266 85.4336 198.717 85.9394C196.814 86.561 193.789 85.8874 193.153 85.0508C193.122 85.0087 193.103 84.9595 193.097 84.9078C193.09 84.8562 193.097 84.8037 193.117 84.7554C193.136 84.7071 193.168 84.6645 193.208 84.6317C193.249 84.5989 193.297 84.5769 193.348 84.5678ZM207.048 81.1986C206.193 81.4589 204.979 81.6148 203.156 81.7938C203.077 81.8067 203.001 81.8357 202.934 81.8791C202.867 81.9224 202.81 81.9791 202.766 82.0455C202.722 82.112 202.692 82.1869 202.678 82.2655C202.664 82.3441 202.667 82.4246 202.685 82.5022C202.859 83.3421 203.344 84.5302 204.924 84.1307C206.504 83.7314 207.411 82.5155 207.494 81.4689C207.512 81.2441 207.265 81.1325 207.048 81.1986Z" fill="#232323"/>
<mask id="mask1_1482_2336" style="mask-type:luminance" maskUnits="userSpaceOnUse" x="166" y="57" width="43" height="67">
<path d="M200.552 103.729C198.549 104.541 196.522 104.411 193.269 102.935C192.259 104.733 189.615 114.087 190.632 121.595C186.173 124.976 169.486 123.86 166.023 114.739C174.137 105.944 177.756 95.8114 177.667 93.2134L172.519 82.3141C171.639 80.7454 171.049 79.031 170.778 77.2532C169.442 68.5835 175.575 59.0267 186.573 57.9594C186.719 57.9473 186.866 57.934 187.013 57.9223C187.022 57.9213 187.034 57.9206 187.043 57.9195C189.331 57.7223 191.635 57.916 193.858 58.4921C198.839 59.8341 202.738 63.3999 204.892 68.0398C205.762 69.9775 206.428 72.0003 206.879 74.0756C207.009 74.6536 207.117 75.2361 207.204 75.822C207.204 75.8299 207.214 75.8924 207.22 75.9169C207.221 75.9357 207.224 75.9543 207.228 75.9728C207.228 75.9792 207.229 75.9886 207.229 75.9948C207.274 76.2883 207.421 77.1838 207.592 78.4335C207.636 78.7658 207.682 79.1231 207.731 79.4994C208.019 81.8288 208.304 84.9311 208.212 87.7025C208.044 92.7835 205.468 101.737 200.552 103.729Z" fill="white"/>
</mask>
<g mask="url(#mask1_1482_2336)">
<path d="M192.453 108.846C193.836 106.778 193.505 104.114 193.269 102.934C191.732 101.94 192.026 102.169 190.293 100.897C189.414 100.252 188.44 99.1227 187.527 99.7677C186.416 100.552 186.4 105.469 192.453 108.846Z" fill="#232323"/>
<path d="M192.453 109.411C192.359 109.411 192.264 109.388 192.177 109.339C187.038 106.472 186.455 102.783 186.399 101.72C186.34 100.605 186.639 99.7029 187.2 99.3068C188.292 98.5365 189.359 99.4137 190.139 100.055C190.311 100.195 190.472 100.328 190.627 100.442C192 101.449 192.08 101.5 192.842 101.988C193.034 102.111 193.269 102.261 193.576 102.46C193.64 102.501 193.694 102.555 193.737 102.617C193.779 102.679 193.809 102.75 193.824 102.824C194.111 104.258 194.376 106.988 192.924 109.16C192.872 109.237 192.802 109.301 192.72 109.344C192.637 109.388 192.546 109.411 192.453 109.411ZM188.117 100.143C188.021 100.143 187.935 100.171 187.853 100.229C187.704 100.334 187.484 100.816 187.528 101.66C187.575 102.544 188.06 105.545 192.252 108.077C193.111 106.43 192.97 104.472 192.758 103.277C192.583 103.164 192.407 103.051 192.231 102.939C191.459 102.444 191.36 102.381 189.958 101.352C189.777 101.22 189.596 101.071 189.42 100.926C188.793 100.411 188.41 100.143 188.117 100.143Z" fill="#232323"/>
</g>
<path d="M202.19 89.693C202.114 89.6769 202.047 89.6352 201.998 89.575C201.95 89.5149 201.924 89.4398 201.925 89.3627C201.926 89.2856 201.953 89.2111 202.003 89.1518C202.052 89.0926 202.12 89.0523 202.196 89.0377C202.955 88.8903 203.966 88.085 204.061 87.5515C204.079 87.4481 204.07 87.337 203.883 87.2235C202.902 86.6487 202.185 85.7129 201.887 84.6169C201.869 84.5301 201.886 84.4396 201.935 84.3654C201.983 84.2911 202.059 84.2392 202.146 84.221C202.233 84.2028 202.324 84.2198 202.398 84.2683C202.472 84.3168 202.524 84.3928 202.543 84.4796C202.808 85.3911 203.411 86.1676 204.229 86.6515C204.41 86.7456 204.555 86.8954 204.644 87.0787C204.732 87.262 204.759 87.4688 204.72 87.6685C204.566 88.539 203.273 89.5098 202.325 89.6943C202.28 89.7029 202.234 89.7024 202.19 89.693Z" fill="#232323"/>
<path d="M202.26 89.7943C202.196 89.7943 202.133 89.78 202.075 89.7525C202.017 89.725 201.967 89.6849 201.926 89.6353C201.886 89.5856 201.857 89.5276 201.842 89.4654C201.828 89.4033 201.827 89.3386 201.84 89.2761C201.858 89.1938 201.899 89.1185 201.959 89.0596C202.019 89.0007 202.095 88.9608 202.178 88.945C202.893 88.8062 203.88 88.0286 203.968 87.5348C203.978 87.4746 203.992 87.3994 203.833 87.304C202.83 86.7187 202.098 85.7621 201.796 84.6414C201.784 84.5859 201.783 84.5285 201.793 84.4726C201.804 84.4168 201.825 84.3635 201.856 84.316C201.888 84.2685 201.928 84.2278 201.975 84.196C202.023 84.1643 202.076 84.1423 202.131 84.1313C202.241 84.1102 202.355 84.1326 202.449 84.1938C202.543 84.255 202.609 84.3501 202.634 84.4592C202.893 85.3459 203.48 86.1008 204.277 86.5702C204.677 86.7786 204.899 87.2385 204.812 87.686C204.653 88.5888 203.32 89.5959 202.342 89.7862C202.315 89.7916 202.288 89.7944 202.26 89.7943ZM202.215 84.3114C202.175 84.3115 202.136 84.3213 202.102 84.3399C202.067 84.3585 202.037 84.3853 202.015 84.418C201.998 84.4442 201.985 84.4736 201.979 84.5046C201.973 84.5355 201.973 84.5674 201.98 84.5983C202.271 85.6708 202.965 86.5764 203.93 87.1421C204.17 87.2867 204.175 87.4454 204.154 87.5675C204.052 88.1415 203.019 88.9736 202.215 89.1296C202.182 89.1343 202.151 89.1455 202.124 89.1625C202.096 89.1795 202.072 89.2019 202.053 89.2285C202.034 89.2551 202.021 89.2852 202.014 89.317C202.007 89.3488 202.007 89.3817 202.013 89.4137C202.019 89.4456 202.032 89.476 202.05 89.5029C202.068 89.5299 202.092 89.5528 202.119 89.5704C202.147 89.5879 202.178 89.5997 202.21 89.605C202.242 89.6104 202.275 89.6091 202.307 89.6014C203.228 89.4222 204.48 88.4873 204.628 87.6517C204.662 87.4717 204.637 87.2855 204.558 87.1204C204.478 86.9553 204.348 86.82 204.186 86.7344C203.344 86.2393 202.724 85.442 202.452 84.5055C202.441 84.451 202.411 84.4021 202.367 84.3669C202.324 84.3316 202.27 84.312 202.215 84.3114Z" fill="#232323"/>
<path d="M178.19 81.1915C178.19 81.1915 180.269 82.7013 181.263 84.4872C182.043 79.1379 190.2 64.6323 200.81 63.4549C201.625 62.677 198.58 58.8793 194.887 59.9C191.281 60.8964 180.956 65.9721 178.19 81.1915Z" fill="white"/>
<path d="M181.262 85.0518C181.162 85.0518 181.063 85.0249 180.976 84.9738C180.889 84.9227 180.817 84.8494 180.768 84.7614C179.846 83.1038 177.877 81.6626 177.857 81.6483C177.771 81.5858 177.704 81.5003 177.665 81.4017C177.625 81.3031 177.614 81.1953 177.633 81.0907C178.848 74.4072 181.605 68.929 185.828 64.8082C189.796 60.9366 193.649 59.6559 194.736 59.3555C197.668 58.5451 200.267 60.4311 201.175 62.029C201.794 63.1161 201.399 63.6737 201.201 63.8627C201.112 63.9483 200.996 64.002 200.873 64.0157C190.889 65.1237 182.634 79.0049 181.822 84.5682C181.803 84.7025 181.735 84.8253 181.633 84.9142C181.53 85.003 181.398 85.0518 181.262 85.0518ZM178.809 80.9544C179.271 81.3196 180.2 82.1061 180.988 83.0875C181.748 80.3202 183.741 76.1165 186.904 72.0597C192.077 65.4234 197.006 63.4186 200.352 62.9436C200.274 62.6854 200.017 62.1967 199.406 61.6353C198.935 61.2027 197.229 59.8385 195.037 60.4443C192.934 61.0256 189.618 62.6895 186.619 65.6162C182.638 69.5003 180.012 74.6592 178.809 80.9544ZM179.387 89.127C179.279 89.127 179.172 89.0957 179.081 89.0368C178.989 88.9779 178.917 88.8939 178.872 88.7949C177.083 84.8483 173.75 84.7787 173.609 84.7777C173.459 84.7767 173.316 84.7166 173.21 84.6104C173.105 84.5043 173.046 84.3608 173.046 84.2113C173.046 84.0621 173.106 83.919 173.211 83.8135C173.317 83.7079 173.46 83.6485 173.61 83.6482H173.611C173.795 83.6482 177.806 83.7051 179.902 88.3292C179.942 88.4152 179.958 88.5096 179.951 88.6038C179.944 88.698 179.914 88.7889 179.863 88.8682C179.811 88.9476 179.741 89.0129 179.658 89.0581C179.575 89.1033 179.482 89.127 179.387 89.127Z" fill="#232323"/>
<path d="M177.667 93.2134C177.667 93.2134 178.415 93.5048 179.554 93.5048L177.667 93.2134Z" fill="white"/>
<path d="M179.554 94.0693C178.323 94.0693 177.496 93.7527 177.461 93.7392C177.322 93.6845 177.21 93.577 177.15 93.4402C177.09 93.3034 177.087 93.1484 177.141 93.0092C177.195 92.87 177.303 92.7579 177.439 92.6974C177.576 92.6369 177.731 92.6329 177.871 92.6863C177.887 92.6923 178.556 92.9399 179.554 92.9399C179.704 92.9399 179.848 92.9994 179.954 93.1053C180.06 93.2112 180.12 93.3548 180.12 93.5046C180.12 93.6544 180.06 93.798 179.954 93.9039C179.848 94.0098 179.704 94.0693 179.554 94.0693ZM151.101 187.359C139.655 184.725 126.507 185.995 122.559 192.816C117.674 202.803 141.233 220.1 212.889 192.664C212.889 192.664 191.938 196.757 151.101 187.359Z" fill="#232323"/>
<path d="M148.858 208.01C137.032 208.01 127.926 205.422 123.705 200.818C121.347 198.246 120.744 195.239 122.051 192.568C122.057 192.557 122.063 192.545 122.069 192.534C126.238 185.33 139.893 184.2 151.227 186.809C172.202 191.636 187.795 192.823 197.184 192.969C207.349 193.127 212.564 192.152 212.781 192.11C212.92 192.083 213.063 192.109 213.184 192.183C213.305 192.257 213.393 192.373 213.432 192.509C213.471 192.645 213.458 192.79 213.394 192.917C213.331 193.043 213.223 193.141 213.091 193.192C188.445 202.628 167.476 207.606 150.765 207.988C150.129 208.003 149.494 208.01 148.858 208.01ZM123.059 193.081C121.978 195.309 122.517 197.85 124.539 200.055C128.765 204.663 138.32 207.142 150.739 206.859C166.317 206.503 185.656 202.11 208.276 193.792C199.975 194.478 180.809 194.775 150.973 187.91C145.156 186.571 139.167 186.283 134.108 187.1C127.209 188.213 124.292 190.963 123.059 193.081ZM107.012 119.665C118.127 110.732 115.647 95.5694 113.95 89.7337C110.368 80.3213 89.6622 98.2683 96.6423 140.372C96.6423 140.372 94.9777 131.507 107.012 119.665Z" fill="#232323"/>
<path d="M96.6417 140.937C96.5099 140.937 96.3823 140.891 96.2809 140.807C96.1795 140.723 96.1107 140.606 96.0865 140.476C96.0806 140.446 96.0754 140.415 96.071 140.384C90.5691 107.056 102.271 88.8436 109.462 86.9059C111.745 86.2911 113.619 87.2734 114.479 89.5331C114.484 89.5472 114.489 89.5617 114.493 89.5762C115.108 91.6912 116.471 97.2908 115.848 103.593C115.158 110.571 112.312 116.12 107.389 120.087C104.03 123.396 99.6625 128.581 97.8833 134.53C96.8791 137.887 97.1583 140.009 97.1951 140.248L97.2004 140.28C97.2138 140.361 97.2094 140.444 97.1875 140.523C97.1657 140.602 97.1268 140.675 97.0736 140.738C97.0204 140.8 96.9543 140.851 96.8797 140.885C96.8051 140.919 96.7239 140.937 96.6417 140.937ZM110.774 87.8513C110.455 87.8513 110.116 87.8993 109.756 87.9963C105.351 89.1833 101.179 96.1186 98.9996 102.465C96.7513 109.011 94.6306 119.823 96.4864 135.294C97.41 131.475 99.9487 125.822 106.615 119.263C106.628 119.25 106.642 119.237 106.657 119.225C111.349 115.454 114.062 110.158 114.722 103.482C115.324 97.3973 114.013 91.9822 113.413 89.9132C112.888 88.5506 111.986 87.8513 110.774 87.8513Z" fill="#232323"/>
<path d="M108.57 144.957C94.1059 140.99 81.8795 134.643 75.673 123.944C60.6656 98.075 66.0145 57.9064 67.0573 42.5779C67.2313 40.0196 67.6851 37.0297 68.0839 34.9976C69.741 26.5543 72.8168 23.2191 76.1901 24.4081C77.5429 22.5491 81.1246 22.6118 82.411 24.5173C84.1308 23.2295 87.514 23.8537 88.6021 26.3203C91.2578 25.4256 93.8472 28.295 93.8074 30.5538C97.6403 37.7755 90.0204 42.1606 87.9829 45.3864C88.0051 45.7904 88.2508 53.667 91.7382 65.5415C93.4664 71.4255 98.5454 84.707 102.921 98.9835L138.918 121.702L118.046 136.989C118.046 136.989 125.533 149.61 108.57 144.957Z" fill="white"/>
<path d="M114.816 146.543C113.085 146.543 110.95 146.196 108.42 145.502C91.7 140.916 80.8284 133.957 75.1839 124.227C69.3358 114.147 65.9027 100.66 64.9794 84.1421C64.2056 70.3004 65.3178 56.9456 66.0539 48.1085C66.2311 45.9781 66.3846 44.1381 66.4932 42.5399C66.6753 39.8632 67.1478 36.8328 67.529 34.8892C68.6422 29.2186 70.4697 25.5142 72.8147 24.1769C73.8198 23.6037 74.8887 23.4635 75.9971 23.7577C76.7722 22.9322 77.9965 22.4635 79.3357 22.4867C80.6291 22.5094 81.7856 22.9816 82.5358 23.773C83.4845 23.2717 84.7102 23.1568 85.9226 23.4738C87.2186 23.8129 88.2791 24.5973 88.8983 25.6583C89.989 25.4425 91.1236 25.7217 92.1427 26.4658C93.4562 27.425 94.3374 28.9942 94.3727 30.414C97.3588 36.2016 93.4443 40.2651 90.5812 43.2381C89.7829 44.067 89.0259 44.8529 88.557 45.5427C88.662 47.7 89.2333 55.003 92.2818 65.3824C93.0082 67.856 94.3082 71.5816 95.9544 76.2984C98.1546 82.6033 100.889 90.4382 103.401 98.6179L139.221 121.224C139.299 121.273 139.363 121.341 139.409 121.421C139.455 121.5 139.481 121.59 139.484 121.682C139.487 121.774 139.468 121.865 139.428 121.948C139.387 122.031 139.327 122.103 139.253 122.157L118.782 137.152C119.483 138.49 121.285 142.454 119.468 144.83C118.595 145.971 117.038 146.543 114.816 146.543ZM108.72 144.413C113.934 145.843 117.339 145.751 118.568 144.146C120.272 141.92 117.587 137.323 117.56 137.277C117.488 137.157 117.464 137.014 117.493 136.876C117.521 136.739 117.599 136.617 117.712 136.534L137.915 121.737L102.619 99.4609C102.505 99.3887 102.42 99.278 102.38 99.1488C99.8577 90.9171 97.1009 83.0175 94.8857 76.6701C93.2345 71.9385 91.9304 68.2011 91.196 65.7006C88.0579 55.0158 87.5138 47.5253 87.4214 45.4839L87.4184 45.4177C87.4119 45.3006 87.4421 45.1845 87.5048 45.0854C88.0233 44.2643 88.8694 43.3857 89.7654 42.4554C92.5571 39.5569 96.0311 35.9497 93.3078 30.8185C93.263 30.734 93.2403 30.6396 93.2418 30.544C93.2613 29.4535 92.5342 28.1516 91.4745 27.3775C90.9746 27.0123 89.9605 26.4591 88.7829 26.8555C88.649 26.9006 88.5031 26.894 88.3739 26.8371C88.2447 26.7801 88.1414 26.677 88.0845 26.5479C87.6596 25.5845 86.767 24.8622 85.6356 24.5662C84.5626 24.2856 83.4572 24.4399 82.7506 24.9689C82.6892 25.0148 82.6192 25.0478 82.5447 25.0659C82.4702 25.084 82.3928 25.0867 82.3172 25.074C82.2416 25.0613 82.1694 25.0333 82.1049 24.9919C82.0405 24.9504 81.9851 24.8963 81.9423 24.8328C81.4487 24.1016 80.4423 23.6353 79.3156 23.6156C78.196 23.5954 77.167 24.0265 76.6479 24.74C76.5763 24.8385 76.4747 24.9113 76.3583 24.9474C76.2419 24.9835 76.1169 24.9811 76.002 24.9405C75.0815 24.6159 74.1975 24.6888 73.3754 25.1573C71.3539 26.3102 69.6718 29.8434 68.6391 35.106C68.2643 37.0158 67.8001 39.9916 67.6218 42.6162C67.5124 44.2229 67.3588 46.0667 67.1812 48.2018C66.4478 57.0081 65.3395 70.3158 66.1088 84.0792C67.022 100.418 70.4046 113.736 76.1626 123.661C81.651 133.122 92.3005 139.91 108.72 144.413Z" fill="#232323"/>
<mask id="mask2_1482_2336" style="mask-type:luminance" maskUnits="userSpaceOnUse" x="65" y="23" width="77" height="129">
<path d="M141.753 151.463C141.753 151.463 89.8056 148.306 75.6731 123.944C60.6657 98.0755 66.0146 57.9068 67.0574 42.5784C67.2314 40.0201 67.6852 37.0302 68.084 34.9981C69.7411 26.5548 72.8169 23.2196 76.1903 24.4086C77.543 22.5496 81.1247 22.6123 82.4111 24.5178C84.131 23.23 87.5141 23.8542 88.6022 26.3208C91.2579 25.426 93.8473 28.2955 93.8076 30.5543C97.6404 37.776 90.0206 42.1611 87.983 45.3869C88.0053 45.7909 88.2509 53.6675 91.7383 65.542C93.4665 71.426 98.5456 84.7075 102.921 98.984L138.918 121.702L118.046 136.99L141.753 151.463Z" fill="white"/>
</mask>
<g mask="url(#mask2_1482_2336)">
<path d="M84.9396 48.0435C84.8097 48.0438 84.6836 47.9993 84.5827 47.9177C84.4817 47.836 84.412 47.7222 84.3852 47.5952C84.3584 47.4683 84.3762 47.336 84.4356 47.2207C84.495 47.1053 84.5923 47.0138 84.7113 46.9617C86.9981 45.9561 88.019 44.3818 88.029 44.3659C88.0689 44.3033 88.1207 44.2492 88.1815 44.2066C88.2423 44.1639 88.3109 44.1337 88.3834 44.1176C88.4559 44.1014 88.5309 44.0997 88.604 44.1125C88.6772 44.1253 88.7471 44.1523 88.8098 44.1921C88.8726 44.2319 88.9268 44.2836 88.9695 44.3443C89.0122 44.405 89.0425 44.4735 89.0586 44.5459C89.0748 44.6183 89.0765 44.6932 89.0637 44.7662C89.0509 44.8393 89.0238 44.9091 88.984 44.9717C88.9353 45.048 87.7652 46.8531 85.1674 47.9954C85.0956 48.0271 85.0181 48.0435 84.9396 48.0435ZM81.3887 40.315C81.2822 40.315 81.1779 40.285 81.0878 40.2284C80.9977 40.1718 80.9253 40.091 80.8792 39.9952C80.833 39.8994 80.8149 39.7926 80.8268 39.6869C80.8388 39.5813 80.8803 39.4812 80.9467 39.3981C82.6078 37.3189 85.2543 35.2284 87.4304 34.2232C84.6246 31.452 85.1361 29.9093 85.7307 29.2162C87.1887 27.5174 91.9542 28.0537 95.9134 31.291C95.9717 31.3377 96.0203 31.3955 96.0561 31.461C96.092 31.5265 96.1145 31.5985 96.1223 31.6728C96.1301 31.7471 96.1231 31.8221 96.1017 31.8937C96.0802 31.9652 96.0448 32.0318 95.9974 32.0896C95.95 32.1474 95.8916 32.1952 95.8256 32.2303C95.7596 32.2654 95.6873 32.2871 95.6128 32.2941C95.5383 32.3011 95.4632 32.2933 95.3918 32.2711C95.3204 32.2489 95.2541 32.2128 95.1967 32.1649C91.6733 29.2843 87.5465 28.8357 86.5899 29.9509C86.1131 30.5066 86.453 31.8605 88.8375 33.9937C88.9108 34.0594 88.9657 34.1432 88.9967 34.2366C89.0277 34.33 89.0337 34.4299 89.0141 34.5264C88.9945 34.6228 88.9501 34.7125 88.8852 34.7866C88.8202 34.8606 88.737 34.9164 88.6438 34.9485C86.5264 35.6755 83.5974 37.8914 81.8312 40.1025C81.7782 40.1689 81.7109 40.2225 81.6343 40.2593C81.5576 40.2961 81.4737 40.3152 81.3887 40.315Z" fill="#232323"/>
</g>
<mask id="mask3_1482_2336" style="mask-type:luminance" maskUnits="userSpaceOnUse" x="65" y="23" width="77" height="129">
<path d="M141.753 151.463C141.753 151.463 89.8056 148.306 75.6731 123.944C60.6657 98.0755 66.0146 57.9068 67.0574 42.5784C67.2314 40.0201 67.6852 37.0302 68.084 34.9981C69.7411 26.5548 72.8169 23.2196 76.1903 24.4086C77.543 22.5496 81.1247 22.6123 82.4111 24.5178C84.131 23.23 87.5141 23.8542 88.6022 26.3208C91.2579 25.426 93.8473 28.2955 93.8076 30.5543C97.6404 37.776 90.0206 42.1611 87.983 45.3869C88.0053 45.7909 88.2509 53.6675 91.7383 65.542C93.4665 71.426 98.5456 84.7075 102.921 98.984L138.918 121.702L118.046 136.99L141.753 151.463Z" fill="white"/>
</mask>
<g mask="url(#mask3_1482_2336)">
<path d="M88.9407 29.1513C88.8607 29.1514 88.7817 29.1345 88.7088 29.1019C88.6358 29.0692 88.5706 29.0215 88.5175 28.9619C88.4644 28.9023 88.4245 28.8321 88.4005 28.756C88.3765 28.6799 88.3689 28.5995 88.3783 28.5203C88.6543 26.1819 87.0862 25.2672 85.7033 24.4602C85.1022 24.1096 84.5835 23.8069 84.2598 23.4048C84.1658 23.2881 84.1221 23.1389 84.1383 22.99C84.1545 22.8411 84.2292 22.7047 84.3462 22.6108C84.4631 22.517 84.6125 22.4733 84.7617 22.4895C84.9108 22.5056 85.0474 22.5803 85.1414 22.697C85.3343 22.9367 85.7907 23.203 86.274 23.4849C87.7038 24.319 89.8645 25.5797 89.5019 28.6522C89.4857 28.7896 89.4196 28.9162 89.3162 29.0082C89.2128 29.1001 89.0792 29.151 88.9407 29.1513ZM84.4706 36.8917C83.9719 36.8917 83.476 36.735 83.0762 36.4256C82.3904 35.8945 82.1587 35.0406 82.4562 34.1415C85.0839 26.2037 79.8981 22.3717 79.8453 22.3341C79.785 22.2908 79.7338 22.2361 79.6946 22.1731C79.6555 22.1101 79.6291 22.04 79.6171 21.9668C79.6051 21.8936 79.6076 21.8188 79.6245 21.7465C79.6415 21.6743 79.6725 21.6061 79.7158 21.5459C79.7591 21.4857 79.8139 21.4345 79.8771 21.3954C79.9402 21.3563 80.0104 21.33 80.0837 21.318C80.157 21.306 80.232 21.3085 80.3043 21.3254C80.3766 21.3423 80.4449 21.3733 80.5052 21.4166C80.5669 21.4608 82.0309 22.5263 83.1335 24.6812C84.1433 26.6546 85.0319 29.9594 83.5302 34.4958C83.3835 34.9393 83.466 35.298 83.7694 35.5329C84.1342 35.8154 84.7098 35.8354 85.1086 35.5801C85.1711 35.5401 85.2409 35.5127 85.314 35.4996C85.3872 35.4865 85.4621 35.4878 85.5347 35.5036C85.6073 35.5195 85.676 35.5494 85.737 35.5917C85.798 35.6341 85.8501 35.688 85.8902 35.7504C85.9303 35.8128 85.9577 35.8825 85.9709 35.9555C85.984 36.0285 85.9826 36.1034 85.9668 36.1759C85.951 36.2483 85.921 36.317 85.8786 36.3779C85.8362 36.4388 85.7822 36.4907 85.7197 36.5308C85.3431 36.7721 84.9059 36.8917 84.4706 36.8917Z" fill="#232323"/>
</g>
<mask id="mask4_1482_2336" style="mask-type:luminance" maskUnits="userSpaceOnUse" x="65" y="23" width="77" height="129">
<path d="M141.753 151.463C141.753 151.463 89.8056 148.306 75.6731 123.944C60.6657 98.0755 66.0146 57.9068 67.0574 42.5784C67.2314 40.0201 67.6852 37.0302 68.084 34.9981C69.7411 26.5548 72.8169 23.2196 76.1903 24.4086C77.543 22.5496 81.1247 22.6123 82.4111 24.5178C84.131 23.23 87.5141 23.8542 88.6022 26.3208C91.2579 25.426 93.8473 28.2955 93.8076 30.5543C97.6404 37.776 90.0206 42.1611 87.983 45.3869C88.0053 45.7909 88.2509 53.6675 91.7383 65.542C93.4665 71.426 98.5456 84.7075 102.921 98.984L138.918 121.702L118.046 136.99L141.753 151.463Z" fill="white"/>
</mask>
<g mask="url(#mask4_1482_2336)">
<path d="M80.9295 36.3245C80.7334 36.325 80.538 36.3037 80.3467 36.2609C79.1117 35.9813 78.4556 34.9356 78.6747 33.5966C79.2433 30.1236 78.8191 27.5687 77.4138 26.0027C75.8506 24.2605 73.5404 24.3602 73.5151 24.3614C73.2088 24.3791 72.9375 24.1394 72.9201 23.8288C72.9116 23.6797 72.9626 23.5333 73.0621 23.4217C73.1616 23.3102 73.3013 23.2426 73.4507 23.2338C73.5679 23.2272 76.3087 23.0922 78.2443 25.2356C79.8985 27.0678 80.4191 29.9422 79.7911 33.7788C79.6265 34.7841 80.2253 35.0751 80.5967 35.1593C81.2994 35.3187 82.2098 34.9821 82.4498 34.1604C82.4706 34.0892 82.5053 34.0228 82.5518 33.965C82.5983 33.9071 82.6557 33.859 82.7209 33.8234C82.786 33.7877 82.8575 33.7652 82.9314 33.7571C83.0052 33.7491 83.0799 33.7556 83.1512 33.7764C83.2225 33.7972 83.289 33.8317 83.3469 33.8782C83.4049 33.9246 83.4531 33.982 83.4888 34.047C83.5245 34.112 83.547 34.1834 83.5551 34.2572C83.5632 34.3309 83.5566 34.4055 83.5358 34.4767C83.1778 35.7025 82.0088 36.3245 80.9295 36.3245Z" fill="#232323"/>
</g>
<mask id="mask5_1482_2336" style="mask-type:luminance" maskUnits="userSpaceOnUse" x="65" y="23" width="77" height="129">
<path d="M141.753 151.463C141.753 151.463 89.8056 148.306 75.6731 123.944C60.6657 98.0755 66.0146 57.9068 67.0574 42.5784C67.2314 40.0201 67.6852 37.0302 68.084 34.9981C69.7411 26.5548 72.8169 23.2196 76.1903 24.4086C77.543 22.5496 81.1247 22.6123 82.4111 24.5178C84.131 23.23 87.5141 23.8542 88.6022 26.3208C91.2579 25.426 93.8473 28.2955 93.8076 30.5543C97.6404 37.776 90.0206 42.1611 87.983 45.3869C88.0053 45.7909 88.2509 53.6675 91.7383 65.542C93.4665 71.426 98.5456 84.7075 102.921 98.984L138.918 121.702L118.046 136.99L141.753 151.463Z" fill="white"/>
</mask>
<g mask="url(#mask5_1482_2336)">
<path d="M77.1997 35.8852C76.2047 35.8852 75.3245 35.2271 74.7607 34.0501C74.6352 33.7881 74.5311 33.4078 74.3995 32.9265C74.1229 31.9156 73.7049 30.388 72.9012 29.6753C72.8448 29.6263 72.7987 29.5666 72.7655 29.4997C72.7324 29.4328 72.7129 29.36 72.7081 29.2855C72.7033 29.211 72.7133 29.1364 72.7376 29.0658C72.7619 28.9952 72.8 28.9301 72.8496 28.8743C72.8992 28.8185 72.9595 28.7731 73.0268 28.7406C73.0941 28.7082 73.1672 28.6894 73.2419 28.6854C73.3165 28.6814 73.3912 28.6921 73.4617 28.7171C73.5321 28.742 73.5969 28.7807 73.6523 28.8308C74.7077 29.7666 75.1602 31.4211 75.4906 32.6291C75.598 33.0218 75.6995 33.3926 75.7811 33.5632C76.0592 34.1435 76.5532 34.8195 77.3064 34.751C77.9129 34.6953 78.5193 34.164 78.6867 33.5415C78.706 33.4699 78.7392 33.4027 78.7845 33.3439C78.8297 33.2851 78.8862 33.2358 78.9505 33.1988C79.0149 33.1617 79.0859 33.1377 79.1596 33.1281C79.2333 33.1185 79.3081 33.1234 79.3798 33.1427C79.4516 33.162 79.5188 33.1951 79.5777 33.2403C79.6366 33.2855 79.686 33.3419 79.7231 33.4062C79.7602 33.4704 79.7842 33.5414 79.7939 33.6149C79.8035 33.6884 79.7985 33.7632 79.7793 33.8348C79.4876 34.9182 78.4912 35.7766 77.4099 35.8758C77.3396 35.882 77.2694 35.8852 77.1997 35.8852ZM99.9799 104.424C99.8768 104.424 99.7757 104.395 99.6875 104.342C99.5993 104.289 99.5274 104.212 99.4796 104.121C99.4318 104.03 99.4099 103.927 99.4162 103.824C99.4226 103.721 99.4569 103.622 99.5156 103.538L103.189 98.2452C103.274 98.1221 103.405 98.0379 103.553 98.0112C103.701 97.9845 103.853 98.0174 103.976 98.1027C104.099 98.188 104.184 98.3188 104.21 98.4661C104.237 98.6135 104.204 98.7655 104.119 98.8886L100.445 104.181C100.393 104.256 100.324 104.317 100.243 104.36C100.162 104.402 100.071 104.424 99.9799 104.424Z" fill="#232323"/>
</g>
<mask id="mask6_1482_2336" style="mask-type:luminance" maskUnits="userSpaceOnUse" x="65" y="23" width="77" height="129">
<path d="M141.753 151.463C141.753 151.463 89.8056 148.306 75.6731 123.944C60.6657 98.0755 66.0146 57.9068 67.0574 42.5784C67.2314 40.0201 67.6852 37.0302 68.084 34.9981C69.7411 26.5548 72.8169 23.2196 76.1903 24.4086C77.543 22.5496 81.1247 22.6123 82.4111 24.5178C84.131 23.23 87.5141 23.8542 88.6022 26.3208C91.2579 25.426 93.8473 28.2955 93.8076 30.5543C97.6404 37.776 90.0206 42.1611 87.983 45.3869C88.0053 45.7909 88.2509 53.6675 91.7383 65.542C93.4665 71.426 98.5456 84.7075 102.921 98.984L138.918 121.702L118.046 136.99L141.753 151.463Z" fill="white"/>
</mask>
<g mask="url(#mask6_1482_2336)">
<path d="M77.4208 40.8102C77.3427 40.8103 77.2654 40.7942 77.1938 40.763C77.1222 40.7317 77.0579 40.686 77.0049 40.6287C76.9518 40.5714 76.9113 40.5037 76.8858 40.43C76.8602 40.3563 76.8503 40.2781 76.8565 40.2003C77.0805 37.4099 75.5643 35.3042 75.549 35.2831C75.4605 35.1622 75.4236 35.0113 75.4464 34.8633C75.4693 34.7153 75.55 34.5824 75.6708 34.4938C75.7915 34.4052 75.9425 34.3682 76.0906 34.3907C76.2387 34.4133 76.3718 34.4936 76.4606 34.6141C76.5336 34.7131 78.2423 37.0743 77.984 40.2903C77.9727 40.4318 77.9085 40.5638 77.8042 40.6601C77.6998 40.7565 77.563 40.8101 77.4208 40.8102Z" fill="#232323"/>
</g>
<path d="M236.275 107.143C231.97 101.821 230.609 93.4315 233.06 88.537C233.899 86.3454 236.483 85.0906 240.121 88.9809C244.586 93.7552 249.041 107.064 243.822 133.911C243.822 133.911 246.425 119.691 236.275 107.143Z" fill="#232323"/>
<path d="M243.823 134.476C243.74 134.476 243.658 134.458 243.583 134.423C243.507 134.388 243.441 134.337 243.388 134.274C243.335 134.21 243.296 134.136 243.275 134.056C243.254 133.976 243.251 133.892 243.265 133.811C243.272 133.776 243.895 130.248 243.288 125.259C242.729 120.669 240.982 113.862 235.834 107.499C231.447 102.075 229.974 93.4744 232.542 88.3094C233.034 87.0451 233.98 86.1912 235.14 85.965C236.271 85.744 238.127 86.0213 240.534 88.5959C243.264 91.5143 245.263 96.6621 246.163 103.091C247.337 111.476 246.736 121.882 244.377 134.019C244.352 134.148 244.283 134.264 244.182 134.347C244.081 134.431 243.954 134.476 243.823 134.476ZM236.715 106.789C242.042 113.375 243.843 120.418 244.416 125.166C244.462 125.55 244.502 125.925 244.535 126.291C248.137 100.834 241.875 91.6845 239.708 89.3668C238.105 87.6532 236.56 86.8388 235.357 87.0736C234.58 87.2251 233.936 87.8322 233.588 88.7392C233.582 88.7565 233.574 88.7734 233.566 88.79C232.443 91.0326 232.124 94.2386 232.692 97.5861C233.276 101.036 234.705 104.304 236.715 106.789Z" fill="#232323"/>
<path d="M200.528 146.961C200.528 146.961 252.523 144.716 267.082 120.607C282.542 95.0049 277.901 54.7486 277.128 39.4043C276.999 36.8434 276.598 33.8459 276.235 31.807C274.727 23.3359 271.71 19.9474 268.317 21.0769C266.997 19.1944 263.415 19.1944 262.095 21.0769C260.398 19.7592 257.004 20.3239 255.873 22.7711C253.233 21.8299 250.594 24.6536 250.594 26.9126C246.634 34.066 254.176 38.5839 256.156 41.8451C256.127 42.2485 255.743 50.1199 252.047 61.9311C250.215 67.7839 244.903 80.9743 240.277 95.1717L203.886 117.255C203.886 117.255 195.974 123.506 194.348 131.715C192.712 139.982 200.528 146.961 200.528 146.961Z" fill="white"/>
<path d="M200.527 147.526C200.388 147.526 200.254 147.475 200.15 147.382C199.822 147.088 192.114 140.091 193.793 131.605C195.44 123.288 203.205 117.072 203.535 116.812C203.553 116.797 203.573 116.784 203.592 116.772L239.805 94.7976C242.461 86.6621 245.332 78.8759 247.644 72.6098C249.372 67.9238 250.737 64.2225 251.507 61.7625C254.738 51.4363 255.437 44.1464 255.58 41.991C255.123 41.293 254.38 40.4939 253.597 39.6511C250.786 36.6282 246.944 32.4967 250.031 26.7625C250.092 25.3435 251.001 23.7901 252.33 22.8541C253.363 22.1279 254.503 21.869 255.589 22.1036C256.226 21.0535 257.301 20.2879 258.602 19.9717C259.82 19.6759 261.043 19.8122 261.984 20.3301C262.747 19.5519 263.912 19.1001 265.205 19.1001C266.553 19.1001 267.761 19.5905 268.521 20.4297C269.635 20.1548 270.701 20.3139 271.696 20.9046C274.017 22.2828 275.779 26.0186 276.792 31.708C277.139 33.6584 277.558 36.6969 277.693 39.3757C277.773 40.9756 277.894 42.8178 278.034 44.951C278.615 53.7998 279.491 67.1721 278.474 80.998C277.261 97.4973 273.591 110.922 267.566 120.898C264.191 126.487 258.551 131.365 250.802 135.396C244.637 138.603 237.126 141.287 228.478 143.374C213.776 146.92 200.682 147.52 200.552 147.525C200.544 147.526 200.536 147.526 200.527 147.526ZM204.212 117.718C203.721 118.116 196.423 124.149 194.903 131.825C193.478 139.026 199.638 145.327 200.739 146.385C202.568 146.287 214.714 145.534 228.23 142.271C236.786 140.206 244.207 137.554 250.288 134.39C257.845 130.458 263.332 125.722 266.597 120.315C272.529 110.492 276.146 97.236 277.346 80.9153C278.358 67.1676 277.484 53.8425 276.906 45.0248C276.765 42.8871 276.644 41.0407 276.563 39.4323C276.431 36.8059 276.019 33.8222 275.678 31.9056C274.738 26.6257 273.119 23.0636 271.118 21.8754C270.304 21.3924 269.422 21.3041 268.496 21.6124C268.38 21.6509 268.255 21.6511 268.139 21.6129C268.024 21.5748 267.923 21.5003 267.853 21.4007C267.347 20.6784 266.333 20.2298 265.206 20.2298C264.079 20.2298 263.065 20.6786 262.559 21.4007C262.515 21.4634 262.458 21.5166 262.393 21.5569C262.328 21.5972 262.255 21.6239 262.179 21.6353C262.104 21.6467 262.026 21.6426 261.952 21.6233C261.878 21.6039 261.808 21.5697 261.748 21.5227C261.05 20.9811 259.947 20.8077 258.87 21.0694C257.734 21.3455 256.829 22.052 256.387 23.0077C256.327 23.1358 256.222 23.2371 256.092 23.2917C255.962 23.3463 255.816 23.3503 255.683 23.3029C254.513 22.8856 253.489 23.4213 252.983 23.7775C251.909 24.5327 251.16 25.8219 251.16 26.9126C251.16 27.0082 251.136 27.1021 251.089 27.1857C248.276 32.2684 251.686 35.9358 254.426 38.8828C255.306 39.8286 256.136 40.722 256.64 41.5522C256.701 41.6523 256.729 41.7689 256.721 41.8858L256.717 41.9513C256.589 43.9902 255.914 51.4685 252.587 62.0994C251.809 64.5864 250.439 68.2995 248.706 73.0003C246.379 79.3084 243.483 87.1591 240.816 95.3464C240.774 95.4749 240.687 95.5842 240.572 95.6544L204.212 117.718Z" fill="#232323"/>
<mask id="mask7_1482_2336" style="mask-type:luminance" maskUnits="userSpaceOnUse" x="200" y="19" width="79" height="128">
<path d="M200.528 146.961C200.528 146.961 252.523 144.716 267.082 120.607C282.543 95.0049 277.901 54.7486 277.129 39.4043C277 36.8434 276.599 33.8459 276.236 31.807C274.727 23.3359 271.711 19.9474 268.317 21.0769C266.997 19.1944 263.415 19.1944 262.095 21.0769C260.398 19.7592 257.005 20.3239 255.873 22.7711C253.234 21.8299 250.594 24.6536 250.594 26.9126C246.635 34.066 254.176 38.5839 256.157 41.8451C256.127 42.2485 255.743 50.1199 252.047 61.9311C250.216 67.7839 244.904 80.9743 240.278 95.1717L203.887 117.255L224.486 132.906L200.528 146.961Z" fill="white"/>
</mask>
<g mask="url(#mask7_1482_2336)">
<path d="M259.163 44.5546C259.084 44.5546 259.003 44.5379 258.927 44.5025C256.349 43.3144 255.235 41.5195 255.189 41.4436C255.113 41.3159 255.09 41.1634 255.126 41.0192C255.162 40.8751 255.254 40.7509 255.381 40.6735C255.508 40.5962 255.66 40.5719 255.805 40.606C255.95 40.6401 256.075 40.7297 256.154 40.8556C256.167 40.8766 257.157 42.443 259.401 43.4769C259.518 43.5308 259.613 43.6231 259.671 43.7384C259.728 43.8538 259.744 43.9853 259.717 44.1112C259.689 44.237 259.619 44.3496 259.518 44.4303C259.418 44.5109 259.292 44.5548 259.163 44.5546ZM262.85 36.8896C262.763 36.8897 262.677 36.8698 262.599 36.8316C262.522 36.7934 262.454 36.7378 262.401 36.6691C260.674 34.4271 257.784 32.1604 255.68 31.3963C255.587 31.3627 255.505 31.3055 255.442 31.2303C255.378 31.1552 255.335 31.0647 255.317 30.9679C255.299 30.8711 255.307 30.7714 255.34 30.6785C255.372 30.5856 255.429 30.5029 255.503 30.4385C257.968 28.3098 258.353 26.9307 257.89 26.3499C256.995 25.2244 252.933 25.5431 249.159 28.2906C249.099 28.3343 249.031 28.3658 248.959 28.3832C248.887 28.4007 248.812 28.4038 248.738 28.3923C248.665 28.3808 248.594 28.355 248.531 28.3163C248.468 28.2776 248.413 28.2269 248.369 28.1669C248.325 28.107 248.294 28.0391 248.276 27.967C248.259 27.8949 248.255 27.8201 248.267 27.7468C248.278 27.6736 248.304 27.6033 248.343 27.54C248.382 27.4767 248.433 27.4216 248.493 27.378C252.357 24.5652 257.258 23.7403 258.776 25.6472C259.346 26.3624 259.803 27.9376 256.907 30.6928C259.065 31.7361 261.674 33.8725 263.298 35.9805C263.362 36.0641 263.402 36.164 263.412 36.2689C263.423 36.3738 263.403 36.4795 263.357 36.5741C263.31 36.6687 263.238 36.7484 263.148 36.8042C263.059 36.8599 262.955 36.8895 262.85 36.8896Z" fill="#232323"/>
</g>
<mask id="mask8_1482_2336" style="mask-type:luminance" maskUnits="userSpaceOnUse" x="200" y="19" width="79" height="128">
<path d="M200.528 146.961C200.528 146.961 252.523 144.716 267.082 120.607C282.543 95.0049 277.901 54.7486 277.129 39.4043C277 36.8434 276.599 33.8459 276.236 31.807C274.727 23.3359 271.711 19.9474 268.317 21.0769C266.997 19.1944 263.415 19.1944 262.095 21.0769C260.398 19.7592 257.005 20.3239 255.873 22.7711C253.234 21.8299 250.594 24.6536 250.594 26.9126C246.635 34.066 254.176 38.5839 256.157 41.8451C256.127 42.2485 255.743 50.1199 252.047 61.9311C250.216 67.7839 244.904 80.9743 240.278 95.1717L203.887 117.255L224.486 132.906L200.528 146.961Z" fill="white"/>
</mask>
<g mask="url(#mask8_1482_2336)">
<path d="M255.496 25.5948C255.348 25.5947 255.207 25.537 255.101 25.434C254.995 25.331 254.934 25.1908 254.931 25.0434C254.85 21.6431 256.95 20.3745 258.34 19.5351C258.774 19.2731 259.184 19.0255 259.375 18.7974C259.472 18.6861 259.609 18.6173 259.756 18.6056C259.903 18.5939 260.05 18.6403 260.163 18.7347C260.277 18.8292 260.349 18.9643 260.364 19.1112C260.379 19.258 260.336 19.4049 260.244 19.5204C259.932 19.8939 259.466 20.1755 258.926 20.5016C257.621 21.2898 255.996 22.2707 256.062 25.0165C256.065 25.1662 256.009 25.3113 255.906 25.4197C255.802 25.5281 255.66 25.591 255.51 25.5946L255.496 25.5948ZM259.861 33.4127C259.411 33.4127 258.961 33.2856 258.576 33.0298C258.514 32.9891 258.46 32.9363 258.417 32.8746C258.375 32.8129 258.346 32.7435 258.331 32.6703C258.316 32.5972 258.315 32.5217 258.33 32.4484C258.344 32.3751 258.373 32.3054 258.414 32.2432C258.456 32.1811 258.509 32.1278 258.571 32.0864C258.634 32.045 258.704 32.0164 258.777 32.0021C258.85 31.9879 258.926 31.9883 258.999 32.0034C259.072 32.0185 259.142 32.048 259.204 32.0901C259.598 32.3525 260.174 32.3422 260.544 32.0662C260.851 31.8367 260.94 31.4796 260.801 31.0335C259.38 26.4724 260.287 23.2357 261.299 21.3235C262.407 19.2305 263.86 18.2354 263.921 18.1942C264.045 18.1103 264.198 18.079 264.345 18.1074C264.493 18.1357 264.623 18.2213 264.707 18.3454C264.791 18.4694 264.822 18.6217 264.794 18.7688C264.765 18.9159 264.679 19.0457 264.555 19.1296C264.341 19.2759 259.407 22.7583 261.881 30.698C262.162 31.6022 261.916 32.4517 261.221 32.9707C260.827 33.2648 260.345 33.4127 259.861 33.4127Z" fill="#232323"/>
</g>
<mask id="mask9_1482_2336" style="mask-type:luminance" maskUnits="userSpaceOnUse" x="200" y="19" width="79" height="128">
<path d="M200.528 146.961C200.528 146.961 252.523 144.716 267.082 120.607C282.543 95.0049 277.901 54.7486 277.129 39.4043C277 36.8434 276.599 33.8459 276.236 31.807C274.727 23.3359 271.711 19.9474 268.317 21.0769C266.997 19.1944 263.415 19.1944 262.095 21.0769C260.398 19.7592 257.005 20.3239 255.873 22.7711C253.234 21.8299 250.594 24.6536 250.594 26.9126C246.635 34.066 254.176 38.5839 256.157 41.8451C256.127 42.2485 255.743 50.1199 252.047 61.9311C250.216 67.7839 244.904 80.9743 240.278 95.1717L203.887 117.255L224.486 132.906L200.528 146.961Z" fill="white"/>
</mask>
<g mask="url(#mask9_1482_2336)">
<path d="M263.418 32.9079C262.325 32.9079 261.137 32.265 260.796 31.0143C260.756 30.8698 260.776 30.7155 260.85 30.5855C260.925 30.4554 261.048 30.3602 261.192 30.3208C261.337 30.2816 261.492 30.3013 261.622 30.3756C261.752 30.4499 261.847 30.5726 261.887 30.717C262.112 31.5427 263.015 31.8955 263.722 31.7482C264.095 31.6707 264.699 31.39 264.552 30.3821C263.982 26.4698 264.547 23.5832 266.23 21.8026C268.125 19.7979 270.709 19.9967 270.818 20.0061C270.966 20.02 271.103 20.092 271.199 20.2063C271.294 20.3206 271.341 20.4681 271.328 20.6165C271.316 20.7649 271.245 20.9023 271.131 20.9988C271.017 21.0953 270.87 21.1429 270.721 21.1315C270.683 21.1284 268.547 20.9856 267.042 22.5891C265.616 24.1077 265.155 26.6748 265.672 30.2195C265.867 31.5621 265.192 32.5961 263.953 32.854C263.78 32.89 263.601 32.9079 263.418 32.9079Z" fill="#232323"/>
</g>
<mask id="mask10_1482_2336" style="mask-type:luminance" maskUnits="userSpaceOnUse" x="200" y="19" width="79" height="128">
<path d="M200.528 146.961C200.528 146.961 252.523 144.716 267.082 120.607C282.543 95.0049 277.901 54.7486 277.129 39.4043C277 36.8434 276.599 33.8459 276.236 31.807C274.727 23.3359 271.711 19.9474 268.317 21.0769C266.997 19.1944 263.415 19.1944 262.095 21.0769C260.398 19.7592 257.005 20.3239 255.873 22.7711C253.234 21.8299 250.594 24.6536 250.594 26.9126C246.635 34.066 254.176 38.5839 256.157 41.8451C256.127 42.2485 255.743 50.1199 252.047 61.9311C250.216 67.7839 244.904 80.9743 240.278 95.1717L203.887 117.255L224.486 132.906L200.528 146.961Z" fill="white"/>
</mask>
<g mask="url(#mask10_1482_2336)">
<path d="M267.146 32.534C267.063 32.534 266.98 32.5294 266.896 32.5202C265.817 32.402 264.836 31.5263 264.563 30.4378C264.545 30.3659 264.542 30.2911 264.552 30.2177C264.563 30.1444 264.589 30.0739 264.627 30.0103C264.665 29.9467 264.716 29.8912 264.775 29.8471C264.835 29.8029 264.903 29.771 264.975 29.753C265.047 29.735 265.122 29.7314 265.195 29.7423C265.269 29.7532 265.339 29.7785 265.403 29.8166C265.467 29.8548 265.522 29.9051 265.566 29.9647C265.611 30.0243 265.643 30.092 265.661 30.1639C265.817 30.7893 266.414 31.3311 267.02 31.3973C267.773 31.4805 268.277 30.8119 268.565 30.2364C268.65 30.0673 268.758 29.6984 268.872 29.3078C269.224 28.1058 269.705 26.4594 270.777 25.5423C270.892 25.4478 271.038 25.402 271.186 25.4147C271.334 25.4273 271.471 25.4974 271.567 25.6098C271.664 25.7223 271.712 25.8681 271.702 26.0158C271.692 26.1636 271.624 26.3014 271.513 26.3997C270.697 27.0983 270.252 28.6184 269.958 29.6242C269.818 30.1031 269.707 30.4815 269.577 30.7413C269 31.8932 268.125 32.534 267.146 32.534ZM243.133 100.662C242.951 100.662 242.771 100.574 242.662 100.411L239.083 95.0551C239.002 94.9305 238.973 94.779 239.003 94.6333C239.033 94.4876 239.119 94.3596 239.243 94.277C239.367 94.1945 239.518 94.164 239.664 94.1923C239.81 94.2206 239.94 94.3053 240.024 94.4281L243.603 99.7841C243.66 99.8691 243.693 99.9679 243.698 100.07C243.703 100.172 243.68 100.274 243.632 100.364C243.584 100.454 243.512 100.529 243.424 100.582C243.336 100.635 243.236 100.662 243.133 100.662Z" fill="#232323"/>
</g>
<mask id="mask11_1482_2336" style="mask-type:luminance" maskUnits="userSpaceOnUse" x="200" y="19" width="79" height="128">
<path d="M200.528 146.961C200.528 146.961 252.523 144.716 267.082 120.607C282.543 95.0049 277.901 54.7486 277.129 39.4043C277 36.8434 276.599 33.8459 276.236 31.807C274.727 23.3359 271.711 19.9474 268.317 21.0769C266.997 19.1944 263.415 19.1944 262.095 21.0769C260.398 19.7592 257.005 20.3239 255.873 22.7711C253.234 21.8299 250.594 24.6536 250.594 26.9126C246.635 34.066 254.176 38.5839 256.157 41.8451C256.127 42.2485 255.743 50.1199 252.047 61.9311C250.216 67.7839 244.904 80.9743 240.278 95.1717L203.887 117.255L224.486 132.906L200.528 146.961Z" fill="white"/>
</mask>
<g mask="url(#mask11_1482_2336)">
<path d="M266.808 37.4543C266.664 37.4542 266.526 37.3993 266.421 37.301C266.316 37.2026 266.253 37.0681 266.244 36.9248C266.042 33.7011 267.793 31.3734 267.867 31.2759C267.959 31.1595 268.093 31.084 268.241 31.0655C268.388 31.047 268.537 31.087 268.655 31.1769C268.772 31.2669 268.85 31.3995 268.871 31.5463C268.892 31.693 268.854 31.8421 268.766 31.9613C268.751 31.982 267.198 34.0597 267.373 36.8544C267.378 36.9314 267.367 37.0086 267.34 37.0812C267.314 37.1538 267.273 37.2202 267.22 37.2765C267.167 37.3327 267.104 37.3775 267.033 37.4081C266.962 37.4387 266.885 37.4544 266.808 37.4543Z" fill="#232323"/>
</g>
<path d="M170.413 303.409C167.143 290.407 161.96 280.178 153.668 282.106C151.594 282.778 150.493 284.864 149.917 287.055C148.81 293.544 152.699 308.094 187.083 329.95C187.083 329.95 174.974 321.551 170.413 303.409Z" fill="#232323"/>
<path d="M187.083 330.515C186.976 330.515 186.87 330.484 186.779 330.427C171.585 320.768 160.802 311.563 154.731 303.068C149.314 295.488 148.82 290.125 149.36 286.961C149.363 286.944 149.366 286.928 149.371 286.912C150.134 284.006 151.521 282.208 153.494 281.569C153.509 281.564 153.525 281.56 153.54 281.556C161.038 279.813 166.9 287.119 170.962 303.272C173.286 312.519 177.629 319.15 180.863 323.085C184.363 327.344 187.284 329.401 187.407 329.487C187.506 329.556 187.58 329.654 187.619 329.768C187.657 329.882 187.659 330.005 187.623 330.119C187.587 330.234 187.515 330.334 187.418 330.405C187.321 330.476 187.204 330.515 187.083 330.515ZM150.471 287.174C149.657 292.019 151.3 305.059 181.573 325.653C177.653 321.361 172.516 314.096 169.864 303.547C165.987 288.127 160.587 281.095 153.82 282.651C152.255 283.168 151.128 284.69 150.471 287.174Z" fill="#232323"/>
<path d="M187.083 329.95C186.937 330.07 184.305 332.06 180.773 334.726C173.259 340.4 161.669 349.132 161.26 349.44C161.252 349.446 161.248 349.449 161.248 349.449C159.903 350.209 158.643 349.838 157.254 348.419C157.247 348.413 157.24 348.406 157.235 348.398C154.046 345.119 151.368 337.442 152.053 331.548C152.052 331.541 152.053 331.534 152.055 331.528C152.29 329.513 152.92 327.707 154.057 326.358C154.173 326.223 154.293 326.091 154.417 325.964C154.417 325.964 159.845 321.215 164.694 316.684C165.813 315.638 166.9 314.605 167.884 313.643C169.702 311.867 171.162 310.339 171.796 309.446C171.833 309.395 171.867 309.345 171.899 309.298C172.024 309.07 172.229 308.894 172.474 308.804C172.719 308.714 172.988 308.716 173.232 308.808C177.347 310.037 186.433 328.614 187.05 329.883C187.071 329.927 187.083 329.95 187.083 329.95Z" fill="white"/>
<path d="M159.901 350.401C158.9 350.401 157.895 349.878 156.86 348.825C156.843 348.808 156.826 348.791 156.81 348.772C153.652 345.506 150.767 337.808 151.488 331.51C151.489 331.487 151.492 331.464 151.495 331.441C151.761 329.187 152.478 327.355 153.624 325.994C153.748 325.849 153.877 325.707 154.011 325.57C154.022 325.559 154.033 325.549 154.044 325.539C154.099 325.491 159.521 320.743 164.308 316.271C165.511 315.147 166.581 314.127 167.489 313.239C169.482 311.291 170.776 309.905 171.335 309.119C171.366 309.075 171.392 309.038 171.416 309.002C171.812 308.31 172.662 307.999 173.413 308.272C177.611 309.568 185.932 326.292 187.559 329.635L187.588 329.696C187.646 329.811 187.663 329.941 187.637 330.067C187.61 330.192 187.542 330.305 187.442 330.386C187.356 330.458 186.605 331.032 181.115 335.177C175.063 339.743 169.01 344.308 162.956 348.87L161.602 349.891C161.596 349.895 161.59 349.899 161.584 349.904C161.565 349.917 161.546 349.929 161.527 349.94C160.984 350.247 160.443 350.401 159.901 350.401ZM157.662 348.027C159.198 349.595 160.182 349.394 160.94 348.974L162.274 347.969C165.612 345.453 174.355 338.864 180.432 334.276C184.132 331.483 185.742 330.263 186.373 329.783C183.007 322.917 176.125 310.261 173.07 309.349C173.057 309.345 173.044 309.34 173.031 309.336C172.915 309.292 172.786 309.292 172.669 309.335C172.552 309.378 172.455 309.461 172.394 309.57C172.386 309.583 172.379 309.597 172.37 309.609C172.334 309.663 172.296 309.72 172.253 309.778C171.66 310.613 170.322 312.051 168.28 314.046C167.366 314.94 166.29 315.966 165.081 317.096C160.417 321.454 155.153 326.07 154.807 326.373C154.697 326.486 154.591 326.603 154.489 326.723C153.486 327.913 152.855 329.551 152.617 331.589L152.615 331.613C151.928 337.521 154.712 344.993 157.641 348.005C157.648 348.012 157.655 348.02 157.662 348.027Z" fill="#232323"/>
<path d="M180.773 334.726C173.259 340.399 161.669 349.131 161.26 349.44C159.968 350.04 158.56 349.445 157.238 348.094C157.231 348.088 157.225 348.081 157.219 348.074C154.143 344.605 151.566 337.281 152.053 331.547C152.052 331.541 152.053 331.534 152.055 331.527C152.29 329.512 152.92 327.707 154.057 326.358C154.173 326.222 154.293 326.091 154.417 325.963C154.417 325.963 159.845 321.214 164.694 316.684L180.773 334.726Z" fill="#F9AF36"/>
<mask id="mask12_1482_2336" style="mask-type:luminance" maskUnits="userSpaceOnUse" x="155" y="322" width="27" height="30">
<path d="M181.501 325.704C179.444 334.883 176.26 349.026 176.148 349.526C175.551 350.818 174.093 351.273 172.209 351.096C172.2 351.096 172.191 351.095 172.182 351.093C167.589 350.433 160.879 346.512 157.537 341.824C157.532 341.819 157.528 341.814 157.525 341.808C156.4 340.119 155.711 338.335 155.705 336.572C155.705 336.394 155.711 336.216 155.724 336.039C155.724 336.039 156.787 328.911 157.552 322.325L181.501 325.704Z" fill="white"/>
</mask>
<g mask="url(#mask12_1482_2336)">
<path d="M158.964 318.881L160.241 317.8L178.701 339.538L177.424 340.62L158.964 318.881Z" fill="white"/>
</g>
<path d="M159.901 350.401C158.9 350.401 157.895 349.878 156.86 348.825C156.843 348.808 156.826 348.791 156.81 348.772C153.652 345.506 150.767 337.808 151.488 331.51C151.489 331.487 151.492 331.464 151.495 331.441C151.761 329.187 152.478 327.355 153.624 325.994C153.748 325.849 153.877 325.707 154.011 325.57C154.022 325.559 154.033 325.549 154.044 325.539C154.099 325.491 159.521 320.743 164.308 316.271C165.511 315.147 166.581 314.127 167.489 313.239C169.482 311.291 170.776 309.905 171.335 309.119C171.366 309.075 171.392 309.038 171.416 309.002C171.812 308.31 172.662 307.999 173.413 308.272C177.611 309.568 185.932 326.292 187.559 329.635L187.588 329.696C187.646 329.811 187.663 329.941 187.637 330.067C187.61 330.192 187.542 330.305 187.442 330.386C187.356 330.458 186.605 331.032 181.115 335.177C175.063 339.743 169.01 344.308 162.956 348.87L161.602 349.891C161.596 349.895 161.59 349.899 161.584 349.904C161.565 349.917 161.546 349.929 161.527 349.94C160.984 350.247 160.443 350.401 159.901 350.401ZM157.662 348.027C159.198 349.595 160.182 349.394 160.94 348.974L162.274 347.969C165.612 345.453 174.355 338.864 180.432 334.276C184.132 331.483 185.742 330.263 186.373 329.783C183.007 322.917 176.125 310.261 173.07 309.349C173.057 309.345 173.044 309.34 173.031 309.336C172.915 309.292 172.786 309.292 172.669 309.335C172.552 309.378 172.455 309.461 172.394 309.57C172.386 309.583 172.379 309.597 172.37 309.609C172.334 309.663 172.296 309.72 172.253 309.778C171.66 310.613 170.322 312.051 168.28 314.046C167.366 314.94 166.29 315.966 165.081 317.096C160.417 321.454 155.153 326.07 154.807 326.373C154.697 326.486 154.591 326.603 154.489 326.723C153.486 327.913 152.855 329.551 152.617 331.589L152.615 331.613C151.928 337.521 154.712 344.993 157.641 348.005C157.648 348.012 157.655 348.02 157.662 348.027Z" fill="#232323"/>
<path d="M152.742 284.503C160.845 281.872 167.231 302.852 173.67 312.74C182.395 326.139 186.776 330.873 186.776 330.873C186.776 330.873 239.093 296.174 233.06 251.183C229.035 221.171 198.01 194.252 198.01 194.252C198.01 194.252 184.734 182.434 171.46 181.424C149.195 179.73 144.649 211.564 162.914 222.987C202.339 247.644 203.061 262.784 152.742 284.503Z" fill="#1C5AF6"/>
<path d="M171.232 387.669C168.092 387.549 162.562 384.808 156.976 376.905L130.168 338.689C136.957 334.308 147.241 329.19 158.091 322.025C159.766 325.114 158.399 326.244 160.052 330.826C161.966 336.132 167.489 339.163 171.567 352.811C171.63 353.021 171.717 353.221 171.791 353.426C171.812 353.483 171.833 353.538 171.853 353.594C173.243 357.477 174.111 361.067 174.603 364.342C176.718 378.479 171.79 386.78 171.276 387.602C171.276 387.602 171.277 387.603 171.276 387.604C171.264 387.623 171.253 387.638 171.246 387.648L171.232 387.669Z" fill="white"/>
<path d="M171.232 388.234L171.21 388.233C167.772 388.102 162.106 385.142 156.514 377.231L129.706 339.013C129.617 338.888 129.584 338.732 129.614 338.581C129.643 338.431 129.733 338.299 129.862 338.215C132.875 336.271 137.025 333.891 141.418 331.371C147.107 328.108 152.99 324.734 157.778 321.555C157.841 321.514 157.911 321.485 157.985 321.471C158.059 321.457 158.135 321.458 158.209 321.473C158.283 321.489 158.353 321.519 158.414 321.562C158.476 321.605 158.529 321.66 158.569 321.723C159.727 323.547 159.864 325.305 159.998 327.005C160.115 328.508 160.237 330.063 161.035 331.811C161.787 333.457 162.792 334.781 163.956 336.315C166.361 339.486 169.356 343.433 172.109 352.65C172.144 352.767 172.191 352.887 172.24 353.014C172.268 353.087 172.296 353.16 172.323 353.233L172.386 353.407C173.696 357.067 174.631 360.719 175.162 364.259C177.28 378.416 172.409 386.848 171.77 387.878C171.766 387.886 171.762 387.893 171.757 387.901C171.744 387.922 171.731 387.942 171.717 387.961L171.702 387.983C171.65 388.06 171.58 388.123 171.498 388.167C171.416 388.211 171.325 388.233 171.232 388.234ZM130.97 338.847L157.439 376.581C160.713 381.213 166.166 386.67 170.928 387.084C171.865 385.485 176.001 377.513 174.043 364.426C173.523 360.958 172.607 357.378 171.32 353.784L171.259 353.617C171.236 353.553 171.21 353.487 171.185 353.422C171.13 353.28 171.073 353.133 171.025 352.972C168.33 343.952 165.404 340.096 163.054 336.997C161.849 335.41 160.81 334.039 160.006 332.28C159.124 330.35 158.989 328.619 158.869 327.093C158.75 325.567 158.646 324.228 157.903 322.827C153.162 325.938 147.234 329.338 141.981 332.35C137.838 334.727 133.912 336.978 130.97 338.847Z" fill="#232323"/>
<path d="M160.825 339.766C160.744 339.766 160.663 339.748 160.59 339.715C160.516 339.681 160.45 339.632 160.397 339.57C157.942 336.737 156.296 336.168 152.689 334.921C152.257 334.772 151.799 334.614 151.311 334.441C147.232 333.002 145.347 330.541 145.269 330.437C145.178 330.317 145.14 330.166 145.161 330.018C145.181 329.87 145.261 329.736 145.38 329.646C145.5 329.556 145.651 329.517 145.8 329.538C145.948 329.559 146.082 329.638 146.173 329.757C146.19 329.78 147.951 332.058 151.688 333.376C152.174 333.548 152.63 333.705 153.059 333.854C156.748 335.129 158.599 335.769 161.252 338.831C161.323 338.913 161.369 339.013 161.385 339.121C161.4 339.228 161.384 339.337 161.339 339.435C161.294 339.534 161.222 339.617 161.131 339.676C161.039 339.734 160.933 339.766 160.825 339.766ZM172.57 385.574C172.507 385.574 172.443 385.563 172.38 385.541C166.615 383.492 161.955 379.557 158.529 373.843C156.304 370.133 154.605 365.654 153.479 360.533C152.804 357.459 151.566 356.219 150.256 354.906C149.158 353.806 148.023 352.668 147.338 350.476C146.801 348.76 146.89 347.327 146.976 345.941C147.088 344.141 147.193 342.44 145.923 340.127C143.581 335.865 138.833 334.739 138.786 334.728C138.639 334.695 138.512 334.605 138.432 334.478C138.353 334.351 138.327 334.198 138.36 334.052C138.393 333.906 138.484 333.779 138.611 333.7C138.738 333.62 138.891 333.594 139.037 333.627C139.252 333.676 144.331 334.882 146.914 339.584C148.342 342.183 148.222 344.129 148.105 346.011C148.022 347.353 147.943 348.622 148.417 350.14C149.02 352.067 150.009 353.059 151.057 354.109C152.36 355.415 153.837 356.895 154.584 360.291C155.683 365.293 157.337 369.657 159.499 373.263C162.786 378.746 167.248 382.518 172.759 384.477C172.829 384.501 172.893 384.54 172.949 384.59C173.004 384.639 173.048 384.699 173.08 384.766C173.112 384.833 173.13 384.906 173.134 384.98C173.138 385.054 173.127 385.128 173.102 385.198C173.063 385.308 172.991 385.403 172.896 385.47C172.801 385.538 172.687 385.574 172.57 385.574Z" fill="#232323"/>
<path d="M143.139 347.538C144.497 346.581 144.271 343.929 142.635 341.615C140.999 339.3 138.572 338.199 137.214 339.156C135.856 340.113 136.082 342.765 137.718 345.08C139.354 347.394 141.781 348.495 143.139 347.538Z" fill="#1C5AF6"/>
<path d="M172.734 356.348C172.427 356.348 172.129 356.248 171.884 356.063C165.902 351.561 160.192 352.624 159.953 352.671C159.188 352.822 158.444 352.329 158.289 351.566C158.135 350.804 158.624 350.062 159.386 349.905C159.675 349.845 166.541 348.506 173.586 353.809C173.823 353.987 173.998 354.235 174.086 354.518C174.174 354.801 174.17 355.104 174.076 355.385C173.982 355.665 173.802 355.91 173.561 356.082C173.32 356.255 173.031 356.348 172.734 356.348ZM174.238 362.885C173.891 362.886 173.557 362.759 173.298 362.528C167.95 357.771 161.439 358.614 161.374 358.623C160.601 358.731 159.887 358.194 159.777 357.424C159.667 356.654 160.199 355.94 160.971 355.828C161.288 355.782 168.819 354.762 175.179 360.419C175.393 360.61 175.544 360.861 175.612 361.139C175.68 361.417 175.662 361.709 175.56 361.976C175.458 362.244 175.277 362.474 175.041 362.636C174.805 362.799 174.525 362.885 174.238 362.885ZM175.056 369.126C174.703 369.126 174.363 368.995 174.103 368.757C169.365 364.44 163.767 365.024 163.71 365.03C162.937 365.119 162.234 364.566 162.143 363.793C162.051 363.021 162.599 362.321 163.372 362.226C163.652 362.193 170.281 361.451 176.009 366.671C176.286 366.924 176.452 367.276 176.469 367.65C176.486 368.024 176.353 368.389 176.101 368.666C175.968 368.811 175.807 368.927 175.627 369.006C175.447 369.085 175.253 369.126 175.056 369.126Z" fill="#1C5AF6"/>
<path d="M135.311 274.59C134.401 259.735 131.663 252.156 124.077 252.459C120.282 252.611 116.437 256.128 115.851 262.678C114.983 272.379 126.506 289.747 150.493 307.179C150.493 307.179 136.575 295.178 135.311 274.59Z" fill="#232323"/>
<path d="M150.493 307.744C150.377 307.744 150.261 307.709 150.16 307.636C138.859 299.423 129.605 290.685 123.398 282.367C117.711 274.746 114.831 267.735 115.288 262.628C115.572 259.45 116.626 256.743 118.336 254.797C119.906 253.011 121.937 251.98 124.055 251.895C128.006 251.738 130.83 253.604 132.71 257.601C134.378 261.149 135.385 266.537 135.876 274.556C136.52 285.05 140.556 293.241 143.828 298.263C147.381 303.717 150.829 306.723 150.863 306.752C150.95 306.828 151.012 306.928 151.041 307.04C151.07 307.151 151.063 307.269 151.023 307.377C150.983 307.485 150.91 307.578 150.816 307.644C150.721 307.709 150.608 307.745 150.493 307.744ZM124.511 253.016C124.376 253.016 124.239 253.018 124.1 253.024C119.399 253.212 116.821 258.186 116.414 262.728C115.676 270.98 124.56 286.297 145.807 302.939C144.776 301.644 143.806 300.301 142.902 298.914C139.546 293.772 135.407 285.383 134.747 274.625C134.264 266.753 133.291 261.496 131.686 258.081C130.065 254.634 127.778 253.016 124.511 253.016Z" fill="#232323"/>
<path d="M150.493 307.18C149.205 307.878 144.66 310.061 139.403 312.126C139.356 312.144 139.307 312.164 139.258 312.182C130.977 315.424 121.648 319.458 119.371 320.064C119.231 320.1 118.937 319.191 118.795 319.18C118.753 319.177 118.712 319.171 118.669 319.165C118.63 319.159 118.59 319.151 118.551 319.142C117.321 318.871 116.089 317.243 115.146 314.956C115.128 314.916 115.111 314.875 115.094 314.834C112.723 308.966 112.246 298.919 118.46 296.114C119.183 295.788 119.901 295.454 120.616 295.111C123.825 293.576 126.928 291.905 129.723 290.309C130.884 289.645 132.038 288.969 133.184 288.281C133.319 288.201 133.45 288.12 133.581 288.041C137.608 285.615 140.532 283.665 141.452 283.126C141.482 283.109 141.51 283.092 141.536 283.079C151.328 277.552 150.493 307.18 150.493 307.18Z" fill="white"/>
<path d="M119.344 320.633C118.937 320.633 118.732 320.209 118.563 319.861C118.538 319.809 118.512 319.758 118.487 319.706C118.465 319.702 118.444 319.697 118.423 319.692C116.576 319.285 115.253 316.694 114.627 315.18C114.608 315.138 114.59 315.095 114.573 315.052C113.237 311.748 112.649 307.719 112.995 304.269C113.429 299.946 115.239 296.949 118.228 295.6C118.946 295.276 119.661 294.943 120.371 294.602C123.216 293.241 126.267 291.632 129.443 289.819C130.6 289.157 131.75 288.483 132.893 287.797L133.288 287.558C135.839 286.022 137.971 284.661 139.382 283.76C140.217 283.227 140.821 282.841 141.166 282.639L141.206 282.616C141.23 282.603 141.253 282.59 141.274 282.578C142.919 281.65 144.428 281.576 145.745 282.368C148.241 283.87 149.891 288.534 150.647 296.231C151.201 301.86 151.06 307.143 151.059 307.196C151.056 307.294 151.027 307.391 150.975 307.475C150.923 307.559 150.85 307.629 150.763 307.676C149.52 308.351 144.985 310.541 139.61 312.651L139.559 312.671C139.525 312.685 139.492 312.698 139.458 312.711C136.151 314.005 132.636 315.443 129.534 316.712C124.72 318.681 120.917 320.237 119.517 320.609C119.461 320.625 119.403 320.633 119.344 320.633ZM143.814 282.956C143.204 282.956 142.541 283.161 141.815 283.571L141.727 283.62C141.412 283.805 140.816 284.185 139.991 284.712C138.575 285.615 136.436 286.981 133.873 288.525L133.476 288.765C132.326 289.456 131.169 290.134 130.005 290.799C126.806 292.626 123.729 294.248 120.861 295.621C120.142 295.965 119.42 296.301 118.693 296.629C112.985 299.206 113.24 308.735 115.619 314.623C115.633 314.657 115.646 314.69 115.661 314.721C115.664 314.728 115.666 314.734 115.669 314.741C116.575 316.936 117.698 318.375 118.674 318.591C118.705 318.598 118.73 318.603 118.755 318.606C118.786 318.611 118.811 318.615 118.836 318.617C119.231 318.646 119.394 318.981 119.581 319.369L119.6 319.407C121.199 318.901 124.888 317.392 129.106 315.666C132.211 314.396 135.73 312.957 139.053 311.656L139.198 311.599C144.168 309.648 148.399 307.635 149.936 306.836C150.068 300.863 149.466 285.924 145.161 283.335C144.741 283.083 144.293 282.956 143.814 282.956Z" fill="#232323"/>
<path d="M139.403 312.126C139.356 312.144 139.307 312.164 139.258 312.182C130.977 315.424 121.648 319.458 119.371 320.064C119.231 320.1 118.937 319.191 118.795 319.18C118.753 319.177 118.712 319.171 118.669 319.165C118.63 319.159 118.59 319.151 118.551 319.142C117.336 318.86 116.102 317.236 115.146 314.956C115.128 314.916 115.111 314.875 115.094 314.834C112.633 308.861 112.055 298.574 118.46 296.114C119.195 295.817 119.915 295.482 120.616 295.111C123.825 293.576 126.928 291.905 129.723 290.309L139.403 312.126Z" fill="#F9AF36"/>
<mask id="mask13_1482_2336" style="mask-type:luminance" maskUnits="userSpaceOnUse" x="114" y="291" width="29" height="32">
<path d="M142.13 307.643C142.094 307.678 142.057 307.715 142.019 307.75C135.618 313.918 128.554 321.217 126.684 322.65C126.569 322.737 125.947 322.01 125.813 322.054C125.773 322.068 125.732 322.078 125.691 322.088C125.652 322.098 125.612 322.106 125.573 322.113C124.343 322.318 122.579 321.291 120.819 319.552C120.787 319.522 120.756 319.491 120.725 319.46C116.156 314.886 111.668 305.61 116.637 300.884C117.202 300.328 117.738 299.743 118.242 299.131C120.615 296.484 122.839 293.752 124.806 291.207L142.13 307.643Z" fill="white"/>
</mask>
<g mask="url(#mask13_1482_2336)">
<path d="M123.919 291.726L125.465 291.084L135.182 314.426L133.636 315.068L123.919 291.726Z" fill="white"/>
</g>
<path d="M119.344 320.633C118.937 320.633 118.732 320.209 118.563 319.861C118.538 319.809 118.512 319.758 118.487 319.706C118.465 319.702 118.444 319.697 118.423 319.692C116.576 319.285 115.253 316.694 114.627 315.18C114.608 315.138 114.59 315.095 114.573 315.052C113.237 311.748 112.649 307.719 112.995 304.269C113.429 299.946 115.239 296.949 118.228 295.6C118.946 295.276 119.661 294.943 120.371 294.602C123.216 293.241 126.267 291.632 129.443 289.819C130.6 289.157 131.75 288.483 132.893 287.797L133.288 287.558C135.839 286.022 137.971 284.661 139.382 283.76C140.217 283.227 140.821 282.841 141.166 282.639L141.206 282.616C141.23 282.603 141.253 282.59 141.274 282.578C142.919 281.65 144.428 281.576 145.745 282.368C148.241 283.87 149.891 288.534 150.647 296.231C151.201 301.86 151.06 307.143 151.059 307.196C151.056 307.294 151.027 307.391 150.975 307.475C150.923 307.559 150.85 307.629 150.763 307.676C149.52 308.351 144.985 310.541 139.61 312.651L139.559 312.671C139.525 312.685 139.492 312.698 139.458 312.711C136.151 314.005 132.636 315.443 129.534 316.712C124.72 318.681 120.917 320.237 119.517 320.609C119.461 320.625 119.403 320.633 119.344 320.633ZM143.814 282.956C143.204 282.956 142.541 283.161 141.815 283.571L141.727 283.62C141.412 283.805 140.816 284.185 139.991 284.712C138.575 285.615 136.436 286.981 133.873 288.525L133.476 288.765C132.326 289.456 131.169 290.134 130.005 290.799C126.806 292.626 123.729 294.248 120.861 295.621C120.142 295.965 119.42 296.301 118.693 296.629C112.985 299.206 113.24 308.735 115.619 314.623C115.633 314.657 115.646 314.69 115.661 314.721C115.664 314.728 115.666 314.734 115.669 314.741C116.575 316.936 117.698 318.375 118.674 318.591C118.705 318.598 118.73 318.603 118.755 318.606C118.786 318.611 118.811 318.615 118.836 318.617C119.231 318.646 119.394 318.981 119.581 319.369L119.6 319.407C121.199 318.901 124.888 317.392 129.106 315.666C132.211 314.396 135.73 312.957 139.053 311.656L139.198 311.599C144.168 309.648 148.399 307.635 149.936 306.836C150.068 300.863 149.466 285.924 145.161 283.335C144.741 283.083 144.293 282.956 143.814 282.956Z" fill="#232323"/>
<path d="M136.526 186.978C130.302 201.832 122.953 220.242 154.062 244.029C154.062 244.029 140.68 250.389 123.98 251.905C138.099 252.814 132.579 275.196 137.589 287.778C143.767 303.292 150.568 307.789 150.568 307.789C150.568 307.789 157.591 303.812 166.164 298.253C171.146 294.505 217.358 268.551 214.96 242.335C213.874 230.467 208.503 222.497 203.302 216.563C192.48 204.213 178.478 200.98 177.885 191.89C177.885 191.89 145.949 164.488 136.526 186.978Z" fill="#1C5AF6"/>
<mask id="mask14_1482_2336" style="mask-type:luminance" maskUnits="userSpaceOnUse" x="124" y="178" width="110" height="152">
<path d="M136.526 186.978C130.302 201.833 126.772 223.62 154.062 244.029C154.062 244.029 140.777 250.944 124.077 252.46C138.196 253.369 132.579 275.197 137.589 287.778C143.767 303.292 150.568 307.789 150.568 307.789C150.568 307.789 174.935 293.992 188.295 281.866C188.295 281.866 165.343 275.711 152.742 284.503C161.547 279.198 167.22 303.662 173.67 312.74C182.93 325.776 187.056 329.964 187.056 329.964C187.056 329.964 239.093 296.174 233.06 251.183C229.035 221.171 198.01 194.252 198.01 194.252C198.01 194.252 145.949 164.488 136.526 186.978Z" fill="white"/>
</mask>
<g mask="url(#mask14_1482_2336)">
<path d="M141.068 248.745C140.927 248.744 140.791 248.69 140.687 248.594C140.583 248.498 140.519 248.367 140.507 248.226C140.496 248.085 140.537 247.945 140.624 247.834C140.711 247.722 140.836 247.647 140.976 247.623C151.671 245.836 176.944 229.9 177.197 229.739C177.324 229.659 177.477 229.632 177.624 229.665C177.77 229.698 177.898 229.787 177.978 229.914C178.058 230.04 178.085 230.193 178.052 230.34C178.019 230.486 177.93 230.613 177.803 230.693C177.739 230.734 171.325 234.786 163.657 239.008C153.328 244.696 145.759 247.969 141.163 248.737C141.131 248.742 141.1 248.745 141.068 248.745Z" fill="white"/>
</g>
<mask id="mask15_1482_2336" style="mask-type:luminance" maskUnits="userSpaceOnUse" x="151" y="181" width="83" height="150">
<path d="M152.742 284.503C160.845 281.872 168.739 305.911 173.67 312.74C183.031 325.704 186.776 330.873 186.776 330.873C186.776 330.873 239.093 296.174 233.06 251.183C229.035 221.171 198.01 194.252 198.01 194.252C198.01 194.252 184.734 182.434 171.46 181.424C149.195 179.73 144.649 211.564 162.914 222.987C202.339 247.644 203.061 262.784 152.742 284.503Z" fill="white"/>
</mask>
<g mask="url(#mask15_1482_2336)">
<path d="M164.416 300.669C164.294 300.669 164.175 300.63 164.077 300.556C163.979 300.483 163.907 300.38 163.873 300.263C163.839 300.145 163.843 300.02 163.886 299.906C163.929 299.791 164.008 299.694 164.111 299.628C176.143 291.968 189.784 282.773 199.734 272.655C210.024 262.192 214.819 252.283 214.394 242.36C214.145 236.522 212.358 230.746 209.086 225.192C206.457 220.731 202.869 216.401 198.421 212.322C190.826 205.357 183.26 201.496 183.185 201.458C183.118 201.425 183.058 201.379 183.008 201.323C182.959 201.267 182.921 201.201 182.897 201.13C182.873 201.059 182.864 200.984 182.869 200.91C182.875 200.835 182.895 200.762 182.929 200.695C182.963 200.629 183.009 200.569 183.066 200.521C183.123 200.472 183.19 200.436 183.261 200.413C183.332 200.39 183.407 200.381 183.482 200.388C183.557 200.394 183.629 200.415 183.696 200.45C183.772 200.489 191.456 204.407 199.165 211.47C203.701 215.626 207.363 220.045 210.052 224.605C213.426 230.325 215.267 236.282 215.525 242.312C215.964 252.564 211.063 262.749 200.542 273.447C190.512 283.646 176.805 292.886 164.72 300.581C164.626 300.641 164.52 300.669 164.416 300.669Z" fill="white"/>
</g>
<path d="M112.482 359.747C109.565 358.583 105.277 354.148 102.671 344.831L90.2626 299.85C98.1303 297.997 109.538 296.621 122.167 293.508C122.707 296.978 121.039 297.585 121.056 302.454C121.076 308.094 125.26 312.8 124.514 327.023C124.502 327.243 124.517 327.46 124.519 327.677C124.519 327.738 124.52 327.797 124.52 327.857C124.524 331.981 124.136 335.653 123.498 338.903C120.739 352.929 113.306 359.098 112.546 359.699C112.546 359.699 112.547 359.701 112.545 359.701C112.528 359.715 112.513 359.725 112.502 359.733L112.482 359.747Z" fill="white"/>
<path d="M112.474 360.31C112.405 360.31 112.337 360.297 112.272 360.272C109.078 358.996 104.735 354.31 102.126 344.983L89.7177 300C89.6975 299.926 89.6923 299.85 89.7024 299.775C89.7125 299.699 89.7377 299.627 89.7765 299.561C89.8153 299.496 89.8669 299.439 89.9282 299.394C89.9895 299.349 90.0592 299.317 90.1333 299.3C93.6256 298.477 98.3347 297.626 103.32 296.724C109.776 295.557 116.451 294.35 122.03 292.96C122.103 292.942 122.179 292.938 122.254 292.949C122.328 292.961 122.4 292.987 122.464 293.027C122.528 293.066 122.584 293.118 122.627 293.179C122.671 293.24 122.702 293.31 122.719 293.383C123.196 295.489 122.735 297.191 122.289 298.836C121.895 300.292 121.487 301.798 121.651 303.712C121.806 305.514 122.308 307.099 122.889 308.933C124.089 312.727 125.583 317.448 125.079 327.052C125.073 327.176 125.076 327.305 125.08 327.443C125.082 327.52 125.084 327.596 125.085 327.673L125.086 327.858C125.09 331.746 124.743 335.499 124.053 339.012C121.291 353.052 113.872 359.364 112.921 360.123C112.912 360.131 112.902 360.139 112.893 360.146C112.872 360.162 112.854 360.176 112.838 360.187C112.734 360.266 112.606 360.309 112.474 360.31ZM90.9645 300.267L103.216 344.681C104.744 350.142 108.046 357.109 112.393 359.095C113.812 357.902 120.389 351.778 122.943 338.795C123.618 335.354 123.959 331.674 123.954 327.857L123.953 327.679C123.953 327.612 123.951 327.543 123.949 327.474C123.945 327.321 123.94 327.162 123.949 326.993C124.443 317.593 122.983 312.98 121.81 309.274C121.209 307.375 120.69 305.736 120.524 303.809C120.342 301.696 120.796 300.02 121.197 298.542C121.597 297.065 121.949 295.768 121.721 294.199C116.209 295.541 109.482 296.758 103.522 297.836C98.8196 298.686 94.3643 299.492 90.9645 300.267Z" fill="#232323"/>
<path d="M118.97 311.168C118.856 311.168 118.744 311.134 118.65 311.069C118.556 311.005 118.484 310.914 118.442 310.808C117.082 307.316 115.723 306.229 112.745 303.846C112.364 303.543 111.985 303.238 111.607 302.932C108.249 300.21 107.3 297.259 107.261 297.135C107.217 296.992 107.231 296.837 107.3 296.705C107.37 296.572 107.489 296.472 107.633 296.428C107.776 296.383 107.931 296.397 108.064 296.466C108.197 296.536 108.297 296.655 108.341 296.798C108.35 296.826 109.244 299.561 112.32 302.055C112.72 302.38 113.097 302.681 113.452 302.965C116.498 305.402 118.027 306.624 119.497 310.399C119.53 310.484 119.542 310.577 119.532 310.668C119.521 310.759 119.488 310.846 119.437 310.922C119.385 310.998 119.315 311.06 119.234 311.103C119.152 311.146 119.062 311.168 118.97 311.168ZM114.637 358.255C114.507 358.255 114.381 358.21 114.28 358.128C109.537 354.266 106.47 348.997 105.163 342.468C104.315 338.227 104.219 333.439 104.88 328.238C105.277 325.115 104.528 323.533 103.735 321.857C103.071 320.452 102.384 319 102.475 316.706C102.547 314.909 103.112 313.589 103.659 312.312C104.369 310.654 105.04 309.087 104.621 306.482C103.847 301.683 99.7533 299.032 99.712 299.006C99.6489 298.966 99.5942 298.914 99.5511 298.854C99.508 298.793 99.4774 298.724 99.461 298.652C99.4446 298.579 99.4427 298.504 99.4555 298.431C99.4683 298.357 99.4955 298.287 99.5356 298.224C99.5756 298.161 99.6277 298.107 99.6888 298.065C99.7499 298.022 99.8189 297.992 99.8917 297.976C99.9645 297.96 100.04 297.958 100.113 297.972C100.187 297.985 100.257 298.012 100.319 298.053C100.505 298.171 104.885 301.008 105.738 306.303C106.209 309.231 105.441 311.023 104.699 312.756C104.169 313.993 103.669 315.161 103.606 316.75C103.525 318.768 104.124 320.034 104.758 321.374C105.547 323.041 106.441 324.931 106.002 328.379C105.357 333.459 105.448 338.125 106.273 342.246C107.527 348.512 110.461 353.561 114.995 357.252C115.085 357.326 115.151 357.426 115.182 357.538C115.214 357.651 115.21 357.77 115.17 357.88C115.131 357.99 115.059 358.085 114.963 358.152C114.868 358.219 114.754 358.255 114.637 358.255Z" fill="#232323"/>
<path d="M99.5102 312.525C101.111 312.079 101.79 309.505 101.026 306.777C100.263 304.048 98.3468 302.198 96.7461 302.644C95.1455 303.091 94.4667 305.665 95.2299 308.393C95.9932 311.122 97.9096 312.972 99.5102 312.525Z" fill="#1C5AF6"/>
<path d="M124.902 330.829C124.667 330.829 124.437 330.771 124.23 330.66C124.024 330.549 123.848 330.389 123.72 330.193C119.597 323.948 113.862 323.036 113.62 323C112.85 322.886 112.314 322.172 112.425 321.402C112.535 320.633 113.246 320.097 114.017 320.204C114.309 320.245 121.227 321.285 126.081 328.64C126.287 328.952 126.361 329.334 126.285 329.701C126.21 330.068 125.991 330.389 125.678 330.595C125.448 330.748 125.178 330.829 124.902 330.829ZM124.121 337.491C123.867 337.491 123.617 337.423 123.399 337.294C123.18 337.165 123.001 336.979 122.879 336.757C119.44 330.484 113.023 329.096 112.959 329.083C112.196 328.925 111.702 328.18 111.857 327.418C112.012 326.656 112.755 326.162 113.518 326.315C113.833 326.377 121.269 327.94 125.36 335.401C125.54 335.729 125.582 336.115 125.477 336.475C125.371 336.834 125.127 337.137 124.798 337.317C124.591 337.431 124.358 337.491 124.121 337.491ZM122.793 343.644C122.537 343.644 122.285 343.574 122.064 343.442C121.844 343.31 121.664 343.121 121.544 342.894C118.531 337.239 113.061 335.914 113.006 335.901C112.248 335.725 111.771 334.969 111.945 334.211C112.118 333.453 112.872 332.977 113.63 333.147C113.905 333.209 120.399 334.732 124.041 341.568C124.217 341.899 124.254 342.286 124.144 342.644C124.035 343.002 123.787 343.302 123.456 343.478C123.252 343.587 123.025 343.643 122.793 343.644Z" fill="#1C5AF6"/>
<path d="M166.022 117.18C166.022 117.18 161.624 109.71 148.783 109.741C133.134 109.78 119.37 100.517 113.903 89.4783C114.554 91.6164 116.641 104.187 107.012 117.406C99.4704 127.76 97.3965 135.384 96.6423 140.843C113.903 149.085 144.069 149.906 144.069 149.906C144.069 149.906 135.463 170.686 122.559 192.816C128.176 184.631 142.939 185.234 167.04 190.392C196.796 196.758 212.888 192.665 212.888 192.665C212.888 192.665 210.763 187.057 207.271 170.08C204.213 156.683 201.385 147.835 201.385 147.835C201.385 147.835 232.768 145.267 253.13 133.407C251.622 125.501 242.572 119.289 236.915 110.065C229.514 97.9948 232.871 88.9136 232.871 88.9136C232.871 88.9136 226.568 103.208 209.389 107.053C198.453 109.5 193.928 111.006 190.723 118.391C187.907 125.306 172.114 125.306 166.022 117.18Z" fill="white"/>
<path d="M198.123 194.523C190.923 194.523 180.332 193.813 166.922 190.944C153.899 188.157 144.674 186.956 137.886 187.164C130.487 187.392 125.627 189.345 123.026 193.135C122.943 193.255 122.817 193.339 122.673 193.368C122.53 193.397 122.381 193.37 122.257 193.292C122.134 193.214 122.045 193.091 122.01 192.95C121.976 192.808 121.997 192.658 122.07 192.532C133.444 173.025 141.561 154.36 143.23 150.44C141.01 150.348 134.542 150.017 126.757 149.025C117.866 147.893 105.383 145.642 96.3983 141.352C96.2901 141.301 96.2011 141.216 96.1443 141.111C96.0874 141.005 96.0656 140.884 96.082 140.766C96.7635 135.831 98.5908 128.007 106.555 117.074C116.953 102.798 113.401 89.7699 113.362 89.6425C113.32 89.5068 113.332 89.3605 113.393 89.2327C113.455 89.105 113.562 89.005 113.695 88.9528C113.827 88.9006 113.974 88.8999 114.106 88.9509C114.239 89.0018 114.347 89.1008 114.41 89.2279C117.111 94.6815 121.873 99.6723 127.819 103.281C134.174 107.139 141.388 109.177 148.686 109.177L148.858 109.177C152.598 109.177 157.979 109.842 162.539 112.984C165.161 114.79 166.33 116.6 166.492 116.864C170.232 121.829 177.443 123.382 182.571 122.722C186.446 122.224 189.227 120.568 190.2 118.178C193.455 110.678 198.013 109.02 209.265 106.502C217.997 104.548 223.813 99.799 227.156 96.1596C230.774 92.2198 232.338 88.7208 232.353 88.686C232.413 88.5519 232.522 88.4461 232.658 88.391C232.794 88.3359 232.947 88.3358 233.083 88.3908C233.219 88.4457 233.328 88.5514 233.388 88.6854C233.447 88.8194 233.452 88.9713 233.402 89.109C233.394 89.1302 232.592 91.3662 232.685 95.0124C232.77 98.3777 233.657 103.67 237.398 109.77C239.638 113.423 242.399 116.578 245.068 119.629C249.02 124.146 252.753 128.411 253.686 133.302C253.707 133.416 253.693 133.535 253.645 133.641C253.596 133.748 253.516 133.836 253.415 133.895C242.83 140.06 229.257 143.675 219.735 145.622C211.192 147.368 204.289 148.123 202.132 148.333C202.843 150.644 205.266 158.756 207.823 169.955C211.262 186.676 213.396 192.41 213.418 192.466C213.446 192.54 213.458 192.62 213.453 192.699C213.448 192.778 213.426 192.856 213.39 192.926C213.353 192.997 213.302 193.059 213.239 193.108C213.177 193.157 213.105 193.193 213.028 193.213C212.861 193.255 208.856 194.254 201.139 194.481C200.212 194.507 199.205 194.523 198.123 194.523ZM139.507 186.003C147.007 186.003 156.365 187.529 167.159 189.839C175.613 191.648 188.365 193.725 201.106 193.351C207.019 193.177 210.759 192.533 212.144 192.251C211.52 190.399 209.589 184.157 206.717 170.193C203.703 156.988 200.875 148.094 200.846 148.006C200.82 147.925 200.813 147.84 200.825 147.755C200.837 147.671 200.868 147.591 200.915 147.52C200.963 147.45 201.025 147.391 201.099 147.348C201.172 147.305 201.254 147.279 201.339 147.272C201.649 147.246 232.467 144.607 252.493 133.122C251.492 128.687 247.955 124.644 244.216 120.372C241.516 117.286 238.723 114.094 236.433 110.359C234.287 106.858 231.697 101.348 231.552 94.9753C231.529 93.9422 231.572 93.0191 231.649 92.2199C230.788 93.5445 229.584 95.1864 227.989 96.9228C224.538 100.681 218.53 105.585 209.513 107.604C198.444 110.081 194.298 111.576 191.243 118.615C190.116 121.381 187.006 123.29 182.715 123.843C177.266 124.544 169.577 122.864 165.57 117.519C165.557 117.502 165.546 117.485 165.535 117.467C165.508 117.422 164.416 115.635 161.841 113.876C159.445 112.239 155.241 110.293 148.784 110.306C141.238 110.322 133.793 108.229 127.231 104.246C122.141 101.157 117.888 97.075 114.992 92.5462C115.155 94.3411 115.191 96.6837 114.874 99.353C114.101 105.868 111.61 112.054 107.47 117.738C99.8737 128.167 97.9722 135.677 97.2613 140.51C106.078 144.62 118.208 146.797 126.889 147.903C136.451 149.122 144.01 149.339 144.085 149.341C144.176 149.344 144.266 149.368 144.346 149.413C144.426 149.458 144.494 149.521 144.544 149.598C144.594 149.675 144.624 149.763 144.633 149.854C144.641 149.945 144.627 150.037 144.592 150.122C144.511 150.318 136.779 168.896 125.176 189.396C128.586 187.002 133.439 186.003 139.507 186.003Z" fill="#232323"/>
<mask id="mask16_1482_2336" style="mask-type:luminance" maskUnits="userSpaceOnUse" x="90" y="84" width="170" height="110">
<path d="M168.01 119.688C168.01 119.688 167.223 107.493 148.406 110.373C128.412 113.434 116.354 101.902 113.337 89.6662C114.091 91.5487 115.676 101.841 101.836 115.833C93.4028 124.358 91.0896 132.022 90.3354 137.481C109.378 147.27 144.069 149.905 144.069 149.905C144.069 149.905 135.463 170.685 122.559 192.816C128.176 184.63 142.939 185.234 167.041 190.391C196.796 196.758 212.888 192.665 212.888 192.665C212.888 192.665 210.763 187.057 207.271 170.08C204.213 156.682 201.385 147.835 201.385 147.835C201.385 147.835 234.191 146.14 259.644 125.998C258.135 118.092 245.503 111.879 239.847 102.655C232.446 90.5854 236.265 84.207 236.265 84.207C236.265 84.207 228.723 103.597 211.378 106.608C198.68 108.813 194.975 110.562 190.723 118.391C188.713 123.283 174.141 124.321 168.01 119.688Z" fill="white"/>
</mask>
<g mask="url(#mask16_1482_2336)">
<path d="M203.182 153.884C203.063 153.884 202.947 153.846 202.85 153.776C202.754 153.706 202.682 153.608 202.645 153.494C200.552 147.098 198.979 142.413 198.963 142.367C198.916 142.225 198.926 142.07 198.993 141.935C199.06 141.801 199.177 141.699 199.32 141.652C199.462 141.604 199.617 141.615 199.752 141.681C199.886 141.748 199.988 141.865 200.036 142.008C200.052 142.054 201.626 146.743 203.72 153.143C203.748 153.228 203.755 153.319 203.742 153.407C203.728 153.495 203.693 153.579 203.641 153.651C203.588 153.723 203.519 153.782 203.44 153.822C203.36 153.863 203.272 153.884 203.182 153.884ZM126.06 153.753C124.31 153.753 122.56 153.662 120.819 153.479C120.745 153.471 120.674 153.449 120.609 153.413C120.543 153.378 120.486 153.33 120.439 153.272C120.345 153.156 120.3 153.007 120.316 152.858C120.332 152.709 120.406 152.572 120.523 152.478C120.639 152.384 120.789 152.34 120.938 152.355C131.629 153.48 140.621 150.855 146.282 148.454C153.12 145.554 158.884 141.334 161.7 137.165C161.784 137.041 161.913 136.955 162.061 136.926C162.208 136.898 162.361 136.929 162.485 137.013C162.609 137.096 162.695 137.226 162.724 137.373C162.753 137.52 162.722 137.672 162.638 137.797C159.704 142.139 153.755 146.512 146.724 149.494C141.891 151.543 134.679 153.753 126.06 153.753Z" fill="#232323"/>
</g>
</g>
<g clip-path="url(#clip1_1482_2336)">
<path d="M187.605 89.8369C185.859 89.2329 183.981 88.3885 182.385 87.3924C180.02 85.9166 178.641 84.3648 178.287 82.7803C178.259 82.6392 178.288 82.4932 178.367 82.3735C178.446 82.2539 178.57 82.1701 178.712 82.1402C178.853 82.1103 179.002 82.1365 179.125 82.2133C179.248 82.2902 179.336 82.4114 179.371 82.5512C179.654 83.8178 180.899 85.1709 182.972 86.4641C186.441 88.6289 191.327 89.9976 192.558 89.7101C192.699 89.6817 192.846 89.7089 192.968 89.7859C193.091 89.863 193.178 89.9838 193.212 90.1228C193.246 90.2618 193.225 90.4081 193.152 90.5307C193.079 90.6533 192.96 90.7427 192.821 90.7798C191.897 90.9956 189.86 90.6171 187.605 89.8369ZM175.797 95.2717C173.847 94.5972 172.353 93.4603 171.906 91.6113C171.889 91.541 171.886 91.4682 171.897 91.397C171.909 91.3259 171.934 91.2577 171.972 91.1965C172.049 91.0729 172.173 90.9849 172.316 90.952C172.459 90.9192 172.61 90.944 172.735 91.0211C172.861 91.0983 172.951 91.2213 172.985 91.3633C174.141 96.1418 185.423 95.1843 189.673 94.4125C189.818 94.3863 189.967 94.4181 190.089 94.5009C190.211 94.5836 190.295 94.7106 190.323 94.8539C190.35 94.9972 190.319 95.145 190.237 95.265C190.154 95.3849 190.026 95.467 189.882 95.4934C189.397 95.5812 180.985 97.0663 175.797 95.2717Z" fill="#232323"/>
<path d="M198.373 87.3073C202.933 85.8892 208.427 83.2286 208.427 83.2286C208.427 83.2286 213.496 94.685 206.053 101.233C200.869 105.795 189.045 103.726 186.198 95.9848C184.616 91.6827 187.405 90.7183 198.373 87.3073Z" fill="white"/>
<path d="M193.439 103.273C189.669 101.969 186.876 99.4317 185.677 96.169C185.123 94.6625 185.088 93.5629 185.563 92.6032C186.628 90.4553 189.999 89.3344 198.202 86.783C202.669 85.3938 208.126 82.761 208.18 82.7346C208.247 82.7013 208.321 82.6822 208.396 82.6785C208.471 82.6749 208.546 82.6868 208.616 82.7134C208.759 82.7657 208.874 82.8733 208.935 83.0113C208.989 83.1316 210.243 86.0007 210.584 89.7299C211.041 94.728 209.603 98.8484 206.424 101.646C203.748 104 199.171 104.794 194.763 103.669C194.316 103.556 193.874 103.423 193.439 103.273ZM198.543 87.8316C191.058 90.1595 187.422 91.3555 186.561 93.0934C186.228 93.7637 186.277 94.5984 186.719 95.8004C187.927 99.0848 190.956 101.564 195.032 102.605C199.092 103.642 203.273 102.942 205.682 100.822C211.843 95.4013 208.984 86.2746 208.13 83.9801C206.622 84.6865 202.255 86.6771 198.543 87.8316Z" fill="#232323"/>
</g>
<defs>
<clipPath id="clip0_1482_2336">
<rect width="214.229" height="369.133" fill="white" transform="translate(64.7153 19.1001)"/>
</clipPath>
<clipPath id="clip1_1482_2336">
<rect width="37.5725" height="24.3892" fill="white" transform="translate(178.496 72.2949) rotate(19.0803)"/>
</clipPath>
</defs>
</svg>
